<?xml version="1.0" standalone="no"?>
 <!DOCTYPE svg PUBLIC "-//W3C//DTD SVG 1.1//EN" 
 "http://www.w3.org/Graphics/SVG/1.1/DTD/svg11.dtd"> 
<svg
  xmlns:svg="http://www.w3.org/2000/svg"
  xmlns="http://www.w3.org/2000/svg"
  xmlns:xlink="http://www.w3.org/1999/xlink"
  version="1.1"
  width="41.998900cm" height="29.700220cm" viewBox="0 0 165350 116930">
<title>SVG Picture created as jtnk66w-Edge_Cuts.svg date 2023/11/04 09:30:23 </title>
  <desc>Picture generated by PCBNEW </desc>
<g style="fill:#000000; fill-opacity:1;stroke:#000000; stroke-opacity:1;
stroke-linecap:round; stroke-linejoin:round;"
 transform="translate(0 0) scale(1 1)">
</g>
<g style="fill:#000000; fill-opacity:0.0; 
stroke:#000000; stroke-width:-0.000393701; stroke-opacity:1; 
stroke-linecap:round; stroke-linejoin:round;">
</g>
<g style="fill:#000000; fill-opacity:0.0; 
stroke:#000000; stroke-width:39.3701; stroke-opacity:1; 
stroke-linecap:round; stroke-linejoin:round;">
</g>
<g style="fill:#000000; fill-opacity:0.0; 
stroke:#000000; stroke-width:59.0551; stroke-opacity:1; 
stroke-linecap:round; stroke-linejoin:round;">
<rect x="118106" y="99607.2" width="42519.7" height="12598.4" rx="0" />
</g>
<g style="fill:#000000; fill-opacity:0.0; 
stroke:#000000; stroke-width:39.3701; stroke-opacity:1; 
stroke-linecap:round; stroke-linejoin:round;">
</g>
<g style="fill:#000000; fill-opacity:0.0; 
stroke:#000000; stroke-width:59.0551; stroke-opacity:1; 
stroke-linecap:round; stroke-linejoin:round;">
<rect x="3937.01" y="3937.01" width="157476" height="109056" rx="0" />
</g>
<g style="fill:#000000; fill-opacity:0.0; 
stroke:#000000; stroke-width:39.3701; stroke-opacity:1; 
stroke-linecap:round; stroke-linejoin:round;">
</g>
<g style="fill:#000000; fill-opacity:0.0; 
stroke:#000000; stroke-width:59.0551; stroke-opacity:1; 
stroke-linecap:round; stroke-linejoin:round;">
<rect x="4724.41" y="4724.41" width="155901" height="107481" rx="0" />
</g>
<g style="fill:#000000; fill-opacity:0.0; 
stroke:#000000; stroke-width:39.3701; stroke-opacity:1; 
stroke-linecap:round; stroke-linejoin:round;">
</g>
<g style="fill:#000000; fill-opacity:0.0; 
stroke:#000000; stroke-width:59.0551; stroke-opacity:1; 
stroke-linecap:round; stroke-linejoin:round;">
<path d="M23622 4724
L23622 3937
" />
</g>
<g style="fill:#000000; fill-opacity:0.0; 
stroke:#000000; stroke-width:39.3701; stroke-opacity:1; 
stroke-linecap:round; stroke-linejoin:round;">
</g>
<g style="fill:#000000; fill-opacity:0.0; 
stroke:#000000; stroke-width:59.0551; stroke-opacity:1; 
stroke-linecap:round; stroke-linejoin:round;">
<path d="M43307 4724
L43307 3937
" />
</g>
<g style="fill:#000000; fill-opacity:0.0; 
stroke:#000000; stroke-width:39.3701; stroke-opacity:1; 
stroke-linecap:round; stroke-linejoin:round;">
</g>
<g style="fill:#000000; fill-opacity:0.0; 
stroke:#000000; stroke-width:59.0551; stroke-opacity:1; 
stroke-linecap:round; stroke-linejoin:round;">
<path d="M62992 4724
L62992 3937
" />
</g>
<g style="fill:#000000; fill-opacity:0.0; 
stroke:#000000; stroke-width:39.3701; stroke-opacity:1; 
stroke-linecap:round; stroke-linejoin:round;">
</g>
<g style="fill:#000000; fill-opacity:0.0; 
stroke:#000000; stroke-width:59.0551; stroke-opacity:1; 
stroke-linecap:round; stroke-linejoin:round;">
<path d="M82677 4724
L82677 3937
" />
</g>
<g style="fill:#000000; fill-opacity:0.0; 
stroke:#000000; stroke-width:39.3701; stroke-opacity:1; 
stroke-linecap:round; stroke-linejoin:round;">
</g>
<g style="fill:#000000; fill-opacity:0.0; 
stroke:#000000; stroke-width:59.0551; stroke-opacity:1; 
stroke-linecap:round; stroke-linejoin:round;">
<path d="M102362 4724
L102362 3937
" />
</g>
<g style="fill:#000000; fill-opacity:0.0; 
stroke:#000000; stroke-width:39.3701; stroke-opacity:1; 
stroke-linecap:round; stroke-linejoin:round;">
</g>
<g style="fill:#000000; fill-opacity:0.0; 
stroke:#000000; stroke-width:59.0551; stroke-opacity:1; 
stroke-linecap:round; stroke-linejoin:round;">
<path d="M122047 4724
L122047 3937
" />
</g>
<g style="fill:#000000; fill-opacity:0.0; 
stroke:#000000; stroke-width:39.3701; stroke-opacity:1; 
stroke-linecap:round; stroke-linejoin:round;">
</g>
<g style="fill:#000000; fill-opacity:0.0; 
stroke:#000000; stroke-width:59.0551; stroke-opacity:1; 
stroke-linecap:round; stroke-linejoin:round;">
<path d="M141732 4724
L141732 3937
" />
</g>
<g style="fill:#000000; fill-opacity:0.0; 
stroke:#000000; stroke-width:39.3701; stroke-opacity:1; 
stroke-linecap:round; stroke-linejoin:round;">
</g>
<g style="fill:#000000; fill-opacity:0.0; 
stroke:#000000; stroke-width:59.0551; stroke-opacity:1; 
stroke-linecap:round; stroke-linejoin:round;">
<text x="13779.5" y="4586.61"
textLength="487.439" font-size="682.415" lengthAdjust="spacingAndGlyphs"
text-anchor="start" opacity="0">1</text>
<path d="M14199 4562
L13906 4562
" />
<path d="M14052 4562
L14052 4050
L14004 4123
L13955 4172
L13906 4196
" />
</g>
<g style="fill:#000000; fill-opacity:0.0; 
stroke:#000000; stroke-width:39.3701; stroke-opacity:1; 
stroke-linecap:round; stroke-linejoin:round;">
</g>
<g style="fill:#000000; fill-opacity:0.0; 
stroke:#000000; stroke-width:59.0551; stroke-opacity:1; 
stroke-linecap:round; stroke-linejoin:round;">
<text x="33464.6" y="4586.61"
textLength="546.494" font-size="682.415" lengthAdjust="spacingAndGlyphs"
text-anchor="start" opacity="0">2</text>
<path d="M33591 4099
L33615 4074
L33664 4050
L33786 4050
L33835 4074
L33859 4099
L33884 4147
L33884 4196
L33859 4269
L33567 4562
L33884 4562
" />
</g>
<g style="fill:#000000; fill-opacity:0.0; 
stroke:#000000; stroke-width:39.3701; stroke-opacity:1; 
stroke-linecap:round; stroke-linejoin:round;">
</g>
<g style="fill:#000000; fill-opacity:0.0; 
stroke:#000000; stroke-width:59.0551; stroke-opacity:1; 
stroke-linecap:round; stroke-linejoin:round;">
<text x="53149.6" y="4586.61"
textLength="546.494" font-size="682.415" lengthAdjust="spacingAndGlyphs"
text-anchor="start" opacity="0">3</text>
<path d="M53252 4050
L53569 4050
L53398 4245
L53471 4245
L53520 4269
L53544 4294
L53569 4342
L53569 4464
L53544 4513
L53520 4537
L53471 4562
L53325 4562
L53276 4537
L53252 4513
" />
</g>
<g style="fill:#000000; fill-opacity:0.0; 
stroke:#000000; stroke-width:39.3701; stroke-opacity:1; 
stroke-linecap:round; stroke-linejoin:round;">
</g>
<g style="fill:#000000; fill-opacity:0.0; 
stroke:#000000; stroke-width:59.0551; stroke-opacity:1; 
stroke-linecap:round; stroke-linejoin:round;">
<text x="72834.6" y="4586.61"
textLength="546.494" font-size="682.415" lengthAdjust="spacingAndGlyphs"
text-anchor="start" opacity="0">4</text>
<path d="M73205 4221
L73205 4562
" />
<path d="M73083 4026
L72961 4391
L73278 4391
" />
</g>
<g style="fill:#000000; fill-opacity:0.0; 
stroke:#000000; stroke-width:39.3701; stroke-opacity:1; 
stroke-linecap:round; stroke-linejoin:round;">
</g>
<g style="fill:#000000; fill-opacity:0.0; 
stroke:#000000; stroke-width:59.0551; stroke-opacity:1; 
stroke-linecap:round; stroke-linejoin:round;">
<text x="92519.7" y="4586.61"
textLength="546.494" font-size="682.415" lengthAdjust="spacingAndGlyphs"
text-anchor="start" opacity="0">5</text>
<path d="M92914 4050
L92671 4050
L92646 4294
L92671 4269
L92719 4245
L92841 4245
L92890 4269
L92914 4294
L92939 4342
L92939 4464
L92914 4513
L92890 4537
L92841 4562
L92719 4562
L92671 4537
L92646 4513
" />
</g>
<g style="fill:#000000; fill-opacity:0.0; 
stroke:#000000; stroke-width:39.3701; stroke-opacity:1; 
stroke-linecap:round; stroke-linejoin:round;">
</g>
<g style="fill:#000000; fill-opacity:0.0; 
stroke:#000000; stroke-width:59.0551; stroke-opacity:1; 
stroke-linecap:round; stroke-linejoin:round;">
<text x="112205" y="4586.61"
textLength="546.494" font-size="682.415" lengthAdjust="spacingAndGlyphs"
text-anchor="start" opacity="0">6</text>
<path d="M112575 4050
L112477 4050
L112429 4074
L112404 4099
L112356 4172
L112331 4269
L112331 4464
L112356 4513
L112380 4537
L112429 4562
L112526 4562
L112575 4537
L112599 4513
L112624 4464
L112624 4342
L112599 4294
L112575 4269
L112526 4245
L112429 4245
L112380 4269
L112356 4294
L112331 4342
" />
</g>
<g style="fill:#000000; fill-opacity:0.0; 
stroke:#000000; stroke-width:39.3701; stroke-opacity:1; 
stroke-linecap:round; stroke-linejoin:round;">
</g>
<g style="fill:#000000; fill-opacity:0.0; 
stroke:#000000; stroke-width:59.0551; stroke-opacity:1; 
stroke-linecap:round; stroke-linejoin:round;">
<text x="131890" y="4586.61"
textLength="546.494" font-size="682.415" lengthAdjust="spacingAndGlyphs"
text-anchor="start" opacity="0">7</text>
<path d="M131992 4050
L132333 4050
L132114 4562
" />
</g>
<g style="fill:#000000; fill-opacity:0.0; 
stroke:#000000; stroke-width:39.3701; stroke-opacity:1; 
stroke-linecap:round; stroke-linejoin:round;">
</g>
<g style="fill:#000000; fill-opacity:0.0; 
stroke:#000000; stroke-width:59.0551; stroke-opacity:1; 
stroke-linecap:round; stroke-linejoin:round;">
<text x="151575" y="4586.61"
textLength="546.494" font-size="682.415" lengthAdjust="spacingAndGlyphs"
text-anchor="start" opacity="0">8</text>
<path d="M151799 4269
L151750 4245
L151726 4221
L151701 4172
L151701 4147
L151726 4099
L151750 4074
L151799 4050
L151896 4050
L151945 4074
L151969 4099
L151994 4147
L151994 4172
L151969 4221
L151945 4245
L151896 4269
L151799 4269
L151750 4294
L151726 4318
L151701 4367
L151701 4464
L151726 4513
L151750 4537
L151799 4562
L151896 4562
L151945 4537
L151969 4513
L151994 4464
L151994 4367
L151969 4318
L151945 4294
L151896 4269
" />
</g>
<g style="fill:#000000; fill-opacity:0.0; 
stroke:#000000; stroke-width:39.3701; stroke-opacity:1; 
stroke-linecap:round; stroke-linejoin:round;">
</g>
<g style="fill:#000000; fill-opacity:0.0; 
stroke:#000000; stroke-width:59.0551; stroke-opacity:1; 
stroke-linecap:round; stroke-linejoin:round;">
<path d="M23622 112205
L23622 112992
" />
</g>
<g style="fill:#000000; fill-opacity:0.0; 
stroke:#000000; stroke-width:39.3701; stroke-opacity:1; 
stroke-linecap:round; stroke-linejoin:round;">
</g>
<g style="fill:#000000; fill-opacity:0.0; 
stroke:#000000; stroke-width:59.0551; stroke-opacity:1; 
stroke-linecap:round; stroke-linejoin:round;">
<path d="M43307 112205
L43307 112992
" />
</g>
<g style="fill:#000000; fill-opacity:0.0; 
stroke:#000000; stroke-width:39.3701; stroke-opacity:1; 
stroke-linecap:round; stroke-linejoin:round;">
</g>
<g style="fill:#000000; fill-opacity:0.0; 
stroke:#000000; stroke-width:59.0551; stroke-opacity:1; 
stroke-linecap:round; stroke-linejoin:round;">
<path d="M62992 112205
L62992 112992
" />
</g>
<g style="fill:#000000; fill-opacity:0.0; 
stroke:#000000; stroke-width:39.3701; stroke-opacity:1; 
stroke-linecap:round; stroke-linejoin:round;">
</g>
<g style="fill:#000000; fill-opacity:0.0; 
stroke:#000000; stroke-width:59.0551; stroke-opacity:1; 
stroke-linecap:round; stroke-linejoin:round;">
<path d="M82677 112205
L82677 112992
" />
</g>
<g style="fill:#000000; fill-opacity:0.0; 
stroke:#000000; stroke-width:39.3701; stroke-opacity:1; 
stroke-linecap:round; stroke-linejoin:round;">
</g>
<g style="fill:#000000; fill-opacity:0.0; 
stroke:#000000; stroke-width:59.0551; stroke-opacity:1; 
stroke-linecap:round; stroke-linejoin:round;">
<path d="M102362 112205
L102362 112992
" />
</g>
<g style="fill:#000000; fill-opacity:0.0; 
stroke:#000000; stroke-width:39.3701; stroke-opacity:1; 
stroke-linecap:round; stroke-linejoin:round;">
</g>
<g style="fill:#000000; fill-opacity:0.0; 
stroke:#000000; stroke-width:59.0551; stroke-opacity:1; 
stroke-linecap:round; stroke-linejoin:round;">
<path d="M122047 112205
L122047 112992
" />
</g>
<g style="fill:#000000; fill-opacity:0.0; 
stroke:#000000; stroke-width:39.3701; stroke-opacity:1; 
stroke-linecap:round; stroke-linejoin:round;">
</g>
<g style="fill:#000000; fill-opacity:0.0; 
stroke:#000000; stroke-width:59.0551; stroke-opacity:1; 
stroke-linecap:round; stroke-linejoin:round;">
<path d="M141732 112205
L141732 112992
" />
</g>
<g style="fill:#000000; fill-opacity:0.0; 
stroke:#000000; stroke-width:39.3701; stroke-opacity:1; 
stroke-linecap:round; stroke-linejoin:round;">
</g>
<g style="fill:#000000; fill-opacity:0.0; 
stroke:#000000; stroke-width:59.0551; stroke-opacity:1; 
stroke-linecap:round; stroke-linejoin:round;">
<text x="13779.5" y="112855"
textLength="546.494" font-size="682.415" lengthAdjust="spacingAndGlyphs"
text-anchor="start" opacity="0">1</text>
<path d="M14199 112830
L13906 112830
" />
<path d="M14052 112830
L14052 112319
L14004 112392
L13955 112440
L13906 112465
" />
</g>
<g style="fill:#000000; fill-opacity:0.0; 
stroke:#000000; stroke-width:39.3701; stroke-opacity:1; 
stroke-linecap:round; stroke-linejoin:round;">
</g>
<g style="fill:#000000; fill-opacity:0.0; 
stroke:#000000; stroke-width:59.0551; stroke-opacity:1; 
stroke-linecap:round; stroke-linejoin:round;">
<text x="33464.6" y="112855"
textLength="546.494" font-size="682.415" lengthAdjust="spacingAndGlyphs"
text-anchor="start" opacity="0">2</text>
<path d="M33591 112367
L33615 112343
L33664 112319
L33786 112319
L33835 112343
L33859 112367
L33884 112416
L33884 112465
L33859 112538
L33567 112830
L33884 112830
" />
</g>
<g style="fill:#000000; fill-opacity:0.0; 
stroke:#000000; stroke-width:39.3701; stroke-opacity:1; 
stroke-linecap:round; stroke-linejoin:round;">
</g>
<g style="fill:#000000; fill-opacity:0.0; 
stroke:#000000; stroke-width:59.0551; stroke-opacity:1; 
stroke-linecap:round; stroke-linejoin:round;">
<text x="53149.6" y="112855"
textLength="546.494" font-size="682.415" lengthAdjust="spacingAndGlyphs"
text-anchor="start" opacity="0">3</text>
<path d="M53252 112319
L53569 112319
L53398 112513
L53471 112513
L53520 112538
L53544 112562
L53569 112611
L53569 112733
L53544 112782
L53520 112806
L53471 112830
L53325 112830
L53276 112806
L53252 112782
" />
</g>
<g style="fill:#000000; fill-opacity:0.0; 
stroke:#000000; stroke-width:39.3701; stroke-opacity:1; 
stroke-linecap:round; stroke-linejoin:round;">
</g>
<g style="fill:#000000; fill-opacity:0.0; 
stroke:#000000; stroke-width:59.0551; stroke-opacity:1; 
stroke-linecap:round; stroke-linejoin:round;">
<text x="72834.6" y="112855"
textLength="546.494" font-size="682.415" lengthAdjust="spacingAndGlyphs"
text-anchor="start" opacity="0">4</text>
<path d="M73205 112489
L73205 112830
" />
<path d="M73083 112294
L72961 112660
L73278 112660
" />
</g>
<g style="fill:#000000; fill-opacity:0.0; 
stroke:#000000; stroke-width:39.3701; stroke-opacity:1; 
stroke-linecap:round; stroke-linejoin:round;">
</g>
<g style="fill:#000000; fill-opacity:0.0; 
stroke:#000000; stroke-width:59.0551; stroke-opacity:1; 
stroke-linecap:round; stroke-linejoin:round;">
<text x="92519.7" y="112855"
textLength="546.494" font-size="682.415" lengthAdjust="spacingAndGlyphs"
text-anchor="start" opacity="0">5</text>
<path d="M92914 112319
L92671 112319
L92646 112562
L92671 112538
L92719 112513
L92841 112513
L92890 112538
L92914 112562
L92939 112611
L92939 112733
L92914 112782
L92890 112806
L92841 112830
L92719 112830
L92671 112806
L92646 112782
" />
</g>
<g style="fill:#000000; fill-opacity:0.0; 
stroke:#000000; stroke-width:39.3701; stroke-opacity:1; 
stroke-linecap:round; stroke-linejoin:round;">
</g>
<g style="fill:#000000; fill-opacity:0.0; 
stroke:#000000; stroke-width:59.0551; stroke-opacity:1; 
stroke-linecap:round; stroke-linejoin:round;">
<text x="112205" y="112855"
textLength="546.494" font-size="682.415" lengthAdjust="spacingAndGlyphs"
text-anchor="start" opacity="0">6</text>
<path d="M112575 112319
L112477 112319
L112429 112343
L112404 112367
L112356 112440
L112331 112538
L112331 112733
L112356 112782
L112380 112806
L112429 112830
L112526 112830
L112575 112806
L112599 112782
L112624 112733
L112624 112611
L112599 112562
L112575 112538
L112526 112513
L112429 112513
L112380 112538
L112356 112562
L112331 112611
" />
</g>
<g style="fill:#000000; fill-opacity:0.0; 
stroke:#000000; stroke-width:39.3701; stroke-opacity:1; 
stroke-linecap:round; stroke-linejoin:round;">
</g>
<g style="fill:#000000; fill-opacity:0.0; 
stroke:#000000; stroke-width:59.0551; stroke-opacity:1; 
stroke-linecap:round; stroke-linejoin:round;">
<text x="131890" y="112855"
textLength="546.494" font-size="682.415" lengthAdjust="spacingAndGlyphs"
text-anchor="start" opacity="0">7</text>
<path d="M131992 112319
L132333 112319
L132114 112830
" />
</g>
<g style="fill:#000000; fill-opacity:0.0; 
stroke:#000000; stroke-width:39.3701; stroke-opacity:1; 
stroke-linecap:round; stroke-linejoin:round;">
</g>
<g style="fill:#000000; fill-opacity:0.0; 
stroke:#000000; stroke-width:59.0551; stroke-opacity:1; 
stroke-linecap:round; stroke-linejoin:round;">
<text x="151575" y="112855"
textLength="546.494" font-size="682.415" lengthAdjust="spacingAndGlyphs"
text-anchor="start" opacity="0">8</text>
<path d="M151799 112538
L151750 112513
L151726 112489
L151701 112440
L151701 112416
L151726 112367
L151750 112343
L151799 112319
L151896 112319
L151945 112343
L151969 112367
L151994 112416
L151994 112440
L151969 112489
L151945 112513
L151896 112538
L151799 112538
L151750 112562
L151726 112587
L151701 112635
L151701 112733
L151726 112782
L151750 112806
L151799 112830
L151896 112830
L151945 112806
L151969 112782
L151994 112733
L151994 112635
L151969 112587
L151945 112562
L151896 112538
" />
</g>
<g style="fill:#000000; fill-opacity:0.0; 
stroke:#000000; stroke-width:39.3701; stroke-opacity:1; 
stroke-linecap:round; stroke-linejoin:round;">
</g>
<g style="fill:#000000; fill-opacity:0.0; 
stroke:#000000; stroke-width:59.0551; stroke-opacity:1; 
stroke-linecap:round; stroke-linejoin:round;">
<path d="M3937 23622
L4724 23622
" />
</g>
<g style="fill:#000000; fill-opacity:0.0; 
stroke:#000000; stroke-width:39.3701; stroke-opacity:1; 
stroke-linecap:round; stroke-linejoin:round;">
</g>
<g style="fill:#000000; fill-opacity:0.0; 
stroke:#000000; stroke-width:59.0551; stroke-opacity:1; 
stroke-linecap:round; stroke-linejoin:round;">
<path d="M3937 43307
L4724 43307
" />
</g>
<g style="fill:#000000; fill-opacity:0.0; 
stroke:#000000; stroke-width:39.3701; stroke-opacity:1; 
stroke-linecap:round; stroke-linejoin:round;">
</g>
<g style="fill:#000000; fill-opacity:0.0; 
stroke:#000000; stroke-width:59.0551; stroke-opacity:1; 
stroke-linecap:round; stroke-linejoin:round;">
<path d="M3937 62992
L4724 62992
" />
</g>
<g style="fill:#000000; fill-opacity:0.0; 
stroke:#000000; stroke-width:39.3701; stroke-opacity:1; 
stroke-linecap:round; stroke-linejoin:round;">
</g>
<g style="fill:#000000; fill-opacity:0.0; 
stroke:#000000; stroke-width:59.0551; stroke-opacity:1; 
stroke-linecap:round; stroke-linejoin:round;">
<path d="M3937 82677
L4724 82677
" />
</g>
<g style="fill:#000000; fill-opacity:0.0; 
stroke:#000000; stroke-width:39.3701; stroke-opacity:1; 
stroke-linecap:round; stroke-linejoin:round;">
</g>
<g style="fill:#000000; fill-opacity:0.0; 
stroke:#000000; stroke-width:59.0551; stroke-opacity:1; 
stroke-linecap:round; stroke-linejoin:round;">
<path d="M3937 102362
L4724 102362
" />
</g>
<g style="fill:#000000; fill-opacity:0.0; 
stroke:#000000; stroke-width:39.3701; stroke-opacity:1; 
stroke-linecap:round; stroke-linejoin:round;">
</g>
<g style="fill:#000000; fill-opacity:0.0; 
stroke:#000000; stroke-width:59.0551; stroke-opacity:1; 
stroke-linecap:round; stroke-linejoin:round;">
<text x="4330.71" y="14035.4"
textLength="497.75" font-size="682.415" lengthAdjust="spacingAndGlyphs"
text-anchor="middle" opacity="0">A</text>
<path d="M4208 13864
L4452 13864
" />
<path d="M4160 14011
L4330 13499
L4501 14011
" />
</g>
<g style="fill:#000000; fill-opacity:0.0; 
stroke:#000000; stroke-width:39.3701; stroke-opacity:1; 
stroke-linecap:round; stroke-linejoin:round;">
</g>
<g style="fill:#000000; fill-opacity:0.0; 
stroke:#000000; stroke-width:59.0551; stroke-opacity:1; 
stroke-linecap:round; stroke-linejoin:round;">
<text x="4330.71" y="33720.5"
textLength="570.866" font-size="682.415" lengthAdjust="spacingAndGlyphs"
text-anchor="middle" opacity="0">B</text>
<path d="M4367 33428
L4440 33452
L4464 33476
L4489 33525
L4489 33598
L4464 33647
L4440 33671
L4391 33696
L4196 33696
L4196 33184
L4367 33184
L4416 33208
L4440 33233
L4464 33281
L4464 33330
L4440 33379
L4416 33403
L4367 33428
L4196 33428
" />
</g>
<g style="fill:#000000; fill-opacity:0.0; 
stroke:#000000; stroke-width:39.3701; stroke-opacity:1; 
stroke-linecap:round; stroke-linejoin:round;">
</g>
<g style="fill:#000000; fill-opacity:0.0; 
stroke:#000000; stroke-width:59.0551; stroke-opacity:1; 
stroke-linecap:round; stroke-linejoin:round;">
<text x="4330.71" y="53405.5"
textLength="570.866" font-size="682.415" lengthAdjust="spacingAndGlyphs"
text-anchor="middle" opacity="0">C</text>
<path d="M4489 53332
L4464 53356
L4391 53381
L4342 53381
L4269 53356
L4221 53308
L4196 53259
L4172 53161
L4172 53088
L4196 52991
L4221 52942
L4269 52893
L4342 52869
L4391 52869
L4464 52893
L4489 52918
" />
</g>
<g style="fill:#000000; fill-opacity:0.0; 
stroke:#000000; stroke-width:39.3701; stroke-opacity:1; 
stroke-linecap:round; stroke-linejoin:round;">
</g>
<g style="fill:#000000; fill-opacity:0.0; 
stroke:#000000; stroke-width:59.0551; stroke-opacity:1; 
stroke-linecap:round; stroke-linejoin:round;">
<text x="4330.71" y="73090.6"
textLength="570.866" font-size="682.415" lengthAdjust="spacingAndGlyphs"
text-anchor="middle" opacity="0">D</text>
<path d="M4196 73066
L4196 72554
L4318 72554
L4391 72578
L4440 72627
L4464 72676
L4489 72773
L4489 72846
L4464 72944
L4440 72993
L4391 73041
L4318 73066
L4196 73066
" />
</g>
<g style="fill:#000000; fill-opacity:0.0; 
stroke:#000000; stroke-width:39.3701; stroke-opacity:1; 
stroke-linecap:round; stroke-linejoin:round;">
</g>
<g style="fill:#000000; fill-opacity:0.0; 
stroke:#000000; stroke-width:59.0551; stroke-opacity:1; 
stroke-linecap:round; stroke-linejoin:round;">
<text x="4330.71" y="92775.6"
textLength="522.122" font-size="682.415" lengthAdjust="spacingAndGlyphs"
text-anchor="middle" opacity="0">E</text>
<path d="M4221 92483
L4391 92483
" />
<path d="M4464 92751
L4221 92751
L4221 92239
L4464 92239
" />
</g>
<g style="fill:#000000; fill-opacity:0.0; 
stroke:#000000; stroke-width:39.3701; stroke-opacity:1; 
stroke-linecap:round; stroke-linejoin:round;">
</g>
<g style="fill:#000000; fill-opacity:0.0; 
stroke:#000000; stroke-width:59.0551; stroke-opacity:1; 
stroke-linecap:round; stroke-linejoin:round;">
<text x="4330.71" y="112461"
textLength="497.75" font-size="682.415" lengthAdjust="spacingAndGlyphs"
text-anchor="middle" opacity="0">F</text>
<path d="M4403 112168
L4233 112168
" />
<path d="M4233 112436
L4233 111924
L4476 111924
" />
</g>
<g style="fill:#000000; fill-opacity:0.0; 
stroke:#000000; stroke-width:39.3701; stroke-opacity:1; 
stroke-linecap:round; stroke-linejoin:round;">
</g>
<g style="fill:#000000; fill-opacity:0.0; 
stroke:#000000; stroke-width:59.0551; stroke-opacity:1; 
stroke-linecap:round; stroke-linejoin:round;">
<path d="M161412 23622
L160625 23622
" />
</g>
<g style="fill:#000000; fill-opacity:0.0; 
stroke:#000000; stroke-width:39.3701; stroke-opacity:1; 
stroke-linecap:round; stroke-linejoin:round;">
</g>
<g style="fill:#000000; fill-opacity:0.0; 
stroke:#000000; stroke-width:59.0551; stroke-opacity:1; 
stroke-linecap:round; stroke-linejoin:round;">
<path d="M161412 43307
L160625 43307
" />
</g>
<g style="fill:#000000; fill-opacity:0.0; 
stroke:#000000; stroke-width:39.3701; stroke-opacity:1; 
stroke-linecap:round; stroke-linejoin:round;">
</g>
<g style="fill:#000000; fill-opacity:0.0; 
stroke:#000000; stroke-width:59.0551; stroke-opacity:1; 
stroke-linecap:round; stroke-linejoin:round;">
<path d="M161412 62992
L160625 62992
" />
</g>
<g style="fill:#000000; fill-opacity:0.0; 
stroke:#000000; stroke-width:39.3701; stroke-opacity:1; 
stroke-linecap:round; stroke-linejoin:round;">
</g>
<g style="fill:#000000; fill-opacity:0.0; 
stroke:#000000; stroke-width:59.0551; stroke-opacity:1; 
stroke-linecap:round; stroke-linejoin:round;">
<path d="M161412 82677
L160625 82677
" />
</g>
<g style="fill:#000000; fill-opacity:0.0; 
stroke:#000000; stroke-width:39.3701; stroke-opacity:1; 
stroke-linecap:round; stroke-linejoin:round;">
</g>
<g style="fill:#000000; fill-opacity:0.0; 
stroke:#000000; stroke-width:59.0551; stroke-opacity:1; 
stroke-linecap:round; stroke-linejoin:round;">
<path d="M161412 102362
L160625 102362
" />
</g>
<g style="fill:#000000; fill-opacity:0.0; 
stroke:#000000; stroke-width:39.3701; stroke-opacity:1; 
stroke-linecap:round; stroke-linejoin:round;">
</g>
<g style="fill:#000000; fill-opacity:0.0; 
stroke:#000000; stroke-width:59.0551; stroke-opacity:1; 
stroke-linecap:round; stroke-linejoin:round;">
<text x="161019" y="14035.4"
textLength="497.75" font-size="682.415" lengthAdjust="spacingAndGlyphs"
text-anchor="middle" opacity="0">A</text>
<path d="M160897 13864
L161141 13864
" />
<path d="M160848 14011
L161019 13499
L161189 14011
" />
</g>
<g style="fill:#000000; fill-opacity:0.0; 
stroke:#000000; stroke-width:39.3701; stroke-opacity:1; 
stroke-linecap:round; stroke-linejoin:round;">
</g>
<g style="fill:#000000; fill-opacity:0.0; 
stroke:#000000; stroke-width:59.0551; stroke-opacity:1; 
stroke-linecap:round; stroke-linejoin:round;">
<text x="161019" y="33720.5"
textLength="570.866" font-size="682.415" lengthAdjust="spacingAndGlyphs"
text-anchor="middle" opacity="0">B</text>
<path d="M161055 33428
L161128 33452
L161153 33476
L161177 33525
L161177 33598
L161153 33647
L161128 33671
L161080 33696
L160885 33696
L160885 33184
L161055 33184
L161104 33208
L161128 33233
L161153 33281
L161153 33330
L161128 33379
L161104 33403
L161055 33428
L160885 33428
" />
</g>
<g style="fill:#000000; fill-opacity:0.0; 
stroke:#000000; stroke-width:39.3701; stroke-opacity:1; 
stroke-linecap:round; stroke-linejoin:round;">
</g>
<g style="fill:#000000; fill-opacity:0.0; 
stroke:#000000; stroke-width:59.0551; stroke-opacity:1; 
stroke-linecap:round; stroke-linejoin:round;">
<text x="161019" y="53405.5"
textLength="570.866" font-size="682.415" lengthAdjust="spacingAndGlyphs"
text-anchor="middle" opacity="0">C</text>
<path d="M161177 53332
L161153 53356
L161080 53381
L161031 53381
L160958 53356
L160909 53308
L160885 53259
L160860 53161
L160860 53088
L160885 52991
L160909 52942
L160958 52893
L161031 52869
L161080 52869
L161153 52893
L161177 52918
" />
</g>
<g style="fill:#000000; fill-opacity:0.0; 
stroke:#000000; stroke-width:39.3701; stroke-opacity:1; 
stroke-linecap:round; stroke-linejoin:round;">
</g>
<g style="fill:#000000; fill-opacity:0.0; 
stroke:#000000; stroke-width:59.0551; stroke-opacity:1; 
stroke-linecap:round; stroke-linejoin:round;">
<text x="161019" y="73090.6"
textLength="570.866" font-size="682.415" lengthAdjust="spacingAndGlyphs"
text-anchor="middle" opacity="0">D</text>
<path d="M160885 73066
L160885 72554
L161007 72554
L161080 72578
L161128 72627
L161153 72676
L161177 72773
L161177 72846
L161153 72944
L161128 72993
L161080 73041
L161007 73066
L160885 73066
" />
</g>
<g style="fill:#000000; fill-opacity:0.0; 
stroke:#000000; stroke-width:39.3701; stroke-opacity:1; 
stroke-linecap:round; stroke-linejoin:round;">
</g>
<g style="fill:#000000; fill-opacity:0.0; 
stroke:#000000; stroke-width:59.0551; stroke-opacity:1; 
stroke-linecap:round; stroke-linejoin:round;">
<text x="161019" y="92775.6"
textLength="522.122" font-size="682.415" lengthAdjust="spacingAndGlyphs"
text-anchor="middle" opacity="0">E</text>
<path d="M160909 92483
L161080 92483
" />
<path d="M161153 92751
L160909 92751
L160909 92239
L161153 92239
" />
</g>
<g style="fill:#000000; fill-opacity:0.0; 
stroke:#000000; stroke-width:39.3701; stroke-opacity:1; 
stroke-linecap:round; stroke-linejoin:round;">
</g>
<g style="fill:#000000; fill-opacity:0.0; 
stroke:#000000; stroke-width:59.0551; stroke-opacity:1; 
stroke-linecap:round; stroke-linejoin:round;">
<text x="161019" y="112461"
textLength="497.75" font-size="682.415" lengthAdjust="spacingAndGlyphs"
text-anchor="middle" opacity="0">F</text>
<path d="M161092 112168
L160921 112168
" />
<path d="M160921 112436
L160921 111924
L161165 111924
" />
</g>
<g style="fill:#000000; fill-opacity:0.0; 
stroke:#000000; stroke-width:39.3701; stroke-opacity:1; 
stroke-linecap:round; stroke-linejoin:round;">
</g>
<g style="fill:#000000; fill-opacity:0.0; 
stroke:#000000; stroke-width:59.0551; stroke-opacity:1; 
stroke-linecap:round; stroke-linejoin:round;">
<text x="127161" y="110572"
textLength="2758.72" font-size="787.402" lengthAdjust="spacingAndGlyphs"
text-anchor="start" opacity="0">Date: </text>
<path d="M127331 110543
L127331 109953
L127471 109953
L127556 109981
L127612 110037
L127640 110093
L127668 110206
L127668 110290
L127640 110403
L127612 110459
L127556 110515
L127471 110543
L127331 110543
" />
<path d="M128174 110543
L128174 110234
L128146 110178
L128090 110149
L127977 110149
L127921 110178
" />
<path d="M128174 110515
L128118 110543
L127977 110543
L127921 110515
L127893 110459
L127893 110403
L127921 110346
L127977 110318
L128118 110318
L128174 110290
" />
<path d="M128371 110149
L128596 110149
" />
<path d="M128456 109953
L128456 110459
L128484 110515
L128540 110543
L128596 110543
" />
<path d="M129018 110515
L128962 110543
L128849 110543
L128793 110515
L128765 110459
L128765 110234
L128793 110178
L128849 110149
L128962 110149
L129018 110178
L129046 110234
L129046 110290
L128765 110346
" />
<path d="M129299 110487
L129327 110515
L129299 110543
L129271 110515
L129299 110487
L129299 110543
" />
<path d="M129299 110178
L129327 110206
L129299 110234
L129271 110206
L129299 110178
L129299 110234
" />
</g>
<g style="fill:#000000; fill-opacity:0.0; 
stroke:#000000; stroke-width:39.3701; stroke-opacity:1; 
stroke-linecap:round; stroke-linejoin:round;">
</g>
<g style="fill:#000000; fill-opacity:0.0; 
stroke:#000000; stroke-width:59.0551; stroke-opacity:1; 
stroke-linecap:round; stroke-linejoin:round;">
<path d="M118105 110827
L160625 110827
" />
</g>
<g style="fill:#000000; fill-opacity:0.0; 
stroke:#000000; stroke-width:39.3701; stroke-opacity:1; 
stroke-linecap:round; stroke-linejoin:round;">
</g>
<g style="fill:#000000; fill-opacity:0.0; 
stroke:#000000; stroke-width:59.0551; stroke-opacity:1; 
stroke-linecap:round; stroke-linejoin:round;">
<text x="118500" y="111674"
textLength="14991.6" font-size="787.402" lengthAdjust="spacingAndGlyphs"
text-anchor="start" opacity="0">KiCad E.D.A.  pcbnew (5.1.12)-1</text>
<path d="M118669 111645
L118669 111055
" />
<path d="M119007 111645
L118754 111308
" />
<path d="M119007 111055
L118669 111392
" />
<path d="M119260 111645
L119260 111252
" />
<path d="M119260 111055
L119232 111083
L119260 111111
L119288 111083
L119260 111055
L119260 111111
" />
<path d="M119878 111589
L119850 111617
L119766 111645
L119710 111645
L119625 111617
L119569 111561
L119541 111505
L119513 111392
L119513 111308
L119541 111196
L119569 111139
L119625 111083
L119710 111055
L119766 111055
L119850 111083
L119878 111111
" />
<path d="M120385 111645
L120385 111336
L120357 111280
L120300 111252
L120188 111252
L120132 111280
" />
<path d="M120385 111617
L120328 111645
L120188 111645
L120132 111617
L120103 111561
L120103 111505
L120132 111449
L120188 111421
L120328 111421
L120385 111392
" />
<path d="M120919 111645
L120919 111055
" />
<path d="M120919 111617
L120863 111645
L120750 111645
L120694 111617
L120666 111589
L120638 111533
L120638 111364
L120666 111308
L120694 111280
L120750 111252
L120863 111252
L120919 111280
" />
<path d="M121650 111336
L121847 111336
" />
<path d="M121931 111645
L121650 111645
L121650 111055
L121931 111055
" />
<path d="M122184 111589
L122213 111617
L122184 111645
L122156 111617
L122184 111589
L122184 111645
" />
<path d="M122466 111645
L122466 111055
L122606 111055
L122691 111083
L122747 111139
L122775 111196
L122803 111308
L122803 111392
L122775 111505
L122747 111561
L122691 111617
L122606 111645
L122466 111645
" />
<path d="M123056 111589
L123084 111617
L123056 111645
L123028 111617
L123056 111589
L123056 111645
" />
<path d="M123309 111477
L123591 111477
" />
<path d="M123253 111645
L123450 111055
L123647 111645
" />
<path d="M123844 111589
L123872 111617
L123844 111645
L123815 111617
L123844 111589
L123844 111645
" />
<path d="M125025 111252
L125025 111842
" />
<path d="M125025 111280
L125081 111252
L125193 111252
L125250 111280
L125278 111308
L125306 111364
L125306 111533
L125278 111589
L125250 111617
L125193 111645
L125081 111645
L125025 111617
" />
<path d="M125812 111617
L125756 111645
L125643 111645
L125587 111617
L125559 111589
L125531 111533
L125531 111364
L125559 111308
L125587 111280
L125643 111252
L125756 111252
L125812 111280
" />
<path d="M126065 111645
L126065 111055
" />
<path d="M126065 111280
L126121 111252
L126234 111252
L126290 111280
L126318 111308
L126346 111364
L126346 111533
L126318 111589
L126290 111617
L126234 111645
L126121 111645
L126065 111617
" />
<path d="M126600 111252
L126600 111645
" />
<path d="M126600 111308
L126628 111280
L126684 111252
L126768 111252
L126824 111280
L126853 111336
L126853 111645
" />
<path d="M127359 111617
L127303 111645
L127190 111645
L127134 111617
L127106 111561
L127106 111336
L127134 111280
L127190 111252
L127303 111252
L127359 111280
L127387 111336
L127387 111392
L127106 111449
" />
<path d="M127584 111252
L127696 111645
L127809 111364
L127921 111645
L128034 111252
" />
<path d="M128877 111870
L128849 111842
L128793 111758
L128765 111702
L128737 111617
L128709 111477
L128709 111364
L128737 111224
L128765 111139
L128793 111083
L128849 110999
L128877 110971
" />
<path d="M129384 111055
L129102 111055
L129074 111336
L129102 111308
L129159 111280
L129299 111280
L129355 111308
L129384 111336
L129412 111392
L129412 111533
L129384 111589
L129355 111617
L129299 111645
L129159 111645
L129102 111617
L129074 111589
" />
<path d="M129665 111589
L129693 111617
L129665 111645
L129637 111617
L129665 111589
L129665 111645
" />
<path d="M130255 111645
L129918 111645
" />
<path d="M130087 111645
L130087 111055
L130030 111139
L129974 111196
L129918 111224
" />
<path d="M130508 111589
L130537 111617
L130508 111645
L130480 111617
L130508 111589
L130508 111645
" />
<path d="M131099 111645
L130761 111645
" />
<path d="M130930 111645
L130930 111055
L130874 111139
L130818 111196
L130761 111224
" />
<path d="M131324 111111
L131352 111083
L131408 111055
L131549 111055
L131605 111083
L131633 111111
L131661 111167
L131661 111224
L131633 111308
L131296 111645
L131661 111645
" />
<path d="M131858 111870
L131886 111842
L131943 111758
L131971 111702
L131999 111617
L132027 111477
L132027 111364
L131999 111224
L131971 111139
L131943 111083
L131886 110999
L131858 110971
" />
<path d="M132308 111421
L132758 111421
" />
<path d="M133349 111645
L133011 111645
" />
<path d="M133180 111645
L133180 111055
L133124 111139
L133067 111196
L133011 111224
" />
</g>
<g style="fill:#000000; fill-opacity:0.0; 
stroke:#000000; stroke-width:39.3701; stroke-opacity:1; 
stroke-linecap:round; stroke-linejoin:round;">
</g>
<g style="fill:#000000; fill-opacity:0.0; 
stroke:#000000; stroke-width:59.0551; stroke-opacity:1; 
stroke-linecap:round; stroke-linejoin:round;">
<path d="M118105 109646
L160625 109646
" />
</g>
<g style="fill:#000000; fill-opacity:0.0; 
stroke:#000000; stroke-width:39.3701; stroke-opacity:1; 
stroke-linecap:round; stroke-linejoin:round;">
</g>
<g style="fill:#000000; fill-opacity:0.0; 
stroke:#000000; stroke-width:118.11; stroke-opacity:1; 
stroke-linecap:round; stroke-linejoin:round;">
<text x="151964" y="110572"
textLength="2336.9" font-size="787.402" lengthAdjust="spacingAndGlyphs"
text-anchor="start" opacity="0">Rev: </text>
<path d="M152519 110543
L152322 110262
" />
<path d="M152181 110543
L152181 109953
L152406 109953
L152462 109981
L152490 110009
L152519 110065
L152519 110149
L152490 110206
L152462 110234
L152406 110262
L152181 110262
" />
<path d="M152997 110515
L152940 110543
L152828 110543
L152772 110515
L152743 110459
L152743 110234
L152772 110178
L152828 110149
L152940 110149
L152997 110178
L153025 110234
L153025 110290
L152743 110346
" />
<path d="M153222 110149
L153362 110543
L153503 110149
" />
<path d="M153728 110487
L153756 110515
L153728 110543
L153700 110515
L153728 110487
L153728 110543
" />
<path d="M153728 110178
L153756 110206
L153728 110234
L153700 110206
L153728 110178
L153728 110234
" />
</g>
<g style="fill:#000000; fill-opacity:0.0; 
stroke:#000000; stroke-width:39.3701; stroke-opacity:1; 
stroke-linecap:round; stroke-linejoin:round;">
</g>
<g style="fill:#000000; fill-opacity:0.0; 
stroke:#000000; stroke-width:59.0551; stroke-opacity:1; 
stroke-linecap:round; stroke-linejoin:round;">
<text x="118500" y="110572"
textLength="3781.21" font-size="787.402" lengthAdjust="spacingAndGlyphs"
text-anchor="start" opacity="0">Size: A3</text>
<path d="M118641 110515
L118725 110543
L118866 110543
L118922 110515
L118950 110487
L118979 110431
L118979 110374
L118950 110318
L118922 110290
L118866 110262
L118754 110234
L118697 110206
L118669 110178
L118641 110121
L118641 110065
L118669 110009
L118697 109981
L118754 109953
L118894 109953
L118979 109981
" />
<path d="M119232 110543
L119232 110149
" />
<path d="M119232 109953
L119204 109981
L119232 110009
L119260 109981
L119232 109953
L119232 110009
" />
<path d="M119457 110149
L119766 110149
L119457 110543
L119766 110543
" />
<path d="M120216 110515
L120160 110543
L120047 110543
L119991 110515
L119963 110459
L119963 110234
L119991 110178
L120047 110149
L120160 110149
L120216 110178
L120244 110234
L120244 110290
L119963 110346
" />
<path d="M120497 110487
L120525 110515
L120497 110543
L120469 110515
L120497 110487
L120497 110543
" />
<path d="M120497 110178
L120525 110206
L120497 110234
L120469 110206
L120497 110178
L120497 110234
" />
<path d="M121200 110374
L121481 110374
" />
<path d="M121144 110543
L121341 109953
L121538 110543
" />
<path d="M121678 109953
L122044 109953
L121847 110178
L121931 110178
L121988 110206
L122016 110234
L122044 110290
L122044 110431
L122016 110487
L121988 110515
L121931 110543
L121763 110543
L121706 110515
L121678 110487
" />
</g>
<g style="fill:#000000; fill-opacity:0.0; 
stroke:#000000; stroke-width:39.3701; stroke-opacity:1; 
stroke-linecap:round; stroke-linejoin:round;">
</g>
<g style="fill:#000000; fill-opacity:0.0; 
stroke:#000000; stroke-width:59.0551; stroke-opacity:1; 
stroke-linecap:round; stroke-linejoin:round;">
<text x="151964" y="111674"
textLength="3349.27" font-size="787.402" lengthAdjust="spacingAndGlyphs"
text-anchor="start" opacity="0">Id: 1/1</text>
<path d="M152134 111645
L152134 111055
" />
<path d="M152668 111645
L152668 111055
" />
<path d="M152668 111617
L152612 111645
L152499 111645
L152443 111617
L152415 111589
L152387 111533
L152387 111364
L152415 111308
L152443 111280
L152499 111252
L152612 111252
L152668 111280
" />
<path d="M152949 111589
L152977 111617
L152949 111645
L152921 111617
L152949 111589
L152949 111645
" />
<path d="M152949 111280
L152977 111308
L152949 111336
L152921 111308
L152949 111280
L152949 111336
" />
<path d="M153990 111645
L153652 111645
" />
<path d="M153821 111645
L153821 111055
L153765 111139
L153709 111196
L153652 111224
" />
<path d="M154665 111027
L154159 111786
" />
<path d="M155171 111645
L154833 111645
" />
<path d="M155002 111645
L155002 111055
L154946 111139
L154890 111196
L154833 111224
" />
</g>
<g style="fill:#000000; fill-opacity:0.0; 
stroke:#000000; stroke-width:39.3701; stroke-opacity:1; 
stroke-linecap:round; stroke-linejoin:round;">
</g>
<g style="fill:#000000; fill-opacity:0.0; 
stroke:#000000; stroke-width:59.0551; stroke-opacity:1; 
stroke-linecap:round; stroke-linejoin:round;">
<path d="M118105 108071
L160625 108071
" />
</g>
<g style="fill:#000000; fill-opacity:0.0; 
stroke:#000000; stroke-width:39.3701; stroke-opacity:1; 
stroke-linecap:round; stroke-linejoin:round;">
</g>
<g style="fill:#000000; fill-opacity:0.0; 
stroke:#000000; stroke-width:157.48; stroke-opacity:1; 
stroke-linecap:round; stroke-linejoin:round;">
<text x="118500" y="109174"
textLength="3701.14" font-size="1049.87" lengthAdjust="spacingAndGlyphs"
text-anchor="start" opacity="0">Title: </text>
<path d="M118780 108349
L119230 108349
" />
<path d="M118906 109136
L119005 108349
" />
<path d="M119394 109136
L119459 108611
" />
<path d="M119492 108349
L119450 108386
L119483 108424
L119525 108386
L119492 108349
L119483 108424
" />
<path d="M119722 108611
L120022 108611
" />
<path d="M119867 108349
L119783 109024
L119811 109099
L119881 109136
L119956 109136
" />
<path d="M120331 109136
L120261 109099
L120233 109024
L120317 108349
" />
<path d="M120936 109099
L120856 109136
L120706 109136
L120636 109099
L120607 109024
L120645 108724
L120692 108649
L120772 108611
L120921 108611
L120992 108649
L121020 108724
L121011 108799
L120626 108874
" />
<path d="M121315 109061
L121348 109099
L121306 109136
L121273 109099
L121315 109061
L121306 109136
" />
<path d="M121367 108649
L121400 108686
L121357 108724
L121325 108686
L121367 108649
L121357 108724
" />
</g>
<g style="fill:#000000; fill-opacity:0.0; 
stroke:#000000; stroke-width:39.3701; stroke-opacity:1; 
stroke-linecap:round; stroke-linejoin:round;">
</g>
<g style="fill:#000000; fill-opacity:0.0; 
stroke:#000000; stroke-width:59.0551; stroke-opacity:1; 
stroke-linecap:round; stroke-linejoin:round;">
<text x="118500" y="107658"
textLength="10553.4" font-size="787.402" lengthAdjust="spacingAndGlyphs"
text-anchor="start" opacity="0">File: jtnk66w.kicad_pcb</text>
<path d="M118866 107320
L118669 107320
" />
<path d="M118669 107630
L118669 107039
L118950 107039
" />
<path d="M119175 107630
L119175 107236
" />
<path d="M119175 107039
L119147 107067
L119175 107095
L119204 107067
L119175 107039
L119175 107095
" />
<path d="M119541 107630
L119485 107602
L119457 107545
L119457 107039
" />
<path d="M119991 107602
L119935 107630
L119822 107630
L119766 107602
L119738 107545
L119738 107320
L119766 107264
L119822 107236
L119935 107236
L119991 107264
L120019 107320
L120019 107377
L119738 107433
" />
<path d="M120272 107573
L120300 107602
L120272 107630
L120244 107602
L120272 107573
L120272 107630
" />
<path d="M120272 107264
L120300 107292
L120272 107320
L120244 107292
L120272 107264
L120272 107320
" />
<path d="M121003 107236
L121003 107742
L120975 107798
L120919 107827
L120891 107827
" />
<path d="M121003 107039
L120975 107067
L121003 107095
L121031 107067
L121003 107039
L121003 107095
" />
<path d="M121200 107236
L121425 107236
" />
<path d="M121285 107039
L121285 107545
L121313 107602
L121369 107630
L121425 107630
" />
<path d="M121622 107236
L121622 107630
" />
<path d="M121622 107292
L121650 107264
L121706 107236
L121791 107236
L121847 107264
L121875 107320
L121875 107630
" />
<path d="M122156 107630
L122156 107039
" />
<path d="M122213 107405
L122381 107630
" />
<path d="M122381 107236
L122156 107461
" />
<path d="M122887 107039
L122775 107039
L122719 107067
L122691 107095
L122634 107180
L122606 107292
L122606 107517
L122634 107573
L122662 107602
L122719 107630
L122831 107630
L122887 107602
L122916 107573
L122944 107517
L122944 107377
L122916 107320
L122887 107292
L122831 107264
L122719 107264
L122662 107292
L122634 107320
L122606 107377
" />
<path d="M123450 107039
L123337 107039
L123281 107067
L123253 107095
L123197 107180
L123169 107292
L123169 107517
L123197 107573
L123225 107602
L123281 107630
L123394 107630
L123450 107602
L123478 107573
L123506 107517
L123506 107377
L123478 107320
L123450 107292
L123394 107264
L123281 107264
L123225 107292
L123197 107320
L123169 107377
" />
<path d="M123703 107236
L123815 107630
L123928 107349
L124040 107630
L124153 107236
" />
<path d="M124378 107573
L124406 107602
L124378 107630
L124350 107602
L124378 107573
L124378 107630
" />
<path d="M124659 107630
L124659 107039
" />
<path d="M124715 107405
L124884 107630
" />
<path d="M124884 107236
L124659 107461
" />
<path d="M125137 107630
L125137 107236
" />
<path d="M125137 107039
L125109 107067
L125137 107095
L125165 107067
L125137 107039
L125137 107095
" />
<path d="M125671 107602
L125615 107630
L125503 107630
L125447 107602
L125418 107573
L125390 107517
L125390 107349
L125418 107292
L125447 107264
L125503 107236
L125615 107236
L125671 107264
" />
<path d="M126178 107630
L126178 107320
L126150 107264
L126093 107236
L125981 107236
L125925 107264
" />
<path d="M126178 107602
L126121 107630
L125981 107630
L125925 107602
L125896 107545
L125896 107489
L125925 107433
L125981 107405
L126121 107405
L126178 107377
" />
<path d="M126712 107630
L126712 107039
" />
<path d="M126712 107602
L126656 107630
L126543 107630
L126487 107602
L126459 107573
L126431 107517
L126431 107349
L126459 107292
L126487 107264
L126543 107236
L126656 107236
L126712 107264
" />
<path d="M126853 107686
L127303 107686
" />
<path d="M127443 107236
L127443 107827
" />
<path d="M127443 107264
L127499 107236
L127612 107236
L127668 107264
L127696 107292
L127724 107349
L127724 107517
L127696 107573
L127668 107602
L127612 107630
L127499 107630
L127443 107602
" />
<path d="M128231 107602
L128174 107630
L128062 107630
L128006 107602
L127977 107573
L127949 107517
L127949 107349
L127977 107292
L128006 107264
L128062 107236
L128174 107236
L128231 107264
" />
<path d="M128484 107630
L128484 107039
" />
<path d="M128484 107264
L128540 107236
L128652 107236
L128709 107264
L128737 107292
L128765 107349
L128765 107517
L128737 107573
L128709 107602
L128652 107630
L128540 107630
L128484 107602
" />
</g>
<g style="fill:#000000; fill-opacity:0.0; 
stroke:#000000; stroke-width:39.3701; stroke-opacity:1; 
stroke-linecap:round; stroke-linejoin:round;">
</g>
<g style="fill:#000000; fill-opacity:0.0; 
stroke:#000000; stroke-width:59.0551; stroke-opacity:1; 
stroke-linecap:round; stroke-linejoin:round;">
<path d="M118105 105709
L160625 105709
" />
</g>
<g style="fill:#000000; fill-opacity:0.0; 
stroke:#000000; stroke-width:39.3701; stroke-opacity:1; 
stroke-linecap:round; stroke-linejoin:round;">
</g>
<g style="fill:#000000; fill-opacity:0.0; 
stroke:#000000; stroke-width:59.0551; stroke-opacity:1; 
stroke-linecap:round; stroke-linejoin:round;">
<text x="118500" y="106595"
textLength="3236.78" font-size="787.402" lengthAdjust="spacingAndGlyphs"
text-anchor="start" opacity="0">Sheet: </text>
<path d="M118641 106539
L118725 106567
L118866 106567
L118922 106539
L118950 106510
L118979 106454
L118979 106398
L118950 106342
L118922 106314
L118866 106286
L118754 106257
L118697 106229
L118669 106201
L118641 106145
L118641 106089
L118669 106032
L118697 106004
L118754 105976
L118894 105976
L118979 106004
" />
<path d="M119232 106567
L119232 105976
" />
<path d="M119485 106567
L119485 106257
L119457 106201
L119400 106173
L119316 106173
L119260 106201
L119232 106229
" />
<path d="M119991 106539
L119935 106567
L119822 106567
L119766 106539
L119738 106482
L119738 106257
L119766 106201
L119822 106173
L119935 106173
L119991 106201
L120019 106257
L120019 106314
L119738 106370
" />
<path d="M120497 106539
L120441 106567
L120328 106567
L120272 106539
L120244 106482
L120244 106257
L120272 106201
L120328 106173
L120441 106173
L120497 106201
L120525 106257
L120525 106314
L120244 106370
" />
<path d="M120694 106173
L120919 106173
" />
<path d="M120778 105976
L120778 106482
L120806 106539
L120863 106567
L120919 106567
" />
<path d="M121116 106510
L121144 106539
L121116 106567
L121088 106539
L121116 106510
L121116 106567
" />
<path d="M121116 106201
L121144 106229
L121116 106257
L121088 106229
L121116 106201
L121116 106257
" />
</g>
<g style="fill:#000000; fill-opacity:0.0; 
stroke:#000000; stroke-width:39.3701; stroke-opacity:1; 
stroke-linecap:round; stroke-linejoin:round;">
</g>
<g style="fill:#000000; fill-opacity:0.0; 
stroke:#000000; stroke-width:59.0551; stroke-opacity:1; 
stroke-linecap:round; stroke-linejoin:round;">
<path d="M125979 109646
L125979 110827
" />
</g>
<g style="fill:#000000; fill-opacity:0.0; 
stroke:#000000; stroke-width:39.3701; stroke-opacity:1; 
stroke-linecap:round; stroke-linejoin:round;">
</g>
<g style="fill:#000000; fill-opacity:0.0; 
stroke:#000000; stroke-width:59.0551; stroke-opacity:1; 
stroke-linecap:round; stroke-linejoin:round;">
<path d="M151176 109646
L151176 112205
" />
</g>
<g style="fill:#C2C200; fill-opacity:0.0; 
stroke:#C2C200; stroke-width:59.0551; stroke-opacity:1; 
stroke-linecap:round; stroke-linejoin:round;">
</g>
<g style="fill:#C2C200; fill-opacity:0.0; 
stroke:#C2C200; stroke-width:39.3701; stroke-opacity:1; 
stroke-linecap:round; stroke-linejoin:round;">
<path d="M18110 27559
L8437 27559
" />
<path d="M8437 27559
L8437 13125
" />
<path d="M9375 12187.5 A937.5 937.5 0.0 0 0 8437.5 13125" />
<path d="M9375 12187
L18110 12187
" />
<path d="M18110 12187
L18110 27559
" />
<path d="M155625 12187
L18503 12187
" />
<path d="M156562 13125 A937.5 937.5 0.0 0 0 155625 12187.5" />
<path d="M156562 44062
L156562 13125
" />
<path d="M155625 45000 A937.5 937.5 0.0 0 0 156562 44062.5" />
<path d="M9375 45000
L155625 45000
" />
<path d="M8437.5 44062.5 A937.5 937.5 0.0 0 0 9375 45000" />
<path d="M8437 27952
L8437 44062
" />
<path d="M8437 27952
L18503 27952
" />
<path d="M18009.4 12187.5 A196.85 196.85 0.0 0 0 18009.4 12187.5" />
<path d="M18503 12187
L18503 27952
" />
</g>
<g style="fill:#C2C200; fill-opacity:0.0; 
stroke:#C2C200; stroke-width:3.93701; stroke-opacity:1; 
stroke-linecap:round; stroke-linejoin:round;">
<circle cx="9375" cy="26673.2" r="433.071" /> 
<circle cx="9375" cy="44062.5" r="433.071" /> 
</g>
<g style="fill:#C2C200; fill-opacity:0.0; 
stroke:#C2C200; stroke-width:59.0551; stroke-opacity:1; 
stroke-linecap:round; stroke-linejoin:round;">
<path d="M11286 42150
L11286 36599
" />
<path d="M16838 42150
L11286 42150
" />
<path d="M16838 36599
L16838 42150
" />
<path d="M11286 36599
L16838 36599
" />
<path d="M11286 34650
L11286 29099
" />
<path d="M16838 34650
L11286 34650
" />
<path d="M16838 29099
L16838 34650
" />
<path d="M11286 29099
L16838 29099
" />
</g>
<g style="fill:#C2C200; fill-opacity:0.0; 
stroke:#C2C200; stroke-width:3.93701; stroke-opacity:1; 
stroke-linecap:round; stroke-linejoin:round;">
<circle cx="17322.8" cy="26673.2" r="433.071" /> 
<circle cx="19291.3" cy="13125" r="433.071" /> 
<circle cx="19291.3" cy="28125" r="433.071" /> 
<circle cx="75000" cy="28125" r="433.071" /> 
<circle cx="75000" cy="13125" r="433.071" /> 
<circle cx="75000" cy="44062.5" r="433.071" /> 
<circle cx="46875" cy="28125" r="433.071" /> 
<circle cx="46875" cy="13125" r="433.071" /> 
<circle cx="46875" cy="44062.5" r="433.071" /> 
<circle cx="105000" cy="28125" r="433.071" /> 
<circle cx="105000" cy="13125" r="433.071" /> 
<circle cx="105000" cy="44062.5" r="433.071" /> 
<circle cx="131250" cy="28125" r="433.071" /> 
<circle cx="131250" cy="13125" r="433.071" /> 
<circle cx="131250" cy="44062.5" r="433.071" /> 
</g>
<g style="fill:#C2C200; fill-opacity:0.0; 
stroke:#C2C200; stroke-width:59.0551; stroke-opacity:1; 
stroke-linecap:round; stroke-linejoin:round;">
<path d="M21599 14099
L27150 14099
" />
<path d="M27150 14099
L27150 19650
" />
<path d="M27150 19650
L21599 19650
" />
<path d="M21599 19650
L21599 14099
" />
<path d="M149099 42150
L149099 36599
" />
<path d="M154650 42150
L149099 42150
" />
<path d="M154650 36599
L154650 42150
" />
<path d="M149099 36599
L154650 36599
" />
<path d="M149099 34650
L149099 29099
" />
<path d="M154650 34650
L149099 34650
" />
<path d="M154650 29099
L154650 34650
" />
<path d="M149099 29099
L154650 29099
" />
<path d="M149099 27150
L149099 21599
" />
<path d="M154650 27150
L149099 27150
" />
<path d="M154650 21599
L154650 27150
" />
<path d="M149099 21599
L154650 21599
" />
<path d="M149099 19650
L149099 14099
" />
<path d="M154650 19650
L149099 19650
" />
<path d="M154650 14099
L154650 19650
" />
<path d="M149099 14099
L154650 14099
" />
<path d="M141599 42150
L141599 36599
" />
<path d="M147150 42150
L141599 42150
" />
<path d="M147150 36599
L147150 42150
" />
<path d="M141599 36599
L147150 36599
" />
<path d="M141599 34650
L141599 29099
" />
<path d="M147150 34650
L141599 34650
" />
<path d="M147150 29099
L147150 34650
" />
<path d="M141599 29099
L147150 29099
" />
<path d="M141599 27150
L141599 21599
" />
<path d="M147150 27150
L141599 27150
" />
<path d="M147150 21599
L147150 27150
" />
<path d="M141599 21599
L147150 21599
" />
<path d="M141599 19650
L141599 14099
" />
<path d="M147150 19650
L141599 19650
" />
<path d="M147150 14099
L147150 19650
" />
<path d="M141599 14099
L147150 14099
" />
<path d="M30036 36599
L35588 36599
" />
<path d="M35588 36599
L35588 42150
" />
<path d="M35588 42150
L30036 42150
" />
<path d="M30036 42150
L30036 36599
" />
<path d="M122849 14099
L128400 14099
" />
<path d="M128400 14099
L128400 19650
" />
<path d="M128400 19650
L122849 19650
" />
<path d="M122849 19650
L122849 14099
" />
<path d="M107849 27150
L107849 21599
" />
<path d="M113400 27150
L107849 27150
" />
<path d="M113400 21599
L113400 27150
" />
<path d="M107849 21599
L113400 21599
" />
</g>
<g style="fill:#C2C200; fill-opacity:0.0; 
stroke:#C2C200; stroke-width:47.2441; stroke-opacity:1; 
stroke-linecap:round; stroke-linejoin:round;">
<path d="M128875 26737
L126119 26737
" />
<path d="M128875 20910
L128875 26737
" />
<path d="M126119 20910
L128875 20910
" />
<path d="M126119 26737
L126119 20910
" />
<path d="M116749 26737
L119505 26737
" />
<path d="M116749 20910
L116749 26737
" />
<path d="M119505 20910
L116749 20910
" />
<path d="M119505 26737
L119505 20910
" />
</g>
<g style="fill:#C2C200; fill-opacity:0.0; 
stroke:#C2C200; stroke-width:59.0551; stroke-opacity:1; 
stroke-linecap:round; stroke-linejoin:round;">
<path d="M125588 27150
L120036 27150
" />
<path d="M120036 27150
L120036 21599
" />
<path d="M120036 21599
L125588 21599
" />
<path d="M125588 21599
L125588 27150
" />
<path d="M113474 29099
L119025 29099
" />
<path d="M119025 29099
L119025 34650
" />
<path d="M119025 34650
L113474 34650
" />
<path d="M113474 34650
L113474 29099
" />
<path d="M107849 42150
L107849 36599
" />
<path d="M113400 42150
L107849 42150
" />
<path d="M113400 36599
L113400 42150
" />
<path d="M107849 36599
L113400 36599
" />
<path d="M100349 42150
L100349 36599
" />
<path d="M105900 42150
L100349 42150
" />
<path d="M105900 36599
L105900 42150
" />
<path d="M100349 36599
L105900 36599
" />
<path d="M92849 42150
L92849 36599
" />
<path d="M98400 42150
L92849 42150
" />
<path d="M98400 36599
L98400 42150
" />
<path d="M92849 36599
L98400 36599
" />
<path d="M77849 36599
L83400 36599
" />
<path d="M83400 36599
L83400 42150
" />
<path d="M83400 42150
L77849 42150
" />
<path d="M77849 42150
L77849 36599
" />
</g>
<g style="fill:#C2C200; fill-opacity:0.0; 
stroke:#C2C200; stroke-width:47.2441; stroke-opacity:1; 
stroke-linecap:round; stroke-linejoin:round;">
<path d="M75437 41737
L72682 41737
" />
<path d="M75437 35910
L75437 41737
" />
<path d="M72682 35910
L75437 35910
" />
<path d="M72682 41737
L72682 35910
" />
<path d="M63312 41737
L66067 41737
" />
<path d="M63312 35910
L63312 41737
" />
<path d="M66067 35910
L63312 35910
" />
<path d="M66067 41737
L66067 35910
" />
</g>
<g style="fill:#C2C200; fill-opacity:0.0; 
stroke:#C2C200; stroke-width:59.0551; stroke-opacity:1; 
stroke-linecap:round; stroke-linejoin:round;">
<path d="M72150 42150
L66599 42150
" />
<path d="M66599 42150
L66599 36599
" />
<path d="M66599 36599
L72150 36599
" />
<path d="M72150 36599
L72150 42150
" />
</g>
<g style="fill:#C2C200; fill-opacity:0.0; 
stroke:#C2C200; stroke-width:47.2441; stroke-opacity:1; 
stroke-linecap:round; stroke-linejoin:round;">
<path d="M60437 41737
L57682 41737
" />
<path d="M60437 35910
L60437 41737
" />
<path d="M57682 35910
L60437 35910
" />
<path d="M57682 41737
L57682 35910
" />
<path d="M48312 41737
L51067 41737
" />
<path d="M48312 35910
L48312 41737
" />
<path d="M51067 35910
L48312 35910
" />
<path d="M51067 41737
L51067 35910
" />
</g>
<g style="fill:#C2C200; fill-opacity:0.0; 
stroke:#C2C200; stroke-width:59.0551; stroke-opacity:1; 
stroke-linecap:round; stroke-linejoin:round;">
<path d="M57150 42150
L51599 42150
" />
<path d="M51599 42150
L51599 36599
" />
<path d="M51599 36599
L57150 36599
" />
<path d="M57150 36599
L57150 42150
" />
<path d="M20661 42150
L20661 36599
" />
<path d="M26213 42150
L20661 42150
" />
<path d="M26213 36599
L26213 42150
" />
<path d="M20661 36599
L26213 36599
" />
<path d="M39411 42150
L39411 36599
" />
<path d="M44963 42150
L39411 42150
" />
<path d="M44963 36599
L44963 42150
" />
<path d="M39411 36599
L44963 36599
" />
<path d="M29963 29099
L29963 34650
" />
<path d="M24411 29099
L29963 29099
" />
<path d="M24411 34650
L24411 29099
" />
<path d="M29963 34650
L24411 34650
" />
</g>
<g style="fill:#C2C200; fill-opacity:0.0; 
stroke:#C2C200; stroke-width:47.2441; stroke-opacity:1; 
stroke-linecap:round; stroke-linejoin:round;">
<path d="M23880 34237
L23880 28410
" />
<path d="M23880 28410
L21124 28410
" />
<path d="M21124 28410
L21124 34237
" />
<path d="M21124 34237
L23880 34237
" />
<path d="M30494 34237
L30494 28410
" />
<path d="M30494 28410
L33250 28410
" />
<path d="M33250 28410
L33250 34237
" />
<path d="M33250 34237
L30494 34237
" />
</g>
<g style="fill:#C2C200; fill-opacity:0.0; 
stroke:#C2C200; stroke-width:59.0551; stroke-opacity:1; 
stroke-linecap:round; stroke-linejoin:round;">
<path d="M22536 27150
L22536 21599
" />
<path d="M28088 27150
L22536 27150
" />
<path d="M28088 21599
L28088 27150
" />
<path d="M22536 21599
L28088 21599
" />
<path d="M134099 27150
L134099 21599
" />
<path d="M139650 27150
L134099 27150
" />
<path d="M139650 21599
L139650 27150
" />
<path d="M134099 21599
L139650 21599
" />
<path d="M100349 27150
L100349 21599
" />
<path d="M105900 27150
L100349 27150
" />
<path d="M105900 21599
L105900 27150
" />
<path d="M100349 21599
L105900 21599
" />
<path d="M92849 27150
L92849 21599
" />
<path d="M98400 27150
L92849 27150
" />
<path d="M98400 21599
L98400 27150
" />
<path d="M92849 21599
L98400 21599
" />
<path d="M77849 27150
L77849 21599
" />
<path d="M83400 27150
L77849 27150
" />
<path d="M83400 21599
L83400 27150
" />
<path d="M77849 21599
L83400 21599
" />
<path d="M85349 27150
L85349 21599
" />
<path d="M90900 27150
L85349 27150
" />
<path d="M90900 21599
L90900 27150
" />
<path d="M85349 21599
L90900 21599
" />
<path d="M62849 27150
L62849 21599
" />
<path d="M68400 27150
L62849 27150
" />
<path d="M68400 21599
L68400 27150
" />
<path d="M62849 21599
L68400 21599
" />
<path d="M70349 27150
L70349 21599
" />
<path d="M75900 27150
L70349 27150
" />
<path d="M75900 21599
L75900 27150
" />
<path d="M70349 21599
L75900 21599
" />
<path d="M55349 27150
L55349 21599
" />
<path d="M60900 27150
L55349 27150
" />
<path d="M60900 21599
L60900 27150
" />
<path d="M55349 21599
L60900 21599
" />
<path d="M47849 27150
L47849 21599
" />
<path d="M53400 27150
L47849 27150
" />
<path d="M53400 21599
L53400 27150
" />
<path d="M47849 21599
L53400 21599
" />
<path d="M40349 27150
L40349 21599
" />
<path d="M45900 27150
L40349 27150
" />
<path d="M45900 21599
L45900 27150
" />
<path d="M40349 21599
L45900 21599
" />
<path d="M32849 27150
L32849 21599
" />
<path d="M38400 27150
L32849 27150
" />
<path d="M38400 21599
L38400 27150
" />
<path d="M32849 21599
L38400 21599
" />
<path d="M85349 42150
L85349 36599
" />
<path d="M90900 42150
L85349 42150
" />
<path d="M90900 36599
L90900 42150
" />
<path d="M85349 36599
L90900 36599
" />
<path d="M124724 44025
L124724 38474
" />
<path d="M130275 44025
L124724 44025
" />
<path d="M130275 38474
L130275 44025
" />
<path d="M124724 38474
L130275 38474
" />
<path d="M132224 44025
L132224 38474
" />
<path d="M137775 44025
L132224 44025
" />
<path d="M137775 38474
L137775 44025
" />
<path d="M132224 38474
L137775 38474
" />
<path d="M117224 44025
L117224 38474
" />
<path d="M122775 44025
L117224 44025
" />
<path d="M122775 38474
L122775 44025
" />
<path d="M117224 38474
L122775 38474
" />
<path d="M124724 36525
L124724 30974
" />
<path d="M130275 36525
L124724 36525
" />
<path d="M130275 30974
L130275 36525
" />
<path d="M124724 30974
L130275 30974
" />
<path d="M134099 19650
L134099 14099
" />
<path d="M139650 19650
L134099 19650
" />
<path d="M139650 14099
L139650 19650
" />
<path d="M134099 14099
L139650 14099
" />
<path d="M134099 34650
L134099 29099
" />
<path d="M139650 34650
L134099 34650
" />
<path d="M139650 29099
L139650 34650
" />
<path d="M134099 29099
L139650 29099
" />
<path d="M113474 19650
L113474 14099
" />
<path d="M119025 19650
L113474 19650
" />
<path d="M119025 14099
L119025 19650
" />
<path d="M113474 14099
L119025 14099
" />
<path d="M105974 19650
L105974 14099
" />
<path d="M111525 19650
L105974 19650
" />
<path d="M111525 14099
L111525 19650
" />
<path d="M105974 14099
L111525 14099
" />
<path d="M98474 19650
L98474 14099
" />
<path d="M104025 19650
L98474 19650
" />
<path d="M104025 14099
L104025 19650
" />
<path d="M98474 14099
L104025 14099
" />
<path d="M104099 34650
L104099 29099
" />
<path d="M109650 34650
L104099 34650
" />
<path d="M109650 29099
L109650 34650
" />
<path d="M104099 29099
L109650 29099
" />
<path d="M83474 19650
L83474 14099
" />
<path d="M89025 19650
L83474 19650
" />
<path d="M89025 14099
L89025 19650
" />
<path d="M83474 14099
L89025 14099
" />
<path d="M75974 19650
L75974 14099
" />
<path d="M81525 19650
L75974 19650
" />
<path d="M81525 14099
L81525 19650
" />
<path d="M75974 14099
L81525 14099
" />
<path d="M89099 34650
L89099 29099
" />
<path d="M94650 34650
L89099 34650
" />
<path d="M94650 29099
L94650 34650
" />
<path d="M89099 29099
L94650 29099
" />
<path d="M96599 34650
L96599 29099
" />
<path d="M102150 34650
L96599 34650
" />
<path d="M102150 29099
L102150 34650
" />
<path d="M96599 29099
L102150 29099
" />
<path d="M90974 19650
L90974 14099
" />
<path d="M96525 19650
L90974 19650
" />
<path d="M96525 14099
L96525 19650
" />
<path d="M90974 14099
L96525 14099
" />
<path d="M81599 34650
L81599 29099
" />
<path d="M87150 34650
L81599 34650
" />
<path d="M87150 29099
L87150 34650
" />
<path d="M81599 29099
L87150 29099
" />
<path d="M59099 34650
L59099 29099
" />
<path d="M64650 34650
L59099 34650
" />
<path d="M64650 29099
L64650 34650
" />
<path d="M59099 29099
L64650 29099
" />
<path d="M68474 19650
L68474 14099
" />
<path d="M74025 19650
L68474 19650
" />
<path d="M74025 14099
L74025 19650
" />
<path d="M68474 14099
L74025 14099
" />
<path d="M66599 34650
L66599 29099
" />
<path d="M72150 34650
L66599 34650
" />
<path d="M72150 29099
L72150 34650
" />
<path d="M66599 29099
L72150 29099
" />
<path d="M60974 19650
L60974 14099
" />
<path d="M66525 19650
L60974 19650
" />
<path d="M66525 14099
L66525 19650
" />
<path d="M60974 14099
L66525 14099
" />
<path d="M74099 34650
L74099 29099
" />
<path d="M79650 34650
L74099 34650
" />
<path d="M79650 29099
L79650 34650
" />
<path d="M74099 29099
L79650 29099
" />
<path d="M53474 19650
L53474 14099
" />
<path d="M59025 19650
L53474 19650
" />
<path d="M59025 14099
L59025 19650
" />
<path d="M53474 14099
L59025 14099
" />
<path d="M51599 34650
L51599 29099
" />
<path d="M57150 34650
L51599 34650
" />
<path d="M57150 29099
L57150 34650
" />
<path d="M51599 29099
L57150 29099
" />
<path d="M45974 19650
L45974 14099
" />
<path d="M51525 19650
L45974 19650
" />
<path d="M51525 14099
L51525 19650
" />
<path d="M45974 14099
L51525 14099
" />
<path d="M44099 34650
L44099 29099
" />
<path d="M49650 34650
L44099 34650
" />
<path d="M49650 29099
L49650 34650
" />
<path d="M44099 29099
L49650 29099
" />
<path d="M38474 19650
L38474 14099
" />
<path d="M44025 19650
L38474 19650
" />
<path d="M44025 14099
L44025 19650
" />
<path d="M38474 14099
L44025 14099
" />
<path d="M36599 34650
L36599 29099
" />
<path d="M42150 34650
L36599 34650
" />
<path d="M42150 29099
L42150 34650
" />
<path d="M36599 29099
L42150 29099
" />
<path d="M30974 19650
L30974 14099
" />
<path d="M36525 19650
L30974 19650
" />
<path d="M36525 14099
L36525 19650
" />
<path d="M30974 14099
L36525 14099
" />
</g>
<g style="fill:#C2C200; fill-opacity:0.0; 
stroke:#C2C200; stroke-width:3.93701; stroke-opacity:1; 
stroke-linecap:round; stroke-linejoin:round;">
<circle cx="155625" cy="44062.5" r="433.071" /> 
<circle cx="155625" cy="28125" r="433.071" /> 
<circle cx="155625" cy="13125" r="433.071" /> 
<circle cx="9375" cy="29062.5" r="433.071" /> 
<g >
</g>
<g >
</g>
<g >
</g>
<g >
</g>
<g >
</g>
<g >
</g>
<g >
</g>
<g >
</g>
<g >
</g>
<g >
</g>
<g >
</g>
<g >
</g>
<g >
</g>
<g >
</g>
<g >
</g>
<g >
</g>
<g >
</g>
<g >
</g>
<g >
</g>
<g >
</g>
<g >
</g>
<g >
</g>
<g >
</g>
<g >
</g>
<g >
</g>
<g >
</g>
<g >
</g>
<g >
</g>
<g >
</g>
<g >
</g>
<g >
</g>
<g >
</g>
<g >
</g>
<g >
</g>
<g >
</g>
<g >
</g>
<g >
</g>
<g >
</g>
<g >
</g>
<g >
</g>
<g >
</g>
<g >
</g>
<g >
</g>
<g >
</g>
<g >
</g>
<g >
</g>
<g >
</g>
<g >
</g>
<g >
</g>
<g >
</g>
<g >
</g>
<g >
</g>
<g >
</g>
<g >
</g>
<g >
</g>
<g >
</g>
<g >
</g>
<g >
</g>
<g >
</g>
<g >
</g>
<g >
</g>
<g >
</g>
<g >
</g>
<g >
</g>
<g >
</g>
<g >
</g>
<g >
</g>
<g >
</g>
<g >
</g>
<g >
</g>
<g >
</g>
<g >
</g>
<g >
</g>
<g >
</g>
<g >
</g>
<g >
</g>
<g >
</g>
<g >
</g>
<g >
</g>
<g >
</g>
<g >
</g>
<g >
</g>
<g >
</g>
<g >
</g>
<g >
</g>
<g >
</g>
<g >
</g>
<g >
</g>
</g> 
</svg>
