M48
; DRILL file {KiCad (5.1.12)-1} date 11/03/23 11:45:22
; FORMAT={-:-/ absolute / metric / decimal}
; #@! TF.CreationDate,2023-11-03T11:45:22+09:00
; #@! TF.GenerationSoftware,Kicad,Pcbnew,(5.1.12)-1
; #@! TF.FileFunction,Plated,1,2,PTH
FMAT,2
METRIC
T1C0.400
T2C0.800
T3C0.813
T4C1.000
T5C1.300
T6C2.000
%
G90
G05
T1
X22.799Y-57.019
X24.172Y-55.965
X27.67Y-68.3
X29.0Y-109.0
X31.0Y-73.0
X37.491Y-86.243
X40.383Y-77.375
X43.125Y-74.037
X43.453Y-80.319
X45.463Y-99.488
X50.234Y-101.519
X50.429Y-97.496
X52.167Y-53.666
X52.189Y-73.332
X52.194Y-62.018
X52.725Y-48.092
X52.904Y-54.421
X52.926Y-55.565
X52.931Y-101.519
X52.945Y-56.805
X53.077Y-52.006
X53.079Y-49.954
X53.896Y-96.221
X53.932Y-94.932
X55.007Y-43.426
X55.23Y-45.164
X56.0Y-37.0
X59.0Y-56.0
X59.052Y-40.613
X59.508Y-58.441
X62.753Y-50.137
X63.998Y-79.163
X64.0Y-75.0
X64.182Y-77.449
X68.67Y-55.363
X70.864Y-73.578
X71.603Y-98.655
X74.919Y-96.508
X75.101Y-64.671
X75.922Y-81.296
X78.0Y-95.0
X78.691Y-96.221
X81.11Y-35.89
X82.39Y-62.8
X84.0Y-57.0
X84.43Y-65.007
X85.827Y-57.851
X91.27Y-39.541
X92.796Y-74.258
X93.001Y-96.504
X93.739Y-98.215
X94.0Y-75.0
X95.168Y-57.777
X97.706Y-74.274
X98.43Y-51.212
X99.709Y-39.541
X100.0Y-37.0
X102.0Y-94.0
X102.178Y-69.346
X104.0Y-56.0
X104.881Y-58.097
X105.186Y-79.164
X110.688Y-92.31
X111.912Y-55.317
X114.008Y-73.512
X114.187Y-77.45
X115.0Y-74.0
X117.1Y-51.887
X118.415Y-100.476
X119.0Y-37.0
X119.24Y-64.426
X121.0Y-57.0
X124.027Y-57.349
X125.21Y-98.57
X126.236Y-95.12
X127.21Y-98.57
X130.23Y-76.897
X130.303Y-39.531
X130.825Y-52.337
X131.361Y-55.377
X132.0Y-95.0
X133.0Y-75.0
X133.814Y-60.168
X134.459Y-91.847
X138.0Y-37.0
X138.246Y-39.541
X142.0Y-56.0
X142.792Y-76.594
X142.805Y-58.457
X143.559Y-91.845
X145.146Y-91.316
X146.404Y-99.075
X150.119Y-73.16
X151.0Y-75.0
X151.783Y-77.439
X152.431Y-55.946
X157.0Y-37.0
X157.963Y-64.73
X162.0Y-56.0
X162.035Y-57.728
X163.066Y-79.171
X167.191Y-39.541
X170.271Y-76.491
X171.0Y-75.0
X171.4Y-95.13
X172.143Y-60.29
X172.608Y-92.291
X173.447Y-58.431
X173.803Y-56.963
X175.567Y-55.903
X175.909Y-39.541
X176.11Y-36.89
X181.0Y-56.0
X181.995Y-88.195
X182.66Y-77.449
X183.338Y-55.377
X184.484Y-98.656
X188.101Y-55.343
X188.28Y-77.451
X188.655Y-74.249
X190.0Y-75.0
X193.37Y-50.125
X193.891Y-38.857
X195.0Y-37.0
X196.697Y-96.491
X197.115Y-92.182
X198.873Y-60.321
X199.0Y-94.0
X199.547Y-58.444
X199.85Y-55.48
X201.66Y-52.06
X202.476Y-81.429
X203.022Y-41.307
X205.116Y-75.551
X205.824Y-39.531
X209.0Y-75.0
X209.325Y-77.457
X209.511Y-70.079
X209.599Y-58.431
X210.239Y-50.092
X210.29Y-60.166
X212.266Y-42.2
X212.414Y-39.535
X212.96Y-98.729
X214.11Y-36.89
X214.407Y-39.541
X214.505Y-64.671
X215.764Y-96.508
X215.803Y-62.377
X216.124Y-58.449
X216.658Y-79.173
X217.05Y-89.659
X218.0Y-94.0
X218.593Y-58.46
X219.0Y-56.0
X219.102Y-94.868
X220.085Y-77.293
X221.766Y-50.587
X221.924Y-77.432
X224.63Y-81.541
X225.171Y-39.531
X226.045Y-70.05
X226.045Y-77.445
X226.345Y-49.11
X226.712Y-42.208
X228.0Y-75.0
X230.746Y-98.214
X230.813Y-62.185
X230.83Y-99.327
X232.036Y-92.21
X232.259Y-57.756
X232.772Y-90.756
X233.0Y-37.0
X234.013Y-62.579
X234.512Y-96.498
X235.148Y-99.452
X237.0Y-94.0
X237.293Y-50.566
X238.0Y-56.0
X242.542Y-39.541
X243.924Y-81.679
X243.974Y-77.444
X245.218Y-70.047
X247.0Y-75.0
X247.558Y-58.337
X249.606Y-99.567
X249.82Y-45.881
X250.205Y-39.541
X250.517Y-43.593
X251.89Y-36.89
X252.197Y-39.541
X253.156Y-69.586
X253.819Y-58.443
X253.819Y-62.129
X254.006Y-96.48
X254.006Y-100.431
X256.0Y-94.0
X256.024Y-74.438
X256.79Y-55.57
X257.284Y-95.031
X260.264Y-81.272
X260.828Y-76.892
X262.823Y-81.496
X264.691Y-39.541
X265.822Y-55.358
X266.0Y-75.0
X266.754Y-77.444
X267.719Y-46.169
X269.188Y-99.364
X269.314Y-61.328
X270.058Y-58.461
X270.101Y-45.882
X271.0Y-37.0
X271.711Y-63.878
X273.049Y-96.501
X273.049Y-100.081
X273.367Y-58.432
X273.367Y-61.299
X275.0Y-95.0
X276.28Y-55.52
X276.919Y-50.357
X281.163Y-83.576
X281.515Y-39.541
X281.638Y-92.09
X283.489Y-77.431
X283.489Y-79.912
X284.844Y-68.65
X285.641Y-58.216
X287.988Y-100.465
X288.369Y-45.872
X288.788Y-39.548
X289.575Y-45.995
X290.0Y-37.0
X290.0Y-75.0
X290.612Y-39.318
X291.845Y-68.536
X296.417Y-84.32
X299.0Y-99.0
X300.136Y-100.596
X301.0Y-76.34
X301.545Y-60.163
X303.498Y-58.21
X307.0Y-56.0
X307.291Y-57.384
X308.854Y-60.196
X308.897Y-50.293
X310.4Y-103.003
X311.747Y-39.555
X311.747Y-42.214
X311.748Y-45.882
X314.11Y-36.89
X315.678Y-101.27
X315.678Y-102.98
X317.709Y-60.167
X318.0Y-99.0
X319.0Y-80.0
X319.187Y-81.855
X328.325Y-95.889
X330.174Y-103.0
X330.453Y-84.937
X332.45Y-109.94
X335.919Y-100.619
X336.358Y-107.741
X336.606Y-82.198
X337.175Y-112.905
X338.331Y-83.924
X338.734Y-97.804
X338.99Y-77.964
X340.0Y-97.0
X340.806Y-77.98
X340.861Y-41.839
X340.997Y-57.756
X341.057Y-64.272
X341.167Y-39.541
X342.89Y-36.89
X342.89Y-56.11
X342.89Y-75.11
X342.976Y-57.427
X343.011Y-76.361
X352.208Y-104.487
X352.342Y-58.291
X352.951Y-39.487
X353.902Y-79.169
X354.638Y-85.663
X356.025Y-48.845
X356.025Y-74.523
X356.185Y-101.253
X357.433Y-97.301
X357.632Y-102.993
X359.175Y-102.249
X359.373Y-44.7
X359.591Y-57.756
X359.591Y-63.072
X359.738Y-77.453
X359.738Y-80.373
X360.004Y-39.531
X361.0Y-94.0
X361.313Y-77.413
X361.89Y-55.89
X361.89Y-75.11
X362.0Y-37.0
X362.047Y-39.431
X362.052Y-57.463
X363.151Y-81.724
X367.515Y-48.281
X368.77Y-69.15
X372.382Y-76.817
X376.726Y-85.11
X377.339Y-96.55
X377.339Y-103.319
X379.413Y-58.454
X380.0Y-94.0
X380.37Y-60.184
X380.889Y-94.86
X380.89Y-55.89
X380.89Y-75.11
X381.0Y-36.013
X383.909Y-69.82
X384.72Y-50.997
X390.555Y-79.279
X392.02Y-60.712
X393.274Y-49.043
T3
X28.062Y-32.988
X28.062Y-35.528
X28.062Y-38.068
X28.062Y-40.608
X28.062Y-43.148
X28.062Y-45.688
X28.062Y-48.228
X28.062Y-50.768
X28.062Y-53.308
X28.062Y-55.848
X28.062Y-58.388
X28.062Y-60.928
X28.062Y-63.468
X31.909Y-69.056
X34.449Y-69.056
X36.989Y-69.056
X39.529Y-69.056
X43.282Y-32.988
X43.282Y-35.528
X43.282Y-38.068
X43.282Y-40.608
X43.282Y-43.148
X43.282Y-45.688
X43.282Y-48.228
X43.282Y-50.768
X43.282Y-53.308
X43.282Y-55.848
X43.282Y-58.388
X43.282Y-60.928
X43.282Y-63.468
T4
X28.219Y-97.512
X28.219Y-100.012
X28.219Y-102.512
X42.719Y-97.512
X42.719Y-102.512
T5
X23.812Y-53.9
X23.812Y-60.4
T2
G00X23.862Y-42.744
M15
G01X23.862Y-42.744
M16
G05
G00X23.862Y-45.244
M15
G01X23.862Y-45.244
M16
G05
G00X23.862Y-47.744
M15
G01X23.862Y-47.744
M16
G05
T6
G00X35.319Y-94.412
M15
G01X36.119Y-94.412
M16
G05
G00X35.319Y-105.612
M15
G01X36.119Y-105.612
M16
G05
T0
M30
