G04 #@! TF.GenerationSoftware,KiCad,Pcbnew,(5.1.12)-1*
G04 #@! TF.CreationDate,2023-11-03T11:44:58+09:00*
G04 #@! TF.ProjectId,jtnk64w,6a746e6b-3634-4772-9e6b-696361645f70,rev?*
G04 #@! TF.SameCoordinates,Original*
G04 #@! TF.FileFunction,Soldermask,Bot*
G04 #@! TF.FilePolarity,Negative*
%FSLAX46Y46*%
G04 Gerber Fmt 4.6, Leading zero omitted, Abs format (unit mm)*
G04 Created by KiCad (PCBNEW (5.1.12)-1) date 2023-11-03 11:44:58*
%MOMM*%
%LPD*%
G01*
G04 APERTURE LIST*
%ADD10C,4.000000*%
%ADD11C,3.050000*%
%ADD12R,3.300000X3.000000*%
%ADD13C,3.000000*%
%ADD14C,1.800000*%
%ADD15C,1.524000*%
%ADD16C,2.000000*%
%ADD17R,3.200000X2.500000*%
%ADD18C,1.397000*%
%ADD19R,2.200000X0.820000*%
%ADD20O,1.500000X1.500000*%
%ADD21R,0.950000X1.300000*%
G04 APERTURE END LIST*
D10*
X323844000Y-53672500D03*
X300044000Y-53672500D03*
D11*
X300044000Y-68912500D03*
X323844000Y-68912500D03*
D12*
X319344000Y-64452500D03*
D13*
X309404000Y-66992500D03*
D10*
X311944000Y-61912500D03*
D14*
X306864000Y-61912500D03*
X317024000Y-61912500D03*
D13*
X315754000Y-64452500D03*
D12*
X305844000Y-66992500D03*
D10*
X188112000Y-91772000D03*
X164312000Y-91772000D03*
D11*
X164312000Y-107012000D03*
X188112000Y-107012000D03*
D12*
X183612000Y-102552000D03*
D13*
X173672000Y-105092000D03*
D10*
X176212000Y-100012000D03*
D14*
X171132000Y-100012000D03*
X181292000Y-100012000D03*
D13*
X180022000Y-102552000D03*
D12*
X170112000Y-105092000D03*
D10*
X150012000Y-91772000D03*
X126212000Y-91772000D03*
D11*
X126212000Y-107012000D03*
X150012000Y-107012000D03*
D12*
X145512000Y-102552000D03*
D13*
X135572000Y-105092000D03*
D10*
X138112000Y-100012000D03*
D14*
X133032000Y-100012000D03*
X143192000Y-100012000D03*
D13*
X141922000Y-102552000D03*
D12*
X132012000Y-105092000D03*
D10*
X80956200Y-72722500D03*
X57156200Y-72722500D03*
D11*
X57156200Y-87962500D03*
X80956200Y-87962500D03*
D12*
X76456200Y-83502500D03*
D13*
X66516200Y-86042500D03*
D10*
X69056200Y-80962500D03*
D14*
X63976200Y-80962500D03*
X74136200Y-80962500D03*
D13*
X72866200Y-83502500D03*
D12*
X62956200Y-86042500D03*
D15*
X43282400Y-35528200D03*
X43282400Y-38068200D03*
X43282400Y-40608200D03*
X43282400Y-43148200D03*
X43282400Y-45688200D03*
X43282400Y-48228200D03*
X43282400Y-50768200D03*
X43282400Y-53308200D03*
X43282400Y-55848200D03*
X43282400Y-58388200D03*
X43282400Y-60928200D03*
X43282400Y-63468200D03*
X28062400Y-63468200D03*
X28062400Y-60928200D03*
X28062400Y-58388200D03*
X28062400Y-55848200D03*
X28062400Y-53308200D03*
X28062400Y-50768200D03*
X28062400Y-48228200D03*
X28062400Y-45688200D03*
X28062400Y-43148200D03*
X28062400Y-40608200D03*
X28062400Y-38068200D03*
X28062400Y-35528200D03*
X28062400Y-32988200D03*
X43282400Y-32988200D03*
D16*
X23812500Y-53900000D03*
X23812500Y-60400000D03*
D12*
X379612000Y-105132000D03*
D16*
X390842000Y-100012000D03*
X380682000Y-100012000D03*
D10*
X385762000Y-100012000D03*
D13*
X383222000Y-105092000D03*
X389572000Y-102552000D03*
D12*
X393212000Y-102592000D03*
X379612000Y-86082500D03*
D16*
X390842000Y-80962500D03*
X380682000Y-80962500D03*
D10*
X385762000Y-80962500D03*
D13*
X383222000Y-86042500D03*
X389572000Y-83502500D03*
D12*
X393212000Y-83542500D03*
X379612000Y-67032500D03*
D16*
X390842000Y-61912500D03*
X380682000Y-61912500D03*
D10*
X385762000Y-61912500D03*
D13*
X383222000Y-66992500D03*
X389572000Y-64452500D03*
D12*
X393212000Y-64492500D03*
X379612000Y-47982500D03*
D16*
X390842000Y-42862500D03*
X380682000Y-42862500D03*
D10*
X385762000Y-42862500D03*
D13*
X383222000Y-47942500D03*
X389572000Y-45402500D03*
D12*
X393212000Y-45442500D03*
X360562000Y-105132000D03*
D16*
X371792000Y-100012000D03*
X361632000Y-100012000D03*
D10*
X366712000Y-100012000D03*
D13*
X364172000Y-105092000D03*
X370522000Y-102552000D03*
D12*
X374162000Y-102592000D03*
X360562000Y-86082500D03*
D16*
X371792000Y-80962500D03*
X361632000Y-80962500D03*
D10*
X366712000Y-80962500D03*
D13*
X364172000Y-86042500D03*
X370522000Y-83502500D03*
D12*
X374162000Y-83542500D03*
X360562000Y-67032500D03*
D16*
X371792000Y-61912500D03*
X361632000Y-61912500D03*
D10*
X366712000Y-61912500D03*
D13*
X364172000Y-66992500D03*
X370522000Y-64452500D03*
D12*
X374162000Y-64492500D03*
X360562000Y-47982500D03*
D16*
X371792000Y-42862500D03*
X361632000Y-42862500D03*
D10*
X366712000Y-42862500D03*
D13*
X364172000Y-47942500D03*
X370522000Y-45402500D03*
D12*
X374162000Y-45442500D03*
X336750000Y-109895000D03*
D16*
X347980000Y-104775000D03*
X337820000Y-104775000D03*
D10*
X342900000Y-104775000D03*
D13*
X340360000Y-109855000D03*
X346710000Y-107315000D03*
D12*
X350350000Y-107355000D03*
X341512000Y-86082500D03*
D16*
X352742000Y-80962500D03*
X342582000Y-80962500D03*
D10*
X347662000Y-80962500D03*
D13*
X345122000Y-86042500D03*
X351472000Y-83502500D03*
D12*
X355112000Y-83542500D03*
X341512000Y-67032500D03*
D16*
X352742000Y-61912500D03*
X342582000Y-61912500D03*
D10*
X347662000Y-61912500D03*
D13*
X345122000Y-66992500D03*
X351472000Y-64452500D03*
D12*
X355112000Y-64492500D03*
X341512000Y-47982500D03*
D16*
X352742000Y-42862500D03*
X342582000Y-42862500D03*
D10*
X347662000Y-42862500D03*
D13*
X345122000Y-47942500D03*
X351472000Y-45402500D03*
D12*
X355112000Y-45442500D03*
X312938000Y-47982500D03*
D16*
X324168000Y-42862500D03*
X314008000Y-42862500D03*
D10*
X319088000Y-42862500D03*
D13*
X316548000Y-47942500D03*
X322898000Y-45402500D03*
D12*
X326538000Y-45442500D03*
X317700000Y-109895000D03*
D16*
X328930000Y-104775000D03*
X318770000Y-104775000D03*
D10*
X323850000Y-104775000D03*
D13*
X321310000Y-109855000D03*
X327660000Y-107315000D03*
D12*
X331300000Y-107355000D03*
X317700000Y-90845000D03*
D16*
X328930000Y-85725000D03*
X318770000Y-85725000D03*
D10*
X323850000Y-85725000D03*
D13*
X321310000Y-90805000D03*
X327660000Y-88265000D03*
D12*
X331300000Y-88305000D03*
X289125000Y-47982500D03*
D16*
X300355000Y-42862500D03*
X290195000Y-42862500D03*
D10*
X295275000Y-42862500D03*
D13*
X292735000Y-47942500D03*
X299085000Y-45402500D03*
D12*
X302725000Y-45442500D03*
X298650000Y-109895000D03*
D16*
X309880000Y-104775000D03*
X299720000Y-104775000D03*
D10*
X304800000Y-104775000D03*
D13*
X302260000Y-109855000D03*
X308610000Y-107315000D03*
D12*
X312250000Y-107355000D03*
X289125000Y-86082500D03*
D16*
X300355000Y-80962500D03*
X290195000Y-80962500D03*
D10*
X295275000Y-80962500D03*
D13*
X292735000Y-86042500D03*
X299085000Y-83502500D03*
D12*
X302725000Y-83542500D03*
X274838000Y-67032500D03*
D16*
X286068000Y-61912500D03*
X275908000Y-61912500D03*
D10*
X280988000Y-61912500D03*
D13*
X278448000Y-66992500D03*
X284798000Y-64452500D03*
D12*
X288438000Y-64492500D03*
X270075000Y-47982500D03*
D16*
X281305000Y-42862500D03*
X271145000Y-42862500D03*
D10*
X276225000Y-42862500D03*
D13*
X273685000Y-47942500D03*
X280035000Y-45402500D03*
D12*
X283675000Y-45442500D03*
X274838000Y-105132000D03*
D16*
X286068000Y-100012000D03*
X275908000Y-100012000D03*
D10*
X280988000Y-100012000D03*
D13*
X278448000Y-105092000D03*
X284798000Y-102552000D03*
D12*
X288438000Y-102592000D03*
X265312000Y-86082500D03*
D16*
X276542000Y-80962500D03*
X266382000Y-80962500D03*
D10*
X271462000Y-80962500D03*
D13*
X268922000Y-86042500D03*
X275272000Y-83502500D03*
D12*
X278912000Y-83542500D03*
X255788000Y-67032500D03*
D16*
X267018000Y-61912500D03*
X256858000Y-61912500D03*
D10*
X261938000Y-61912500D03*
D13*
X259398000Y-66992500D03*
X265748000Y-64452500D03*
D12*
X269388000Y-64492500D03*
X251025000Y-47982500D03*
D16*
X262255000Y-42862500D03*
X252095000Y-42862500D03*
D10*
X257175000Y-42862500D03*
D13*
X254635000Y-47942500D03*
X260985000Y-45402500D03*
D12*
X264625000Y-45442500D03*
X255788000Y-105132000D03*
D16*
X267018000Y-100012000D03*
X256858000Y-100012000D03*
D10*
X261938000Y-100012000D03*
D13*
X259398000Y-105092000D03*
X265748000Y-102552000D03*
D12*
X269388000Y-102592000D03*
X246262000Y-86082500D03*
D16*
X257492000Y-80962500D03*
X247332000Y-80962500D03*
D10*
X252412000Y-80962500D03*
D13*
X249872000Y-86042500D03*
X256222000Y-83502500D03*
D12*
X259862000Y-83542500D03*
X236738000Y-67032500D03*
D16*
X247968000Y-61912500D03*
X237808000Y-61912500D03*
D10*
X242888000Y-61912500D03*
D13*
X240348000Y-66992500D03*
X246698000Y-64452500D03*
D12*
X250338000Y-64492500D03*
X231975000Y-47982500D03*
D16*
X243205000Y-42862500D03*
X233045000Y-42862500D03*
D10*
X238125000Y-42862500D03*
D13*
X235585000Y-47942500D03*
X241935000Y-45402500D03*
D12*
X245575000Y-45442500D03*
X236738000Y-105132000D03*
D16*
X247968000Y-100012000D03*
X237808000Y-100012000D03*
D10*
X242888000Y-100012000D03*
D13*
X240348000Y-105092000D03*
X246698000Y-102552000D03*
D12*
X250338000Y-102592000D03*
X227212000Y-86082500D03*
D16*
X238442000Y-80962500D03*
X228282000Y-80962500D03*
D10*
X233362000Y-80962500D03*
D13*
X230822000Y-86042500D03*
X237172000Y-83502500D03*
D12*
X240812000Y-83542500D03*
X217688000Y-67032500D03*
D16*
X228918000Y-61912500D03*
X218758000Y-61912500D03*
D10*
X223838000Y-61912500D03*
D13*
X221298000Y-66992500D03*
X227648000Y-64452500D03*
D12*
X231288000Y-64492500D03*
X212925000Y-47982500D03*
D16*
X224155000Y-42862500D03*
X213995000Y-42862500D03*
D10*
X219075000Y-42862500D03*
D13*
X216535000Y-47942500D03*
X222885000Y-45402500D03*
D12*
X226525000Y-45442500D03*
X217688000Y-105132000D03*
D16*
X228918000Y-100012000D03*
X218758000Y-100012000D03*
D10*
X223838000Y-100012000D03*
D13*
X221298000Y-105092000D03*
X227648000Y-102552000D03*
D12*
X231288000Y-102592000D03*
X208162000Y-86082500D03*
D16*
X219392000Y-80962500D03*
X209232000Y-80962500D03*
D10*
X214312000Y-80962500D03*
D13*
X211772000Y-86042500D03*
X218122000Y-83502500D03*
D12*
X221762000Y-83542500D03*
X198638000Y-67032500D03*
D16*
X209868000Y-61912500D03*
X199708000Y-61912500D03*
D10*
X204788000Y-61912500D03*
D13*
X202248000Y-66992500D03*
X208598000Y-64452500D03*
D12*
X212238000Y-64492500D03*
X193875000Y-47982500D03*
D16*
X205105000Y-42862500D03*
X194945000Y-42862500D03*
D10*
X200025000Y-42862500D03*
D13*
X197485000Y-47942500D03*
X203835000Y-45402500D03*
D12*
X207475000Y-45442500D03*
X198638000Y-105132000D03*
D16*
X209868000Y-100012000D03*
X199708000Y-100012000D03*
D10*
X204788000Y-100012000D03*
D13*
X202248000Y-105092000D03*
X208598000Y-102552000D03*
D12*
X212238000Y-102592000D03*
X189112000Y-86082500D03*
D16*
X200342000Y-80962500D03*
X190182000Y-80962500D03*
D10*
X195262000Y-80962500D03*
D13*
X192722000Y-86042500D03*
X199072000Y-83502500D03*
D12*
X202712000Y-83542500D03*
X179588000Y-67032500D03*
D16*
X190818000Y-61912500D03*
X180658000Y-61912500D03*
D10*
X185738000Y-61912500D03*
D13*
X183198000Y-66992500D03*
X189548000Y-64452500D03*
D12*
X193188000Y-64492500D03*
X174825000Y-47982500D03*
D16*
X186055000Y-42862500D03*
X175895000Y-42862500D03*
D10*
X180975000Y-42862500D03*
D13*
X178435000Y-47942500D03*
X184785000Y-45402500D03*
D12*
X188425000Y-45442500D03*
X170062000Y-86082500D03*
D16*
X181292000Y-80962500D03*
X171132000Y-80962500D03*
D10*
X176212000Y-80962500D03*
D13*
X173672000Y-86042500D03*
X180022000Y-83502500D03*
D12*
X183662000Y-83542500D03*
X160538000Y-67032500D03*
D16*
X171768000Y-61912500D03*
X161608000Y-61912500D03*
D10*
X166688000Y-61912500D03*
D13*
X164148000Y-66992500D03*
X170498000Y-64452500D03*
D12*
X174138000Y-64492500D03*
X155775000Y-47982500D03*
D16*
X167005000Y-42862500D03*
X156845000Y-42862500D03*
D10*
X161925000Y-42862500D03*
D13*
X159385000Y-47942500D03*
X165735000Y-45402500D03*
D12*
X169375000Y-45442500D03*
X151012000Y-86082500D03*
D16*
X162242000Y-80962500D03*
X152082000Y-80962500D03*
D10*
X157162000Y-80962500D03*
D13*
X154622000Y-86042500D03*
X160972000Y-83502500D03*
D12*
X164612000Y-83542500D03*
X141488000Y-67032500D03*
D16*
X152718000Y-61912500D03*
X142558000Y-61912500D03*
D10*
X147638000Y-61912500D03*
D13*
X145098000Y-66992500D03*
X151448000Y-64452500D03*
D12*
X155088000Y-64492500D03*
X136725000Y-47982500D03*
D16*
X147955000Y-42862500D03*
X137795000Y-42862500D03*
D10*
X142875000Y-42862500D03*
D13*
X140335000Y-47942500D03*
X146685000Y-45402500D03*
D12*
X150325000Y-45442500D03*
X131962000Y-86082500D03*
D16*
X143192000Y-80962500D03*
X133032000Y-80962500D03*
D10*
X138112000Y-80962500D03*
D13*
X135572000Y-86042500D03*
X141922000Y-83502500D03*
D12*
X145562000Y-83542500D03*
X122438000Y-67032500D03*
D16*
X133668000Y-61912500D03*
X123508000Y-61912500D03*
D10*
X128588000Y-61912500D03*
D13*
X126048000Y-66992500D03*
X132398000Y-64452500D03*
D12*
X136038000Y-64492500D03*
X117675000Y-47982500D03*
D16*
X128905000Y-42862500D03*
X118745000Y-42862500D03*
D10*
X123825000Y-42862500D03*
D13*
X121285000Y-47942500D03*
X127635000Y-45402500D03*
D12*
X131275000Y-45442500D03*
X101006000Y-105132000D03*
D16*
X112236000Y-100012000D03*
X102076000Y-100012000D03*
D10*
X107156000Y-100012000D03*
D13*
X104616000Y-105092000D03*
X110966000Y-102552000D03*
D12*
X114606000Y-102592000D03*
X112912000Y-86082500D03*
D16*
X124142000Y-80962500D03*
X113982000Y-80962500D03*
D10*
X119062000Y-80962500D03*
D13*
X116522000Y-86042500D03*
X122872000Y-83502500D03*
D12*
X126512000Y-83542500D03*
X103388000Y-67032500D03*
D16*
X114618000Y-61912500D03*
X104458000Y-61912500D03*
D10*
X109538000Y-61912500D03*
D13*
X106998000Y-66992500D03*
X113348000Y-64452500D03*
D12*
X116988000Y-64492500D03*
X98625000Y-47982500D03*
D16*
X109855000Y-42862500D03*
X99695000Y-42862500D03*
D10*
X104775000Y-42862500D03*
D13*
X102235000Y-47942500D03*
X108585000Y-45402500D03*
D12*
X112225000Y-45442500D03*
X77193800Y-105132000D03*
D16*
X88423800Y-100012000D03*
X78263800Y-100012000D03*
D10*
X83343800Y-100012000D03*
D13*
X80803800Y-105092000D03*
X87153800Y-102552000D03*
D12*
X90793800Y-102592000D03*
X93862000Y-86082500D03*
D16*
X105092000Y-80962500D03*
X94932000Y-80962500D03*
D10*
X100012000Y-80962500D03*
D13*
X97472000Y-86042500D03*
X103822000Y-83502500D03*
D12*
X107462000Y-83542500D03*
X84337500Y-67032500D03*
D16*
X95567500Y-61912500D03*
X85407500Y-61912500D03*
D10*
X90487500Y-61912500D03*
D13*
X87947500Y-66992500D03*
X94297500Y-64452500D03*
D12*
X97937500Y-64492500D03*
X79575000Y-47982500D03*
D16*
X90805000Y-42862500D03*
X80645000Y-42862500D03*
D10*
X85725000Y-42862500D03*
D13*
X83185000Y-47942500D03*
X89535000Y-45402500D03*
D12*
X93175000Y-45442500D03*
X53381200Y-105132000D03*
D16*
X64611200Y-100012000D03*
X54451200Y-100012000D03*
D10*
X59531200Y-100012000D03*
D13*
X56991200Y-105092000D03*
X63341200Y-102552000D03*
D12*
X66981200Y-102592000D03*
X58143800Y-67032500D03*
D16*
X69373800Y-61912500D03*
X59213800Y-61912500D03*
D10*
X64293800Y-61912500D03*
D13*
X61753800Y-66992500D03*
X68103800Y-64452500D03*
D12*
X71743800Y-64492500D03*
X55762500Y-47982500D03*
D16*
X66992500Y-42862500D03*
X56832500Y-42862500D03*
D10*
X61912500Y-42862500D03*
D13*
X59372500Y-47942500D03*
X65722500Y-45402500D03*
D12*
X69362500Y-45442500D03*
D16*
X42718800Y-102512000D03*
X42718800Y-97512000D03*
D17*
X35718800Y-105612000D03*
X35718800Y-94412000D03*
D16*
X28218800Y-102512000D03*
X28218800Y-100012000D03*
X28218800Y-97512000D03*
D12*
X29568800Y-86082500D03*
D16*
X40798800Y-80962500D03*
X30638800Y-80962500D03*
D10*
X35718800Y-80962500D03*
D13*
X33178800Y-86042500D03*
X39528800Y-83502500D03*
D12*
X43168800Y-83542500D03*
D18*
X39528800Y-69056200D03*
X36988800Y-69056200D03*
X34448800Y-69056200D03*
X31908800Y-69056200D03*
D19*
X382812000Y-96000000D03*
X382812000Y-94500000D03*
X388712000Y-94500000D03*
X388712000Y-96000000D03*
X382812000Y-76950000D03*
X382812000Y-75450000D03*
X388712000Y-75450000D03*
X388712000Y-76950000D03*
X382812000Y-57900000D03*
X382812000Y-56400000D03*
X388712000Y-56400000D03*
X388712000Y-57900000D03*
X382812000Y-38850000D03*
X382812000Y-37350000D03*
X388712000Y-37350000D03*
X388712000Y-38850000D03*
X363762000Y-38850000D03*
X363762000Y-37350000D03*
X369662000Y-37350000D03*
X369662000Y-38850000D03*
X363762000Y-57900000D03*
X363762000Y-56400000D03*
X369662000Y-56400000D03*
X369662000Y-57900000D03*
X363762000Y-76950000D03*
X363762000Y-75450000D03*
X369662000Y-75450000D03*
X369662000Y-76950000D03*
X363762000Y-96000000D03*
X363762000Y-94500000D03*
X369662000Y-94500000D03*
X369662000Y-96000000D03*
X339950000Y-100762000D03*
X339950000Y-99262000D03*
X345850000Y-99262000D03*
X345850000Y-100762000D03*
X344712000Y-76950000D03*
X344712000Y-75450000D03*
X350612000Y-75450000D03*
X350612000Y-76950000D03*
X344712000Y-57900000D03*
X344712000Y-56400000D03*
X350612000Y-56400000D03*
X350612000Y-57900000D03*
X344712000Y-38850000D03*
X344712000Y-37350000D03*
X350612000Y-37350000D03*
X350612000Y-38850000D03*
X316138000Y-38850000D03*
X316138000Y-37350000D03*
X322038000Y-37350000D03*
X322038000Y-38850000D03*
X292325000Y-38850000D03*
X292325000Y-37350000D03*
X298225000Y-37350000D03*
X298225000Y-38850000D03*
X308994000Y-57900000D03*
X308994000Y-56400000D03*
X314894000Y-56400000D03*
X314894000Y-57900000D03*
X320900000Y-81712500D03*
X320900000Y-80212500D03*
X326800000Y-80212500D03*
X326800000Y-81712500D03*
X320900000Y-100762000D03*
X320900000Y-99262000D03*
X326800000Y-99262000D03*
X326800000Y-100762000D03*
X301850000Y-100762000D03*
X301850000Y-99262000D03*
X307750000Y-99262000D03*
X307750000Y-100762000D03*
X292325000Y-76950000D03*
X292325000Y-75450000D03*
X298225000Y-75450000D03*
X298225000Y-76950000D03*
X278038000Y-57900000D03*
X278038000Y-56400000D03*
X283938000Y-56400000D03*
X283938000Y-57900000D03*
X273275000Y-38850000D03*
X273275000Y-37350000D03*
X279175000Y-37350000D03*
X279175000Y-38850000D03*
X254225000Y-38850000D03*
X254225000Y-37350000D03*
X260125000Y-37350000D03*
X260125000Y-38850000D03*
X258988000Y-57900000D03*
X258988000Y-56400000D03*
X264888000Y-56400000D03*
X264888000Y-57900000D03*
X268512000Y-76950000D03*
X268512000Y-75450000D03*
X274412000Y-75450000D03*
X274412000Y-76950000D03*
X278038000Y-96000000D03*
X278038000Y-94500000D03*
X283938000Y-94500000D03*
X283938000Y-96000000D03*
X258988000Y-96000000D03*
X258988000Y-94500000D03*
X264888000Y-94500000D03*
X264888000Y-96000000D03*
X249462000Y-76950000D03*
X249462000Y-75450000D03*
X255362000Y-75450000D03*
X255362000Y-76950000D03*
X239938000Y-57900000D03*
X239938000Y-56400000D03*
X245838000Y-56400000D03*
X245838000Y-57900000D03*
X234956000Y-38750000D03*
X234956000Y-37250000D03*
X240856000Y-37250000D03*
X240856000Y-38750000D03*
X216125000Y-38850000D03*
X216125000Y-37350000D03*
X222025000Y-37350000D03*
X222025000Y-38850000D03*
X220888000Y-57900000D03*
X220888000Y-56400000D03*
X226788000Y-56400000D03*
X226788000Y-57900000D03*
X230412000Y-76950000D03*
X230412000Y-75450000D03*
X236312000Y-75450000D03*
X236312000Y-76950000D03*
X239938000Y-96000000D03*
X239938000Y-94500000D03*
X245838000Y-94500000D03*
X245838000Y-96000000D03*
X220888000Y-96000000D03*
X220888000Y-94500000D03*
X226788000Y-94500000D03*
X226788000Y-96000000D03*
X211362000Y-76950000D03*
X211362000Y-75450000D03*
X217262000Y-75450000D03*
X217262000Y-76950000D03*
X201838000Y-57900000D03*
X201838000Y-56400000D03*
X207738000Y-56400000D03*
X207738000Y-57900000D03*
X197075000Y-38850000D03*
X197075000Y-37350000D03*
X202975000Y-37350000D03*
X202975000Y-38850000D03*
X178025000Y-38850000D03*
X178025000Y-37350000D03*
X183925000Y-37350000D03*
X183925000Y-38850000D03*
X182788000Y-57900000D03*
X182788000Y-56400000D03*
X188688000Y-56400000D03*
X188688000Y-57900000D03*
X192312000Y-76950000D03*
X192312000Y-75450000D03*
X198212000Y-75450000D03*
X198212000Y-76950000D03*
X201838000Y-96000000D03*
X201838000Y-94500000D03*
X207738000Y-94500000D03*
X207738000Y-96000000D03*
X173262000Y-96000000D03*
X173262000Y-94500000D03*
X179162000Y-94500000D03*
X179162000Y-96000000D03*
X173262000Y-76950000D03*
X173262000Y-75450000D03*
X179162000Y-75450000D03*
X179162000Y-76950000D03*
X163738000Y-57900000D03*
X163738000Y-56400000D03*
X169638000Y-56400000D03*
X169638000Y-57900000D03*
X158975000Y-38850000D03*
X158975000Y-37350000D03*
X164875000Y-37350000D03*
X164875000Y-38850000D03*
X139925000Y-38850000D03*
X139925000Y-37350000D03*
X145825000Y-37350000D03*
X145825000Y-38850000D03*
X144688000Y-57900000D03*
X144688000Y-56400000D03*
X150588000Y-56400000D03*
X150588000Y-57900000D03*
X154212000Y-76950000D03*
X154212000Y-75450000D03*
X160112000Y-75450000D03*
X160112000Y-76950000D03*
X135162000Y-96000000D03*
X135162000Y-94500000D03*
X141062000Y-94500000D03*
X141062000Y-96000000D03*
X135162000Y-76950000D03*
X135162000Y-75450000D03*
X141062000Y-75450000D03*
X141062000Y-76950000D03*
X125638000Y-57900000D03*
X125638000Y-56400000D03*
X131538000Y-56400000D03*
X131538000Y-57900000D03*
X120875000Y-38850000D03*
X120875000Y-37350000D03*
X126775000Y-37350000D03*
X126775000Y-38850000D03*
X101825000Y-38850000D03*
X101825000Y-37350000D03*
X107725000Y-37350000D03*
X107725000Y-38850000D03*
X106588000Y-57900000D03*
X106588000Y-56400000D03*
X112488000Y-56400000D03*
X112488000Y-57900000D03*
X116112000Y-76950000D03*
X116112000Y-75450000D03*
X122012000Y-75450000D03*
X122012000Y-76950000D03*
X104206000Y-96000000D03*
X104206000Y-94500000D03*
X110106000Y-94500000D03*
X110106000Y-96000000D03*
X80393800Y-96000000D03*
X80393800Y-94500000D03*
X86293800Y-94500000D03*
X86293800Y-96000000D03*
X97062000Y-76950000D03*
X97062000Y-75450000D03*
X102962000Y-75450000D03*
X102962000Y-76950000D03*
X87537500Y-57900000D03*
X87537500Y-56400000D03*
X93437500Y-56400000D03*
X93437500Y-57900000D03*
X82775000Y-38850000D03*
X82775000Y-37350000D03*
X88675000Y-37350000D03*
X88675000Y-38850000D03*
X58962500Y-38850000D03*
X58962500Y-37350000D03*
X64862500Y-37350000D03*
X64862500Y-38850000D03*
X61343800Y-57900000D03*
X61343800Y-56400000D03*
X67243800Y-56400000D03*
X67243800Y-57900000D03*
X66106200Y-76950000D03*
X66106200Y-75450000D03*
X72006200Y-75450000D03*
X72006200Y-76950000D03*
X56581200Y-96000000D03*
X56581200Y-94500000D03*
X62481200Y-94500000D03*
X62481200Y-96000000D03*
X32768800Y-110288000D03*
X32768800Y-108788000D03*
X38668800Y-108788000D03*
X38668800Y-110288000D03*
X32768800Y-76950000D03*
X32768800Y-75450000D03*
X38668800Y-75450000D03*
X38668800Y-76950000D03*
D20*
X23862500Y-47743800D03*
X23862500Y-45243800D03*
X23862500Y-42743800D03*
D21*
X376238000Y-99406200D03*
X376238000Y-95856200D03*
X376238000Y-80356200D03*
X376238000Y-76806200D03*
X376238000Y-61306200D03*
X376238000Y-57756200D03*
X376238000Y-42256200D03*
X376238000Y-38706200D03*
X357188000Y-99406200D03*
X357188000Y-95856200D03*
X357188000Y-80356200D03*
X357188000Y-76806200D03*
X357188000Y-61306200D03*
X357188000Y-57756200D03*
X357188000Y-42256200D03*
X357188000Y-38706200D03*
X333375000Y-104169000D03*
X333375000Y-100619000D03*
X338138000Y-80356200D03*
X338138000Y-76806200D03*
X338138000Y-61306200D03*
X338138000Y-57756200D03*
X338138000Y-42256200D03*
X338138000Y-38706200D03*
X309562000Y-42256200D03*
X309562000Y-38706200D03*
X314325000Y-104169000D03*
X314325000Y-100619000D03*
X314325000Y-85118800D03*
X314325000Y-81568800D03*
X302419000Y-61306200D03*
X302419000Y-57756200D03*
X285750000Y-42256200D03*
X285750000Y-38706200D03*
X295275000Y-104169000D03*
X295275000Y-100619000D03*
X285750000Y-80356200D03*
X285750000Y-76806200D03*
X271462000Y-61306200D03*
X271462000Y-57756200D03*
X266700000Y-42256200D03*
X266700000Y-38706200D03*
X271462000Y-99406200D03*
X271462000Y-95856200D03*
X261938000Y-80356200D03*
X261938000Y-76806200D03*
X252412000Y-61306200D03*
X252412000Y-57756200D03*
X247650000Y-42256200D03*
X247650000Y-38706200D03*
X252412000Y-99406200D03*
X252412000Y-95856200D03*
X242888000Y-80356200D03*
X242888000Y-76806200D03*
X233362000Y-61306200D03*
X233362000Y-57756200D03*
X228600000Y-42256200D03*
X228600000Y-38706200D03*
X233362000Y-99406200D03*
X233362000Y-95856200D03*
X223838000Y-80356200D03*
X223838000Y-76806200D03*
X214312000Y-61306200D03*
X214312000Y-57756200D03*
X209550000Y-42256200D03*
X209550000Y-38706200D03*
X214312000Y-99406200D03*
X214312000Y-95856200D03*
X204788000Y-80356200D03*
X204788000Y-76806200D03*
X195262000Y-61306200D03*
X195262000Y-57756200D03*
X190500000Y-42256200D03*
X190500000Y-38706200D03*
X195262000Y-99406200D03*
X195262000Y-95856200D03*
X185738000Y-80356200D03*
X185738000Y-76806200D03*
X176212000Y-61306200D03*
X176212000Y-57756200D03*
X171450000Y-42256200D03*
X171450000Y-38706200D03*
X166688000Y-99406200D03*
X166688000Y-95856200D03*
X166688000Y-80356200D03*
X166688000Y-76806200D03*
X157162000Y-61306200D03*
X157162000Y-57756200D03*
X152400000Y-42256200D03*
X152400000Y-38706200D03*
X147638000Y-80356200D03*
X147638000Y-76806200D03*
X138112000Y-61306200D03*
X138112000Y-57756200D03*
X133350000Y-42256200D03*
X133350000Y-38706200D03*
X128588000Y-99406200D03*
X128588000Y-95856200D03*
X128588000Y-80356200D03*
X128588000Y-76806200D03*
X119062000Y-61306200D03*
X119062000Y-57756200D03*
X114300000Y-42256200D03*
X114300000Y-38706200D03*
X97631200Y-99406200D03*
X97631200Y-95856200D03*
X109538000Y-80356200D03*
X109538000Y-76806200D03*
X100012000Y-61306200D03*
X100012000Y-57756200D03*
X95250000Y-42256200D03*
X95250000Y-38706200D03*
X73818800Y-99406200D03*
X73818800Y-95856200D03*
X90487500Y-80356200D03*
X90487500Y-76806200D03*
X80962500Y-61306200D03*
X80962500Y-57756200D03*
X76200000Y-42256200D03*
X76200000Y-38706200D03*
X50006200Y-99406200D03*
X50006200Y-95856200D03*
X59531200Y-80356200D03*
X59531200Y-76806200D03*
X54768800Y-61306200D03*
X54768800Y-57756200D03*
X52387500Y-42256200D03*
X52387500Y-38706200D03*
X45243800Y-101787000D03*
X45243800Y-98237000D03*
X26193800Y-80356200D03*
X26193800Y-76806200D03*
M02*
