G04 #@! TF.GenerationSoftware,KiCad,Pcbnew,(5.1.12)-1*
G04 #@! TF.CreationDate,2023-11-03T11:44:58+09:00*
G04 #@! TF.ProjectId,jtnk64w,6a746e6b-3634-4772-9e6b-696361645f70,rev?*
G04 #@! TF.SameCoordinates,Original*
G04 #@! TF.FileFunction,Copper,L2,Bot*
G04 #@! TF.FilePolarity,Positive*
%FSLAX46Y46*%
G04 Gerber Fmt 4.6, Leading zero omitted, Abs format (unit mm)*
G04 Created by KiCad (PCBNEW (5.1.12)-1) date 2023-11-03 11:44:58*
%MOMM*%
%LPD*%
G01*
G04 APERTURE LIST*
G04 #@! TA.AperFunction,SMDPad,CuDef*
%ADD10R,3.300000X3.000000*%
G04 #@! TD*
G04 #@! TA.AperFunction,ComponentPad*
%ADD11C,1.524000*%
G04 #@! TD*
G04 #@! TA.AperFunction,ComponentPad*
%ADD12C,2.000000*%
G04 #@! TD*
G04 #@! TA.AperFunction,ComponentPad*
%ADD13R,3.200000X2.500000*%
G04 #@! TD*
G04 #@! TA.AperFunction,ComponentPad*
%ADD14C,1.397000*%
G04 #@! TD*
G04 #@! TA.AperFunction,SMDPad,CuDef*
%ADD15R,2.200000X0.820000*%
G04 #@! TD*
G04 #@! TA.AperFunction,ComponentPad*
%ADD16O,1.500000X1.500000*%
G04 #@! TD*
G04 #@! TA.AperFunction,SMDPad,CuDef*
%ADD17R,0.950000X1.300000*%
G04 #@! TD*
G04 #@! TA.AperFunction,ViaPad*
%ADD18C,0.800000*%
G04 #@! TD*
G04 #@! TA.AperFunction,Conductor*
%ADD19C,0.250000*%
G04 #@! TD*
G04 #@! TA.AperFunction,Conductor*
%ADD20C,0.500000*%
G04 #@! TD*
G04 APERTURE END LIST*
D10*
X319344000Y-64452500D03*
X305844000Y-66992500D03*
X183612000Y-102552000D03*
X170112000Y-105092000D03*
X145512000Y-102552000D03*
X132012000Y-105092000D03*
X76456200Y-83502500D03*
X62956200Y-86042500D03*
D11*
X43282400Y-35528200D03*
X43282400Y-38068200D03*
X43282400Y-40608200D03*
X43282400Y-43148200D03*
X43282400Y-45688200D03*
X43282400Y-48228200D03*
X43282400Y-50768200D03*
X43282400Y-53308200D03*
X43282400Y-55848200D03*
X43282400Y-58388200D03*
X43282400Y-60928200D03*
X43282400Y-63468200D03*
X28062400Y-63468200D03*
X28062400Y-60928200D03*
X28062400Y-58388200D03*
X28062400Y-55848200D03*
X28062400Y-53308200D03*
X28062400Y-50768200D03*
X28062400Y-48228200D03*
X28062400Y-45688200D03*
X28062400Y-43148200D03*
X28062400Y-40608200D03*
X28062400Y-38068200D03*
X28062400Y-35528200D03*
X28062400Y-32988200D03*
X43282400Y-32988200D03*
D12*
X23812500Y-53900000D03*
X23812500Y-60400000D03*
D10*
X379612000Y-105132000D03*
X393212000Y-102592000D03*
X379612000Y-86082500D03*
X393212000Y-83542500D03*
X379612000Y-67032500D03*
X393212000Y-64492500D03*
X379612000Y-47982500D03*
X393212000Y-45442500D03*
X360562000Y-105132000D03*
X374162000Y-102592000D03*
X360562000Y-86082500D03*
X374162000Y-83542500D03*
X360562000Y-67032500D03*
X374162000Y-64492500D03*
X360562000Y-47982500D03*
X374162000Y-45442500D03*
X336750000Y-109895000D03*
X350350000Y-107355000D03*
X341512000Y-86082500D03*
X355112000Y-83542500D03*
X341512000Y-67032500D03*
X355112000Y-64492500D03*
X341512000Y-47982500D03*
X355112000Y-45442500D03*
X312938000Y-47982500D03*
X326538000Y-45442500D03*
X317700000Y-109895000D03*
X331300000Y-107355000D03*
X317700000Y-90845000D03*
X331300000Y-88305000D03*
X289125000Y-47982500D03*
X302725000Y-45442500D03*
X298650000Y-109895000D03*
X312250000Y-107355000D03*
X289125000Y-86082500D03*
X302725000Y-83542500D03*
X274838000Y-67032500D03*
X288438000Y-64492500D03*
X270075000Y-47982500D03*
X283675000Y-45442500D03*
X274838000Y-105132000D03*
X288438000Y-102592000D03*
X265312000Y-86082500D03*
X278912000Y-83542500D03*
X255788000Y-67032500D03*
X269388000Y-64492500D03*
X251025000Y-47982500D03*
X264625000Y-45442500D03*
X255788000Y-105132000D03*
X269388000Y-102592000D03*
X246262000Y-86082500D03*
X259862000Y-83542500D03*
X236738000Y-67032500D03*
X250338000Y-64492500D03*
X231975000Y-47982500D03*
X245575000Y-45442500D03*
X236738000Y-105132000D03*
X250338000Y-102592000D03*
X227212000Y-86082500D03*
X240812000Y-83542500D03*
X217688000Y-67032500D03*
X231288000Y-64492500D03*
X212925000Y-47982500D03*
X226525000Y-45442500D03*
X217688000Y-105132000D03*
X231288000Y-102592000D03*
X208162000Y-86082500D03*
X221762000Y-83542500D03*
X198638000Y-67032500D03*
X212238000Y-64492500D03*
X193875000Y-47982500D03*
X207475000Y-45442500D03*
X198638000Y-105132000D03*
X212238000Y-102592000D03*
X189112000Y-86082500D03*
X202712000Y-83542500D03*
X179588000Y-67032500D03*
X193188000Y-64492500D03*
X174825000Y-47982500D03*
X188425000Y-45442500D03*
X170062000Y-86082500D03*
X183662000Y-83542500D03*
X160538000Y-67032500D03*
X174138000Y-64492500D03*
X155775000Y-47982500D03*
X169375000Y-45442500D03*
X151012000Y-86082500D03*
X164612000Y-83542500D03*
X141488000Y-67032500D03*
X155088000Y-64492500D03*
X136725000Y-47982500D03*
X150325000Y-45442500D03*
X131962000Y-86082500D03*
X145562000Y-83542500D03*
X122438000Y-67032500D03*
X136038000Y-64492500D03*
X117675000Y-47982500D03*
X131275000Y-45442500D03*
X101006000Y-105132000D03*
X114606000Y-102592000D03*
X112912000Y-86082500D03*
X126512000Y-83542500D03*
X103388000Y-67032500D03*
X116988000Y-64492500D03*
X98625000Y-47982500D03*
X112225000Y-45442500D03*
X77193800Y-105132000D03*
X90793800Y-102592000D03*
X93862000Y-86082500D03*
X107462000Y-83542500D03*
X84337500Y-67032500D03*
X97937500Y-64492500D03*
X79575000Y-47982500D03*
X93175000Y-45442500D03*
X53381200Y-105132000D03*
X66981200Y-102592000D03*
X58143800Y-67032500D03*
X71743800Y-64492500D03*
X55762500Y-47982500D03*
X69362500Y-45442500D03*
D12*
X42718800Y-102512000D03*
X42718800Y-97512000D03*
D13*
X35718800Y-105612000D03*
X35718800Y-94412000D03*
D12*
X28218800Y-102512000D03*
X28218800Y-100012000D03*
X28218800Y-97512000D03*
D10*
X29568800Y-86082500D03*
X43168800Y-83542500D03*
D14*
X39528800Y-69056200D03*
X36988800Y-69056200D03*
X34448800Y-69056200D03*
X31908800Y-69056200D03*
D15*
X382812000Y-96000000D03*
X382812000Y-94500000D03*
X388712000Y-94500000D03*
X388712000Y-96000000D03*
X382812000Y-76950000D03*
X382812000Y-75450000D03*
X388712000Y-75450000D03*
X388712000Y-76950000D03*
X382812000Y-57900000D03*
X382812000Y-56400000D03*
X388712000Y-56400000D03*
X388712000Y-57900000D03*
X382812000Y-38850000D03*
X382812000Y-37350000D03*
X388712000Y-37350000D03*
X388712000Y-38850000D03*
X363762000Y-38850000D03*
X363762000Y-37350000D03*
X369662000Y-37350000D03*
X369662000Y-38850000D03*
X363762000Y-57900000D03*
X363762000Y-56400000D03*
X369662000Y-56400000D03*
X369662000Y-57900000D03*
X363762000Y-76950000D03*
X363762000Y-75450000D03*
X369662000Y-75450000D03*
X369662000Y-76950000D03*
X363762000Y-96000000D03*
X363762000Y-94500000D03*
X369662000Y-94500000D03*
X369662000Y-96000000D03*
X339950000Y-100762000D03*
X339950000Y-99262000D03*
X345850000Y-99262000D03*
X345850000Y-100762000D03*
X344712000Y-76950000D03*
X344712000Y-75450000D03*
X350612000Y-75450000D03*
X350612000Y-76950000D03*
X344712000Y-57900000D03*
X344712000Y-56400000D03*
X350612000Y-56400000D03*
X350612000Y-57900000D03*
X344712000Y-38850000D03*
X344712000Y-37350000D03*
X350612000Y-37350000D03*
X350612000Y-38850000D03*
X316138000Y-38850000D03*
X316138000Y-37350000D03*
X322038000Y-37350000D03*
X322038000Y-38850000D03*
X292325000Y-38850000D03*
X292325000Y-37350000D03*
X298225000Y-37350000D03*
X298225000Y-38850000D03*
X308994000Y-57900000D03*
X308994000Y-56400000D03*
X314894000Y-56400000D03*
X314894000Y-57900000D03*
X320900000Y-81712500D03*
X320900000Y-80212500D03*
X326800000Y-80212500D03*
X326800000Y-81712500D03*
X320900000Y-100762000D03*
X320900000Y-99262000D03*
X326800000Y-99262000D03*
X326800000Y-100762000D03*
X301850000Y-100762000D03*
X301850000Y-99262000D03*
X307750000Y-99262000D03*
X307750000Y-100762000D03*
X292325000Y-76950000D03*
X292325000Y-75450000D03*
X298225000Y-75450000D03*
X298225000Y-76950000D03*
X278038000Y-57900000D03*
X278038000Y-56400000D03*
X283938000Y-56400000D03*
X283938000Y-57900000D03*
X273275000Y-38850000D03*
X273275000Y-37350000D03*
X279175000Y-37350000D03*
X279175000Y-38850000D03*
X254225000Y-38850000D03*
X254225000Y-37350000D03*
X260125000Y-37350000D03*
X260125000Y-38850000D03*
X258988000Y-57900000D03*
X258988000Y-56400000D03*
X264888000Y-56400000D03*
X264888000Y-57900000D03*
X268512000Y-76950000D03*
X268512000Y-75450000D03*
X274412000Y-75450000D03*
X274412000Y-76950000D03*
X278038000Y-96000000D03*
X278038000Y-94500000D03*
X283938000Y-94500000D03*
X283938000Y-96000000D03*
X258988000Y-96000000D03*
X258988000Y-94500000D03*
X264888000Y-94500000D03*
X264888000Y-96000000D03*
X249462000Y-76950000D03*
X249462000Y-75450000D03*
X255362000Y-75450000D03*
X255362000Y-76950000D03*
X239938000Y-57900000D03*
X239938000Y-56400000D03*
X245838000Y-56400000D03*
X245838000Y-57900000D03*
X234956000Y-38750000D03*
X234956000Y-37250000D03*
X240856000Y-37250000D03*
X240856000Y-38750000D03*
X216125000Y-38850000D03*
X216125000Y-37350000D03*
X222025000Y-37350000D03*
X222025000Y-38850000D03*
X220888000Y-57900000D03*
X220888000Y-56400000D03*
X226788000Y-56400000D03*
X226788000Y-57900000D03*
X230412000Y-76950000D03*
X230412000Y-75450000D03*
X236312000Y-75450000D03*
X236312000Y-76950000D03*
X239938000Y-96000000D03*
X239938000Y-94500000D03*
X245838000Y-94500000D03*
X245838000Y-96000000D03*
X220888000Y-96000000D03*
X220888000Y-94500000D03*
X226788000Y-94500000D03*
X226788000Y-96000000D03*
X211362000Y-76950000D03*
X211362000Y-75450000D03*
X217262000Y-75450000D03*
X217262000Y-76950000D03*
X201838000Y-57900000D03*
X201838000Y-56400000D03*
X207738000Y-56400000D03*
X207738000Y-57900000D03*
X197075000Y-38850000D03*
X197075000Y-37350000D03*
X202975000Y-37350000D03*
X202975000Y-38850000D03*
X178025000Y-38850000D03*
X178025000Y-37350000D03*
X183925000Y-37350000D03*
X183925000Y-38850000D03*
X182788000Y-57900000D03*
X182788000Y-56400000D03*
X188688000Y-56400000D03*
X188688000Y-57900000D03*
X192312000Y-76950000D03*
X192312000Y-75450000D03*
X198212000Y-75450000D03*
X198212000Y-76950000D03*
X201838000Y-96000000D03*
X201838000Y-94500000D03*
X207738000Y-94500000D03*
X207738000Y-96000000D03*
X173262000Y-96000000D03*
X173262000Y-94500000D03*
X179162000Y-94500000D03*
X179162000Y-96000000D03*
X173262000Y-76950000D03*
X173262000Y-75450000D03*
X179162000Y-75450000D03*
X179162000Y-76950000D03*
X163738000Y-57900000D03*
X163738000Y-56400000D03*
X169638000Y-56400000D03*
X169638000Y-57900000D03*
X158975000Y-38850000D03*
X158975000Y-37350000D03*
X164875000Y-37350000D03*
X164875000Y-38850000D03*
X139925000Y-38850000D03*
X139925000Y-37350000D03*
X145825000Y-37350000D03*
X145825000Y-38850000D03*
X144688000Y-57900000D03*
X144688000Y-56400000D03*
X150588000Y-56400000D03*
X150588000Y-57900000D03*
X154212000Y-76950000D03*
X154212000Y-75450000D03*
X160112000Y-75450000D03*
X160112000Y-76950000D03*
X135162000Y-96000000D03*
X135162000Y-94500000D03*
X141062000Y-94500000D03*
X141062000Y-96000000D03*
X135162000Y-76950000D03*
X135162000Y-75450000D03*
X141062000Y-75450000D03*
X141062000Y-76950000D03*
X125638000Y-57900000D03*
X125638000Y-56400000D03*
X131538000Y-56400000D03*
X131538000Y-57900000D03*
X120875000Y-38850000D03*
X120875000Y-37350000D03*
X126775000Y-37350000D03*
X126775000Y-38850000D03*
X101825000Y-38850000D03*
X101825000Y-37350000D03*
X107725000Y-37350000D03*
X107725000Y-38850000D03*
X106588000Y-57900000D03*
X106588000Y-56400000D03*
X112488000Y-56400000D03*
X112488000Y-57900000D03*
X116112000Y-76950000D03*
X116112000Y-75450000D03*
X122012000Y-75450000D03*
X122012000Y-76950000D03*
X104206000Y-96000000D03*
X104206000Y-94500000D03*
X110106000Y-94500000D03*
X110106000Y-96000000D03*
X80393800Y-96000000D03*
X80393800Y-94500000D03*
X86293800Y-94500000D03*
X86293800Y-96000000D03*
X97062000Y-76950000D03*
X97062000Y-75450000D03*
X102962000Y-75450000D03*
X102962000Y-76950000D03*
X87537500Y-57900000D03*
X87537500Y-56400000D03*
X93437500Y-56400000D03*
X93437500Y-57900000D03*
X82775000Y-38850000D03*
X82775000Y-37350000D03*
X88675000Y-37350000D03*
X88675000Y-38850000D03*
X58962500Y-38850000D03*
X58962500Y-37350000D03*
X64862500Y-37350000D03*
X64862500Y-38850000D03*
X61343800Y-57900000D03*
X61343800Y-56400000D03*
X67243800Y-56400000D03*
X67243800Y-57900000D03*
X66106200Y-76950000D03*
X66106200Y-75450000D03*
X72006200Y-75450000D03*
X72006200Y-76950000D03*
X56581200Y-96000000D03*
X56581200Y-94500000D03*
X62481200Y-94500000D03*
X62481200Y-96000000D03*
X32768800Y-110288000D03*
X32768800Y-108788000D03*
X38668800Y-108788000D03*
X38668800Y-110288000D03*
X32768800Y-76950000D03*
X32768800Y-75450000D03*
X38668800Y-75450000D03*
X38668800Y-76950000D03*
D16*
X23862500Y-47743800D03*
X23862500Y-45243800D03*
X23862500Y-42743800D03*
D17*
X376238000Y-99406200D03*
X376238000Y-95856200D03*
X376238000Y-80356200D03*
X376238000Y-76806200D03*
X376238000Y-61306200D03*
X376238000Y-57756200D03*
X376238000Y-42256200D03*
X376238000Y-38706200D03*
X357188000Y-99406200D03*
X357188000Y-95856200D03*
X357188000Y-80356200D03*
X357188000Y-76806200D03*
X357188000Y-61306200D03*
X357188000Y-57756200D03*
X357188000Y-42256200D03*
X357188000Y-38706200D03*
X333375000Y-104169000D03*
X333375000Y-100619000D03*
X338138000Y-80356200D03*
X338138000Y-76806200D03*
X338138000Y-61306200D03*
X338138000Y-57756200D03*
X338138000Y-42256200D03*
X338138000Y-38706200D03*
X309562000Y-42256200D03*
X309562000Y-38706200D03*
X314325000Y-104169000D03*
X314325000Y-100619000D03*
X314325000Y-85118800D03*
X314325000Y-81568800D03*
X302419000Y-61306200D03*
X302419000Y-57756200D03*
X285750000Y-42256200D03*
X285750000Y-38706200D03*
X295275000Y-104169000D03*
X295275000Y-100619000D03*
X285750000Y-80356200D03*
X285750000Y-76806200D03*
X271462000Y-61306200D03*
X271462000Y-57756200D03*
X266700000Y-42256200D03*
X266700000Y-38706200D03*
X271462000Y-99406200D03*
X271462000Y-95856200D03*
X261938000Y-80356200D03*
X261938000Y-76806200D03*
X252412000Y-61306200D03*
X252412000Y-57756200D03*
X247650000Y-42256200D03*
X247650000Y-38706200D03*
X252412000Y-99406200D03*
X252412000Y-95856200D03*
X242888000Y-80356200D03*
X242888000Y-76806200D03*
X233362000Y-61306200D03*
X233362000Y-57756200D03*
X228600000Y-42256200D03*
X228600000Y-38706200D03*
X233362000Y-99406200D03*
X233362000Y-95856200D03*
X223838000Y-80356200D03*
X223838000Y-76806200D03*
X214312000Y-61306200D03*
X214312000Y-57756200D03*
X209550000Y-42256200D03*
X209550000Y-38706200D03*
X214312000Y-99406200D03*
X214312000Y-95856200D03*
X204788000Y-80356200D03*
X204788000Y-76806200D03*
X195262000Y-61306200D03*
X195262000Y-57756200D03*
X190500000Y-42256200D03*
X190500000Y-38706200D03*
X195262000Y-99406200D03*
X195262000Y-95856200D03*
X185738000Y-80356200D03*
X185738000Y-76806200D03*
X176212000Y-61306200D03*
X176212000Y-57756200D03*
X171450000Y-42256200D03*
X171450000Y-38706200D03*
X166688000Y-99406200D03*
X166688000Y-95856200D03*
X166688000Y-80356200D03*
X166688000Y-76806200D03*
X157162000Y-61306200D03*
X157162000Y-57756200D03*
X152400000Y-42256200D03*
X152400000Y-38706200D03*
X147638000Y-80356200D03*
X147638000Y-76806200D03*
X138112000Y-61306200D03*
X138112000Y-57756200D03*
X133350000Y-42256200D03*
X133350000Y-38706200D03*
X128588000Y-99406200D03*
X128588000Y-95856200D03*
X128588000Y-80356200D03*
X128588000Y-76806200D03*
X119062000Y-61306200D03*
X119062000Y-57756200D03*
X114300000Y-42256200D03*
X114300000Y-38706200D03*
X97631200Y-99406200D03*
X97631200Y-95856200D03*
X109538000Y-80356200D03*
X109538000Y-76806200D03*
X100012000Y-61306200D03*
X100012000Y-57756200D03*
X95250000Y-42256200D03*
X95250000Y-38706200D03*
X73818800Y-99406200D03*
X73818800Y-95856200D03*
X90487500Y-80356200D03*
X90487500Y-76806200D03*
X80962500Y-61306200D03*
X80962500Y-57756200D03*
X76200000Y-42256200D03*
X76200000Y-38706200D03*
X50006200Y-99406200D03*
X50006200Y-95856200D03*
X59531200Y-80356200D03*
X59531200Y-76806200D03*
X54768800Y-61306200D03*
X54768800Y-57756200D03*
X52387500Y-42256200D03*
X52387500Y-38706200D03*
X45243800Y-101787000D03*
X45243800Y-98237000D03*
X26193800Y-80356200D03*
X26193800Y-76806200D03*
D18*
X52189200Y-73331800D03*
X216658200Y-79172700D03*
X209325300Y-77456700D03*
X27670000Y-68300000D03*
X24171700Y-55965500D03*
X230745800Y-98214100D03*
X93000900Y-96503500D03*
X74919300Y-96508200D03*
X50429200Y-97496500D03*
X196696600Y-96490700D03*
X215764400Y-96508500D03*
X356185100Y-101253300D03*
X357631700Y-102993400D03*
X55229600Y-45163900D03*
X55007200Y-43426500D03*
X203021700Y-41307100D03*
X193890700Y-38857000D03*
X52167500Y-53665900D03*
X210290300Y-60165900D03*
X199547200Y-58444200D03*
X52931500Y-101518900D03*
X50234300Y-101518900D03*
X82390000Y-62800000D03*
X84430000Y-65006800D03*
X212265500Y-42199800D03*
X212413600Y-39535500D03*
X215803300Y-62377400D03*
X216124300Y-58449100D03*
X224629900Y-81541400D03*
X221924100Y-77431700D03*
X235147700Y-99451900D03*
X234512300Y-96498200D03*
X226712000Y-42208000D03*
X225171500Y-39531100D03*
X234013000Y-62579400D03*
X232258600Y-57756200D03*
X243924400Y-81678600D03*
X243973500Y-77444500D03*
X254005800Y-100431000D03*
X254005800Y-96480000D03*
X250516600Y-43593100D03*
X250204900Y-39541300D03*
X253818800Y-62128800D03*
X253818800Y-58442600D03*
X262822600Y-81496500D03*
X260827700Y-76892300D03*
X273049000Y-100081000D03*
X273049000Y-96500800D03*
X267718700Y-46168800D03*
X264691300Y-39541300D03*
X273366600Y-61299500D03*
X273366600Y-58432400D03*
X283488900Y-79911800D03*
X283488900Y-77430800D03*
X288788300Y-39548500D03*
X289575200Y-45995010D03*
X301544800Y-60163000D03*
X303497500Y-58210300D03*
X315678100Y-102980300D03*
X315678100Y-101270400D03*
X311746800Y-42214100D03*
X311746800Y-39554600D03*
X340861000Y-41838900D03*
X341166600Y-39541300D03*
X341056700Y-64271500D03*
X340996600Y-57756200D03*
X353901800Y-79169300D03*
X340805600Y-77979500D03*
X338330800Y-83923600D03*
X336605700Y-82198500D03*
X336357900Y-107741000D03*
X335918800Y-100619000D03*
X359373000Y-44699900D03*
X360003600Y-39531100D03*
X359590700Y-63071800D03*
X359590700Y-57756200D03*
X359737700Y-77452600D03*
X359737700Y-80373000D03*
X359174900Y-102248800D03*
X357432600Y-97301400D03*
X380370400Y-60183700D03*
X379413500Y-58453700D03*
X376726000Y-85109700D03*
X372382300Y-76817500D03*
X377339100Y-103319400D03*
X377339100Y-96549990D03*
X81110000Y-35890000D03*
X84000000Y-57000000D03*
X100000000Y-37000000D03*
X104000000Y-56000000D03*
X94000000Y-75000000D03*
X78000000Y-95000000D03*
X119000000Y-37000000D03*
X115000000Y-74000000D03*
X102000000Y-94000000D03*
X138000000Y-37000000D03*
X142000000Y-56000000D03*
X133000000Y-75000000D03*
X132000000Y-95000000D03*
X157000000Y-37000000D03*
X162000000Y-56000000D03*
X151000000Y-75000000D03*
X176110000Y-36890000D03*
X181000000Y-56000000D03*
X171000000Y-75000000D03*
X195000000Y-37000000D03*
X190000000Y-75000000D03*
X199000000Y-94000000D03*
X214110000Y-36890000D03*
X219000000Y-56000000D03*
X209000000Y-75000000D03*
X218000000Y-94000000D03*
X233000000Y-37000000D03*
X238000000Y-56000000D03*
X228000000Y-75000000D03*
X237000000Y-94000000D03*
X251890000Y-36890000D03*
X247000000Y-75000000D03*
X256000000Y-94000000D03*
X266000000Y-75000000D03*
X271000000Y-37000000D03*
X275000000Y-95000000D03*
X290000000Y-37000000D03*
X290000000Y-75000000D03*
X299000000Y-99000000D03*
X314110000Y-36890000D03*
X307000000Y-56000000D03*
X319000000Y-80000000D03*
X318000000Y-99000000D03*
X342890000Y-36890000D03*
X342890000Y-56110000D03*
X342890000Y-75110000D03*
X340000000Y-97000000D03*
X362000000Y-37000000D03*
X361890000Y-55890000D03*
X361890000Y-75110000D03*
X361000000Y-94000000D03*
X380890000Y-55890000D03*
X380890000Y-75110000D03*
X380000000Y-94000000D03*
X29000000Y-109000000D03*
X64000000Y-75000000D03*
X59000000Y-56000000D03*
X53931800Y-94931800D03*
X56000000Y-37000000D03*
X31000000Y-73000000D03*
X381000000Y-36012910D03*
X120999980Y-57000000D03*
X171400000Y-95130000D03*
X199850000Y-55480000D03*
X256790000Y-55570000D03*
X276280000Y-55520000D03*
X40382600Y-77375100D03*
X37490790Y-86242710D03*
X53895900Y-96220900D03*
X45463200Y-99487600D03*
X64181800Y-77449300D03*
X63998000Y-79163400D03*
X59508000Y-58440700D03*
X70863700Y-73578100D03*
X59052300Y-40612600D03*
X68670100Y-55362800D03*
X85827200Y-57851400D03*
X91270400Y-39541300D03*
X92796500Y-74257600D03*
X95168300Y-57777400D03*
X78690700Y-96220900D03*
X97706000Y-74274300D03*
X114186900Y-77450000D03*
X110688500Y-92310100D03*
X104881300Y-58096900D03*
X114007900Y-73512400D03*
X99708600Y-39541300D03*
X111912500Y-55316700D03*
X130302700Y-39531100D03*
X124027080Y-57349410D03*
X130230400Y-76896600D03*
X131361000Y-55377400D03*
X134458900Y-91847000D03*
X142792100Y-76594000D03*
X151783300Y-77439400D03*
X143559300Y-91844800D03*
X142805300Y-58456700D03*
X150119500Y-73160300D03*
X138246500Y-39541300D03*
X152430900Y-55945900D03*
X162035400Y-57728000D03*
X167190900Y-39541300D03*
X170270800Y-76490600D03*
X173447300Y-58431200D03*
X172607600Y-92290700D03*
X182660300Y-77449400D03*
X188279600Y-77450600D03*
X197115500Y-92182300D03*
X183338000Y-55376800D03*
X188655400Y-74248800D03*
X175908600Y-39541300D03*
X188101000Y-55343100D03*
X205824200Y-39531100D03*
X201660000Y-52060000D03*
X209510900Y-70079500D03*
X209598800Y-58431200D03*
X219101600Y-94868100D03*
X220085200Y-77292800D03*
X232035800Y-92210300D03*
X226044990Y-77444700D03*
X218592900Y-58460500D03*
X226044990Y-70049600D03*
X214406700Y-39541300D03*
X221766100Y-50586600D03*
X237292900Y-50566300D03*
X242542500Y-39541300D03*
X245218100Y-70047300D03*
X247558000Y-58337300D03*
X257284300Y-95031200D03*
X256024500Y-74437600D03*
X266754300Y-77444300D03*
X281638200Y-92090100D03*
X270057500Y-58460800D03*
X269314200Y-61327900D03*
X252197400Y-39541300D03*
X265822200Y-55357700D03*
X276918900Y-50356700D03*
X281515000Y-39541300D03*
X284844100Y-68649500D03*
X285640600Y-58215700D03*
X300136400Y-100596000D03*
X301000400Y-76339700D03*
X319186900Y-81854800D03*
X328324900Y-95889200D03*
X307290900Y-57384500D03*
X308854000Y-60196300D03*
X290611600Y-39318200D03*
X308897000Y-50292900D03*
X342976100Y-57426700D03*
X352950800Y-39487400D03*
X343011000Y-76360800D03*
X352341700Y-58291300D03*
X338733800Y-97804000D03*
X338989600Y-77963900D03*
X361313100Y-77413500D03*
X363150900Y-81724000D03*
X362052000Y-57462600D03*
X368770000Y-69150000D03*
X362047200Y-39430900D03*
X367515200Y-48281300D03*
X384719600Y-50997200D03*
X393274300Y-49043100D03*
X383909100Y-69820300D03*
X392019900Y-60711800D03*
X380889300Y-94859800D03*
X390554700Y-79278900D03*
X43125500Y-74036900D03*
X43452800Y-80318900D03*
X249606400Y-99566700D03*
X226344900Y-49110100D03*
X230812800Y-62185300D03*
X232771600Y-90756090D03*
X125210000Y-98570000D03*
X127210000Y-98570000D03*
X249819700Y-45881300D03*
X71603200Y-98655000D03*
X75921900Y-81296100D03*
X269188500Y-99364400D03*
X260264400Y-81272500D03*
X253156000Y-69585600D03*
X52725200Y-48092300D03*
X75100700Y-64671200D03*
X62753400Y-50137100D03*
X102177800Y-69346300D03*
X287988000Y-100465000D03*
X281163300Y-83575800D03*
X105185700Y-79164500D03*
X271710800Y-63878100D03*
X98429900Y-51211500D03*
X53078600Y-49953800D03*
X93739000Y-98215100D03*
X270101082Y-45882488D03*
X53076900Y-52006500D03*
X288369400Y-45871900D03*
X118414900Y-100475900D03*
X310400500Y-103003100D03*
X119239900Y-64425700D03*
X296417000Y-84320100D03*
X291845400Y-68535800D03*
X117100100Y-51886800D03*
X126235900Y-95119800D03*
X330452800Y-84937200D03*
X145145900Y-91315900D03*
X52904300Y-54420700D03*
X311748300Y-45881700D03*
X133813800Y-60167600D03*
X130825000Y-52336900D03*
X317709100Y-60166900D03*
X330174400Y-102999800D03*
X146404300Y-99074990D03*
X52926000Y-55565100D03*
X175566800Y-55902800D03*
X163066300Y-79171000D03*
X157963300Y-64729800D03*
X184484300Y-98656200D03*
X356024800Y-48844800D03*
X352208300Y-104486700D03*
X354637800Y-85662900D03*
X52945000Y-56804800D03*
X356024800Y-74523400D03*
X172142900Y-60290500D03*
X181994900Y-88194979D03*
X173802610Y-56962710D03*
X337174700Y-112904700D03*
X332450000Y-109940000D03*
X202476400Y-81429000D03*
X198873300Y-60321100D03*
X22798500Y-57019000D03*
X193370300Y-50124700D03*
X212960400Y-98729010D03*
X230829700Y-99326900D03*
X217050300Y-89659000D03*
X52194100Y-62018500D03*
X205116200Y-75551300D03*
X214504900Y-64671200D03*
X210238800Y-50091700D03*
D19*
X26193800Y-80356200D02*
X26193800Y-81331300D01*
X30018800Y-86082500D02*
X30018800Y-84257400D01*
X26193800Y-81331300D02*
X27092700Y-81331300D01*
X27092700Y-81331300D02*
X30018800Y-84257400D01*
X223438000Y-80356200D02*
X223838000Y-80356200D01*
X223438000Y-80356200D02*
X223037900Y-80356200D01*
X59531200Y-76806200D02*
X60331300Y-76806200D01*
X60331300Y-76806200D02*
X64322400Y-72815100D01*
X64322400Y-72815100D02*
X77263000Y-72815100D01*
X77263000Y-72815100D02*
X80389100Y-75941200D01*
X80389100Y-75941200D02*
X90087500Y-75941200D01*
X59531200Y-76806200D02*
X55663600Y-76806200D01*
X55663600Y-76806200D02*
X52189200Y-73331800D01*
X90087500Y-75941200D02*
X90087500Y-76806200D01*
X109538000Y-75831100D02*
X107203200Y-73496300D01*
X107203200Y-73496300D02*
X92532400Y-73496300D01*
X92532400Y-73496300D02*
X90087500Y-75941200D01*
X147638000Y-74273300D02*
X131767800Y-74273300D01*
X131767800Y-74273300D02*
X129388100Y-76653000D01*
X129388100Y-76653000D02*
X129388100Y-76806200D01*
X242888000Y-80356200D02*
X243688100Y-80356200D01*
X261938000Y-80356200D02*
X261137900Y-80356200D01*
X243688100Y-80356200D02*
X246663700Y-83331800D01*
X246663700Y-83331800D02*
X253372300Y-83331800D01*
X253372300Y-83331800D02*
X255659200Y-81044900D01*
X255659200Y-81044900D02*
X255659200Y-80879800D01*
X255659200Y-80879800D02*
X256906200Y-79632800D01*
X256906200Y-79632800D02*
X260414500Y-79632800D01*
X260414500Y-79632800D02*
X261137900Y-80356200D01*
X185738000Y-76806200D02*
X185738000Y-75831100D01*
X185738000Y-75831100D02*
X188071700Y-73497400D01*
X188071700Y-73497400D02*
X200679100Y-73497400D01*
X200679100Y-73497400D02*
X203987900Y-76806200D01*
X204788000Y-76806200D02*
X203987900Y-76806200D01*
X185690800Y-76806200D02*
X185738000Y-76806200D01*
X127787900Y-76806200D02*
X124373000Y-73391300D01*
X124373000Y-73391300D02*
X117175300Y-73391300D01*
X117175300Y-73391300D02*
X116563600Y-72779600D01*
X116563600Y-72779600D02*
X112589500Y-72779600D01*
X112589500Y-72779600D02*
X109538000Y-75831100D01*
X204788000Y-76806200D02*
X208674800Y-76806200D01*
X208674800Y-76806200D02*
X209325300Y-77456700D01*
X223037900Y-80356200D02*
X221854400Y-79172700D01*
X221854400Y-79172700D02*
X216658200Y-79172700D01*
X285750000Y-80356200D02*
X285668600Y-80356200D01*
X90487500Y-76806200D02*
X90087500Y-76806200D01*
X184937900Y-76806200D02*
X182378600Y-74246900D01*
X182378600Y-74246900D02*
X170047400Y-74246900D01*
X170047400Y-74246900D02*
X167488100Y-76806200D01*
X147638000Y-74273300D02*
X149489100Y-72422200D01*
X149489100Y-72422200D02*
X161503900Y-72422200D01*
X161503900Y-72422200D02*
X165887900Y-76806200D01*
X109538000Y-76806200D02*
X109538000Y-75831100D01*
X128588000Y-76806200D02*
X127787900Y-76806200D01*
X128588000Y-76806200D02*
X129388100Y-76806200D01*
X147638000Y-76806200D02*
X147638000Y-74273300D01*
X166688000Y-76806200D02*
X165887900Y-76806200D01*
X166688000Y-76806200D02*
X167488100Y-76806200D01*
X185690800Y-76806200D02*
X184937900Y-76806200D01*
X224638100Y-80356200D02*
X223838000Y-80356200D01*
X227751900Y-83470000D02*
X224638100Y-80356200D01*
X234330000Y-83470000D02*
X227751900Y-83470000D01*
X236609200Y-81190800D02*
X234330000Y-83470000D01*
X236609200Y-80370800D02*
X236609200Y-81190800D01*
X241211700Y-79480000D02*
X237500000Y-79480000D01*
X242087900Y-80356200D02*
X241211700Y-79480000D01*
X237500000Y-79480000D02*
X236609200Y-80370800D01*
X242888000Y-80356200D02*
X242087900Y-80356200D01*
X285350000Y-80356200D02*
X285668600Y-80356200D01*
X284949900Y-80256200D02*
X284949900Y-80356200D01*
X276047000Y-79163000D02*
X283856700Y-79163000D01*
X274395999Y-80814001D02*
X276047000Y-79163000D01*
X272651800Y-83318200D02*
X274395999Y-81574001D01*
X265700100Y-83318200D02*
X272651800Y-83318200D01*
X283856700Y-79163000D02*
X284949900Y-80256200D01*
X262738100Y-80356200D02*
X265700100Y-83318200D01*
X284949900Y-80356200D02*
X285350000Y-80356200D01*
X274395999Y-81574001D02*
X274395999Y-80814001D01*
X261938000Y-80356200D02*
X262738100Y-80356200D01*
X300882211Y-85571700D02*
X313147100Y-85571700D01*
X313600000Y-85118800D02*
X314325000Y-85118800D01*
X285668600Y-80356200D02*
X288600100Y-83287700D01*
X288600100Y-83287700D02*
X294351900Y-83287700D01*
X294351900Y-83287700D02*
X296944211Y-85880011D01*
X296944211Y-85880011D02*
X300573900Y-85880011D01*
X300573900Y-85880011D02*
X300882211Y-85571700D01*
X313147100Y-85571700D02*
X313600000Y-85118800D01*
X26193800Y-76806200D02*
X26193800Y-69776200D01*
X26193800Y-69776200D02*
X27670000Y-68300000D01*
X45243800Y-101787000D02*
X43443800Y-101787000D01*
X43443800Y-101787000D02*
X42718800Y-102512000D01*
X271462000Y-99406200D02*
X270661900Y-99406200D01*
X252412000Y-99406200D02*
X254038400Y-99406200D01*
X254038400Y-99406200D02*
X257013500Y-102381300D01*
X257013500Y-102381300D02*
X262898300Y-102381300D01*
X262898300Y-102381300D02*
X265185100Y-100094500D01*
X265185100Y-100094500D02*
X265185100Y-99919200D01*
X265185100Y-99919200D02*
X266497000Y-98607300D01*
X266497000Y-98607300D02*
X269863000Y-98607300D01*
X269863000Y-98607300D02*
X270661900Y-99406200D01*
X313690900Y-109538700D02*
X314325000Y-108904600D01*
X314325000Y-108904600D02*
X314325000Y-104169000D01*
X333375000Y-106962100D02*
X333375000Y-104169000D01*
X357631700Y-102993400D02*
X347833200Y-102993400D01*
X347833200Y-102993400D02*
X346147200Y-104679400D01*
X346147200Y-104679400D02*
X346147200Y-104857400D01*
X346147200Y-104857400D02*
X343867400Y-107137200D01*
X343867400Y-107137200D02*
X341687300Y-107137200D01*
X341687300Y-107137200D02*
X341512200Y-106962100D01*
X341512200Y-106962100D02*
X333375000Y-106962100D01*
X294875000Y-104169000D02*
X294474900Y-104169000D01*
X295275000Y-104169000D02*
X294875000Y-104169000D01*
X233200000Y-99406200D02*
X233362000Y-99406200D01*
X233200000Y-99406200D02*
X232561900Y-99406200D01*
X45341000Y-98237000D02*
X45243800Y-98237000D01*
X271462000Y-99406200D02*
X272262100Y-99406200D01*
X272262100Y-99406200D02*
X272362300Y-99306000D01*
X272362300Y-99306000D02*
X273327800Y-99306000D01*
X273327800Y-99306000D02*
X276359000Y-102337200D01*
X276359000Y-102337200D02*
X281258300Y-102337200D01*
X281258300Y-102337200D02*
X283338300Y-104417200D01*
X283338300Y-104417200D02*
X294226700Y-104417200D01*
X294226700Y-104417200D02*
X294474900Y-104169000D01*
X128588000Y-95856200D02*
X129388100Y-95856200D01*
X129388100Y-95856200D02*
X134142200Y-91102100D01*
X134142200Y-91102100D02*
X143878300Y-91102100D01*
X143878300Y-91102100D02*
X148632400Y-95856200D01*
X148632400Y-95856200D02*
X166688000Y-95856200D01*
X74919300Y-96156600D02*
X79505500Y-91570400D01*
X79505500Y-91570400D02*
X121003500Y-91570400D01*
X121003500Y-91570400D02*
X125289300Y-95856200D01*
X125289300Y-95856200D02*
X128588000Y-95856200D01*
X232561900Y-99406200D02*
X231937900Y-99406200D01*
X231937900Y-99406200D02*
X230745800Y-98214100D01*
X74919300Y-96156600D02*
X74919300Y-96508200D01*
X74618900Y-95856200D02*
X74919300Y-96156600D01*
X96831100Y-95856200D02*
X96183800Y-96503500D01*
X96183800Y-96503500D02*
X93000900Y-96503500D01*
X97631200Y-95856200D02*
X96831100Y-95856200D01*
X375437900Y-99406200D02*
X374717100Y-98685400D01*
X374717100Y-98685400D02*
X371192100Y-98685400D01*
X371192100Y-98685400D02*
X369959200Y-99918300D01*
X369959200Y-99918300D02*
X369959200Y-100094400D01*
X369959200Y-100094400D02*
X367716400Y-102337200D01*
X367716400Y-102337200D02*
X360465500Y-102337200D01*
X360465500Y-102337200D02*
X359599000Y-101470700D01*
X359599000Y-101470700D02*
X358927300Y-101470700D01*
X358927300Y-101470700D02*
X357631700Y-102766300D01*
X357631700Y-102766300D02*
X357631700Y-102993400D01*
X73818800Y-95856200D02*
X74618900Y-95856200D01*
X49206100Y-95856200D02*
X48424700Y-95856200D01*
X48424700Y-95856200D02*
X46043900Y-98237000D01*
X45341000Y-98237000D02*
X46043900Y-98237000D01*
X196062100Y-95856200D02*
X196696600Y-96490700D01*
X49606200Y-95856200D02*
X50429200Y-96679200D01*
X50429200Y-96679200D02*
X50429200Y-97496500D01*
X49606200Y-95856200D02*
X49206100Y-95856200D01*
X50006200Y-95856200D02*
X49606200Y-95856200D01*
X195262000Y-95856200D02*
X196062100Y-95856200D01*
X215112100Y-95856200D02*
X215764400Y-96508500D01*
X214312000Y-95856200D02*
X215112100Y-95856200D01*
X357188000Y-99406200D02*
X357188000Y-100381300D01*
X356185100Y-101253300D02*
X357057100Y-100381300D01*
X357057100Y-100381300D02*
X357188000Y-100381300D01*
X376238000Y-99406200D02*
X375437900Y-99406200D01*
X311504100Y-111725500D02*
X313690900Y-109538700D01*
X296405500Y-111725500D02*
X311504100Y-111725500D01*
X294875000Y-110195000D02*
X296405500Y-111725500D01*
X294875000Y-104169000D02*
X294875000Y-110195000D01*
X252343000Y-99406200D02*
X252412000Y-99406200D01*
X233362000Y-99406200D02*
X234162100Y-99406200D01*
X234162100Y-99406200D02*
X234921700Y-98646600D01*
X247407900Y-98643700D02*
X250849400Y-98643700D01*
X238370400Y-98646600D02*
X240562999Y-100839199D01*
X240562999Y-100839199D02*
X240562999Y-101128001D01*
X240562999Y-101128001D02*
X241771999Y-102337001D01*
X245213001Y-101128001D02*
X245213001Y-100838599D01*
X241771999Y-102337001D02*
X244004001Y-102337001D01*
X244004001Y-102337001D02*
X245213001Y-101128001D01*
X245213001Y-100838599D02*
X247407900Y-98643700D01*
X250849400Y-98643700D02*
X251611900Y-99406200D01*
X234921700Y-98646600D02*
X238370400Y-98646600D01*
X251611900Y-99406200D02*
X252343000Y-99406200D01*
X213511900Y-95856200D02*
X214312000Y-95856200D01*
X166688000Y-95856200D02*
X167488100Y-95856200D01*
X207025700Y-89370000D02*
X213511900Y-95856200D01*
X173974300Y-89370000D02*
X207025700Y-89370000D01*
X167488100Y-95856200D02*
X173974300Y-89370000D01*
X36490700Y-84217300D02*
X35677900Y-84217300D01*
X45243800Y-98237000D02*
X43954802Y-98237000D01*
X41393799Y-98148001D02*
X41393799Y-97474799D01*
X41393799Y-97474799D02*
X38537700Y-94618700D01*
X38537700Y-94618700D02*
X38537700Y-86264300D01*
X43954802Y-98237000D02*
X43354801Y-98837001D01*
X24171700Y-56871000D02*
X24171700Y-55965500D01*
X33393600Y-81555000D02*
X29331900Y-77493300D01*
X38537700Y-86264300D02*
X36490700Y-84217300D01*
X29331900Y-77493300D02*
X29331900Y-68918896D01*
X35677900Y-84217300D02*
X33393600Y-81933000D01*
X29331900Y-68918896D02*
X22390000Y-61976996D01*
X42082799Y-98837001D02*
X41393799Y-98148001D01*
X22390000Y-58652700D02*
X24171700Y-56871000D01*
X22390000Y-61976996D02*
X22390000Y-58652700D01*
X33393600Y-81933000D02*
X33393600Y-81555000D01*
X43354801Y-98837001D02*
X42082799Y-98837001D01*
X329592696Y-111764300D02*
X332141998Y-109214998D01*
X313690900Y-109538700D02*
X315916400Y-111764300D01*
X315916400Y-111764300D02*
X329592696Y-111764300D01*
X333375000Y-108918589D02*
X333375000Y-106962100D01*
X332141998Y-109214998D02*
X333078591Y-109214998D01*
X333078591Y-109214998D02*
X333375000Y-108918589D01*
X56212500Y-47982500D02*
X56212500Y-46146800D01*
X56212500Y-46146800D02*
X55229600Y-45163900D01*
X52387500Y-42256200D02*
X53836900Y-42256200D01*
X53836900Y-42256200D02*
X55007200Y-43426500D01*
X266300000Y-42256200D02*
X266700000Y-42256200D01*
X266300000Y-42256200D02*
X265899900Y-42256200D01*
X247650000Y-42256200D02*
X246849900Y-42256200D01*
X228600000Y-42256200D02*
X229400100Y-42256200D01*
X229400100Y-42256200D02*
X232331600Y-45187700D01*
X232331600Y-45187700D02*
X239129400Y-45187700D01*
X239129400Y-45187700D02*
X241372200Y-42944900D01*
X241372200Y-42944900D02*
X241372200Y-42768800D01*
X241372200Y-42768800D02*
X242605400Y-41535600D01*
X242605400Y-41535600D02*
X246129300Y-41535600D01*
X246129300Y-41535600D02*
X246849900Y-42256200D01*
X208749900Y-42256200D02*
X207800800Y-41307100D01*
X207800800Y-41307100D02*
X203021700Y-41307100D01*
X247650000Y-42256200D02*
X248450100Y-42256200D01*
X248450100Y-42256200D02*
X249222300Y-41484000D01*
X249222300Y-41484000D02*
X252669800Y-41484000D01*
X252669800Y-41484000D02*
X254461500Y-43275700D01*
X254461500Y-43275700D02*
X254461500Y-43442400D01*
X254461500Y-43442400D02*
X256206800Y-45187700D01*
X256206800Y-45187700D02*
X258179400Y-45187700D01*
X258179400Y-45187700D02*
X260422200Y-42944900D01*
X260422200Y-42944900D02*
X260422200Y-42768800D01*
X260422200Y-42768800D02*
X261655400Y-41535600D01*
X261655400Y-41535600D02*
X265179300Y-41535600D01*
X265179300Y-41535600D02*
X265899900Y-42256200D01*
X209550000Y-42256200D02*
X208749900Y-42256200D01*
X190500000Y-38706200D02*
X193739900Y-38706200D01*
X193739900Y-38706200D02*
X193890700Y-38857000D01*
X190100000Y-38706200D02*
X190500000Y-38706200D01*
X114300000Y-38706200D02*
X113499900Y-38706200D01*
X95250000Y-38706200D02*
X96050100Y-38706200D01*
X96050100Y-38706200D02*
X98584300Y-36172000D01*
X98584300Y-36172000D02*
X110965700Y-36172000D01*
X110965700Y-36172000D02*
X113499900Y-38706200D01*
X94850000Y-38706200D02*
X95250000Y-38706200D01*
X190100000Y-38706200D02*
X189699900Y-38706200D01*
X133350000Y-38706200D02*
X132549900Y-38706200D01*
X114300000Y-38706200D02*
X115100100Y-38706200D01*
X115100100Y-38706200D02*
X117638500Y-36167800D01*
X117638500Y-36167800D02*
X130011500Y-36167800D01*
X130011500Y-36167800D02*
X132549900Y-38706200D01*
X171450000Y-38706200D02*
X170649900Y-38706200D01*
X152400000Y-38706200D02*
X153200100Y-38706200D01*
X153200100Y-38706200D02*
X155774800Y-36131500D01*
X155774800Y-36131500D02*
X168075200Y-36131500D01*
X168075200Y-36131500D02*
X170649900Y-38706200D01*
X76200000Y-38706200D02*
X75399900Y-38706200D01*
X51987500Y-38706200D02*
X54552400Y-36141300D01*
X54552400Y-36141300D02*
X72835000Y-36141300D01*
X72835000Y-36141300D02*
X75399900Y-38706200D01*
X52387500Y-38706200D02*
X51987500Y-38706200D01*
X171450000Y-38706200D02*
X172250100Y-38706200D01*
X172250100Y-38706200D02*
X174827000Y-36129300D01*
X174827000Y-36129300D02*
X187123000Y-36129300D01*
X187123000Y-36129300D02*
X189699900Y-38706200D01*
X94850000Y-38706200D02*
X94449900Y-38706200D01*
X77000100Y-38706200D02*
X80573600Y-35132700D01*
X80573600Y-35132700D02*
X90876400Y-35132700D01*
X90876400Y-35132700D02*
X94449900Y-38706200D01*
X76200000Y-38706200D02*
X77000100Y-38706200D01*
X284949900Y-42256200D02*
X285750000Y-42256200D01*
X284196200Y-41502500D02*
X284949900Y-42256200D01*
X280789600Y-41502500D02*
X284196200Y-41502500D01*
X279790400Y-42501700D02*
X280789600Y-41502500D01*
X270653900Y-45410000D02*
X277007100Y-45410000D01*
X277007100Y-45410000D02*
X279790400Y-42626700D01*
X266700000Y-42256200D02*
X267500100Y-42256200D01*
X267500100Y-42256200D02*
X270653900Y-45410000D01*
X279790400Y-42626700D02*
X279790400Y-42501700D01*
X298522100Y-43157900D02*
X296410000Y-45270000D01*
X298522100Y-42725200D02*
X298522100Y-43157900D01*
X286550100Y-42256200D02*
X285750000Y-42256200D01*
X296410000Y-45270000D02*
X289563900Y-45270000D01*
X299737900Y-41509400D02*
X298522100Y-42725200D01*
X289563900Y-45270000D02*
X286550100Y-42256200D01*
X308015100Y-41509400D02*
X299737900Y-41509400D01*
X308761900Y-42256200D02*
X308015100Y-41509400D01*
X309562000Y-42256200D02*
X308761900Y-42256200D01*
X210350100Y-42256200D02*
X209550000Y-42256200D01*
X214964700Y-41474700D02*
X211131600Y-41474700D01*
X215610000Y-42120000D02*
X214964700Y-41474700D01*
X215610000Y-43410000D02*
X215610000Y-42120000D01*
X220090000Y-45360000D02*
X217560000Y-45360000D01*
X222322200Y-43127800D02*
X220090000Y-45360000D01*
X217560000Y-45360000D02*
X215610000Y-43410000D01*
X222322200Y-42397800D02*
X222322200Y-43127800D01*
X223237100Y-41482900D02*
X222322200Y-42397800D01*
X211131600Y-41474700D02*
X210350100Y-42256200D01*
X227026600Y-41482900D02*
X223237100Y-41482900D01*
X227799900Y-42256200D02*
X227026600Y-41482900D01*
X228600000Y-42256200D02*
X227799900Y-42256200D01*
X352142400Y-41535600D02*
X355667300Y-41535600D01*
X355667300Y-41535600D02*
X356387900Y-42256200D01*
X350909200Y-43200800D02*
X350909200Y-42768800D01*
X356387900Y-42256200D02*
X357188000Y-42256200D01*
X348922499Y-45187501D02*
X350909200Y-43200800D01*
X344948500Y-42488500D02*
X344948500Y-43590002D01*
X344948500Y-43590002D02*
X346545999Y-45187501D01*
X343567300Y-41107300D02*
X344948500Y-42488500D01*
X340087000Y-41107300D02*
X343567300Y-41107300D01*
X346545999Y-45187501D02*
X348922499Y-45187501D01*
X338938100Y-42256200D02*
X340087000Y-41107300D01*
X350909200Y-42768800D02*
X352142400Y-41535600D01*
X338138000Y-42256200D02*
X338938100Y-42256200D01*
X151599900Y-38706200D02*
X152400000Y-38706200D01*
X148293700Y-35400000D02*
X151599900Y-38706200D01*
X137456300Y-35400000D02*
X148293700Y-35400000D01*
X134150100Y-38706200D02*
X137456300Y-35400000D01*
X133350000Y-38706200D02*
X134150100Y-38706200D01*
X310362100Y-42256200D02*
X309562000Y-42256200D01*
X311133300Y-41485000D02*
X310362100Y-42256200D01*
X316020000Y-42260000D02*
X315245000Y-41485000D01*
X317460000Y-45410000D02*
X316020000Y-43970000D01*
X316020000Y-43970000D02*
X316020000Y-42260000D01*
X322335200Y-43164800D02*
X320090000Y-45410000D01*
X322335200Y-42768800D02*
X322335200Y-43164800D01*
X323568400Y-41535600D02*
X322335200Y-42768800D01*
X320090000Y-45410000D02*
X317460000Y-45410000D01*
X337017400Y-41535600D02*
X323568400Y-41535600D01*
X337738000Y-42256200D02*
X337017400Y-41535600D01*
X315245000Y-41485000D02*
X311133300Y-41485000D01*
X338138000Y-42256200D02*
X337738000Y-42256200D01*
X375437900Y-42256200D02*
X376238000Y-42256200D01*
X372540000Y-41280000D02*
X373155900Y-41895900D01*
X375077600Y-41895900D02*
X375437900Y-42256200D01*
X369959200Y-42240800D02*
X370920000Y-41280000D01*
X369959200Y-43120800D02*
X369959200Y-42240800D01*
X373155900Y-41895900D02*
X375077600Y-41895900D01*
X361191900Y-45460000D02*
X367620000Y-45460000D01*
X370920000Y-41280000D02*
X372540000Y-41280000D01*
X357988100Y-42256200D02*
X361191900Y-45460000D01*
X367620000Y-45460000D02*
X369959200Y-43120800D01*
X357188000Y-42256200D02*
X357988100Y-42256200D01*
X29280600Y-36850000D02*
X28062400Y-38068200D01*
X49731200Y-36850000D02*
X29280600Y-36850000D01*
X51587400Y-38706200D02*
X49731200Y-36850000D01*
X51987500Y-38706200D02*
X51587400Y-38706200D01*
X54768800Y-61306200D02*
X54768800Y-62281300D01*
X58593800Y-67032500D02*
X58593800Y-65207400D01*
X54768800Y-62281300D02*
X55667700Y-62281300D01*
X55667700Y-62281300D02*
X58593800Y-65207400D01*
X156762000Y-57756200D02*
X157162000Y-57756200D01*
X272262100Y-61306200D02*
X273003800Y-60564500D01*
X273003800Y-60564500D02*
X276509500Y-60564500D01*
X276509500Y-60564500D02*
X278274500Y-62329500D01*
X278274500Y-62329500D02*
X278274500Y-62492400D01*
X278274500Y-62492400D02*
X280019800Y-64237700D01*
X280019800Y-64237700D02*
X281992400Y-64237700D01*
X281992400Y-64237700D02*
X284235200Y-61994900D01*
X284235200Y-61994900D02*
X284235200Y-61865600D01*
X284235200Y-61865600D02*
X285559300Y-60541500D01*
X285559300Y-60541500D02*
X300854200Y-60541500D01*
X300854200Y-60541500D02*
X301618900Y-61306200D01*
X232962000Y-61306200D02*
X233362000Y-61306200D01*
X54768800Y-57756200D02*
X55568900Y-57756200D01*
X55568900Y-57756200D02*
X58687400Y-54637700D01*
X58687400Y-54637700D02*
X77043900Y-54637700D01*
X77043900Y-54637700D02*
X80162400Y-57756200D01*
X52167500Y-53665900D02*
X52167500Y-57072700D01*
X52167500Y-57072700D02*
X52851000Y-57756200D01*
X52851000Y-57756200D02*
X54768800Y-57756200D01*
X80962500Y-57756200D02*
X80162400Y-57756200D01*
X138112000Y-57756200D02*
X137311900Y-57756200D01*
X118662000Y-57756200D02*
X121778400Y-54639800D01*
X121778400Y-54639800D02*
X134195500Y-54639800D01*
X134195500Y-54639800D02*
X137311900Y-57756200D01*
X118662000Y-57756200D02*
X118261900Y-57756200D01*
X119062000Y-57756200D02*
X118662000Y-57756200D01*
X100012000Y-57756200D02*
X100812100Y-57756200D01*
X100812100Y-57756200D02*
X104007400Y-54560900D01*
X104007400Y-54560900D02*
X115066600Y-54560900D01*
X115066600Y-54560900D02*
X118261900Y-57756200D01*
X156762000Y-57756200D02*
X156361900Y-57756200D01*
X195262000Y-57756200D02*
X194461900Y-57756200D01*
X176212000Y-57756200D02*
X177012100Y-57756200D01*
X177012100Y-57756200D02*
X180156900Y-54611400D01*
X180156900Y-54611400D02*
X191317100Y-54611400D01*
X191317100Y-54611400D02*
X194461900Y-57756200D01*
X232962000Y-61306200D02*
X232561900Y-61306200D01*
X213511900Y-61306200D02*
X212371600Y-60165900D01*
X212371600Y-60165900D02*
X210290300Y-60165900D01*
X214312000Y-61306200D02*
X213511900Y-61306200D01*
X195262000Y-57756200D02*
X198859200Y-57756200D01*
X198859200Y-57756200D02*
X199547200Y-58444200D01*
X156361900Y-57756200D02*
X153815600Y-55209900D01*
X153815600Y-55209900D02*
X141458400Y-55209900D01*
X141458400Y-55209900D02*
X138912100Y-57756200D01*
X138112000Y-57756200D02*
X138912100Y-57756200D01*
X232561900Y-61306200D02*
X231781300Y-60525600D01*
X231781300Y-60525600D02*
X228363000Y-60525600D01*
X228363000Y-60525600D02*
X226497800Y-62390800D01*
X226497800Y-62390800D02*
X226497800Y-62582300D01*
X226497800Y-62582300D02*
X224798300Y-64281800D01*
X224798300Y-64281800D02*
X218733200Y-64281800D01*
X218733200Y-64281800D02*
X215757600Y-61306200D01*
X215757600Y-61306200D02*
X215112100Y-61306200D01*
X214312000Y-61306200D02*
X215112100Y-61306200D01*
X302419000Y-61306200D02*
X301618900Y-61306200D01*
X271462000Y-61306200D02*
X272262100Y-61306200D01*
X247410000Y-60420000D02*
X250725700Y-60420000D01*
X246135200Y-61694800D02*
X247410000Y-60420000D01*
X243770000Y-64480000D02*
X246135200Y-62114800D01*
X251611900Y-61306200D02*
X252412000Y-61306200D01*
X246135200Y-62114800D02*
X246135200Y-61694800D01*
X237384500Y-64480000D02*
X243770000Y-64480000D01*
X250725700Y-60420000D02*
X251611900Y-61306200D01*
X234210700Y-61306200D02*
X237384500Y-64480000D01*
X233362000Y-61306200D02*
X234210700Y-61306200D01*
X270661900Y-61306200D02*
X271462000Y-61306200D01*
X269755700Y-60400000D02*
X270661900Y-61306200D01*
X266110000Y-60400000D02*
X269755700Y-60400000D01*
X265040000Y-62320000D02*
X265040000Y-61470000D01*
X265040000Y-61470000D02*
X266110000Y-60400000D01*
X262840000Y-64520000D02*
X265040000Y-62320000D01*
X257251700Y-64520000D02*
X262840000Y-64520000D01*
X254037900Y-61306200D02*
X257251700Y-64520000D01*
X252412000Y-61306200D02*
X254037900Y-61306200D01*
X81762600Y-57756200D02*
X80962500Y-57756200D01*
X84458800Y-55060000D02*
X81762600Y-57756200D01*
X96515700Y-55060000D02*
X84458800Y-55060000D01*
X99211900Y-57756200D02*
X96515700Y-55060000D01*
X100012000Y-57756200D02*
X99211900Y-57756200D01*
X173454609Y-57687711D02*
X176143511Y-57687711D01*
X170931886Y-55164990D02*
X173454609Y-57687711D01*
X158841800Y-55176400D02*
X164767114Y-55176400D01*
X157162000Y-56856200D02*
X158841800Y-55176400D01*
X157162000Y-57756200D02*
X157162000Y-56856200D01*
X176143511Y-57687711D02*
X176212000Y-57756200D01*
X164778524Y-55164990D02*
X170931886Y-55164990D01*
X164767114Y-55176400D02*
X164778524Y-55164990D01*
X59531200Y-80356200D02*
X60331300Y-80356200D01*
X63456200Y-86042500D02*
X63456200Y-84217400D01*
X60331300Y-80356200D02*
X60331300Y-81092500D01*
X60331300Y-81092500D02*
X63456200Y-84217400D01*
X50006200Y-99406200D02*
X50006200Y-100381300D01*
X50006200Y-100381300D02*
X50234300Y-100609400D01*
X50234300Y-100609400D02*
X50234300Y-101518900D01*
X53831200Y-105132000D02*
X53831200Y-102418600D01*
X53831200Y-102418600D02*
X52931500Y-101518900D01*
X80025000Y-47982500D02*
X80025000Y-46157400D01*
X76200000Y-42256200D02*
X77000100Y-42256200D01*
X77000100Y-42256200D02*
X77000100Y-43132500D01*
X77000100Y-43132500D02*
X80025000Y-46157400D01*
X80962500Y-61306200D02*
X80962500Y-62281300D01*
X80962500Y-62281300D02*
X81861400Y-62281300D01*
X82385050Y-62804950D02*
X82390000Y-62800000D01*
X81861400Y-62281300D02*
X82385050Y-62804950D01*
X84430000Y-66675000D02*
X84787500Y-67032500D01*
X84430000Y-65006800D02*
X84430000Y-66675000D01*
X90487500Y-80356200D02*
X90487500Y-81331300D01*
X94312000Y-86082500D02*
X94312000Y-84257400D01*
X90487500Y-81331300D02*
X91385900Y-81331300D01*
X91385900Y-81331300D02*
X94312000Y-84257400D01*
X73818800Y-99406200D02*
X73818800Y-100381300D01*
X77643800Y-105132000D02*
X77643800Y-103306900D01*
X73818800Y-100381300D02*
X74718200Y-100381300D01*
X74718200Y-100381300D02*
X77643800Y-103306900D01*
X95250000Y-42256200D02*
X95250000Y-43231300D01*
X99075000Y-47982500D02*
X99075000Y-46157400D01*
X95250000Y-43231300D02*
X96148900Y-43231300D01*
X96148900Y-43231300D02*
X99075000Y-46157400D01*
X100012000Y-61306200D02*
X100012000Y-62281300D01*
X103838000Y-67032500D02*
X103838000Y-65207400D01*
X100012000Y-62281300D02*
X100911900Y-62281300D01*
X100911900Y-62281300D02*
X103838000Y-65207400D01*
X109538000Y-80356200D02*
X109538000Y-81331300D01*
X113362000Y-86082500D02*
X113362000Y-84257400D01*
X109538000Y-81331300D02*
X110435900Y-81331300D01*
X110435900Y-81331300D02*
X113362000Y-84257400D01*
X101456000Y-105132000D02*
X101456000Y-103306900D01*
X97631200Y-99406200D02*
X98431300Y-99406200D01*
X98431300Y-99406200D02*
X98431300Y-100282200D01*
X98431300Y-100282200D02*
X101456000Y-103306900D01*
X114300000Y-42256200D02*
X114300000Y-43231300D01*
X118125000Y-47982500D02*
X118125000Y-46157400D01*
X114300000Y-43231300D02*
X115198900Y-43231300D01*
X115198900Y-43231300D02*
X118125000Y-46157400D01*
X119062000Y-61306200D02*
X119062000Y-62281300D01*
X122888000Y-67032500D02*
X122888000Y-65207400D01*
X119062000Y-62281300D02*
X119961900Y-62281300D01*
X119961900Y-62281300D02*
X122888000Y-65207400D01*
X128588000Y-80356200D02*
X128588000Y-81331300D01*
X132412000Y-86082500D02*
X132412000Y-84257400D01*
X128588000Y-81331300D02*
X129485900Y-81331300D01*
X129485900Y-81331300D02*
X132412000Y-84257400D01*
X128588000Y-99406200D02*
X129388100Y-99406200D01*
X132512000Y-105092000D02*
X132512000Y-103266900D01*
X129388100Y-99406200D02*
X129388100Y-100143000D01*
X129388100Y-100143000D02*
X132512000Y-103266900D01*
X133350000Y-42256200D02*
X133350000Y-43231300D01*
X137175000Y-47982500D02*
X137175000Y-46157400D01*
X133350000Y-43231300D02*
X134248900Y-43231300D01*
X134248900Y-43231300D02*
X137175000Y-46157400D01*
X138112000Y-61306200D02*
X138112000Y-62281300D01*
X141938000Y-67032500D02*
X141938000Y-65207400D01*
X138112000Y-62281300D02*
X139011900Y-62281300D01*
X139011900Y-62281300D02*
X141938000Y-65207400D01*
X151462000Y-84257400D02*
X148535900Y-81331300D01*
X148535900Y-81331300D02*
X147638000Y-81331300D01*
X147638000Y-80356200D02*
X147638000Y-81331300D01*
X151462000Y-86082500D02*
X151462000Y-84257400D01*
X152400000Y-42256200D02*
X152400000Y-43231300D01*
X156225000Y-47982500D02*
X156225000Y-46157400D01*
X152400000Y-43231300D02*
X153298900Y-43231300D01*
X153298900Y-43231300D02*
X156225000Y-46157400D01*
X157162000Y-61306200D02*
X157162000Y-62281300D01*
X160988000Y-67032500D02*
X160988000Y-65207400D01*
X157162000Y-62281300D02*
X158061900Y-62281300D01*
X158061900Y-62281300D02*
X160988000Y-65207400D01*
X166688000Y-80356200D02*
X166688000Y-81331300D01*
X170512000Y-86082500D02*
X170512000Y-84257400D01*
X166688000Y-81331300D02*
X167585900Y-81331300D01*
X167585900Y-81331300D02*
X170512000Y-84257400D01*
X166688000Y-99406200D02*
X167488100Y-99406200D01*
X170612000Y-105092000D02*
X170612000Y-103266900D01*
X167488100Y-99406200D02*
X167488100Y-100143000D01*
X167488100Y-100143000D02*
X170612000Y-103266900D01*
X171450000Y-42256200D02*
X171450000Y-43231300D01*
X175275000Y-47982500D02*
X175275000Y-46157400D01*
X171450000Y-43231300D02*
X172348900Y-43231300D01*
X172348900Y-43231300D02*
X175275000Y-46157400D01*
X176212000Y-61306200D02*
X176212000Y-62281300D01*
X180038000Y-67032500D02*
X180038000Y-65207400D01*
X180038000Y-65207400D02*
X177111900Y-62281300D01*
X177111900Y-62281300D02*
X176212000Y-62281300D01*
X185738000Y-80356200D02*
X185738000Y-81331300D01*
X189562000Y-86082500D02*
X189562000Y-84257400D01*
X185738000Y-81331300D02*
X186635900Y-81331300D01*
X186635900Y-81331300D02*
X189562000Y-84257400D01*
X195262000Y-99406200D02*
X195262000Y-100381300D01*
X199088000Y-105132000D02*
X199088000Y-103306900D01*
X195262000Y-100381300D02*
X196162400Y-100381300D01*
X196162400Y-100381300D02*
X199088000Y-103306900D01*
X190500000Y-42256200D02*
X190500000Y-43231300D01*
X194325000Y-47982500D02*
X194325000Y-46157400D01*
X190500000Y-43231300D02*
X191398900Y-43231300D01*
X191398900Y-43231300D02*
X194325000Y-46157400D01*
X195262000Y-61306200D02*
X195262000Y-62281300D01*
X199088000Y-67032500D02*
X199088000Y-65207400D01*
X195262000Y-62281300D02*
X196161900Y-62281300D01*
X196161900Y-62281300D02*
X199088000Y-65207400D01*
X204788000Y-80356200D02*
X204788000Y-81331300D01*
X208612000Y-86082500D02*
X208612000Y-84257400D01*
X204788000Y-81331300D02*
X205685900Y-81331300D01*
X205685900Y-81331300D02*
X208612000Y-84257400D01*
X214312000Y-99406200D02*
X214312000Y-100381300D01*
X218138000Y-105132000D02*
X218138000Y-103306900D01*
X214312000Y-100381300D02*
X215212400Y-100381300D01*
X215212400Y-100381300D02*
X218138000Y-103306900D01*
X213375000Y-47982500D02*
X213375000Y-46157400D01*
X209550000Y-38706200D02*
X211584300Y-38706200D01*
X211584300Y-38706200D02*
X212413600Y-39535500D01*
X212265500Y-42199800D02*
X212265500Y-45047900D01*
X212265500Y-45047900D02*
X213375000Y-46157400D01*
X218138000Y-67032500D02*
X218138000Y-65207400D01*
X214312000Y-57756200D02*
X215431400Y-57756200D01*
X215431400Y-57756200D02*
X216124300Y-58449100D01*
X215803300Y-62377400D02*
X215803300Y-62872700D01*
X215803300Y-62872700D02*
X218138000Y-65207400D01*
X227662000Y-84257400D02*
X227345900Y-84257400D01*
X227345900Y-84257400D02*
X224629900Y-81541400D01*
X227662000Y-86082500D02*
X227662000Y-84257400D01*
X223838000Y-76806200D02*
X222549600Y-76806200D01*
X222549600Y-76806200D02*
X221924100Y-77431700D01*
X237188000Y-105132000D02*
X237188000Y-103306900D01*
X233362000Y-95856200D02*
X234162100Y-95856200D01*
X234162100Y-95856200D02*
X234162100Y-96148000D01*
X234162100Y-96148000D02*
X234512300Y-96498200D01*
X237188000Y-103306900D02*
X235147700Y-101266600D01*
X235147700Y-101266600D02*
X235147700Y-99451900D01*
X226712000Y-42208000D02*
X226937000Y-42208000D01*
X226937000Y-42208000D02*
X230886400Y-46157400D01*
X230886400Y-46157400D02*
X232425000Y-46157400D01*
X232425000Y-47982500D02*
X232425000Y-46157400D01*
X228600000Y-38706200D02*
X225996400Y-38706200D01*
X225996400Y-38706200D02*
X225171500Y-39531100D01*
X234762900Y-67032500D02*
X234762900Y-63329300D01*
X234762900Y-63329300D02*
X234013000Y-62579400D01*
X237188000Y-67032500D02*
X234762900Y-67032500D01*
X233362000Y-57756200D02*
X232258600Y-57756200D01*
X242888000Y-76806200D02*
X243688100Y-76806200D01*
X243688100Y-76806200D02*
X243688100Y-77159100D01*
X243688100Y-77159100D02*
X243973500Y-77444500D01*
X244286900Y-86082500D02*
X244286900Y-82041100D01*
X244286900Y-82041100D02*
X243924400Y-81678600D01*
X246712000Y-86082500D02*
X244286900Y-86082500D01*
X256238000Y-103306900D02*
X254005800Y-101074700D01*
X254005800Y-101074700D02*
X254005800Y-100431000D01*
X256238000Y-105132000D02*
X256238000Y-103306900D01*
X252412000Y-95856200D02*
X253382000Y-95856200D01*
X253382000Y-95856200D02*
X254005800Y-96480000D01*
X251475000Y-46157400D02*
X251475000Y-44551500D01*
X251475000Y-44551500D02*
X250516600Y-43593100D01*
X247650000Y-38706200D02*
X249369800Y-38706200D01*
X249369800Y-38706200D02*
X250204900Y-39541300D01*
X251475000Y-47982500D02*
X251475000Y-46157400D01*
X256238000Y-65207400D02*
X253818800Y-62788200D01*
X253818800Y-62788200D02*
X253818800Y-62128800D01*
X256238000Y-67032500D02*
X256238000Y-65207400D01*
X252412000Y-57756200D02*
X253212100Y-57756200D01*
X253212100Y-57756200D02*
X253212100Y-57835900D01*
X253212100Y-57835900D02*
X253818800Y-58442600D01*
X265762000Y-86082500D02*
X265762000Y-84257400D01*
X261938000Y-76806200D02*
X261137900Y-76806200D01*
X261137900Y-76806200D02*
X261051800Y-76892300D01*
X261051800Y-76892300D02*
X260827700Y-76892300D01*
X265762000Y-84257400D02*
X265583500Y-84257400D01*
X265583500Y-84257400D02*
X262822600Y-81496500D01*
X271462000Y-95856200D02*
X272404400Y-95856200D01*
X272404400Y-95856200D02*
X273049000Y-96500800D01*
X275288000Y-105132000D02*
X275288000Y-103306900D01*
X275288000Y-103306900D02*
X273049000Y-101067900D01*
X273049000Y-101067900D02*
X273049000Y-100081000D01*
X268099900Y-47982500D02*
X268099900Y-46550000D01*
X268099900Y-46550000D02*
X267718700Y-46168800D01*
X266700000Y-38706200D02*
X265526400Y-38706200D01*
X265526400Y-38706200D02*
X264691300Y-39541300D01*
X270525000Y-47982500D02*
X268099900Y-47982500D01*
X271462000Y-57756200D02*
X272690400Y-57756200D01*
X272690400Y-57756200D02*
X273366600Y-58432400D01*
X275288000Y-65207400D02*
X273366600Y-63286000D01*
X273366600Y-63286000D02*
X273366600Y-61299500D01*
X275288000Y-67032500D02*
X275288000Y-65207400D01*
X287149900Y-86082500D02*
X287149900Y-83572800D01*
X287149900Y-83572800D02*
X283488900Y-79911800D01*
X289575000Y-86082500D02*
X287149900Y-86082500D01*
X285750000Y-76806200D02*
X284113500Y-76806200D01*
X284113500Y-76806200D02*
X283488900Y-77430800D01*
X299100000Y-109895000D02*
X299100000Y-108069900D01*
X295275000Y-100619000D02*
X296075100Y-100619000D01*
X296075100Y-100619000D02*
X296075100Y-105045000D01*
X296075100Y-105045000D02*
X299100000Y-108069900D01*
X285750000Y-38706200D02*
X287946000Y-38706200D01*
X287946000Y-38706200D02*
X288788300Y-39548500D01*
X289575000Y-45995210D02*
X289575200Y-45995010D01*
X289575000Y-47982500D02*
X289575000Y-45995210D01*
X303219100Y-57756200D02*
X303497500Y-58034600D01*
X303497500Y-58034600D02*
X303497500Y-58210300D01*
X302419000Y-57756200D02*
X303219100Y-57756200D01*
X301544800Y-60163100D02*
X301544800Y-60163000D01*
X303003100Y-60163100D02*
X301544800Y-60163100D01*
X306344000Y-63504000D02*
X303003100Y-60163100D01*
X306344000Y-66992500D02*
X306344000Y-63504000D01*
X318150000Y-89019900D02*
X315125100Y-85995000D01*
X315125100Y-85995000D02*
X315125100Y-81568800D01*
X318150000Y-90845000D02*
X318150000Y-89019900D01*
X314325000Y-81568800D02*
X315125100Y-81568800D01*
X314325000Y-100619000D02*
X315125100Y-100619000D01*
X315125100Y-100619000D02*
X315125100Y-100717400D01*
X315125100Y-100717400D02*
X315678100Y-101270400D01*
X318150000Y-109895000D02*
X318150000Y-108069900D01*
X318150000Y-108069900D02*
X315678100Y-105598000D01*
X315678100Y-105598000D02*
X315678100Y-102980300D01*
X313388000Y-46157400D02*
X311746800Y-44516200D01*
X311746800Y-44516200D02*
X311746800Y-42214100D01*
X313388000Y-47982500D02*
X313388000Y-46157400D01*
X309562000Y-38706200D02*
X310362100Y-38706200D01*
X310362100Y-38706200D02*
X311210500Y-39554600D01*
X311210500Y-39554600D02*
X311746800Y-39554600D01*
X341962000Y-47982500D02*
X341962000Y-46157400D01*
X338138000Y-38706200D02*
X340331500Y-38706200D01*
X340331500Y-38706200D02*
X341166600Y-39541300D01*
X341962000Y-46157400D02*
X340861000Y-45056400D01*
X340861000Y-45056400D02*
X340861000Y-41838900D01*
X357188000Y-61306200D02*
X356387900Y-61306200D01*
X338138000Y-61306200D02*
X339850500Y-61306200D01*
X339850500Y-61306200D02*
X342826100Y-64281800D01*
X342826100Y-64281800D02*
X348622300Y-64281800D01*
X348622300Y-64281800D02*
X350909200Y-61994900D01*
X350909200Y-61994900D02*
X350909200Y-61865600D01*
X350909200Y-61865600D02*
X352236100Y-60538700D01*
X352236100Y-60538700D02*
X355620400Y-60538700D01*
X355620400Y-60538700D02*
X356387900Y-61306200D01*
X358857600Y-61306200D02*
X361951400Y-64400000D01*
X367730000Y-64400000D02*
X369959200Y-62170800D01*
X369959200Y-61340800D02*
X370893800Y-60406200D01*
X370893800Y-60406200D02*
X375513000Y-60406200D01*
X357188000Y-61306200D02*
X358857600Y-61306200D01*
X364736998Y-64400000D02*
X364921999Y-64214999D01*
X361951400Y-64400000D02*
X364736998Y-64400000D01*
X364921999Y-64214999D02*
X365618001Y-64214999D01*
X376238000Y-61131200D02*
X376238000Y-61306200D01*
X365618001Y-64214999D02*
X365803002Y-64400000D01*
X375513000Y-60406200D02*
X376238000Y-61131200D01*
X365803002Y-64400000D02*
X367730000Y-64400000D01*
X369959200Y-62170800D02*
X369959200Y-61340800D01*
X341962000Y-67032500D02*
X341962000Y-65207400D01*
X338138000Y-57756200D02*
X340996600Y-57756200D01*
X341056700Y-64271500D02*
X341056700Y-64302100D01*
X341056700Y-64302100D02*
X341962000Y-65207400D01*
X338138000Y-80356200D02*
X340514700Y-77979500D01*
X340514700Y-77979500D02*
X340805600Y-77979500D01*
X356387900Y-80356200D02*
X355201000Y-79169300D01*
X355201000Y-79169300D02*
X353901800Y-79169300D01*
X357188000Y-80356200D02*
X356387900Y-80356200D01*
X375437900Y-80356200D02*
X376238000Y-80356200D01*
X357188000Y-80356200D02*
X357988100Y-80356200D01*
X357988100Y-80356200D02*
X358731700Y-79612600D01*
X358731700Y-79612600D02*
X362197100Y-79612600D01*
X367715502Y-83400000D02*
X369037001Y-82078501D01*
X374654000Y-79572300D02*
X375437900Y-80356200D01*
X362197100Y-79612600D02*
X364386999Y-81802499D01*
X365708498Y-83400000D02*
X367715502Y-83400000D01*
X364386999Y-82078501D02*
X365708498Y-83400000D01*
X364386999Y-81802499D02*
X364386999Y-82078501D01*
X369037001Y-82078501D02*
X369037001Y-81967099D01*
X369959200Y-80866400D02*
X371253300Y-79572300D01*
X371253300Y-79572300D02*
X374654000Y-79572300D01*
X369037001Y-81967099D02*
X369959200Y-81044900D01*
X369959200Y-81044900D02*
X369959200Y-80866400D01*
X339536900Y-86082500D02*
X339536900Y-85129700D01*
X339536900Y-85129700D02*
X338330800Y-83923600D01*
X337337900Y-76806200D02*
X336605700Y-77538400D01*
X336605700Y-77538400D02*
X336605700Y-82198500D01*
X338138000Y-76806200D02*
X337337900Y-76806200D01*
X341962000Y-86082500D02*
X339536900Y-86082500D01*
X337200000Y-109895000D02*
X337200000Y-108069900D01*
X333375000Y-100619000D02*
X335918800Y-100619000D01*
X336357900Y-107741000D02*
X336686800Y-108069900D01*
X336686800Y-108069900D02*
X337200000Y-108069900D01*
X361012000Y-47982500D02*
X361012000Y-46157400D01*
X357188000Y-38706200D02*
X359178700Y-38706200D01*
X359178700Y-38706200D02*
X360003600Y-39531100D01*
X361012000Y-46157400D02*
X360830500Y-46157400D01*
X360830500Y-46157400D02*
X359373000Y-44699900D01*
X361012000Y-65207400D02*
X359590700Y-63786100D01*
X359590700Y-63786100D02*
X359590700Y-63071800D01*
X361012000Y-67032500D02*
X361012000Y-65207400D01*
X357188000Y-57756200D02*
X359590700Y-57756200D01*
X361012000Y-84257400D02*
X359737700Y-82983100D01*
X359737700Y-82983100D02*
X359737700Y-80373000D01*
X361012000Y-86082500D02*
X361012000Y-84257400D01*
X357988100Y-76806200D02*
X359091300Y-76806200D01*
X359091300Y-76806200D02*
X359737700Y-77452600D01*
X357188000Y-76806200D02*
X357988100Y-76806200D01*
X357188000Y-95856200D02*
X357188000Y-96831300D01*
X361012000Y-105132000D02*
X361012000Y-103306900D01*
X359174900Y-102248800D02*
X360233000Y-103306900D01*
X360233000Y-103306900D02*
X361012000Y-103306900D01*
X357188000Y-96831300D02*
X357432600Y-97075900D01*
X357432600Y-97075900D02*
X357432600Y-97301400D01*
X381894200Y-49814700D02*
X380062000Y-47982500D01*
X393528500Y-49814700D02*
X381894200Y-49814700D01*
X395685800Y-47657400D02*
X393528500Y-49814700D01*
X395685800Y-42261900D02*
X395685800Y-47657400D01*
X388433900Y-35010000D02*
X395685800Y-42261900D01*
X379540000Y-35010000D02*
X388433900Y-35010000D01*
X376238000Y-38312000D02*
X379540000Y-35010000D01*
X376238000Y-38706200D02*
X376238000Y-38312000D01*
X376238000Y-57756200D02*
X378716000Y-57756200D01*
X378716000Y-57756200D02*
X379413500Y-58453700D01*
X380062000Y-65207400D02*
X379304500Y-64449900D01*
X379304500Y-64449900D02*
X379304500Y-61249600D01*
X379304500Y-61249600D02*
X380370400Y-60183700D01*
X380062000Y-67032500D02*
X380062000Y-65207400D01*
X380062000Y-86082500D02*
X377636900Y-86082500D01*
X376726000Y-85109700D02*
X377636900Y-86020600D01*
X377636900Y-86020600D02*
X377636900Y-86082500D01*
X376238000Y-76806200D02*
X372393600Y-76806200D01*
X372393600Y-76806200D02*
X372382300Y-76817500D01*
X377636900Y-105132000D02*
X377636900Y-103617200D01*
X377636900Y-103617200D02*
X377339100Y-103319400D01*
X380062000Y-105132000D02*
X377636900Y-105132000D01*
X377339100Y-96232300D02*
X377339100Y-96549990D01*
X376963000Y-95856200D02*
X377339100Y-96232300D01*
X376238000Y-95856200D02*
X376963000Y-95856200D01*
X43282400Y-38068200D02*
X43282300Y-38068200D01*
X97412000Y-75449500D02*
X97412000Y-75450000D01*
D20*
X97412000Y-75449500D02*
X97412500Y-75450000D01*
X94000000Y-75000000D02*
X96962500Y-75000000D01*
X96962500Y-75000000D02*
X97412000Y-75449500D01*
X28062400Y-40608200D02*
X40742300Y-40608200D01*
X40742300Y-40608200D02*
X43282300Y-38068200D01*
X27223300Y-43987200D02*
X23862500Y-47348100D01*
X23862500Y-47348100D02*
X23862500Y-47743800D01*
D19*
X27223300Y-43987200D02*
X27223400Y-43987200D01*
X27223400Y-43987200D02*
X28062400Y-43148200D01*
D20*
X28062300Y-43148200D02*
X27223300Y-43987200D01*
X340299800Y-99262200D02*
X340300000Y-99262500D01*
X340000000Y-97000000D02*
X340000000Y-99000000D01*
X340000000Y-99000000D02*
X340038000Y-99000000D01*
X340038000Y-99000000D02*
X340299800Y-99262200D01*
D19*
X340300000Y-99262000D02*
X340299800Y-99262200D01*
D20*
X321249800Y-99262200D02*
X321250000Y-99262500D01*
X318000000Y-99000000D02*
X320988000Y-99000000D01*
X320988000Y-99000000D02*
X321249800Y-99262200D01*
D19*
X321250000Y-99262000D02*
X321249800Y-99262200D01*
D20*
X302199800Y-99262200D02*
X302200000Y-99262500D01*
X299000000Y-99000000D02*
X301938000Y-99000000D01*
X301938000Y-99000000D02*
X302199800Y-99262200D01*
D19*
X302200000Y-99262000D02*
X302199800Y-99262200D01*
D20*
X28062300Y-40608200D02*
X26850300Y-39396200D01*
X26850300Y-39396200D02*
X26850300Y-34200300D01*
X26850300Y-34200300D02*
X27456300Y-33594200D01*
D19*
X27456300Y-33594200D02*
X27456400Y-33594200D01*
X27456400Y-33594200D02*
X28062400Y-32988200D01*
D20*
X27456300Y-33594200D02*
X28062300Y-32988200D01*
X28062300Y-40608200D02*
X28062400Y-40608200D01*
X32204800Y-72795200D02*
X32204800Y-74536000D01*
X32204800Y-74536000D02*
X33118800Y-75450000D01*
X81110000Y-35890000D02*
X81665000Y-35890000D01*
X81665000Y-35890000D02*
X83125000Y-37350000D01*
X84000000Y-57000000D02*
X87287500Y-57000000D01*
X87287500Y-57000000D02*
X87887500Y-56400000D01*
X100000000Y-37000000D02*
X101825000Y-37000000D01*
X101825000Y-37000000D02*
X102175000Y-37350000D01*
X104000000Y-56000000D02*
X106538000Y-56000000D01*
X106538000Y-56000000D02*
X106938000Y-56400000D01*
X78000000Y-95000000D02*
X80243800Y-95000000D01*
X80243800Y-95000000D02*
X80743800Y-94500000D01*
X119000000Y-37000000D02*
X120875000Y-37000000D01*
X120875000Y-37000000D02*
X121225000Y-37350000D01*
X115000000Y-74000000D02*
X115012000Y-74000000D01*
X115012000Y-74000000D02*
X116462000Y-75450000D01*
X102000000Y-94000000D02*
X104056000Y-94000000D01*
X104056000Y-94000000D02*
X104556000Y-94500000D01*
X138000000Y-37000000D02*
X139925000Y-37000000D01*
X139925000Y-37000000D02*
X140275000Y-37350000D01*
X142000000Y-56000000D02*
X144638000Y-56000000D01*
X144638000Y-56000000D02*
X145038000Y-56400000D01*
X133000000Y-75000000D02*
X135062000Y-75000000D01*
X135062000Y-75000000D02*
X135512000Y-75450000D01*
X132000000Y-95000000D02*
X135012000Y-95000000D01*
X135012000Y-95000000D02*
X135512000Y-94500000D01*
X157000000Y-37000000D02*
X158975000Y-37000000D01*
X158975000Y-37000000D02*
X159325000Y-37350000D01*
X162000000Y-56000000D02*
X163688000Y-56000000D01*
X163688000Y-56000000D02*
X164088000Y-56400000D01*
X151000000Y-75000000D02*
X154112000Y-75000000D01*
X154112000Y-75000000D02*
X154562000Y-75450000D01*
X176110000Y-36890000D02*
X177915000Y-36890000D01*
X177915000Y-36890000D02*
X178375000Y-37350000D01*
X181000000Y-56000000D02*
X182738000Y-56000000D01*
X182738000Y-56000000D02*
X183138000Y-56400000D01*
X171000000Y-75000000D02*
X173162000Y-75000000D01*
X173162000Y-75000000D02*
X173612000Y-75450000D01*
X195000000Y-37000000D02*
X197075000Y-37000000D01*
X197075000Y-37000000D02*
X197425000Y-37350000D01*
X190000000Y-75000000D02*
X192212000Y-75000000D01*
X192212000Y-75000000D02*
X192662000Y-75450000D01*
X199000000Y-94000000D02*
X201688000Y-94000000D01*
X201688000Y-94000000D02*
X202188000Y-94500000D01*
X214110000Y-36890000D02*
X216015000Y-36890000D01*
X216015000Y-36890000D02*
X216475000Y-37350000D01*
X219000000Y-56000000D02*
X220838000Y-56000000D01*
X220838000Y-56000000D02*
X221238000Y-56400000D01*
X209000000Y-75000000D02*
X211262000Y-75000000D01*
X211262000Y-75000000D02*
X211712000Y-75450000D01*
X218000000Y-94000000D02*
X220738000Y-94000000D01*
X220738000Y-94000000D02*
X221238000Y-94500000D01*
X233000000Y-37000000D02*
X235056000Y-37000000D01*
X235056000Y-37000000D02*
X235306000Y-37250000D01*
X238000000Y-56000000D02*
X239888000Y-56000000D01*
X239888000Y-56000000D02*
X240288000Y-56400000D01*
X228000000Y-75000000D02*
X230312000Y-75000000D01*
X230312000Y-75000000D02*
X230762000Y-75450000D01*
X237000000Y-94000000D02*
X239788000Y-94000000D01*
X239788000Y-94000000D02*
X240288000Y-94500000D01*
X251890000Y-36890000D02*
X254115000Y-36890000D01*
X254115000Y-36890000D02*
X254575000Y-37350000D01*
X247000000Y-75000000D02*
X249362000Y-75000000D01*
X249362000Y-75000000D02*
X249812000Y-75450000D01*
X256000000Y-94000000D02*
X258838000Y-94000000D01*
X258838000Y-94000000D02*
X259338000Y-94500000D01*
X266000000Y-75000000D02*
X268412000Y-75000000D01*
X268412000Y-75000000D02*
X268862000Y-75450000D01*
X271000000Y-37000000D02*
X273275000Y-37000000D01*
X273275000Y-37000000D02*
X273625000Y-37350000D01*
X275000000Y-95000000D02*
X277888000Y-95000000D01*
X277888000Y-95000000D02*
X278388000Y-94500000D01*
X290000000Y-37000000D02*
X292325000Y-37000000D01*
X292325000Y-37000000D02*
X292675000Y-37350000D01*
X290000000Y-75000000D02*
X292225000Y-75000000D01*
X292225000Y-75000000D02*
X292675000Y-75450000D01*
X314110000Y-36890000D02*
X316027000Y-36890000D01*
X316027000Y-36890000D02*
X316488000Y-37350000D01*
X307000000Y-56000000D02*
X308944000Y-56000000D01*
X308944000Y-56000000D02*
X309344000Y-56400000D01*
X319000000Y-80000000D02*
X321038000Y-80000000D01*
X321038000Y-80000000D02*
X321250000Y-80212500D01*
X342890000Y-36890000D02*
X344602000Y-36890000D01*
X344602000Y-36890000D02*
X345062000Y-37350000D01*
X342890000Y-56110000D02*
X344773000Y-56110000D01*
X344773000Y-56110000D02*
X345062000Y-56400000D01*
X342890000Y-75110000D02*
X344723000Y-75110000D01*
X344723000Y-75110000D02*
X345062000Y-75450000D01*
X362000000Y-37000000D02*
X363762000Y-37000000D01*
X363762000Y-37000000D02*
X364112000Y-37350000D01*
X361890000Y-55890000D02*
X363602000Y-55890000D01*
X363602000Y-55890000D02*
X364112000Y-56400000D01*
X361890000Y-75110000D02*
X363773000Y-75110000D01*
X363773000Y-75110000D02*
X364112000Y-75450000D01*
X361000000Y-94000000D02*
X363612000Y-94000000D01*
X363612000Y-94000000D02*
X364112000Y-94500000D01*
X380890000Y-55890000D02*
X382652000Y-55890000D01*
X382652000Y-55890000D02*
X383162000Y-56400000D01*
X380890000Y-75110000D02*
X382823000Y-75110000D01*
X382823000Y-75110000D02*
X383162000Y-75450000D01*
X380000000Y-94000000D02*
X382662000Y-94000000D01*
X382662000Y-94000000D02*
X383162000Y-94500000D01*
X28012500Y-100012000D02*
X28218800Y-100012000D01*
X29000000Y-109000000D02*
X32906200Y-109000000D01*
X32906200Y-109000000D02*
X33118800Y-108788000D01*
X64000000Y-75000000D02*
X66006200Y-75000000D01*
X66006200Y-75000000D02*
X66456200Y-75450000D01*
X59000000Y-56000000D02*
X61293800Y-56000000D01*
X61293800Y-56000000D02*
X61693800Y-56400000D01*
X53931800Y-94931800D02*
X56499500Y-94931800D01*
X56499500Y-94931800D02*
X56931200Y-94500000D01*
X56000000Y-37000000D02*
X58962500Y-37000000D01*
X58962500Y-37000000D02*
X59312500Y-37350000D01*
X39528800Y-69056200D02*
X39943800Y-69056200D01*
X39943800Y-69056200D02*
X40000000Y-69000000D01*
X23862500Y-47743800D02*
X23862500Y-53850000D01*
X23862500Y-53850000D02*
X23812500Y-53900000D01*
X28062300Y-43148200D02*
X24267000Y-43148200D01*
X24267000Y-43148200D02*
X23862500Y-42743800D01*
X28062300Y-43148200D02*
X28062300Y-40608200D01*
X32204800Y-72795200D02*
X32000000Y-73000000D01*
X32000000Y-73000000D02*
X31000000Y-73000000D01*
X38380200Y-70204800D02*
X39528800Y-69056200D01*
X38380200Y-71000000D02*
X38380200Y-70204800D01*
X32000000Y-71000000D02*
X38380200Y-71000000D01*
X32000000Y-72590400D02*
X32204800Y-72795200D01*
X32000000Y-71000000D02*
X32000000Y-72590400D01*
X383162000Y-37350000D02*
X381824910Y-36012910D01*
X381824910Y-36012910D02*
X381000000Y-36012910D01*
X121599980Y-56400000D02*
X120999980Y-57000000D01*
X125988000Y-56400000D02*
X121599980Y-56400000D01*
X173612000Y-94500000D02*
X172030000Y-94500000D01*
X172030000Y-94500000D02*
X171400000Y-95130000D01*
X201268000Y-55480000D02*
X199850000Y-55480000D01*
X202188000Y-56400000D02*
X201268000Y-55480000D01*
X258508000Y-55570000D02*
X256790000Y-55570000D01*
X259338000Y-56400000D02*
X258508000Y-55570000D01*
X278388000Y-56400000D02*
X277508000Y-55520000D01*
X277508000Y-55520000D02*
X276280000Y-55520000D01*
X23812500Y-53900000D02*
X25302600Y-55390100D01*
X32000000Y-70773808D02*
X32000000Y-71000000D01*
X25302600Y-55390100D02*
X25302600Y-64076408D01*
X25302600Y-64076408D02*
X32000000Y-70773808D01*
D19*
X40093900Y-75450000D02*
X40093900Y-77086400D01*
X40093900Y-77086400D02*
X40382600Y-77375100D01*
X38318800Y-75450000D02*
X40093900Y-75450000D01*
X37890789Y-86642709D02*
X37490790Y-86242710D01*
X33118800Y-110288000D02*
X29254200Y-110288000D01*
X37890789Y-96533211D02*
X37890789Y-86642709D01*
X28258500Y-109292300D02*
X28258500Y-106165500D01*
X29254200Y-110288000D02*
X28258500Y-109292300D01*
X28258500Y-106165500D02*
X37890789Y-96533211D01*
D20*
X43282400Y-43148200D02*
X44446600Y-44312500D01*
X44446600Y-44312500D02*
X51312500Y-44312500D01*
X36988800Y-69056200D02*
X36988800Y-49441800D01*
X36988800Y-49441800D02*
X43282300Y-43148200D01*
X43282300Y-43148200D02*
X43282400Y-43148200D01*
X64587500Y-40412500D02*
X88587500Y-40412500D01*
X51312500Y-44312500D02*
X57528500Y-44312500D01*
X57528500Y-44312500D02*
X58282500Y-43558500D01*
X58282500Y-43558500D02*
X58282500Y-42866500D01*
X58282500Y-42866500D02*
X60736500Y-40412500D01*
X60736500Y-40412500D02*
X64587500Y-40412500D01*
X345877000Y-102123000D02*
X356877000Y-102123000D01*
X356877000Y-102123000D02*
X361438000Y-97562500D01*
X62640000Y-97360000D02*
X86640000Y-97360000D01*
X51312500Y-95312500D02*
X53360000Y-97360000D01*
X53360000Y-97360000D02*
X62640000Y-97360000D01*
X51312500Y-95312500D02*
X51312500Y-101687000D01*
X51312500Y-101687000D02*
X42712500Y-110288000D01*
X42712500Y-110288000D02*
X38318800Y-110288000D01*
X51312500Y-92687500D02*
X51312500Y-95312500D01*
X51312500Y-92687500D02*
X51312500Y-95312500D01*
X51312500Y-78312500D02*
X51312500Y-92687500D01*
X51312500Y-59312500D02*
X51312500Y-78312500D01*
X51312500Y-44312500D02*
X51312500Y-59312500D01*
X67312500Y-59312500D02*
X93687500Y-59312500D01*
X51312500Y-59312500D02*
X67312500Y-59312500D01*
X350310000Y-78310000D02*
X369310000Y-78310000D01*
X327073000Y-83072500D02*
X337927000Y-83072500D01*
X337927000Y-83072500D02*
X339063000Y-81937500D01*
X339063000Y-81937500D02*
X339063000Y-80937500D01*
X339063000Y-80937500D02*
X341690000Y-78310000D01*
X341690000Y-78310000D02*
X350310000Y-78310000D01*
X298687000Y-78312500D02*
X314313000Y-78312500D01*
X314313000Y-78312500D02*
X319073000Y-83072500D01*
X319073000Y-83072500D02*
X327073000Y-83072500D01*
X72312500Y-78312500D02*
X103313000Y-78312500D01*
X51312500Y-78312500D02*
X72312500Y-78312500D01*
X72312500Y-78312500D02*
X72312500Y-77606300D01*
X72312500Y-77606300D02*
X71656200Y-76950000D01*
X103313000Y-78312500D02*
X122313000Y-78312500D01*
X103313000Y-78312500D02*
X103313000Y-77650000D01*
X103313000Y-77650000D02*
X102612000Y-76950000D01*
X122313000Y-78312500D02*
X141687000Y-78312500D01*
X122313000Y-78312500D02*
X122313000Y-77600000D01*
X122313000Y-77600000D02*
X121662000Y-76950000D01*
X141687000Y-78312500D02*
X160313000Y-78312500D01*
X141687000Y-78312500D02*
X141687000Y-77925000D01*
X141687000Y-77925000D02*
X140712000Y-76950000D01*
X160313000Y-78312500D02*
X179313000Y-78312500D01*
X160313000Y-78312500D02*
X160313000Y-77500000D01*
X160313000Y-77500000D02*
X159762000Y-76950000D01*
X179313000Y-78312500D02*
X198687000Y-78312500D01*
X179313000Y-78312500D02*
X179313000Y-77450000D01*
X179313000Y-77450000D02*
X178812000Y-76950000D01*
X198687000Y-78312500D02*
X217687000Y-78312500D01*
X198687000Y-78312500D02*
X198687000Y-77775000D01*
X198687000Y-77775000D02*
X197862000Y-76950000D01*
X217687000Y-78312500D02*
X236687000Y-78312500D01*
X217687000Y-78312500D02*
X217687000Y-77725000D01*
X217687000Y-77725000D02*
X216912000Y-76950000D01*
X236687000Y-78312500D02*
X255687000Y-78312500D01*
X236687000Y-78312500D02*
X236687000Y-77675000D01*
X236687000Y-77675000D02*
X235962000Y-76950000D01*
X255687000Y-78312500D02*
X274687000Y-78312500D01*
X255687000Y-78312500D02*
X255687000Y-77625000D01*
X255687000Y-77625000D02*
X255012000Y-76950000D01*
X274687000Y-78312500D02*
X298687000Y-78312500D01*
X274687000Y-78312500D02*
X274687000Y-77575000D01*
X274687000Y-77575000D02*
X274062000Y-76950000D01*
X298687000Y-78312500D02*
X298687000Y-77762500D01*
X298687000Y-77762500D02*
X297875000Y-76950000D01*
X327073000Y-83072500D02*
X327073000Y-82335000D01*
X327073000Y-82335000D02*
X326450000Y-81712500D01*
X350310000Y-78310000D02*
X350310000Y-76997500D01*
X350310000Y-76997500D02*
X350262000Y-76950000D01*
X369310000Y-78310000D02*
X387724000Y-78310000D01*
X387724000Y-78310000D02*
X388362000Y-77671300D01*
X388362000Y-77671300D02*
X388362000Y-76950000D01*
X369310000Y-78310000D02*
X369310000Y-76952500D01*
X369310000Y-76952500D02*
X369312000Y-76950000D01*
X67312500Y-59312500D02*
X67312500Y-58318800D01*
X67312500Y-58318800D02*
X66893800Y-57900000D01*
X93687500Y-59312500D02*
X112687000Y-59312500D01*
X93687500Y-59312500D02*
X93687500Y-58500000D01*
X93687500Y-58500000D02*
X93087500Y-57900000D01*
X112687000Y-59312500D02*
X131687000Y-59312500D01*
X112687000Y-59312500D02*
X112687000Y-58450000D01*
X112687000Y-58450000D02*
X112138000Y-57900000D01*
X131687000Y-59312500D02*
X151313000Y-59312500D01*
X131687000Y-59312500D02*
X131687000Y-58400000D01*
X131687000Y-58400000D02*
X131188000Y-57900000D01*
X151313000Y-59312500D02*
X169687000Y-59312500D01*
X151313000Y-59312500D02*
X151313000Y-58975000D01*
X151313000Y-58975000D02*
X150238000Y-57900000D01*
X169687000Y-59312500D02*
X189313000Y-59312500D01*
X169687000Y-59312500D02*
X169687000Y-58300000D01*
X169687000Y-58300000D02*
X169288000Y-57900000D01*
X189313000Y-59312500D02*
X208313000Y-59312500D01*
X189313000Y-59312500D02*
X189313000Y-58875000D01*
X189313000Y-58875000D02*
X188338000Y-57900000D01*
X208313000Y-59312500D02*
X227313000Y-59312500D01*
X208313000Y-59312500D02*
X208313000Y-58825000D01*
X208313000Y-58825000D02*
X207388000Y-57900000D01*
X227313000Y-59312500D02*
X246313000Y-59312500D01*
X227313000Y-59312500D02*
X227313000Y-58775000D01*
X227313000Y-58775000D02*
X226438000Y-57900000D01*
X246313000Y-59312500D02*
X264687000Y-59312500D01*
X246313000Y-59312500D02*
X246313000Y-58725000D01*
X246313000Y-58725000D02*
X245488000Y-57900000D01*
X264687000Y-59312500D02*
X264687000Y-58050000D01*
X264687000Y-58050000D02*
X264538000Y-57900000D01*
X264687000Y-59312500D02*
X283687000Y-59312500D01*
X283687000Y-59312500D02*
X314687000Y-59312500D01*
X283687000Y-59312500D02*
X283687000Y-58000000D01*
X283687000Y-58000000D02*
X283588000Y-57900000D01*
X314687000Y-59312500D02*
X350313000Y-59312500D01*
X314687000Y-59312500D02*
X314687000Y-58043700D01*
X314687000Y-58043700D02*
X314544000Y-57900000D01*
X350313000Y-59312500D02*
X369313000Y-59312500D01*
X350313000Y-59312500D02*
X350313000Y-57950000D01*
X350313000Y-57950000D02*
X350262000Y-57900000D01*
X369313000Y-59312500D02*
X387671000Y-59312500D01*
X387671000Y-59312500D02*
X388362000Y-58621300D01*
X388362000Y-58621300D02*
X388362000Y-57900000D01*
X369313000Y-59312500D02*
X369313000Y-57900000D01*
X369313000Y-57900000D02*
X369312000Y-57900000D01*
X51312500Y-78312500D02*
X39681300Y-78312500D01*
X39681300Y-78312500D02*
X38318800Y-76950000D01*
X62640000Y-97360000D02*
X62640000Y-96508700D01*
X62640000Y-96508700D02*
X62131200Y-96000000D01*
X86640000Y-97360000D02*
X110360000Y-97360000D01*
X86640000Y-97360000D02*
X86640000Y-96696200D01*
X86640000Y-96696200D02*
X85943800Y-96000000D01*
X110360000Y-97360000D02*
X141640000Y-97360000D01*
X110360000Y-97360000D02*
X110360000Y-96603800D01*
X110360000Y-96603800D02*
X109756000Y-96000000D01*
X141640000Y-97360000D02*
X179360000Y-97360000D01*
X141640000Y-97360000D02*
X141640000Y-96927500D01*
X141640000Y-96927500D02*
X140712000Y-96000000D01*
X179360000Y-97360000D02*
X208360000Y-97360000D01*
X179360000Y-97360000D02*
X179360000Y-96547500D01*
X179360000Y-96547500D02*
X178812000Y-96000000D01*
X208360000Y-97360000D02*
X227360000Y-97360000D01*
X208360000Y-97360000D02*
X208360000Y-96972500D01*
X208360000Y-96972500D02*
X207388000Y-96000000D01*
X227360000Y-97360000D02*
X246360000Y-97360000D01*
X227360000Y-97360000D02*
X227360000Y-96922500D01*
X227360000Y-96922500D02*
X226438000Y-96000000D01*
X246360000Y-97360000D02*
X265360000Y-97360000D01*
X246360000Y-97360000D02*
X246360000Y-96872500D01*
X246360000Y-96872500D02*
X245488000Y-96000000D01*
X265360000Y-97360000D02*
X284360000Y-97360000D01*
X265360000Y-97360000D02*
X265360000Y-96822500D01*
X265360000Y-96822500D02*
X264538000Y-96000000D01*
X284360000Y-97360000D02*
X295360000Y-97360000D01*
X295360000Y-97360000D02*
X300123000Y-102123000D01*
X300123000Y-102123000D02*
X308123000Y-102123000D01*
X284360000Y-97360000D02*
X284360000Y-96772500D01*
X284360000Y-96772500D02*
X283588000Y-96000000D01*
X308123000Y-102123000D02*
X327123000Y-102123000D01*
X308123000Y-102123000D02*
X308123000Y-101485000D01*
X308123000Y-101485000D02*
X307400000Y-100762000D01*
X327123000Y-102123000D02*
X345877000Y-102123000D01*
X327123000Y-102123000D02*
X327123000Y-101435000D01*
X327123000Y-101435000D02*
X326450000Y-100762000D01*
X345877000Y-102123000D02*
X345877000Y-101140000D01*
X345877000Y-101140000D02*
X345500000Y-100762000D01*
X369438000Y-97562500D02*
X369438000Y-96125000D01*
X369438000Y-96125000D02*
X369312000Y-96000000D01*
X64587500Y-40412500D02*
X64587500Y-38925000D01*
X64587500Y-38925000D02*
X64512500Y-38850000D01*
X88587500Y-40412500D02*
X107588000Y-40412500D01*
X88587500Y-40412500D02*
X88587500Y-39112500D01*
X88587500Y-39112500D02*
X88325000Y-38850000D01*
X107588000Y-40412500D02*
X127412000Y-40412500D01*
X107588000Y-40412500D02*
X107588000Y-39062500D01*
X107588000Y-39062500D02*
X107375000Y-38850000D01*
X127412000Y-40412500D02*
X146412000Y-40412500D01*
X127412000Y-40412500D02*
X127412000Y-39837500D01*
X127412000Y-39837500D02*
X126425000Y-38850000D01*
X146412000Y-40412500D02*
X146412000Y-39412500D01*
X146412000Y-39412500D02*
X145850000Y-38850000D01*
X145850000Y-38850000D02*
X145475000Y-38850000D01*
X146412000Y-40412500D02*
X165412000Y-40412500D01*
X165412000Y-40412500D02*
X184412000Y-40412500D01*
X165412000Y-40412500D02*
X165412000Y-39737500D01*
X165412000Y-39737500D02*
X164525000Y-38850000D01*
X184412000Y-40412500D02*
X184412000Y-39687500D01*
X184412000Y-39687500D02*
X183575000Y-38850000D01*
X203412000Y-40412500D02*
X222412000Y-40412500D01*
X203412000Y-40412500D02*
X203412000Y-39637500D01*
X203412000Y-39637500D02*
X202625000Y-38850000D01*
X222412000Y-40412500D02*
X241412000Y-40412500D01*
X222412000Y-40412500D02*
X222412000Y-39587500D01*
X222412000Y-39587500D02*
X221675000Y-38850000D01*
X241412000Y-40412500D02*
X260412000Y-40412500D01*
X241412000Y-40412500D02*
X241412000Y-39656200D01*
X241412000Y-39656200D02*
X240506000Y-38750000D01*
X260412000Y-40412500D02*
X279412000Y-40412500D01*
X260412000Y-40412500D02*
X260412000Y-39487500D01*
X260412000Y-39487500D02*
X259775000Y-38850000D01*
X279412000Y-40412500D02*
X298588000Y-40412500D01*
X279412000Y-40412500D02*
X279412000Y-39437500D01*
X279412000Y-39437500D02*
X278825000Y-38850000D01*
X298588000Y-40412500D02*
X322412000Y-40412500D01*
X298588000Y-40412500D02*
X298588000Y-39562500D01*
X298588000Y-39562500D02*
X297875000Y-38850000D01*
X322412000Y-40412500D02*
X350588000Y-40412500D01*
X322412000Y-40412500D02*
X322412000Y-39575000D01*
X322412000Y-39575000D02*
X321688000Y-38850000D01*
X350588000Y-40412500D02*
X369412000Y-40412500D01*
X350588000Y-40412500D02*
X350588000Y-39175000D01*
X350588000Y-39175000D02*
X350262000Y-38850000D01*
X369412000Y-40412500D02*
X388075000Y-40412500D01*
X388075000Y-40412500D02*
X388075000Y-39137500D01*
X388075000Y-39137500D02*
X388362000Y-38850000D01*
X369412000Y-40412500D02*
X369412000Y-38950000D01*
X369412000Y-38950000D02*
X369312000Y-38850000D01*
X388362000Y-96721300D02*
X388362000Y-96000000D01*
X387683300Y-97400000D02*
X388362000Y-96721300D01*
X369438000Y-97562500D02*
X369600500Y-97400000D01*
X369600500Y-97400000D02*
X387683300Y-97400000D01*
X369260000Y-97390000D02*
X369430000Y-97560000D01*
X361600000Y-97390000D02*
X369260000Y-97390000D01*
X361430000Y-97560000D02*
X361600000Y-97390000D01*
X184412000Y-40412500D02*
X184424510Y-40425010D01*
X184424510Y-40425010D02*
X194888078Y-40425010D01*
X194888078Y-40425010D02*
X194900588Y-40412500D01*
X194900588Y-40412500D02*
X203412000Y-40412500D01*
D19*
X38318800Y-108788000D02*
X38318800Y-105003000D01*
X38318800Y-105003000D02*
X43834200Y-99487600D01*
X43834200Y-99487600D02*
X45463200Y-99487600D01*
X56931200Y-96000000D02*
X55156100Y-96000000D01*
X53895900Y-96220900D02*
X54935200Y-96220900D01*
X54935200Y-96220900D02*
X55156100Y-96000000D01*
X64681100Y-76950000D02*
X64181800Y-77449300D01*
X66456200Y-76950000D02*
X64681100Y-76950000D01*
X63998000Y-79229600D02*
X63998000Y-79163400D01*
X68560000Y-83791600D02*
X63998000Y-79229600D01*
X68560000Y-89846300D02*
X68560000Y-83791600D01*
X63906300Y-94500000D02*
X68560000Y-89846300D01*
X62131200Y-94500000D02*
X63906300Y-94500000D01*
X61693800Y-57900000D02*
X59918700Y-57900000D01*
X59918700Y-57900000D02*
X59918700Y-58030000D01*
X59918700Y-58030000D02*
X59508000Y-58440700D01*
X71656200Y-75450000D02*
X71656200Y-74370600D01*
X71656200Y-74370600D02*
X70863700Y-73578100D01*
X68668900Y-56400000D02*
X68668900Y-55364000D01*
X68668900Y-55364000D02*
X68670100Y-55362800D01*
X66893800Y-56400000D02*
X68668900Y-56400000D01*
X59052300Y-40612600D02*
X59312500Y-40352400D01*
X59312500Y-40352400D02*
X59312500Y-38850000D01*
X64512500Y-37350000D02*
X70944200Y-37350000D01*
X70944200Y-37350000D02*
X73275600Y-39681400D01*
X73275600Y-39681400D02*
X80518500Y-39681400D01*
X80518500Y-39681400D02*
X81349900Y-38850000D01*
X83125000Y-38850000D02*
X81349900Y-38850000D01*
X86112400Y-57900000D02*
X85875800Y-57900000D01*
X85875800Y-57900000D02*
X85827200Y-57851400D01*
X88325000Y-37350000D02*
X90100100Y-37350000D01*
X90100100Y-37350000D02*
X90100100Y-38371000D01*
X90100100Y-38371000D02*
X91270400Y-39541300D01*
X87887500Y-57900000D02*
X86112400Y-57900000D01*
X93087500Y-56400000D02*
X94862600Y-56400000D01*
X94862600Y-56400000D02*
X94862600Y-57471700D01*
X94862600Y-57471700D02*
X95168300Y-57777400D01*
X92796500Y-74257600D02*
X92796500Y-74894500D01*
X92796500Y-74894500D02*
X94852000Y-76950000D01*
X94852000Y-76950000D02*
X97412000Y-76950000D01*
X78968700Y-96000000D02*
X78747800Y-96220900D01*
X78747800Y-96220900D02*
X78690700Y-96220900D01*
X102612000Y-75450000D02*
X102612000Y-74990300D01*
X102612000Y-74990300D02*
X101896000Y-74274300D01*
X101896000Y-74274300D02*
X97706000Y-74274300D01*
X80743800Y-96000000D02*
X78968700Y-96000000D01*
X104556000Y-96000000D02*
X100451700Y-96000000D01*
X100451700Y-96000000D02*
X98951700Y-94500000D01*
X98951700Y-94500000D02*
X85943800Y-94500000D01*
X114686900Y-76950000D02*
X114186900Y-77450000D01*
X109756000Y-94500000D02*
X111531100Y-94500000D01*
X116462000Y-76950000D02*
X114686900Y-76950000D01*
X111531100Y-94500000D02*
X111531100Y-93152700D01*
X111531100Y-93152700D02*
X110688500Y-92310100D01*
X106938000Y-57900000D02*
X105162900Y-57900000D01*
X121662000Y-75450000D02*
X121662000Y-74989900D01*
X121662000Y-74989900D02*
X120946900Y-74274800D01*
X120946900Y-74274800D02*
X116500000Y-74274800D01*
X116500000Y-74274800D02*
X115500000Y-73274800D01*
X115500000Y-73274800D02*
X114245500Y-73274800D01*
X114245500Y-73274800D02*
X114007900Y-73512400D01*
X105162900Y-57900000D02*
X104966000Y-58096900D01*
X104966000Y-58096900D02*
X104881300Y-58096900D01*
X112138000Y-56400000D02*
X111912500Y-56174500D01*
X111912500Y-56174500D02*
X111912500Y-55316700D01*
X100399900Y-38850000D02*
X99708600Y-39541300D01*
X102175000Y-38850000D02*
X100399900Y-38850000D01*
X121225000Y-38850000D02*
X119449900Y-38850000D01*
X107375000Y-37350000D02*
X109718500Y-37350000D01*
X109718500Y-37350000D02*
X112049900Y-39681400D01*
X112049900Y-39681400D02*
X118618500Y-39681400D01*
X118618500Y-39681400D02*
X119449900Y-38850000D01*
X128200100Y-37350000D02*
X128200100Y-37428500D01*
X128200100Y-37428500D02*
X130302700Y-39531100D01*
X126425000Y-37350000D02*
X128200100Y-37350000D01*
X125437410Y-57349410D02*
X124592765Y-57349410D01*
X124592765Y-57349410D02*
X124027080Y-57349410D01*
X125988000Y-57900000D02*
X125437410Y-57349410D01*
X135512000Y-76950000D02*
X133736900Y-76950000D01*
X130230400Y-76896600D02*
X133683500Y-76896600D01*
X133683500Y-76896600D02*
X133736900Y-76950000D01*
X131188000Y-56400000D02*
X131361000Y-56227000D01*
X131361000Y-56227000D02*
X131361000Y-55377400D01*
X140712000Y-75450000D02*
X142487100Y-75450000D01*
X142487100Y-75450000D02*
X142487100Y-76289000D01*
X142487100Y-76289000D02*
X142792100Y-76594000D01*
X135512000Y-96000000D02*
X131957100Y-96000000D01*
X131957100Y-96000000D02*
X131257200Y-95300100D01*
X131257200Y-95300100D02*
X131257200Y-94713200D01*
X131257200Y-94713200D02*
X134123400Y-91847000D01*
X134123400Y-91847000D02*
X134458900Y-91847000D01*
X152786900Y-76950000D02*
X152272700Y-76950000D01*
X152272700Y-76950000D02*
X151783300Y-77439400D01*
X140712000Y-94500000D02*
X142487100Y-94500000D01*
X154562000Y-76950000D02*
X152786900Y-76950000D01*
X142487100Y-94500000D02*
X142487100Y-92917000D01*
X142487100Y-92917000D02*
X143559300Y-91844800D01*
X159762000Y-75450000D02*
X159762000Y-74917900D01*
X159762000Y-74917900D02*
X158004400Y-73160300D01*
X158004400Y-73160300D02*
X150119500Y-73160300D01*
X145038000Y-57900000D02*
X143262900Y-57900000D01*
X143262900Y-57900000D02*
X143262900Y-57999100D01*
X143262900Y-57999100D02*
X142805300Y-58456700D01*
X150238000Y-56400000D02*
X152013100Y-56400000D01*
X152013100Y-56400000D02*
X152013100Y-56363700D01*
X152013100Y-56363700D02*
X152430900Y-55945900D01*
X138499900Y-38850000D02*
X138499900Y-39287900D01*
X138499900Y-39287900D02*
X138246500Y-39541300D01*
X140275000Y-38850000D02*
X138499900Y-38850000D01*
X145475000Y-37350000D02*
X148466700Y-37350000D01*
X148466700Y-37350000D02*
X150798100Y-39681400D01*
X150798100Y-39681400D02*
X156718500Y-39681400D01*
X156718500Y-39681400D02*
X157549900Y-38850000D01*
X159325000Y-38850000D02*
X157549900Y-38850000D01*
X164525000Y-37350000D02*
X166300100Y-37350000D01*
X166300100Y-37350000D02*
X166300100Y-38650500D01*
X166300100Y-38650500D02*
X167190900Y-39541300D01*
X162312900Y-57900000D02*
X162141000Y-57728100D01*
X162141000Y-57728100D02*
X162035400Y-57728100D01*
X162035400Y-57728100D02*
X162035400Y-57728000D01*
X164088000Y-57900000D02*
X162312900Y-57900000D01*
X169288000Y-56400000D02*
X171416100Y-56400000D01*
X171416100Y-56400000D02*
X173447300Y-58431200D01*
X171836900Y-76950000D02*
X171377500Y-76490600D01*
X171377500Y-76490600D02*
X170270800Y-76490600D01*
X173612000Y-76950000D02*
X171836900Y-76950000D01*
X178812000Y-75450000D02*
X180660900Y-75450000D01*
X180660900Y-75450000D02*
X182660300Y-77449400D01*
X172607600Y-92290700D02*
X170273400Y-94624900D01*
X170273400Y-94624900D02*
X170273400Y-95298700D01*
X170273400Y-95298700D02*
X170974700Y-96000000D01*
X170974700Y-96000000D02*
X173612000Y-96000000D01*
X178812000Y-94500000D02*
X196686600Y-94500000D01*
X196686600Y-94500000D02*
X198186600Y-96000000D01*
X198186600Y-96000000D02*
X202188000Y-96000000D01*
X197115500Y-92182300D02*
X205598100Y-92182300D01*
X205598100Y-92182300D02*
X207388000Y-93972200D01*
X207388000Y-93972200D02*
X207388000Y-94500000D01*
X190886900Y-76950000D02*
X190386300Y-77450600D01*
X190386300Y-77450600D02*
X188279600Y-77450600D01*
X192662000Y-76950000D02*
X190886900Y-76950000D01*
X183138000Y-57900000D02*
X181362900Y-57900000D01*
X197862000Y-75450000D02*
X197862000Y-74963000D01*
X197862000Y-74963000D02*
X197147800Y-74248800D01*
X197147800Y-74248800D02*
X188655400Y-74248800D01*
X183338000Y-55376800D02*
X183180200Y-55219000D01*
X183180200Y-55219000D02*
X180737600Y-55219000D01*
X180737600Y-55219000D02*
X180247600Y-55709000D01*
X180247600Y-55709000D02*
X180247600Y-56784700D01*
X180247600Y-56784700D02*
X181362900Y-57900000D01*
X188338000Y-56400000D02*
X188101000Y-56163000D01*
X188101000Y-56163000D02*
X188101000Y-55343100D01*
X176599900Y-38850000D02*
X175908600Y-39541300D01*
X178375000Y-38850000D02*
X176599900Y-38850000D01*
X195649900Y-38850000D02*
X197425000Y-38850000D01*
X187850100Y-39850000D02*
X194649900Y-39850000D01*
X183575000Y-37350000D02*
X185350100Y-37350000D01*
X194649900Y-39850000D02*
X195649900Y-38850000D01*
X185350100Y-37350000D02*
X187850100Y-39850000D01*
X202625000Y-37350000D02*
X204400100Y-37350000D01*
X204400100Y-37350000D02*
X204400100Y-38107000D01*
X204400100Y-38107000D02*
X205824200Y-39531100D01*
X202188000Y-57900000D02*
X201196998Y-57900000D01*
X199124999Y-54595001D02*
X201660000Y-52060000D01*
X201196998Y-57900000D02*
X199124999Y-55828001D01*
X199124999Y-55828001D02*
X199124999Y-54595001D01*
X211712000Y-76950000D02*
X209913700Y-76950000D01*
X209913700Y-76950000D02*
X208274800Y-75311100D01*
X208274800Y-75311100D02*
X208274800Y-71315600D01*
X208274800Y-71315600D02*
X209510900Y-70079500D01*
X207388000Y-56400000D02*
X209163100Y-56400000D01*
X209163100Y-56400000D02*
X209163100Y-57995500D01*
X209163100Y-57995500D02*
X209598800Y-58431200D01*
X219462900Y-96000000D02*
X219462900Y-95229400D01*
X219462900Y-95229400D02*
X219101600Y-94868100D01*
X216912000Y-75450000D02*
X218687100Y-75450000D01*
X221238000Y-96000000D02*
X219462900Y-96000000D01*
X218687100Y-75450000D02*
X218687100Y-75894700D01*
X218687100Y-75894700D02*
X220085200Y-77292800D01*
X240288000Y-96000000D02*
X236812500Y-96000000D01*
X236812500Y-96000000D02*
X235312500Y-94500000D01*
X235312500Y-94500000D02*
X228213100Y-94500000D01*
X226438000Y-94500000D02*
X228213100Y-94500000D01*
X245488000Y-94500000D02*
X245488000Y-93963900D01*
X245488000Y-93963900D02*
X243734400Y-92210300D01*
X243734400Y-92210300D02*
X232035800Y-92210300D01*
X226539690Y-76950000D02*
X226044990Y-77444700D01*
X230762000Y-76950000D02*
X226539690Y-76950000D01*
X221238000Y-57900000D02*
X219153400Y-57900000D01*
X219153400Y-57900000D02*
X218592900Y-58460500D01*
X231106086Y-70049600D02*
X226044990Y-70049600D01*
X235962000Y-75450000D02*
X235962000Y-74905514D01*
X235962000Y-74905514D02*
X231106086Y-70049600D01*
X226438000Y-56400000D02*
X226438000Y-55258500D01*
X226438000Y-55258500D02*
X221766100Y-50586600D01*
X214699900Y-38850000D02*
X214699900Y-39248100D01*
X214699900Y-39248100D02*
X214406700Y-39541300D01*
X216475000Y-38850000D02*
X214699900Y-38850000D01*
X221675000Y-37350000D02*
X231924600Y-37350000D01*
X231924600Y-37350000D02*
X233324600Y-38750000D01*
X233324600Y-38750000D02*
X235306000Y-38750000D01*
X240288000Y-57900000D02*
X238512900Y-57900000D01*
X240506000Y-37250000D02*
X242281100Y-37250000D01*
X242281100Y-37250000D02*
X242281100Y-39279900D01*
X242281100Y-39279900D02*
X242542500Y-39541300D01*
X237292900Y-50566300D02*
X237232400Y-50626800D01*
X237232400Y-50626800D02*
X237232400Y-56619500D01*
X237232400Y-56619500D02*
X238512900Y-57900000D01*
X245488000Y-56400000D02*
X247263100Y-56400000D01*
X247263100Y-56400000D02*
X247263100Y-58042400D01*
X247263100Y-58042400D02*
X247558000Y-58337300D01*
X245218100Y-70047300D02*
X245218100Y-74302200D01*
X245218100Y-74302200D02*
X247865900Y-76950000D01*
X247865900Y-76950000D02*
X249812000Y-76950000D01*
X259338000Y-96000000D02*
X257562900Y-96000000D01*
X256787100Y-75450000D02*
X256787100Y-74898600D01*
X256787100Y-74898600D02*
X256326100Y-74437600D01*
X256326100Y-74437600D02*
X256024500Y-74437600D01*
X255012000Y-75450000D02*
X256787100Y-75450000D01*
X257562900Y-96000000D02*
X257562900Y-95309800D01*
X257562900Y-95309800D02*
X257284300Y-95031200D01*
X264538000Y-94500000D02*
X272842200Y-94500000D01*
X272842200Y-94500000D02*
X274342200Y-96000000D01*
X274342200Y-96000000D02*
X278388000Y-96000000D01*
X283588000Y-94500000D02*
X283588000Y-94039900D01*
X283588000Y-94039900D02*
X281638200Y-92090100D01*
X268862000Y-76950000D02*
X267086900Y-76950000D01*
X267086900Y-76950000D02*
X267086900Y-77111700D01*
X267086900Y-77111700D02*
X266754300Y-77444300D01*
X274062000Y-75450000D02*
X274062000Y-71862600D01*
X274062000Y-71862600D02*
X272435900Y-70236500D01*
X272435900Y-70236500D02*
X272435900Y-63577700D01*
X272435900Y-63577700D02*
X272011200Y-63153000D01*
X272011200Y-63153000D02*
X271658200Y-63153000D01*
X271658200Y-63153000D02*
X269833200Y-61328000D01*
X269833200Y-61328000D02*
X269314200Y-61328000D01*
X269314200Y-61328000D02*
X269314200Y-61327900D01*
X259338000Y-57900000D02*
X256826400Y-57900000D01*
X256826400Y-57900000D02*
X255392700Y-56466300D01*
X255392700Y-56466300D02*
X255392700Y-55572300D01*
X255392700Y-55572300D02*
X256334600Y-54630400D01*
X256334600Y-54630400D02*
X266227100Y-54630400D01*
X266227100Y-54630400D02*
X270057500Y-58460800D01*
X266313100Y-56400000D02*
X266313100Y-55848600D01*
X266313100Y-55848600D02*
X265822200Y-55357700D01*
X264538000Y-56400000D02*
X266313100Y-56400000D01*
X254575000Y-38850000D02*
X252799900Y-38850000D01*
X252799900Y-38850000D02*
X252799900Y-38938800D01*
X252799900Y-38938800D02*
X252197400Y-39541300D01*
X259775000Y-37350000D02*
X268927700Y-37350000D01*
X268927700Y-37350000D02*
X270427700Y-38850000D01*
X270427700Y-38850000D02*
X273625000Y-38850000D01*
X278388000Y-57900000D02*
X276612900Y-57900000D01*
X278825000Y-37350000D02*
X280600100Y-37350000D01*
X280600100Y-37350000D02*
X280600100Y-38626400D01*
X280600100Y-38626400D02*
X281515000Y-39541300D01*
X276918900Y-50356700D02*
X275422500Y-51853100D01*
X275422500Y-51853100D02*
X275422500Y-56709600D01*
X275422500Y-56709600D02*
X276612900Y-57900000D01*
X283588000Y-56400000D02*
X285363100Y-56400000D01*
X285363100Y-56400000D02*
X285363100Y-57938200D01*
X285363100Y-57938200D02*
X285640600Y-58215700D01*
X284844100Y-68649500D02*
X284844100Y-70917600D01*
X284844100Y-70917600D02*
X290876500Y-76950000D01*
X290876500Y-76950000D02*
X292675000Y-76950000D01*
X300136400Y-100596000D02*
X300258900Y-100596000D01*
X300258900Y-100596000D02*
X300424900Y-100762000D01*
X302200000Y-100762000D02*
X300424900Y-100762000D01*
X297875000Y-75450000D02*
X300110700Y-75450000D01*
X300110700Y-75450000D02*
X301000400Y-76339700D01*
X321250000Y-100762000D02*
X316923500Y-100762000D01*
X316923500Y-100762000D02*
X315423500Y-99262000D01*
X315423500Y-99262000D02*
X307400000Y-99262000D01*
X328225100Y-99262000D02*
X328225100Y-95989000D01*
X328225100Y-95989000D02*
X328324900Y-95889200D01*
X326450000Y-99262000D02*
X328225100Y-99262000D01*
X321250000Y-81712500D02*
X319474900Y-81712500D01*
X319474900Y-81712500D02*
X319332600Y-81854800D01*
X319332600Y-81854800D02*
X319186900Y-81854800D01*
X326450000Y-80212500D02*
X326450000Y-79706900D01*
X326450000Y-79706900D02*
X308854000Y-62110900D01*
X308854000Y-62110900D02*
X308854000Y-60196300D01*
X309344000Y-57900000D02*
X307568900Y-57900000D01*
X307290900Y-57384500D02*
X307568900Y-57662500D01*
X307568900Y-57662500D02*
X307568900Y-57900000D01*
X314544000Y-56400000D02*
X314544000Y-55939900D01*
X314544000Y-55939900D02*
X308897000Y-50292900D01*
X290899900Y-38850000D02*
X290899900Y-39029900D01*
X290899900Y-39029900D02*
X290611600Y-39318200D01*
X292675000Y-38850000D02*
X290899900Y-38850000D01*
X297875000Y-37350000D02*
X311790200Y-37350000D01*
X311790200Y-37350000D02*
X313290200Y-38850000D01*
X313290200Y-38850000D02*
X316488000Y-38850000D01*
X343286900Y-38850000D02*
X341786900Y-37350000D01*
X341786900Y-37350000D02*
X321688000Y-37350000D01*
X345062000Y-38850000D02*
X343286900Y-38850000D01*
X350262000Y-37350000D02*
X352037100Y-37350000D01*
X345062000Y-57900000D02*
X343286900Y-57900000D01*
X343286900Y-57900000D02*
X343286900Y-57737500D01*
X343286900Y-57737500D02*
X342976100Y-57426700D01*
X352037100Y-37350000D02*
X352037100Y-38573700D01*
X352037100Y-38573700D02*
X352950800Y-39487400D01*
X350262000Y-56400000D02*
X352037100Y-56400000D01*
X343286900Y-76950000D02*
X343011000Y-76674100D01*
X343011000Y-76674100D02*
X343011000Y-76360800D01*
X345062000Y-76950000D02*
X343286900Y-76950000D01*
X352037100Y-56400000D02*
X352037100Y-57986700D01*
X352037100Y-57986700D02*
X352341700Y-58291300D01*
X340300000Y-100762000D02*
X338524900Y-100762000D01*
X338524900Y-100762000D02*
X338524900Y-98012900D01*
X338524900Y-98012900D02*
X338733800Y-97804000D01*
X350262000Y-75450000D02*
X350262000Y-74990300D01*
X350262000Y-74990300D02*
X349531600Y-74259900D01*
X349531600Y-74259900D02*
X342693600Y-74259900D01*
X342693600Y-74259900D02*
X338989600Y-77963900D01*
X345500000Y-99262000D02*
X347275100Y-99262000D01*
X347275100Y-99262000D02*
X348315400Y-98221700D01*
X348315400Y-98221700D02*
X358339700Y-98221700D01*
X358339700Y-98221700D02*
X360561400Y-96000000D01*
X360561400Y-96000000D02*
X364112000Y-96000000D01*
X369312000Y-94500000D02*
X369312000Y-87885100D01*
X369312000Y-87885100D02*
X363150900Y-81724000D01*
X364112000Y-76950000D02*
X361776600Y-76950000D01*
X361776600Y-76950000D02*
X361313100Y-77413500D01*
X362052000Y-57462600D02*
X362336900Y-57747500D01*
X362336900Y-57747500D02*
X362336900Y-57900000D01*
X364112000Y-57900000D02*
X362336900Y-57900000D01*
X369449400Y-69150000D02*
X368770000Y-69150000D01*
X371087100Y-70787700D02*
X369449400Y-69150000D01*
X369312000Y-75450000D02*
X371087100Y-75450000D01*
X371087100Y-75450000D02*
X371087100Y-70787700D01*
X369312000Y-56400000D02*
X369312000Y-50078100D01*
X369312000Y-50078100D02*
X367515200Y-48281300D01*
X364112000Y-38850000D02*
X362336900Y-38850000D01*
X362047200Y-39430900D02*
X362336900Y-39141200D01*
X362336900Y-39141200D02*
X362336900Y-38850000D01*
X383162000Y-38850000D02*
X381386900Y-38850000D01*
X369312000Y-37350000D02*
X371289500Y-37350000D01*
X371289500Y-37350000D02*
X373620900Y-39681400D01*
X373620900Y-39681400D02*
X380555500Y-39681400D01*
X380555500Y-39681400D02*
X381386900Y-38850000D01*
X390137100Y-37350000D02*
X395187200Y-42400100D01*
X395187200Y-42400100D02*
X395187200Y-47130200D01*
X395187200Y-47130200D02*
X393274300Y-49043100D01*
X381386900Y-57900000D02*
X380141600Y-56654700D01*
X380141600Y-56654700D02*
X380141600Y-55575200D01*
X380141600Y-55575200D02*
X384719600Y-50997200D01*
X383162000Y-57900000D02*
X381386900Y-57900000D01*
X388362000Y-37350000D02*
X390137100Y-37350000D01*
X383162000Y-76950000D02*
X381386900Y-76950000D01*
X390137100Y-56400000D02*
X390137100Y-58829000D01*
X390137100Y-58829000D02*
X392019900Y-60711800D01*
X388362000Y-56400000D02*
X390137100Y-56400000D01*
X381386900Y-76950000D02*
X380118800Y-75681900D01*
X380118800Y-75681900D02*
X380118800Y-73610600D01*
X380118800Y-73610600D02*
X383909100Y-69820300D01*
X388362000Y-75450000D02*
X390137100Y-75450000D01*
X383162000Y-96000000D02*
X381386900Y-96000000D01*
X381386900Y-96000000D02*
X381386900Y-95357400D01*
X381386900Y-95357400D02*
X380889300Y-94859800D01*
X390137100Y-75450000D02*
X390137100Y-78861300D01*
X390137100Y-78861300D02*
X390554700Y-79278900D01*
X28062400Y-48228200D02*
X34448800Y-54614600D01*
X34448800Y-54614600D02*
X34448800Y-69056200D01*
X28062400Y-45688200D02*
X26907600Y-46843000D01*
X26907600Y-46843000D02*
X26907600Y-64055000D01*
X26907600Y-64055000D02*
X31908800Y-69056200D01*
X42718800Y-83542500D02*
X42718800Y-81717400D01*
X42718800Y-81717400D02*
X43452800Y-80983400D01*
X43452800Y-80983400D02*
X43452800Y-80318900D01*
X42718800Y-97512000D02*
X42718800Y-83542500D01*
X43125500Y-74036900D02*
X42153600Y-73065000D01*
X42153600Y-73065000D02*
X42153600Y-46817000D01*
X42153600Y-46817000D02*
X43282400Y-45688200D01*
X226075000Y-45442500D02*
X226075000Y-48840200D01*
X226075000Y-48840200D02*
X226344900Y-49110100D01*
X249888000Y-100766900D02*
X249888000Y-99848300D01*
X249888000Y-99848300D02*
X249606400Y-99566700D01*
X249888000Y-102592000D02*
X249888000Y-100766900D01*
X230838000Y-64492500D02*
X230838000Y-62210500D01*
X230838000Y-62210500D02*
X230812800Y-62185300D01*
X240362000Y-83542500D02*
X233148410Y-90756090D01*
X233148410Y-90756090D02*
X232771600Y-90756090D01*
X125210000Y-98570000D02*
X127210000Y-98570000D01*
X253156000Y-69585600D02*
X249888000Y-66317600D01*
X247550100Y-45442500D02*
X249380900Y-45442500D01*
X249380900Y-45442500D02*
X249819700Y-45881300D01*
X245125000Y-45442500D02*
X247550100Y-45442500D01*
X268938000Y-100766900D02*
X269188500Y-100516400D01*
X269188500Y-100516400D02*
X269188500Y-99364400D01*
X66531200Y-102592000D02*
X68956300Y-102592000D01*
X68956300Y-102592000D02*
X68956300Y-101301900D01*
X68956300Y-101301900D02*
X71603200Y-98655000D01*
X75956200Y-83502500D02*
X75956200Y-81677400D01*
X75921900Y-81296100D02*
X75921900Y-81643100D01*
X75921900Y-81643100D02*
X75956200Y-81677400D01*
X75100700Y-64671200D02*
X75490100Y-64281800D01*
X75490100Y-64281800D02*
X91447800Y-64281800D01*
X91447800Y-64281800D02*
X94047700Y-61681900D01*
X94047700Y-61681900D02*
X94047700Y-61512900D01*
X94047700Y-61512900D02*
X95229600Y-60331000D01*
X95229600Y-60331000D02*
X100662700Y-60331000D01*
X100662700Y-60331000D02*
X104569400Y-64237700D01*
X104569400Y-64237700D02*
X108527000Y-64237700D01*
X108527000Y-64237700D02*
X113146900Y-68857600D01*
X113146900Y-68857600D02*
X247308100Y-68857600D01*
X247308100Y-68857600D02*
X249888000Y-66277700D01*
X73718900Y-64492500D02*
X73897600Y-64671200D01*
X73897600Y-64671200D02*
X75100700Y-64671200D01*
X268938000Y-102592000D02*
X268938000Y-100766900D01*
X259412000Y-83542500D02*
X259412000Y-81717400D01*
X260264400Y-81272500D02*
X259819500Y-81717400D01*
X259819500Y-81717400D02*
X259412000Y-81717400D01*
X62753400Y-50137000D02*
X54287200Y-50137000D01*
X54287200Y-50137000D02*
X52725200Y-48575000D01*
X52725200Y-48575000D02*
X52725200Y-48092300D01*
X249888000Y-66277700D02*
X249888000Y-66317600D01*
X249888000Y-66185000D02*
X249888000Y-66277700D01*
X249888000Y-64492500D02*
X249888000Y-66185000D01*
X68912500Y-45442500D02*
X64218000Y-50137000D01*
X64218000Y-50137000D02*
X62753400Y-50137000D01*
X62753400Y-50137000D02*
X62753400Y-50137100D01*
X71293800Y-64492500D02*
X73718900Y-64492500D01*
X102177800Y-69331000D02*
X102186600Y-69322200D01*
X102186600Y-69322200D02*
X245518500Y-69322200D01*
X245518500Y-69322200D02*
X246554900Y-70358600D01*
X246554900Y-70358600D02*
X263071900Y-70358600D01*
X263071900Y-70358600D02*
X268938000Y-64492500D01*
X102177800Y-69346300D02*
X102177800Y-69331000D01*
X102177800Y-69331000D02*
X100500900Y-69331000D01*
X100500900Y-69331000D02*
X97487500Y-66317600D01*
X287988000Y-102592000D02*
X287988000Y-100465000D01*
X280887100Y-83542500D02*
X281130000Y-83542500D01*
X281130000Y-83542500D02*
X281163300Y-83575800D01*
X278462000Y-83542500D02*
X280887100Y-83542500D01*
X270150600Y-64492500D02*
X271363100Y-64492500D01*
X268938000Y-64492500D02*
X269979200Y-64492500D01*
X270150600Y-64492500D02*
X269979200Y-64492500D01*
X97487500Y-64492500D02*
X97487500Y-66317600D01*
X92725000Y-50228000D02*
X93708500Y-51211500D01*
X93708500Y-51211500D02*
X98429900Y-51211500D01*
X107012000Y-83542500D02*
X107012000Y-80990800D01*
X107012000Y-80990800D02*
X105185700Y-79164500D01*
X271363100Y-64492500D02*
X271363100Y-64225800D01*
X271363100Y-64225800D02*
X271710800Y-63878100D01*
X53078600Y-49953800D02*
X53998300Y-50873500D01*
X53998300Y-50873500D02*
X92079500Y-50873500D01*
X92079500Y-50873500D02*
X92725000Y-50228000D01*
X92725000Y-46355000D02*
X92725000Y-50228000D01*
X90343800Y-100766900D02*
X91187200Y-100766900D01*
X91187200Y-100766900D02*
X93739000Y-98215100D01*
X90343800Y-102592000D02*
X90343800Y-100766900D01*
X92725000Y-45442500D02*
X92725000Y-46355000D01*
X269661094Y-45442500D02*
X270101082Y-45882488D01*
X264175000Y-45442500D02*
X269661094Y-45442500D01*
X111775000Y-48808300D02*
X114853500Y-51886800D01*
X114853500Y-51886800D02*
X117100100Y-51886800D01*
X111775000Y-45442500D02*
X111775000Y-48808300D01*
X111775000Y-48808300D02*
X108576800Y-52006500D01*
X108576800Y-52006500D02*
X53076900Y-52006500D01*
X285650100Y-45442500D02*
X286079500Y-45871900D01*
X286079500Y-45871900D02*
X288369400Y-45871900D01*
X283225000Y-45442500D02*
X285650100Y-45442500D01*
X311800000Y-107355000D02*
X311800000Y-104402600D01*
X311800000Y-104402600D02*
X310400500Y-103003100D01*
X114156000Y-102592000D02*
X116581100Y-102592000D01*
X118414900Y-100475900D02*
X116581100Y-102309700D01*
X116581100Y-102309700D02*
X116581100Y-102592000D01*
X118963100Y-64492500D02*
X119029900Y-64425700D01*
X119029900Y-64425700D02*
X119239900Y-64425700D01*
X116538000Y-64492500D02*
X118963100Y-64492500D01*
X287988000Y-66317600D02*
X289627200Y-66317600D01*
X289627200Y-66317600D02*
X291845400Y-68535800D01*
X287988000Y-64492500D02*
X287988000Y-66317600D01*
X126062000Y-83542500D02*
X123877300Y-85727200D01*
X123877300Y-85727200D02*
X123877300Y-92761200D01*
X123877300Y-92761200D02*
X126235900Y-95119800D01*
X300387500Y-85430000D02*
X297526900Y-85430000D01*
X297526900Y-85430000D02*
X296417000Y-84320100D01*
X302275000Y-83542500D02*
X300387500Y-85430000D01*
X52904300Y-54420700D02*
X54713000Y-52612000D01*
X54713000Y-52612000D02*
X130549900Y-52612000D01*
X130549900Y-52612000D02*
X130825000Y-52336900D01*
X330850000Y-86479900D02*
X330850000Y-85334400D01*
X330850000Y-85334400D02*
X330452800Y-84937200D01*
X330850000Y-88305000D02*
X330850000Y-86479900D01*
X145145900Y-89424400D02*
X145145900Y-85401500D01*
X145145900Y-85401500D02*
X145112000Y-85367600D01*
X145145900Y-91315900D02*
X145145900Y-89424400D01*
X145112000Y-83542500D02*
X145112000Y-85367600D01*
X130825000Y-47267600D02*
X130825000Y-52336900D01*
X304700100Y-45442500D02*
X305139300Y-45881700D01*
X305139300Y-45881700D02*
X311748300Y-45881700D01*
X302275000Y-45442500D02*
X304700100Y-45442500D01*
X133813800Y-60167600D02*
X135588000Y-61941800D01*
X135588000Y-61941800D02*
X135588000Y-64492500D01*
X130825000Y-45442500D02*
X130825000Y-47267600D01*
X330850000Y-107355000D02*
X330850000Y-105529900D01*
X318844000Y-64452500D02*
X318844000Y-61301800D01*
X318844000Y-61301800D02*
X317709100Y-60166900D01*
X330850000Y-105529900D02*
X330850000Y-103675400D01*
X330850000Y-103675400D02*
X330174400Y-102999800D01*
X275800800Y-91481100D02*
X275971200Y-91310700D01*
X275971200Y-91310700D02*
X310530200Y-91310700D01*
X326482000Y-92673000D02*
X330850000Y-88305000D01*
X145145900Y-89424400D02*
X173283489Y-89424400D01*
X311892500Y-92673000D02*
X326482000Y-92673000D01*
X310530200Y-91310700D02*
X311892500Y-92673000D01*
X217476400Y-91481100D02*
X275800800Y-91481100D01*
X173787900Y-88919989D02*
X214915289Y-88919989D01*
X173283489Y-89424400D02*
X173787900Y-88919989D01*
X214915289Y-88919989D02*
X217476400Y-91481100D01*
X145012000Y-102552000D02*
X145012000Y-100467290D01*
X145012000Y-100467290D02*
X146404300Y-99074990D01*
X180297300Y-51043100D02*
X180297300Y-51172300D01*
X180297300Y-51172300D02*
X175566800Y-55902800D01*
X52926000Y-55565100D02*
X55429000Y-53062100D01*
X55429000Y-53062100D02*
X142255400Y-53062100D01*
X142255400Y-53062100D02*
X149875000Y-45442500D01*
X326088000Y-45442500D02*
X321689600Y-49840900D01*
X321689600Y-49840900D02*
X311089900Y-49840900D01*
X311089900Y-49840900D02*
X310810900Y-49561900D01*
X310810900Y-49561900D02*
X308390700Y-49561900D01*
X308390700Y-49561900D02*
X308111400Y-49841200D01*
X308111400Y-49841200D02*
X277428900Y-49841200D01*
X277428900Y-49841200D02*
X277219300Y-49631600D01*
X277219300Y-49631600D02*
X276618600Y-49631600D01*
X276618600Y-49631600D02*
X276409000Y-49841200D01*
X276409000Y-49841200D02*
X220286200Y-49841200D01*
X220286200Y-49841200D02*
X219084300Y-51043100D01*
X219084300Y-51043100D02*
X180297300Y-51043100D01*
X164162000Y-83542500D02*
X164162000Y-80266700D01*
X164162000Y-80266700D02*
X163066300Y-79171000D01*
X157963300Y-64729800D02*
X157300400Y-64729800D01*
X157300400Y-64729800D02*
X157063100Y-64492500D01*
X154638000Y-64492500D02*
X157063100Y-64492500D01*
X153049700Y-41281000D02*
X151725000Y-41281000D01*
X159865598Y-44244100D02*
X156012800Y-44244100D01*
X164250001Y-43978501D02*
X163041001Y-45187501D01*
X151725000Y-41281000D02*
X149875000Y-43131000D01*
X180297300Y-46927300D02*
X179049800Y-45679800D01*
X166579601Y-41537499D02*
X166368999Y-41537499D01*
X179049800Y-45679800D02*
X176481500Y-45679800D01*
X149875000Y-43131000D02*
X149875000Y-45442500D01*
X176481500Y-45679800D02*
X172077500Y-41275800D01*
X180297300Y-51043100D02*
X180297300Y-46927300D01*
X172077500Y-41275800D02*
X166841300Y-41275800D01*
X164250001Y-43867099D02*
X164250001Y-43978501D01*
X156012800Y-44244100D02*
X153049700Y-41281000D01*
X160808999Y-45187501D02*
X159865598Y-44244100D01*
X166841300Y-41275800D02*
X166579601Y-41537499D01*
X166368999Y-41537499D02*
X165679999Y-42226499D01*
X165679999Y-42226499D02*
X165679999Y-42437101D01*
X165679999Y-42437101D02*
X164250001Y-43867099D01*
X163041001Y-45187501D02*
X160808999Y-45187501D01*
X184484300Y-98656200D02*
X183112000Y-100028500D01*
X183112000Y-100028500D02*
X183112000Y-102552000D01*
X356024800Y-74523400D02*
X354662000Y-73160600D01*
X354662000Y-73160600D02*
X354662000Y-64492500D01*
X356024800Y-48844800D02*
X354662000Y-47482000D01*
X354662000Y-47482000D02*
X354662000Y-45442500D01*
X52945000Y-56804800D02*
X55787500Y-53962300D01*
X55787500Y-53962300D02*
X166946200Y-53962300D01*
X166946200Y-53962300D02*
X168874200Y-52034300D01*
X168874200Y-52034300D02*
X168874200Y-47318400D01*
X168874200Y-47318400D02*
X168925000Y-47267600D01*
X349900000Y-107355000D02*
X349900000Y-105529900D01*
X352208300Y-104486700D02*
X351165100Y-105529900D01*
X351165100Y-105529900D02*
X349900000Y-105529900D01*
X354662000Y-85367600D02*
X354637800Y-85391800D01*
X354637800Y-85391800D02*
X354637800Y-85662900D01*
X354662000Y-83542500D02*
X354662000Y-85367600D01*
X168925000Y-45442500D02*
X168925000Y-47267600D01*
X172142900Y-60290500D02*
X173688000Y-61835600D01*
X173688000Y-61835600D02*
X173688000Y-64492500D01*
X183212000Y-83542500D02*
X181994900Y-84759600D01*
X181994900Y-84759600D02*
X181994900Y-88194979D01*
X168874200Y-52034300D02*
X173802610Y-56962710D01*
X349900000Y-107355000D02*
X344350300Y-112904700D01*
X344350300Y-112904700D02*
X337174700Y-112904700D01*
X218869400Y-102337200D02*
X222827000Y-102337200D01*
X222827000Y-102337200D02*
X230644200Y-110154400D01*
X202462999Y-101128001D02*
X203671999Y-102337001D01*
X203671999Y-102337001D02*
X205904001Y-102337001D01*
X184884299Y-98256201D02*
X199846201Y-98256201D01*
X207113001Y-101128001D02*
X207113001Y-100870399D01*
X207113001Y-100870399D02*
X209979400Y-98004000D01*
X329485300Y-112904700D02*
X332450000Y-109940000D01*
X292685600Y-110154400D02*
X295435900Y-112904700D01*
X184484300Y-98656200D02*
X184884299Y-98256201D01*
X214536200Y-98004000D02*
X218869400Y-102337200D01*
X205904001Y-102337001D02*
X207113001Y-101128001D01*
X230644200Y-110154400D02*
X292685600Y-110154400D01*
X202462999Y-100872999D02*
X202462999Y-101128001D01*
X209979400Y-98004000D02*
X214536200Y-98004000D01*
X199846201Y-98256201D02*
X202462999Y-100872999D01*
X295435900Y-112904700D02*
X329485300Y-112904700D01*
X388377300Y-68877200D02*
X392762000Y-73261900D01*
X392762000Y-73261900D02*
X392762000Y-83542500D01*
X388377300Y-68877200D02*
X392762000Y-64492500D01*
X373712000Y-66317600D02*
X376271600Y-68877200D01*
X376271600Y-68877200D02*
X388377300Y-68877200D01*
X392352000Y-102592000D02*
X392352000Y-85777600D01*
X392352000Y-85777600D02*
X392762000Y-85367600D01*
X392762000Y-102592000D02*
X392352000Y-102592000D01*
X211788000Y-113356900D02*
X211788000Y-102592000D01*
X202476400Y-81429000D02*
X202476400Y-81503000D01*
X202476400Y-81503000D02*
X202262000Y-81717400D01*
X202262000Y-83542500D02*
X202262000Y-81717400D01*
X376137100Y-102592000D02*
X385579500Y-102592000D01*
X385579500Y-102592000D02*
X387364600Y-104377100D01*
X387364600Y-104377100D02*
X390405000Y-104377100D01*
X392762000Y-83542500D02*
X392762000Y-85367600D01*
X392762000Y-85367600D02*
X386655200Y-85367600D01*
X386655200Y-85367600D02*
X384830100Y-83542500D01*
X384830100Y-83542500D02*
X376137100Y-83542500D01*
X187975000Y-47267600D02*
X190832100Y-50124700D01*
X190832100Y-50124700D02*
X193370300Y-50124700D01*
X187975000Y-45442500D02*
X187975000Y-47267600D01*
X373712000Y-83542500D02*
X376137100Y-83542500D01*
X377636900Y-46235300D02*
X376929900Y-46235300D01*
X376929900Y-46235300D02*
X376137100Y-45442500D01*
X392762000Y-45442500D02*
X390957800Y-47246700D01*
X390957800Y-47246700D02*
X388054000Y-47246700D01*
X388054000Y-47246700D02*
X386924700Y-46117400D01*
X386924700Y-46117400D02*
X377754800Y-46117400D01*
X377754800Y-46117400D02*
X377636900Y-46235300D01*
X373712000Y-45442500D02*
X376137100Y-45442500D01*
X373712000Y-64492500D02*
X373712000Y-66317600D01*
X373712000Y-102592000D02*
X376137100Y-102592000D01*
X21859989Y-103541489D02*
X31675400Y-113356900D01*
X21859989Y-57957511D02*
X21859989Y-103541489D01*
X31675400Y-113356900D02*
X211788000Y-113356900D01*
X22798500Y-57019000D02*
X21859989Y-57957511D01*
X362564000Y-113740000D02*
X373712000Y-102592000D01*
X212171100Y-113740000D02*
X362564000Y-113740000D01*
X211788000Y-113356900D02*
X212171100Y-113740000D01*
X211788000Y-99901410D02*
X212560401Y-99129009D01*
X212560401Y-99129009D02*
X212960400Y-98729010D01*
X211788000Y-102592000D02*
X211788000Y-99901410D01*
X390976900Y-104377100D02*
X392762000Y-102592000D01*
X390405000Y-104377100D02*
X390976900Y-104377100D01*
X193928900Y-60321100D02*
X198873300Y-60321100D01*
X192738000Y-61512000D02*
X193928900Y-60321100D01*
X192738000Y-64492500D02*
X192738000Y-61512000D01*
X392762000Y-57998600D02*
X392762000Y-64492500D01*
X385028300Y-50264900D02*
X392762000Y-57998600D01*
X377636900Y-50264900D02*
X385028300Y-50264900D01*
X377636900Y-46235300D02*
X377636900Y-50264900D01*
X207025000Y-47267600D02*
X207414700Y-47267600D01*
X207414700Y-47267600D02*
X210238800Y-50091700D01*
X230838000Y-100766900D02*
X230829700Y-100758600D01*
X230829700Y-100758600D02*
X230829700Y-99326900D01*
X230838000Y-102592000D02*
X230838000Y-100766900D01*
X217050300Y-89659000D02*
X221312000Y-85397300D01*
X221312000Y-85397300D02*
X221312000Y-83542500D01*
X214504900Y-64671200D02*
X214391800Y-64671200D01*
X214391800Y-64671200D02*
X214213100Y-64492500D01*
X211788000Y-64492500D02*
X214213100Y-64492500D01*
X207025000Y-45442500D02*
X207025000Y-47267600D01*
X104271000Y-70225600D02*
X104507800Y-69988800D01*
X104507800Y-69988800D02*
X199553700Y-69988800D01*
X69995600Y-70225600D02*
X104271000Y-70225600D01*
X64007501Y-64237501D02*
X69995600Y-70225600D01*
X63177799Y-64237501D02*
X64007501Y-64237501D01*
X199553700Y-69988800D02*
X205116200Y-75551300D01*
X61968799Y-63028501D02*
X63177799Y-64237501D01*
X60101000Y-60331000D02*
X61968799Y-62198799D01*
X61968799Y-62198799D02*
X61968799Y-63028501D01*
X53881600Y-60331000D02*
X60101000Y-60331000D01*
X52194100Y-62018500D02*
X53881600Y-60331000D01*
M02*
