  0
SECTION
  2
HEADER
  9
$ANGBASE
  50
0.0
  9
$ANGDIR
  70
1
  9
$MEASUREMENT
  70
1
  0
ENDSEC
  0
SECTION
  2
TABLES
  0
TABLE
  2
LTYPE
  70
4
  0
LTYPE
  5
40F
  2
CONTINUOUS
  70
0
  3
Solid line
  72
65
  73
0
  40
0.0
  0
LTYPE
  5
410
  2
DASHDOT
 70
0
  3
Dash Dot ____ _ ____ _
 72
65
 73
4
 40
2.0
 49
1.25
 49
-0.25
 49
0.25
 49
-0.25
  0
LTYPE
  5
411
  2
DASHED
 70
0
  3
Dashed __ __ __ __ __
 72
65
 73
2
 40
0.75
 49
0.5
 49
-0.25
  0
LTYPE
  5
43B
  2
DOTTED
 70
0
  3
Dotted .  .  .  .
 72
65
 73
2
 40
0.2
 49
0.0
 49
-0.2
  0
ENDTAB
  0
TABLE
  2
STYLE
  70
4
  0
STYLE
  2
KICAD
  70
0
  40
0
  41
1
  42
1
  50
0
  71
0
  3
isocp.shx
  0
STYLE
  2
KICADB
  70
0
  40
0
  41
1
  42
1
  50
0
  71
0
  3
isocp.shx
  0
STYLE
  2
KICADI
  70
0
  40
0
  41
1
  42
1
  50
15
  71
0
  3
isocp.shx
  0
STYLE
  2
KICADBI
  70
0
  40
0
  41
1
  42
1
  50
15
  71
0
  3
isocp.shx
  0
ENDTAB
  0
TABLE
  2
LAYER
  70
1
  0
LAYER
  2
BLACK
  70
0
  62
7
  6
CONTINUOUS
  0
ENDTAB
  0
ENDSEC
  0
SECTION
  2
ENTITIES
0
LINE
8
BLACK
6
CONTINUOUS
10
46
20
-70
11
21.4312
21
-70
0
LINE
8
BLACK
6
CONTINUOUS
10
21.4312
20
-70
11
21.4312
21
-33.3375
0
ARC
8
BLACK
10
23.8125
20
-33.3375
40
2.38125
50
90
51
180
0
LINE
8
BLACK
6
CONTINUOUS
10
23.8125
20
-30.9562
11
46
21
-30.9562
0
LINE
8
BLACK
6
CONTINUOUS
10
46
20
-30.9562
11
46
21
-70
0
LINE
8
BLACK
6
CONTINUOUS
10
395.287
20
-30.9562
11
47
21
-30.9562
0
ARC
8
BLACK
10
395.287
20
-33.3375
40
2.38125
50
-0
51
90
0
LINE
8
BLACK
6
CONTINUOUS
10
397.669
20
-111.919
11
397.669
21
-33.3375
0
ARC
8
BLACK
10
395.287
20
-111.919
40
2.38125
50
-90
51
-0
0
LINE
8
BLACK
6
CONTINUOUS
10
23.8125
20
-114.3
11
395.287
21
-114.3
0
ARC
8
BLACK
10
23.8125
20
-111.919
40
2.38125
50
180
51
270
0
LINE
8
BLACK
6
CONTINUOUS
10
21.4312
20
-71
11
21.4312
21
-111.919
0
LINE
8
BLACK
6
CONTINUOUS
10
21.4312
20
-71
11
47
21
-71
0
ARC
8
BLACK
10
45.2437
20
-30.9562
40
0.5
50
-0
51
-0
0
LINE
8
BLACK
6
CONTINUOUS
10
47
20
-30.9562
11
47
21
-71
0
CIRCLE
8
BLACK
10
23.8125
20
-67.75
40
1.1
0
CIRCLE
8
BLACK
10
23.8125
20
-111.919
40
1.1
0
LINE
8
BLACK
6
CONTINUOUS
10
28.6687
20
-92.9625
11
42.7687
21
-92.9625
0
LINE
8
BLACK
6
CONTINUOUS
10
42.7687
20
-92.9625
11
42.7687
21
-107.062
0
LINE
8
BLACK
6
CONTINUOUS
10
42.7687
20
-107.062
11
28.6687
21
-107.062
0
LINE
8
BLACK
6
CONTINUOUS
10
28.6687
20
-107.062
11
28.6687
21
-92.9625
0
LINE
8
BLACK
6
CONTINUOUS
10
28.6687
20
-73.9125
11
42.7687
21
-73.9125
0
LINE
8
BLACK
6
CONTINUOUS
10
42.7687
20
-73.9125
11
42.7687
21
-88.0125
0
LINE
8
BLACK
6
CONTINUOUS
10
42.7687
20
-88.0125
11
28.6687
21
-88.0125
0
LINE
8
BLACK
6
CONTINUOUS
10
28.6687
20
-88.0125
11
28.6687
21
-73.9125
0
CIRCLE
8
BLACK
10
44
20
-67.75
40
1.1
0
CIRCLE
8
BLACK
10
49
20
-33.3375
40
1.1
0
CIRCLE
8
BLACK
10
49
20
-71.4375
40
1.1
0
CIRCLE
8
BLACK
10
190.5
20
-71.4375
40
1.1
0
CIRCLE
8
BLACK
10
190.5
20
-33.3375
40
1.1
0
CIRCLE
8
BLACK
10
190.5
20
-111.919
40
1.1
0
CIRCLE
8
BLACK
10
119.062
20
-71.4375
40
1.1
0
CIRCLE
8
BLACK
10
119.062
20
-33.3375
40
1.1
0
CIRCLE
8
BLACK
10
119.062
20
-111.919
40
1.1
0
CIRCLE
8
BLACK
10
266.7
20
-71.4375
40
1.1
0
CIRCLE
8
BLACK
10
266.7
20
-33.3375
40
1.1
0
CIRCLE
8
BLACK
10
266.7
20
-111.919
40
1.1
0
CIRCLE
8
BLACK
10
333.375
20
-71.4375
40
1.1
0
CIRCLE
8
BLACK
10
333.375
20
-33.3375
40
1.1
0
CIRCLE
8
BLACK
10
333.375
20
-111.919
40
1.1
0
LINE
8
BLACK
6
CONTINUOUS
10
54.8625
20
-49.9125
11
54.8625
21
-35.8125
0
LINE
8
BLACK
6
CONTINUOUS
10
68.9625
20
-49.9125
11
54.8625
21
-49.9125
0
LINE
8
BLACK
6
CONTINUOUS
10
68.9625
20
-35.8125
11
68.9625
21
-49.9125
0
LINE
8
BLACK
6
CONTINUOUS
10
54.8625
20
-35.8125
11
68.9625
21
-35.8125
0
LINE
8
BLACK
6
CONTINUOUS
10
378.712
20
-92.9625
11
392.812
21
-92.9625
0
LINE
8
BLACK
6
CONTINUOUS
10
392.812
20
-92.9625
11
392.812
21
-107.062
0
LINE
8
BLACK
6
CONTINUOUS
10
392.812
20
-107.062
11
378.712
21
-107.062
0
LINE
8
BLACK
6
CONTINUOUS
10
378.712
20
-107.062
11
378.712
21
-92.9625
0
LINE
8
BLACK
6
CONTINUOUS
10
378.712
20
-73.9125
11
392.812
21
-73.9125
0
LINE
8
BLACK
6
CONTINUOUS
10
392.812
20
-73.9125
11
392.812
21
-88.0125
0
LINE
8
BLACK
6
CONTINUOUS
10
392.812
20
-88.0125
11
378.712
21
-88.0125
0
LINE
8
BLACK
6
CONTINUOUS
10
378.712
20
-88.0125
11
378.712
21
-73.9125
0
LINE
8
BLACK
6
CONTINUOUS
10
378.712
20
-54.8625
11
392.812
21
-54.8625
0
LINE
8
BLACK
6
CONTINUOUS
10
392.812
20
-54.8625
11
392.812
21
-68.9625
0
LINE
8
BLACK
6
CONTINUOUS
10
392.812
20
-68.9625
11
378.712
21
-68.9625
0
LINE
8
BLACK
6
CONTINUOUS
10
378.712
20
-68.9625
11
378.712
21
-54.8625
0
LINE
8
BLACK
6
CONTINUOUS
10
378.712
20
-35.8125
11
392.812
21
-35.8125
0
LINE
8
BLACK
6
CONTINUOUS
10
392.812
20
-35.8125
11
392.812
21
-49.9125
0
LINE
8
BLACK
6
CONTINUOUS
10
392.812
20
-49.9125
11
378.712
21
-49.9125
0
LINE
8
BLACK
6
CONTINUOUS
10
378.712
20
-49.9125
11
378.712
21
-35.8125
0
LINE
8
BLACK
6
CONTINUOUS
10
359.662
20
-92.9625
11
373.762
21
-92.9625
0
LINE
8
BLACK
6
CONTINUOUS
10
373.762
20
-92.9625
11
373.762
21
-107.062
0
LINE
8
BLACK
6
CONTINUOUS
10
373.762
20
-107.062
11
359.662
21
-107.062
0
LINE
8
BLACK
6
CONTINUOUS
10
359.662
20
-107.062
11
359.662
21
-92.9625
0
LINE
8
BLACK
6
CONTINUOUS
10
359.662
20
-73.9125
11
373.762
21
-73.9125
0
LINE
8
BLACK
6
CONTINUOUS
10
373.762
20
-73.9125
11
373.762
21
-88.0125
0
LINE
8
BLACK
6
CONTINUOUS
10
373.762
20
-88.0125
11
359.662
21
-88.0125
0
LINE
8
BLACK
6
CONTINUOUS
10
359.662
20
-88.0125
11
359.662
21
-73.9125
0
LINE
8
BLACK
6
CONTINUOUS
10
359.662
20
-54.8625
11
373.762
21
-54.8625
0
LINE
8
BLACK
6
CONTINUOUS
10
373.762
20
-54.8625
11
373.762
21
-68.9625
0
LINE
8
BLACK
6
CONTINUOUS
10
373.762
20
-68.9625
11
359.662
21
-68.9625
0
LINE
8
BLACK
6
CONTINUOUS
10
359.662
20
-68.9625
11
359.662
21
-54.8625
0
LINE
8
BLACK
6
CONTINUOUS
10
359.662
20
-35.8125
11
373.762
21
-35.8125
0
LINE
8
BLACK
6
CONTINUOUS
10
373.762
20
-35.8125
11
373.762
21
-49.9125
0
LINE
8
BLACK
6
CONTINUOUS
10
373.762
20
-49.9125
11
359.662
21
-49.9125
0
LINE
8
BLACK
6
CONTINUOUS
10
359.662
20
-49.9125
11
359.662
21
-35.8125
0
LINE
8
BLACK
6
CONTINUOUS
10
76.2938
20
-107.062
11
76.2938
21
-92.9625
0
LINE
8
BLACK
6
CONTINUOUS
10
90.3937
20
-107.062
11
76.2938
21
-107.062
0
LINE
8
BLACK
6
CONTINUOUS
10
90.3937
20
-92.9625
11
90.3937
21
-107.062
0
LINE
8
BLACK
6
CONTINUOUS
10
76.2938
20
-92.9625
11
90.3937
21
-92.9625
0
LINE
8
BLACK
6
CONTINUOUS
10
312.037
20
-49.9125
11
312.037
21
-35.8125
0
LINE
8
BLACK
6
CONTINUOUS
10
326.137
20
-49.9125
11
312.037
21
-49.9125
0
LINE
8
BLACK
6
CONTINUOUS
10
326.137
20
-35.8125
11
326.137
21
-49.9125
0
LINE
8
BLACK
6
CONTINUOUS
10
312.037
20
-35.8125
11
326.137
21
-35.8125
0
LINE
8
BLACK
6
CONTINUOUS
10
273.938
20
-54.8625
11
288.037
21
-54.8625
0
LINE
8
BLACK
6
CONTINUOUS
10
288.037
20
-54.8625
11
288.037
21
-68.9625
0
LINE
8
BLACK
6
CONTINUOUS
10
288.037
20
-68.9625
11
273.938
21
-68.9625
0
LINE
8
BLACK
6
CONTINUOUS
10
273.938
20
-68.9625
11
273.938
21
-54.8625
0
LINE
8
BLACK
6
CONTINUOUS
10
318.994
20
-54.8625
11
318.994
21
-68.9625
0
LINE
8
BLACK
6
CONTINUOUS
10
304.894
20
-54.8625
11
318.994
21
-54.8625
0
LINE
8
BLACK
6
CONTINUOUS
10
304.894
20
-68.9625
11
304.894
21
-54.8625
0
LINE
8
BLACK
6
CONTINUOUS
10
318.994
20
-68.9625
11
304.894
21
-68.9625
0
LINE
8
BLACK
6
CONTINUOUS
10
303.544
20
-67.9125
11
303.544
21
-53.1125
0
LINE
8
BLACK
6
CONTINUOUS
10
303.544
20
-53.1125
11
296.544
21
-53.1125
0
LINE
8
BLACK
6
CONTINUOUS
10
296.544
20
-53.1125
11
296.544
21
-67.9125
0
LINE
8
BLACK
6
CONTINUOUS
10
296.544
20
-67.9125
11
303.544
21
-67.9125
0
LINE
8
BLACK
6
CONTINUOUS
10
320.344
20
-67.9125
11
320.344
21
-53.1125
0
LINE
8
BLACK
6
CONTINUOUS
10
320.344
20
-53.1125
11
327.344
21
-53.1125
0
LINE
8
BLACK
6
CONTINUOUS
10
327.344
20
-53.1125
11
327.344
21
-67.9125
0
LINE
8
BLACK
6
CONTINUOUS
10
327.344
20
-67.9125
11
320.344
21
-67.9125
0
LINE
8
BLACK
6
CONTINUOUS
10
288.225
20
-88.0125
11
288.225
21
-73.9125
0
LINE
8
BLACK
6
CONTINUOUS
10
302.325
20
-88.0125
11
288.225
21
-88.0125
0
LINE
8
BLACK
6
CONTINUOUS
10
302.325
20
-73.9125
11
302.325
21
-88.0125
0
LINE
8
BLACK
6
CONTINUOUS
10
288.225
20
-73.9125
11
302.325
21
-73.9125
0
LINE
8
BLACK
6
CONTINUOUS
10
273.938
20
-92.9625
11
288.037
21
-92.9625
0
LINE
8
BLACK
6
CONTINUOUS
10
288.037
20
-92.9625
11
288.037
21
-107.062
0
LINE
8
BLACK
6
CONTINUOUS
10
288.037
20
-107.062
11
273.938
21
-107.062
0
LINE
8
BLACK
6
CONTINUOUS
10
273.938
20
-107.062
11
273.938
21
-92.9625
0
LINE
8
BLACK
6
CONTINUOUS
10
254.887
20
-92.9625
11
268.988
21
-92.9625
0
LINE
8
BLACK
6
CONTINUOUS
10
268.988
20
-92.9625
11
268.988
21
-107.062
0
LINE
8
BLACK
6
CONTINUOUS
10
268.988
20
-107.062
11
254.887
21
-107.062
0
LINE
8
BLACK
6
CONTINUOUS
10
254.887
20
-107.062
11
254.887
21
-92.9625
0
LINE
8
BLACK
6
CONTINUOUS
10
235.837
20
-92.9625
11
249.938
21
-92.9625
0
LINE
8
BLACK
6
CONTINUOUS
10
249.938
20
-92.9625
11
249.938
21
-107.062
0
LINE
8
BLACK
6
CONTINUOUS
10
249.938
20
-107.062
11
235.837
21
-107.062
0
LINE
8
BLACK
6
CONTINUOUS
10
235.837
20
-107.062
11
235.837
21
-92.9625
0
LINE
8
BLACK
6
CONTINUOUS
10
197.737
20
-107.062
11
197.737
21
-92.9625
0
LINE
8
BLACK
6
CONTINUOUS
10
211.837
20
-107.062
11
197.737
21
-107.062
0
LINE
8
BLACK
6
CONTINUOUS
10
211.837
20
-92.9625
11
211.837
21
-107.062
0
LINE
8
BLACK
6
CONTINUOUS
10
197.737
20
-92.9625
11
211.837
21
-92.9625
0
LINE
8
BLACK
6
CONTINUOUS
10
183.262
20
-92.9625
11
183.262
21
-107.062
0
LINE
8
BLACK
6
CONTINUOUS
10
169.162
20
-92.9625
11
183.262
21
-92.9625
0
LINE
8
BLACK
6
CONTINUOUS
10
169.162
20
-107.062
11
169.162
21
-92.9625
0
LINE
8
BLACK
6
CONTINUOUS
10
183.262
20
-107.062
11
169.162
21
-107.062
0
LINE
8
BLACK
6
CONTINUOUS
10
167.812
20
-106.012
11
167.812
21
-91.2125
0
LINE
8
BLACK
6
CONTINUOUS
10
167.812
20
-91.2125
11
160.812
21
-91.2125
0
LINE
8
BLACK
6
CONTINUOUS
10
160.812
20
-91.2125
11
160.812
21
-106.012
0
LINE
8
BLACK
6
CONTINUOUS
10
160.812
20
-106.012
11
167.812
21
-106.012
0
LINE
8
BLACK
6
CONTINUOUS
10
184.612
20
-106.012
11
184.612
21
-91.2125
0
LINE
8
BLACK
6
CONTINUOUS
10
184.612
20
-91.2125
11
191.612
21
-91.2125
0
LINE
8
BLACK
6
CONTINUOUS
10
191.612
20
-91.2125
11
191.612
21
-106.012
0
LINE
8
BLACK
6
CONTINUOUS
10
191.612
20
-106.012
11
184.612
21
-106.012
0
LINE
8
BLACK
6
CONTINUOUS
10
145.162
20
-92.9625
11
145.162
21
-107.062
0
LINE
8
BLACK
6
CONTINUOUS
10
131.062
20
-92.9625
11
145.162
21
-92.9625
0
LINE
8
BLACK
6
CONTINUOUS
10
131.062
20
-107.062
11
131.062
21
-92.9625
0
LINE
8
BLACK
6
CONTINUOUS
10
145.162
20
-107.062
11
131.062
21
-107.062
0
LINE
8
BLACK
6
CONTINUOUS
10
129.713
20
-106.012
11
129.713
21
-91.2125
0
LINE
8
BLACK
6
CONTINUOUS
10
129.713
20
-91.2125
11
122.712
21
-91.2125
0
LINE
8
BLACK
6
CONTINUOUS
10
122.712
20
-91.2125
11
122.712
21
-106.012
0
LINE
8
BLACK
6
CONTINUOUS
10
122.712
20
-106.012
11
129.713
21
-106.012
0
LINE
8
BLACK
6
CONTINUOUS
10
146.512
20
-106.012
11
146.512
21
-91.2125
0
LINE
8
BLACK
6
CONTINUOUS
10
146.512
20
-91.2125
11
153.512
21
-91.2125
0
LINE
8
BLACK
6
CONTINUOUS
10
153.512
20
-91.2125
11
153.512
21
-106.012
0
LINE
8
BLACK
6
CONTINUOUS
10
153.512
20
-106.012
11
146.512
21
-106.012
0
LINE
8
BLACK
6
CONTINUOUS
10
52.4812
20
-92.9625
11
66.5812
21
-92.9625
0
LINE
8
BLACK
6
CONTINUOUS
10
66.5812
20
-92.9625
11
66.5812
21
-107.062
0
LINE
8
BLACK
6
CONTINUOUS
10
66.5812
20
-107.062
11
52.4812
21
-107.062
0
LINE
8
BLACK
6
CONTINUOUS
10
52.4812
20
-107.062
11
52.4812
21
-92.9625
0
LINE
8
BLACK
6
CONTINUOUS
10
100.106
20
-92.9625
11
114.206
21
-92.9625
0
LINE
8
BLACK
6
CONTINUOUS
10
114.206
20
-92.9625
11
114.206
21
-107.062
0
LINE
8
BLACK
6
CONTINUOUS
10
114.206
20
-107.062
11
100.106
21
-107.062
0
LINE
8
BLACK
6
CONTINUOUS
10
100.106
20
-107.062
11
100.106
21
-92.9625
0
LINE
8
BLACK
6
CONTINUOUS
10
84.4562
20
-86.9625
11
77.4562
21
-86.9625
0
LINE
8
BLACK
6
CONTINUOUS
10
84.4562
20
-72.1625
11
84.4562
21
-86.9625
0
LINE
8
BLACK
6
CONTINUOUS
10
77.4562
20
-72.1625
11
84.4562
21
-72.1625
0
LINE
8
BLACK
6
CONTINUOUS
10
77.4562
20
-86.9625
11
77.4562
21
-72.1625
0
LINE
8
BLACK
6
CONTINUOUS
10
53.6562
20
-86.9625
11
60.6562
21
-86.9625
0
LINE
8
BLACK
6
CONTINUOUS
10
53.6562
20
-72.1625
11
53.6562
21
-86.9625
0
LINE
8
BLACK
6
CONTINUOUS
10
60.6562
20
-72.1625
11
53.6562
21
-72.1625
0
LINE
8
BLACK
6
CONTINUOUS
10
60.6562
20
-86.9625
11
60.6562
21
-72.1625
0
LINE
8
BLACK
6
CONTINUOUS
10
76.1063
20
-88.0125
11
62.0062
21
-88.0125
0
LINE
8
BLACK
6
CONTINUOUS
10
62.0062
20
-88.0125
11
62.0062
21
-73.9125
0
LINE
8
BLACK
6
CONTINUOUS
10
62.0062
20
-73.9125
11
76.1063
21
-73.9125
0
LINE
8
BLACK
6
CONTINUOUS
10
76.1063
20
-73.9125
11
76.1063
21
-88.0125
0
LINE
8
BLACK
6
CONTINUOUS
10
57.2437
20
-54.8625
11
71.3438
21
-54.8625
0
LINE
8
BLACK
6
CONTINUOUS
10
71.3438
20
-54.8625
11
71.3438
21
-68.9625
0
LINE
8
BLACK
6
CONTINUOUS
10
71.3438
20
-68.9625
11
57.2437
21
-68.9625
0
LINE
8
BLACK
6
CONTINUOUS
10
57.2437
20
-68.9625
11
57.2437
21
-54.8625
0
LINE
8
BLACK
6
CONTINUOUS
10
340.613
20
-54.8625
11
354.712
21
-54.8625
0
LINE
8
BLACK
6
CONTINUOUS
10
354.712
20
-54.8625
11
354.712
21
-68.9625
0
LINE
8
BLACK
6
CONTINUOUS
10
354.712
20
-68.9625
11
340.613
21
-68.9625
0
LINE
8
BLACK
6
CONTINUOUS
10
340.613
20
-68.9625
11
340.613
21
-54.8625
0
LINE
8
BLACK
6
CONTINUOUS
10
254.887
20
-54.8625
11
268.988
21
-54.8625
0
LINE
8
BLACK
6
CONTINUOUS
10
268.988
20
-54.8625
11
268.988
21
-68.9625
0
LINE
8
BLACK
6
CONTINUOUS
10
268.988
20
-68.9625
11
254.887
21
-68.9625
0
LINE
8
BLACK
6
CONTINUOUS
10
254.887
20
-68.9625
11
254.887
21
-54.8625
0
LINE
8
BLACK
6
CONTINUOUS
10
235.837
20
-54.8625
11
249.938
21
-54.8625
0
LINE
8
BLACK
6
CONTINUOUS
10
249.938
20
-54.8625
11
249.938
21
-68.9625
0
LINE
8
BLACK
6
CONTINUOUS
10
249.938
20
-68.9625
11
235.837
21
-68.9625
0
LINE
8
BLACK
6
CONTINUOUS
10
235.837
20
-68.9625
11
235.837
21
-54.8625
0
LINE
8
BLACK
6
CONTINUOUS
10
197.737
20
-54.8625
11
211.837
21
-54.8625
0
LINE
8
BLACK
6
CONTINUOUS
10
211.837
20
-54.8625
11
211.837
21
-68.9625
0
LINE
8
BLACK
6
CONTINUOUS
10
211.837
20
-68.9625
11
197.737
21
-68.9625
0
LINE
8
BLACK
6
CONTINUOUS
10
197.737
20
-68.9625
11
197.737
21
-54.8625
0
LINE
8
BLACK
6
CONTINUOUS
10
216.787
20
-54.8625
11
230.887
21
-54.8625
0
LINE
8
BLACK
6
CONTINUOUS
10
230.887
20
-54.8625
11
230.887
21
-68.9625
0
LINE
8
BLACK
6
CONTINUOUS
10
230.887
20
-68.9625
11
216.787
21
-68.9625
0
LINE
8
BLACK
6
CONTINUOUS
10
216.787
20
-68.9625
11
216.787
21
-54.8625
0
LINE
8
BLACK
6
CONTINUOUS
10
159.637
20
-54.8625
11
173.737
21
-54.8625
0
LINE
8
BLACK
6
CONTINUOUS
10
173.737
20
-54.8625
11
173.737
21
-68.9625
0
LINE
8
BLACK
6
CONTINUOUS
10
173.737
20
-68.9625
11
159.637
21
-68.9625
0
LINE
8
BLACK
6
CONTINUOUS
10
159.637
20
-68.9625
11
159.637
21
-54.8625
0
LINE
8
BLACK
6
CONTINUOUS
10
178.688
20
-54.8625
11
192.787
21
-54.8625
0
LINE
8
BLACK
6
CONTINUOUS
10
192.787
20
-54.8625
11
192.787
21
-68.9625
0
LINE
8
BLACK
6
CONTINUOUS
10
192.787
20
-68.9625
11
178.688
21
-68.9625
0
LINE
8
BLACK
6
CONTINUOUS
10
178.688
20
-68.9625
11
178.688
21
-54.8625
0
LINE
8
BLACK
6
CONTINUOUS
10
140.588
20
-54.8625
11
154.688
21
-54.8625
0
LINE
8
BLACK
6
CONTINUOUS
10
154.688
20
-54.8625
11
154.688
21
-68.9625
0
LINE
8
BLACK
6
CONTINUOUS
10
154.688
20
-68.9625
11
140.588
21
-68.9625
0
LINE
8
BLACK
6
CONTINUOUS
10
140.588
20
-68.9625
11
140.588
21
-54.8625
0
LINE
8
BLACK
6
CONTINUOUS
10
121.537
20
-54.8625
11
135.637
21
-54.8625
0
LINE
8
BLACK
6
CONTINUOUS
10
135.637
20
-54.8625
11
135.637
21
-68.9625
0
LINE
8
BLACK
6
CONTINUOUS
10
135.637
20
-68.9625
11
121.537
21
-68.9625
0
LINE
8
BLACK
6
CONTINUOUS
10
121.537
20
-68.9625
11
121.537
21
-54.8625
0
LINE
8
BLACK
6
CONTINUOUS
10
102.487
20
-54.8625
11
116.587
21
-54.8625
0
LINE
8
BLACK
6
CONTINUOUS
10
116.587
20
-54.8625
11
116.587
21
-68.9625
0
LINE
8
BLACK
6
CONTINUOUS
10
116.587
20
-68.9625
11
102.487
21
-68.9625
0
LINE
8
BLACK
6
CONTINUOUS
10
102.487
20
-68.9625
11
102.487
21
-54.8625
0
LINE
8
BLACK
6
CONTINUOUS
10
83.4375
20
-54.8625
11
97.5375
21
-54.8625
0
LINE
8
BLACK
6
CONTINUOUS
10
97.5375
20
-54.8625
11
97.5375
21
-68.9625
0
LINE
8
BLACK
6
CONTINUOUS
10
97.5375
20
-68.9625
11
83.4375
21
-68.9625
0
LINE
8
BLACK
6
CONTINUOUS
10
83.4375
20
-68.9625
11
83.4375
21
-54.8625
0
LINE
8
BLACK
6
CONTINUOUS
10
216.787
20
-92.9625
11
230.887
21
-92.9625
0
LINE
8
BLACK
6
CONTINUOUS
10
230.887
20
-92.9625
11
230.887
21
-107.062
0
LINE
8
BLACK
6
CONTINUOUS
10
230.887
20
-107.062
11
216.787
21
-107.062
0
LINE
8
BLACK
6
CONTINUOUS
10
216.787
20
-107.062
11
216.787
21
-92.9625
0
LINE
8
BLACK
6
CONTINUOUS
10
316.8
20
-97.725
11
330.9
21
-97.725
0
LINE
8
BLACK
6
CONTINUOUS
10
330.9
20
-97.725
11
330.9
21
-111.825
0
LINE
8
BLACK
6
CONTINUOUS
10
330.9
20
-111.825
11
316.8
21
-111.825
0
LINE
8
BLACK
6
CONTINUOUS
10
316.8
20
-111.825
11
316.8
21
-97.725
0
LINE
8
BLACK
6
CONTINUOUS
10
335.85
20
-97.725
11
349.95
21
-97.725
0
LINE
8
BLACK
6
CONTINUOUS
10
349.95
20
-97.725
11
349.95
21
-111.825
0
LINE
8
BLACK
6
CONTINUOUS
10
349.95
20
-111.825
11
335.85
21
-111.825
0
LINE
8
BLACK
6
CONTINUOUS
10
335.85
20
-111.825
11
335.85
21
-97.725
0
LINE
8
BLACK
6
CONTINUOUS
10
297.75
20
-97.725
11
311.85
21
-97.725
0
LINE
8
BLACK
6
CONTINUOUS
10
311.85
20
-97.725
11
311.85
21
-111.825
0
LINE
8
BLACK
6
CONTINUOUS
10
311.85
20
-111.825
11
297.75
21
-111.825
0
LINE
8
BLACK
6
CONTINUOUS
10
297.75
20
-111.825
11
297.75
21
-97.725
0
LINE
8
BLACK
6
CONTINUOUS
10
316.8
20
-78.675
11
330.9
21
-78.675
0
LINE
8
BLACK
6
CONTINUOUS
10
330.9
20
-78.675
11
330.9
21
-92.775
0
LINE
8
BLACK
6
CONTINUOUS
10
330.9
20
-92.775
11
316.8
21
-92.775
0
LINE
8
BLACK
6
CONTINUOUS
10
316.8
20
-92.775
11
316.8
21
-78.675
0
LINE
8
BLACK
6
CONTINUOUS
10
340.613
20
-35.8125
11
354.712
21
-35.8125
0
LINE
8
BLACK
6
CONTINUOUS
10
354.712
20
-35.8125
11
354.712
21
-49.9125
0
LINE
8
BLACK
6
CONTINUOUS
10
354.712
20
-49.9125
11
340.613
21
-49.9125
0
LINE
8
BLACK
6
CONTINUOUS
10
340.613
20
-49.9125
11
340.613
21
-35.8125
0
LINE
8
BLACK
6
CONTINUOUS
10
340.613
20
-73.9125
11
354.712
21
-73.9125
0
LINE
8
BLACK
6
CONTINUOUS
10
354.712
20
-73.9125
11
354.712
21
-88.0125
0
LINE
8
BLACK
6
CONTINUOUS
10
354.712
20
-88.0125
11
340.613
21
-88.0125
0
LINE
8
BLACK
6
CONTINUOUS
10
340.613
20
-88.0125
11
340.613
21
-73.9125
0
LINE
8
BLACK
6
CONTINUOUS
10
288.225
20
-35.8125
11
302.325
21
-35.8125
0
LINE
8
BLACK
6
CONTINUOUS
10
302.325
20
-35.8125
11
302.325
21
-49.9125
0
LINE
8
BLACK
6
CONTINUOUS
10
302.325
20
-49.9125
11
288.225
21
-49.9125
0
LINE
8
BLACK
6
CONTINUOUS
10
288.225
20
-49.9125
11
288.225
21
-35.8125
0
LINE
8
BLACK
6
CONTINUOUS
10
269.175
20
-35.8125
11
283.275
21
-35.8125
0
LINE
8
BLACK
6
CONTINUOUS
10
283.275
20
-35.8125
11
283.275
21
-49.9125
0
LINE
8
BLACK
6
CONTINUOUS
10
283.275
20
-49.9125
11
269.175
21
-49.9125
0
LINE
8
BLACK
6
CONTINUOUS
10
269.175
20
-49.9125
11
269.175
21
-35.8125
0
LINE
8
BLACK
6
CONTINUOUS
10
250.125
20
-35.8125
11
264.225
21
-35.8125
0
LINE
8
BLACK
6
CONTINUOUS
10
264.225
20
-35.8125
11
264.225
21
-49.9125
0
LINE
8
BLACK
6
CONTINUOUS
10
264.225
20
-49.9125
11
250.125
21
-49.9125
0
LINE
8
BLACK
6
CONTINUOUS
10
250.125
20
-49.9125
11
250.125
21
-35.8125
0
LINE
8
BLACK
6
CONTINUOUS
10
264.412
20
-73.9125
11
278.512
21
-73.9125
0
LINE
8
BLACK
6
CONTINUOUS
10
278.512
20
-73.9125
11
278.512
21
-88.0125
0
LINE
8
BLACK
6
CONTINUOUS
10
278.512
20
-88.0125
11
264.412
21
-88.0125
0
LINE
8
BLACK
6
CONTINUOUS
10
264.412
20
-88.0125
11
264.412
21
-73.9125
0
LINE
8
BLACK
6
CONTINUOUS
10
212.025
20
-35.8125
11
226.125
21
-35.8125
0
LINE
8
BLACK
6
CONTINUOUS
10
226.125
20
-35.8125
11
226.125
21
-49.9125
0
LINE
8
BLACK
6
CONTINUOUS
10
226.125
20
-49.9125
11
212.025
21
-49.9125
0
LINE
8
BLACK
6
CONTINUOUS
10
212.025
20
-49.9125
11
212.025
21
-35.8125
0
LINE
8
BLACK
6
CONTINUOUS
10
192.975
20
-35.8125
11
207.075
21
-35.8125
0
LINE
8
BLACK
6
CONTINUOUS
10
207.075
20
-35.8125
11
207.075
21
-49.9125
0
LINE
8
BLACK
6
CONTINUOUS
10
207.075
20
-49.9125
11
192.975
21
-49.9125
0
LINE
8
BLACK
6
CONTINUOUS
10
192.975
20
-49.9125
11
192.975
21
-35.8125
0
LINE
8
BLACK
6
CONTINUOUS
10
226.312
20
-73.9125
11
240.412
21
-73.9125
0
LINE
8
BLACK
6
CONTINUOUS
10
240.412
20
-73.9125
11
240.412
21
-88.0125
0
LINE
8
BLACK
6
CONTINUOUS
10
240.412
20
-88.0125
11
226.312
21
-88.0125
0
LINE
8
BLACK
6
CONTINUOUS
10
226.312
20
-88.0125
11
226.312
21
-73.9125
0
LINE
8
BLACK
6
CONTINUOUS
10
245.362
20
-73.9125
11
259.462
21
-73.9125
0
LINE
8
BLACK
6
CONTINUOUS
10
259.462
20
-73.9125
11
259.462
21
-88.0125
0
LINE
8
BLACK
6
CONTINUOUS
10
259.462
20
-88.0125
11
245.362
21
-88.0125
0
LINE
8
BLACK
6
CONTINUOUS
10
245.362
20
-88.0125
11
245.362
21
-73.9125
0
LINE
8
BLACK
6
CONTINUOUS
10
231.075
20
-35.8125
11
245.175
21
-35.8125
0
LINE
8
BLACK
6
CONTINUOUS
10
245.175
20
-35.8125
11
245.175
21
-49.9125
0
LINE
8
BLACK
6
CONTINUOUS
10
245.175
20
-49.9125
11
231.075
21
-49.9125
0
LINE
8
BLACK
6
CONTINUOUS
10
231.075
20
-49.9125
11
231.075
21
-35.8125
0
LINE
8
BLACK
6
CONTINUOUS
10
207.262
20
-73.9125
11
221.362
21
-73.9125
0
LINE
8
BLACK
6
CONTINUOUS
10
221.362
20
-73.9125
11
221.362
21
-88.0125
0
LINE
8
BLACK
6
CONTINUOUS
10
221.362
20
-88.0125
11
207.262
21
-88.0125
0
LINE
8
BLACK
6
CONTINUOUS
10
207.262
20
-88.0125
11
207.262
21
-73.9125
0
LINE
8
BLACK
6
CONTINUOUS
10
150.112
20
-73.9125
11
164.213
21
-73.9125
0
LINE
8
BLACK
6
CONTINUOUS
10
164.213
20
-73.9125
11
164.213
21
-88.0125
0
LINE
8
BLACK
6
CONTINUOUS
10
164.213
20
-88.0125
11
150.112
21
-88.0125
0
LINE
8
BLACK
6
CONTINUOUS
10
150.112
20
-88.0125
11
150.112
21
-73.9125
0
LINE
8
BLACK
6
CONTINUOUS
10
173.925
20
-35.8125
11
188.025
21
-35.8125
0
LINE
8
BLACK
6
CONTINUOUS
10
188.025
20
-35.8125
11
188.025
21
-49.9125
0
LINE
8
BLACK
6
CONTINUOUS
10
188.025
20
-49.9125
11
173.925
21
-49.9125
0
LINE
8
BLACK
6
CONTINUOUS
10
173.925
20
-49.9125
11
173.925
21
-35.8125
0
LINE
8
BLACK
6
CONTINUOUS
10
169.162
20
-73.9125
11
183.262
21
-73.9125
0
LINE
8
BLACK
6
CONTINUOUS
10
183.262
20
-73.9125
11
183.262
21
-88.0125
0
LINE
8
BLACK
6
CONTINUOUS
10
183.262
20
-88.0125
11
169.162
21
-88.0125
0
LINE
8
BLACK
6
CONTINUOUS
10
169.162
20
-88.0125
11
169.162
21
-73.9125
0
LINE
8
BLACK
6
CONTINUOUS
10
154.875
20
-35.8125
11
168.975
21
-35.8125
0
LINE
8
BLACK
6
CONTINUOUS
10
168.975
20
-35.8125
11
168.975
21
-49.9125
0
LINE
8
BLACK
6
CONTINUOUS
10
168.975
20
-49.9125
11
154.875
21
-49.9125
0
LINE
8
BLACK
6
CONTINUOUS
10
154.875
20
-49.9125
11
154.875
21
-35.8125
0
LINE
8
BLACK
6
CONTINUOUS
10
188.213
20
-73.9125
11
202.312
21
-73.9125
0
LINE
8
BLACK
6
CONTINUOUS
10
202.312
20
-73.9125
11
202.312
21
-88.0125
0
LINE
8
BLACK
6
CONTINUOUS
10
202.312
20
-88.0125
11
188.213
21
-88.0125
0
LINE
8
BLACK
6
CONTINUOUS
10
188.213
20
-88.0125
11
188.213
21
-73.9125
0
LINE
8
BLACK
6
CONTINUOUS
10
135.825
20
-35.8125
11
149.925
21
-35.8125
0
LINE
8
BLACK
6
CONTINUOUS
10
149.925
20
-35.8125
11
149.925
21
-49.9125
0
LINE
8
BLACK
6
CONTINUOUS
10
149.925
20
-49.9125
11
135.825
21
-49.9125
0
LINE
8
BLACK
6
CONTINUOUS
10
135.825
20
-49.9125
11
135.825
21
-35.8125
0
LINE
8
BLACK
6
CONTINUOUS
10
131.062
20
-73.9125
11
145.162
21
-73.9125
0
LINE
8
BLACK
6
CONTINUOUS
10
145.162
20
-73.9125
11
145.162
21
-88.0125
0
LINE
8
BLACK
6
CONTINUOUS
10
145.162
20
-88.0125
11
131.062
21
-88.0125
0
LINE
8
BLACK
6
CONTINUOUS
10
131.062
20
-88.0125
11
131.062
21
-73.9125
0
LINE
8
BLACK
6
CONTINUOUS
10
116.775
20
-35.8125
11
130.875
21
-35.8125
0
LINE
8
BLACK
6
CONTINUOUS
10
130.875
20
-35.8125
11
130.875
21
-49.9125
0
LINE
8
BLACK
6
CONTINUOUS
10
130.875
20
-49.9125
11
116.775
21
-49.9125
0
LINE
8
BLACK
6
CONTINUOUS
10
116.775
20
-49.9125
11
116.775
21
-35.8125
0
LINE
8
BLACK
6
CONTINUOUS
10
112.012
20
-73.9125
11
126.112
21
-73.9125
0
LINE
8
BLACK
6
CONTINUOUS
10
126.112
20
-73.9125
11
126.112
21
-88.0125
0
LINE
8
BLACK
6
CONTINUOUS
10
126.112
20
-88.0125
11
112.012
21
-88.0125
0
LINE
8
BLACK
6
CONTINUOUS
10
112.012
20
-88.0125
11
112.012
21
-73.9125
0
LINE
8
BLACK
6
CONTINUOUS
10
97.725
20
-35.8125
11
111.825
21
-35.8125
0
LINE
8
BLACK
6
CONTINUOUS
10
111.825
20
-35.8125
11
111.825
21
-49.9125
0
LINE
8
BLACK
6
CONTINUOUS
10
111.825
20
-49.9125
11
97.725
21
-49.9125
0
LINE
8
BLACK
6
CONTINUOUS
10
97.725
20
-49.9125
11
97.725
21
-35.8125
0
LINE
8
BLACK
6
CONTINUOUS
10
92.9625
20
-73.9125
11
107.062
21
-73.9125
0
LINE
8
BLACK
6
CONTINUOUS
10
107.062
20
-73.9125
11
107.062
21
-88.0125
0
LINE
8
BLACK
6
CONTINUOUS
10
107.062
20
-88.0125
11
92.9625
21
-88.0125
0
LINE
8
BLACK
6
CONTINUOUS
10
92.9625
20
-88.0125
11
92.9625
21
-73.9125
0
LINE
8
BLACK
6
CONTINUOUS
10
78.675
20
-35.8125
11
92.775
21
-35.8125
0
LINE
8
BLACK
6
CONTINUOUS
10
92.775
20
-35.8125
11
92.775
21
-49.9125
0
LINE
8
BLACK
6
CONTINUOUS
10
92.775
20
-49.9125
11
78.675
21
-49.9125
0
LINE
8
BLACK
6
CONTINUOUS
10
78.675
20
-49.9125
11
78.675
21
-35.8125
0
CIRCLE
8
BLACK
10
395.287
20
-111.919
40
1.1
0
CIRCLE
8
BLACK
10
395.287
20
-71.4375
40
1.1
0
CIRCLE
8
BLACK
10
395.287
20
-33.3375
40
1.1
0
CIRCLE
8
BLACK
10
23.8125
20
-73.8187
40
1.1
  0
ENDSEC
  0
EOF
