G04 #@! TF.GenerationSoftware,KiCad,Pcbnew,(5.1.12)-1*
G04 #@! TF.CreationDate,2023-11-11T22:00:56+09:00*
G04 #@! TF.ProjectId,jtnk66w,6a746e6b-3636-4772-9e6b-696361645f70,rev?*
G04 #@! TF.SameCoordinates,Original*
G04 #@! TF.FileFunction,Copper,L1,Top*
G04 #@! TF.FilePolarity,Positive*
%FSLAX46Y46*%
G04 Gerber Fmt 4.6, Leading zero omitted, Abs format (unit mm)*
G04 Created by KiCad (PCBNEW (5.1.12)-1) date 2023-11-11 22:00:56*
%MOMM*%
%LPD*%
G01*
G04 APERTURE LIST*
G04 #@! TA.AperFunction,ComponentPad*
%ADD10O,1.500000X1.500000*%
G04 #@! TD*
G04 #@! TA.AperFunction,ComponentPad*
%ADD11C,1.524000*%
G04 #@! TD*
G04 #@! TA.AperFunction,ComponentPad*
%ADD12C,2.000000*%
G04 #@! TD*
G04 #@! TA.AperFunction,ComponentPad*
%ADD13R,3.200000X2.500000*%
G04 #@! TD*
G04 #@! TA.AperFunction,ComponentPad*
%ADD14C,1.397000*%
G04 #@! TD*
G04 #@! TA.AperFunction,ViaPad*
%ADD15C,0.800000*%
G04 #@! TD*
G04 #@! TA.AperFunction,Conductor*
%ADD16C,0.250000*%
G04 #@! TD*
G04 #@! TA.AperFunction,Conductor*
%ADD17C,0.500000*%
G04 #@! TD*
G04 APERTURE END LIST*
D10*
X23862500Y-47743800D03*
X23862500Y-45243800D03*
X23862500Y-42743800D03*
D11*
X43282400Y-35528200D03*
X43282400Y-38068200D03*
X43282400Y-40608200D03*
X43282400Y-43148200D03*
X43282400Y-45688200D03*
X43282400Y-48228200D03*
X43282400Y-50768200D03*
X43282400Y-53308200D03*
X43282400Y-55848200D03*
X43282400Y-58388200D03*
X43282400Y-60928200D03*
X43282400Y-63468200D03*
X28062400Y-63468200D03*
X28062400Y-60928200D03*
X28062400Y-58388200D03*
X28062400Y-55848200D03*
X28062400Y-53308200D03*
X28062400Y-50768200D03*
X28062400Y-48228200D03*
X28062400Y-45688200D03*
X28062400Y-43148200D03*
X28062400Y-40608200D03*
X28062400Y-38068200D03*
X28062400Y-35528200D03*
X28062400Y-32988200D03*
X43282400Y-32988200D03*
D12*
X23812500Y-53900000D03*
X23812500Y-60400000D03*
X42718800Y-102512000D03*
X42718800Y-97512000D03*
D13*
X35718800Y-105612000D03*
X35718800Y-94412000D03*
D12*
X28218800Y-102512000D03*
X28218800Y-100012000D03*
X28218800Y-97512000D03*
D14*
X39528800Y-69056200D03*
X36988800Y-69056200D03*
X34448800Y-69056200D03*
X31908800Y-69056200D03*
D15*
X59841400Y-72843100D03*
X221222000Y-79402100D03*
X206841600Y-77636400D03*
X26269998Y-68160000D03*
X47579600Y-96654200D03*
X231231900Y-98585300D03*
X213235600Y-96091400D03*
X75620000Y-95450000D03*
X208357600Y-41063800D03*
X195156600Y-37827200D03*
X169461200Y-37476100D03*
X155369100Y-38143600D03*
X133189700Y-37098100D03*
X117816700Y-39348600D03*
X194266900Y-39028600D03*
X207808000Y-60122800D03*
X199002500Y-58380800D03*
X49124300Y-52181700D03*
X207631700Y-41795800D03*
X208474700Y-39329900D03*
X215810600Y-60931300D03*
X213170500Y-58389000D03*
X224637400Y-81641400D03*
X222761500Y-76951900D03*
X235961300Y-101815400D03*
X234523100Y-96019700D03*
X231645500Y-44876000D03*
X231875900Y-39350400D03*
X234483400Y-67384700D03*
X234574300Y-58392400D03*
X241056000Y-80115900D03*
X241056000Y-77656200D03*
X251462900Y-100466600D03*
X250404900Y-96696700D03*
X249143200Y-42200300D03*
X246257500Y-39314600D03*
X253497100Y-62036500D03*
X251327100Y-58400000D03*
X265200500Y-77603700D03*
X265811196Y-84125010D03*
X270460400Y-98431000D03*
X272556100Y-96373600D03*
X268233500Y-41977900D03*
X268072500Y-39355300D03*
X272763500Y-62086300D03*
X272763500Y-58404300D03*
X288905400Y-83098000D03*
X288848900Y-77653700D03*
X296671000Y-104602300D03*
X296671000Y-100928100D03*
X283649000Y-41811900D03*
X283432600Y-39355400D03*
X303619600Y-62169700D03*
X301343400Y-58202900D03*
X310778400Y-84083600D03*
X311578000Y-81304900D03*
X316212900Y-106334600D03*
X316212900Y-100817000D03*
X312176200Y-45122300D03*
X312176200Y-38893600D03*
X341305700Y-41789200D03*
X341221200Y-39348600D03*
X341200900Y-63584000D03*
X341200800Y-57082000D03*
X339370000Y-83578000D03*
X339221600Y-76806200D03*
X335828200Y-101232700D03*
X335828200Y-104415010D03*
X355618500Y-41886300D03*
X355618500Y-39323700D03*
X358540300Y-62294000D03*
X356102300Y-57365600D03*
X358044300Y-81527400D03*
X353968300Y-77451400D03*
X358930500Y-99536800D03*
X356099800Y-96706100D03*
X377339100Y-41295600D03*
X373590100Y-39351400D03*
X377104200Y-60110700D03*
X375140500Y-58147000D03*
X377339100Y-79449800D03*
X373495200Y-77451400D03*
X275480000Y-56180000D03*
X29961200Y-74708800D03*
X29790000Y-108720000D03*
X28440000Y-65970000D03*
X57740000Y-92650000D03*
X58590000Y-56350000D03*
X63980000Y-74460000D03*
X77670000Y-93320000D03*
X56650000Y-35860000D03*
X85060000Y-56540000D03*
X94560000Y-75270000D03*
X101140000Y-93380000D03*
X80500000Y-35900000D03*
X104230000Y-56140000D03*
X113200000Y-75200000D03*
X99360000Y-35820000D03*
X123320000Y-56300000D03*
X131560000Y-94240000D03*
X131180000Y-74620000D03*
X118580000Y-35890000D03*
X141850000Y-55780000D03*
X149270000Y-74890000D03*
X138250000Y-35870000D03*
X161260000Y-56660000D03*
X170000000Y-94560000D03*
X170090000Y-75020000D03*
X157410000Y-35880000D03*
X180320000Y-56130000D03*
X189370000Y-75440000D03*
X197810000Y-94090000D03*
X176390000Y-35900000D03*
X199570000Y-55850000D03*
X208440000Y-75340000D03*
X216900000Y-94056500D03*
X194730000Y-35930000D03*
X228270000Y-74930000D03*
X218770000Y-56120000D03*
X237220000Y-94220000D03*
X214330000Y-35890000D03*
X237450000Y-56520000D03*
X247020000Y-75500000D03*
X255570000Y-94450000D03*
X232420000Y-35920000D03*
X257030000Y-55510000D03*
X266111000Y-74820500D03*
X275470000Y-93190000D03*
X252050000Y-35980000D03*
X270500000Y-35990000D03*
X297940000Y-99050000D03*
X290200000Y-73750000D03*
X289530000Y-35980000D03*
X306770000Y-56180000D03*
X318130000Y-80130000D03*
X317160000Y-98750000D03*
X312780000Y-35860000D03*
X342780000Y-54720000D03*
X342350000Y-74360000D03*
X340340000Y-96300000D03*
X342030000Y-35980000D03*
X361780000Y-35850000D03*
X361750000Y-55310000D03*
X361490000Y-74240000D03*
X359590000Y-93930000D03*
X381920000Y-54980000D03*
X380420000Y-74420000D03*
X378710000Y-93810000D03*
X379950000Y-35890000D03*
X39380000Y-65960000D03*
X36321810Y-65960000D03*
X31237700Y-111122300D03*
X40456500Y-75578500D03*
X53702200Y-94546100D03*
X46744300Y-94546100D03*
X64405700Y-77182000D03*
X63784900Y-88162300D03*
X59642400Y-57899500D03*
X66774300Y-74223900D03*
X57258400Y-38821700D03*
X70501800Y-55951900D03*
X77458800Y-37476100D03*
X67422500Y-37476100D03*
X85817000Y-57424300D03*
X90396500Y-38296100D03*
X95285200Y-76123500D03*
X95140400Y-56710500D03*
X96236700Y-79402100D03*
X105295400Y-77661000D03*
X113990600Y-77646300D03*
X110528500Y-92946000D03*
X104870100Y-57829100D03*
X123735400Y-75578500D03*
X100117100Y-38641600D03*
X114450000Y-56400000D03*
X109495200Y-52584990D03*
X111060000Y-54035000D03*
X123920800Y-57154200D03*
X129649800Y-39346000D03*
X133457100Y-75541500D03*
X135040200Y-58395000D03*
X133457000Y-95827000D03*
X143229500Y-76840300D03*
X151629800Y-77642400D03*
X143640400Y-94068700D03*
X142961700Y-57441900D03*
X156070000Y-73050000D03*
X138222600Y-38227800D03*
X152291600Y-56400000D03*
X160923700Y-57899900D03*
X167788300Y-39347100D03*
X171560100Y-75906600D03*
X172569900Y-58388700D03*
X171543300Y-95471800D03*
X182630000Y-77662200D03*
X190602400Y-77051200D03*
X203231500Y-89285600D03*
X181065200Y-58404500D03*
X197407600Y-73944100D03*
X176275900Y-39330700D03*
X190404300Y-56362200D03*
X200164100Y-57121900D03*
X206023500Y-36877800D03*
X209657500Y-76191200D03*
X209449600Y-57785200D03*
X218314000Y-85610300D03*
X221174000Y-77624000D03*
X228708800Y-77061200D03*
X239722500Y-88468100D03*
X219183100Y-58374400D03*
X234068200Y-73096500D03*
X214396600Y-39303300D03*
X220776900Y-45857400D03*
X242596400Y-38757300D03*
X237571300Y-46095010D03*
X247745200Y-76357000D03*
X247573900Y-56400000D03*
X256506300Y-96081000D03*
X257089200Y-76942100D03*
X266811100Y-77534500D03*
X278843700Y-79840300D03*
X257278000Y-57850900D03*
X272075800Y-72955700D03*
X252511300Y-38301400D03*
X264154000Y-42224900D03*
X275931700Y-57218800D03*
X280898300Y-37981700D03*
X289224600Y-60672600D03*
X286512100Y-58390500D03*
X295509400Y-84031400D03*
X299935500Y-77504600D03*
X318251800Y-82511200D03*
X316929200Y-87350500D03*
X307082000Y-58401000D03*
X326313200Y-79198900D03*
X296403900Y-46030300D03*
X290624800Y-38144700D03*
X342992600Y-57721200D03*
X352950800Y-38772400D03*
X342984300Y-75906000D03*
X352950800Y-58096900D03*
X338292100Y-81627900D03*
X334631300Y-79669500D03*
X362046700Y-76350000D03*
X363137540Y-81732860D03*
X362083700Y-57206900D03*
X367578600Y-65511500D03*
X362038900Y-38850000D03*
X366959400Y-46040800D03*
X385412000Y-64702500D03*
X388367700Y-62610200D03*
X381055300Y-94693500D03*
X388802000Y-80298900D03*
X32676000Y-65083900D03*
X29205800Y-65096000D03*
X225446400Y-48844800D03*
X232716200Y-67725800D03*
X240295700Y-85657600D03*
X249849300Y-99441300D03*
X244255500Y-109806900D03*
X71643300Y-96700800D03*
X75481700Y-79367700D03*
X65191800Y-51074700D03*
X71609400Y-60110900D03*
X250111900Y-61663200D03*
X248741100Y-58402700D03*
X257105900Y-87188900D03*
X67246800Y-99789400D03*
X268482900Y-98433800D03*
X51754400Y-48228200D03*
X288927900Y-99789400D03*
X95265200Y-52603000D03*
X51672900Y-50768200D03*
X280855400Y-85606200D03*
X91040900Y-99824000D03*
X109738400Y-83808000D03*
X266124700Y-55357700D03*
X97487500Y-62362000D03*
X269161300Y-60981910D03*
X114834800Y-99789400D03*
X126627500Y-80402500D03*
X125650300Y-72844800D03*
X53641000Y-53332100D03*
X287604500Y-58366600D03*
X117252500Y-60124400D03*
X102624000Y-52476100D03*
X298413200Y-100020700D03*
X311499800Y-104219900D03*
X290318400Y-61546900D03*
X130088700Y-51933500D03*
X53799600Y-55320000D03*
X145786100Y-98413900D03*
X333594800Y-87344400D03*
X153485600Y-110776900D03*
X329464900Y-102974600D03*
X309178700Y-53303200D03*
X145786100Y-80452200D03*
X319522000Y-60110500D03*
X138904900Y-60114300D03*
X145880000Y-93340000D03*
X145980000Y-89460000D03*
X308574600Y-48672700D03*
X281405400Y-65511500D03*
X54877300Y-56488600D03*
X152270000Y-54286500D03*
X162964700Y-79376700D03*
X158268000Y-68658700D03*
X185779100Y-98831600D03*
X186387000Y-83502200D03*
X55853700Y-61705300D03*
X355032600Y-58384400D03*
X355497800Y-101324400D03*
X173345800Y-54445800D03*
X354950600Y-62378800D03*
X350754900Y-95144900D03*
X173345800Y-60307600D03*
X334149790Y-109630210D03*
X342930000Y-112010000D03*
X342930000Y-112010000D03*
X53428000Y-60110700D03*
X374576800Y-99251700D03*
X221295000Y-113687200D03*
X204720500Y-85540900D03*
X196690300Y-99169200D03*
X192738000Y-66610200D03*
X193342600Y-55590300D03*
X374646700Y-96652200D03*
X374332200Y-61276800D03*
X372215600Y-58377000D03*
X210858700Y-58384500D03*
X212070500Y-62384900D03*
X216832900Y-99251900D03*
X217383800Y-95027600D03*
D16*
X59841400Y-72843100D02*
X59841400Y-71912100D01*
X59841400Y-71912100D02*
X56586900Y-68657600D01*
X56586900Y-68657600D02*
X56586900Y-57066900D01*
X56586900Y-57066900D02*
X54111000Y-54591000D01*
X54111000Y-54591000D02*
X29345200Y-54591000D01*
X29345200Y-54591000D02*
X28062400Y-53308200D01*
X221222000Y-79402100D02*
X220041900Y-78222000D01*
X220041900Y-78222000D02*
X207427200Y-78222000D01*
X207427200Y-78222000D02*
X206841600Y-77636400D01*
X28062400Y-53308200D02*
X26343900Y-55026700D01*
X26343900Y-55026700D02*
X26343900Y-68086098D01*
X26343900Y-68086098D02*
X26269998Y-68160000D01*
X213235600Y-96091400D02*
X214319400Y-97175200D01*
X214319400Y-97175200D02*
X229821800Y-97175200D01*
X229821800Y-97175200D02*
X231231900Y-98585300D01*
X42579800Y-91654400D02*
X47579600Y-96654200D01*
X42579800Y-72146500D02*
X42579800Y-91654400D01*
X40020081Y-70079701D02*
X40266541Y-69833241D01*
X26958000Y-56952600D02*
X26958000Y-61431600D01*
X26958000Y-61431600D02*
X27724600Y-62198200D01*
X37158300Y-66725000D02*
X38751759Y-68318459D01*
X27724600Y-62198200D02*
X32608200Y-62198200D01*
X34890000Y-65945100D02*
X35669900Y-66725000D01*
X34890000Y-64480000D02*
X34890000Y-65945100D01*
X38751759Y-68318459D02*
X38505299Y-68564919D01*
X28062400Y-55848200D02*
X26958000Y-56952600D01*
X38505299Y-69547481D02*
X39037519Y-70079701D01*
X32608200Y-62198200D02*
X34890000Y-64480000D01*
X35669900Y-66725000D02*
X37158300Y-66725000D01*
X40266541Y-69833241D02*
X42579800Y-72146500D01*
X38505299Y-68564919D02*
X38505299Y-69547481D01*
X39037519Y-70079701D02*
X40020081Y-70079701D01*
X69390679Y-97685021D02*
X71625700Y-95450000D01*
X71625700Y-95450000D02*
X75620000Y-95450000D01*
X48610421Y-97685021D02*
X69390679Y-97685021D01*
X47579600Y-96654200D02*
X48610421Y-97685021D01*
X194266900Y-39028600D02*
X195671100Y-40432800D01*
X195671100Y-40432800D02*
X207726600Y-40432800D01*
X207726600Y-40432800D02*
X208357600Y-41063800D01*
X195156600Y-37827200D02*
X194266900Y-38716900D01*
X194266900Y-38716900D02*
X194266900Y-39028600D01*
X155369100Y-38143600D02*
X157266100Y-40040600D01*
X157266100Y-40040600D02*
X165887700Y-40040600D01*
X165887700Y-40040600D02*
X168452200Y-37476100D01*
X168452200Y-37476100D02*
X169461200Y-37476100D01*
X133189700Y-37098100D02*
X128711200Y-37098100D01*
X128711200Y-37098100D02*
X125761300Y-40048000D01*
X125761300Y-40048000D02*
X118516100Y-40048000D01*
X118516100Y-40048000D02*
X117816700Y-39348600D01*
X207808000Y-60122800D02*
X206760400Y-59075200D01*
X206760400Y-59075200D02*
X199696900Y-59075200D01*
X199696900Y-59075200D02*
X199002500Y-58380800D01*
X28062400Y-50768200D02*
X29475900Y-52181700D01*
X29475900Y-52181700D02*
X49124300Y-52181700D01*
X207631700Y-41795800D02*
X208725200Y-41795800D01*
X208725200Y-41795800D02*
X209089600Y-41431400D01*
X209089600Y-41431400D02*
X209089600Y-39944800D01*
X209089600Y-39944800D02*
X208474700Y-39329900D01*
X213170500Y-58389000D02*
X215712800Y-60931300D01*
X215712800Y-60931300D02*
X215810600Y-60931300D01*
X222761500Y-76951900D02*
X224637400Y-78827800D01*
X224637400Y-78827800D02*
X224637400Y-81641400D01*
X234523100Y-96019700D02*
X235961300Y-97457900D01*
X235961300Y-97457900D02*
X235961300Y-101815400D01*
X231875900Y-39350400D02*
X231645500Y-39580800D01*
X231645500Y-39580800D02*
X231645500Y-44876000D01*
X234574300Y-58392400D02*
X234574300Y-67293800D01*
X234574300Y-67293800D02*
X234483400Y-67384700D01*
X241056000Y-77656200D02*
X241056000Y-80115900D01*
X250404900Y-96696700D02*
X251462900Y-97754700D01*
X251462900Y-97754700D02*
X251462900Y-100466600D01*
X246257500Y-39314600D02*
X249143200Y-42200300D01*
X253497100Y-62036500D02*
X251327100Y-59866500D01*
X251327100Y-59866500D02*
X251327100Y-58400000D01*
X265056800Y-83370614D02*
X265811196Y-84125010D01*
X265056800Y-77747400D02*
X265056800Y-83370614D01*
X265200500Y-77603700D02*
X265056800Y-77747400D01*
X272556100Y-96373600D02*
X270498700Y-98431000D01*
X270498700Y-98431000D02*
X270460400Y-98431000D01*
X268072500Y-39355300D02*
X268072500Y-41816900D01*
X268072500Y-41816900D02*
X268233500Y-41977900D01*
X272763500Y-58404300D02*
X272763500Y-62086300D01*
X288848900Y-77653700D02*
X288848900Y-83041500D01*
X288848900Y-83041500D02*
X288905400Y-83098000D01*
X296671000Y-100928100D02*
X296671000Y-104602300D01*
X283432600Y-39355400D02*
X283649000Y-39571800D01*
X283649000Y-39571800D02*
X283649000Y-41811900D01*
X301343400Y-58202900D02*
X303619500Y-60479000D01*
X303619500Y-60479000D02*
X303619500Y-62169700D01*
X303619500Y-62169700D02*
X303619600Y-62169700D01*
X311578000Y-81304900D02*
X310778400Y-82104500D01*
X310778400Y-82104500D02*
X310778400Y-84083600D01*
X316212900Y-100817000D02*
X316212900Y-106334600D01*
X312176200Y-38893600D02*
X312176200Y-45122300D01*
X341305700Y-41789200D02*
X341305700Y-39433100D01*
X341305700Y-39433100D02*
X341221200Y-39348600D01*
X341200900Y-63584000D02*
X341200900Y-57082000D01*
X341200900Y-57082000D02*
X341200800Y-57082000D01*
X339370000Y-83578000D02*
X339221700Y-83429700D01*
X339221700Y-83429700D02*
X339221700Y-76806200D01*
X339221700Y-76806200D02*
X339221600Y-76806200D01*
X335828200Y-101232700D02*
X335828200Y-104415010D01*
X355618500Y-39323700D02*
X355618500Y-41886300D01*
X356102300Y-57365600D02*
X358540300Y-59803600D01*
X358540300Y-59803600D02*
X358540300Y-62294000D01*
X353968300Y-77451400D02*
X358044300Y-81527400D01*
X358930500Y-99536800D02*
X356099800Y-96706100D01*
X373590100Y-39351400D02*
X375534300Y-41295600D01*
X375534300Y-41295600D02*
X377339100Y-41295600D01*
X375140500Y-58147000D02*
X377104200Y-60110700D01*
X373495200Y-77451400D02*
X375493600Y-79449800D01*
X375493600Y-79449800D02*
X377339100Y-79449800D01*
D17*
X378710000Y-55010000D02*
X378710000Y-74420000D01*
X378710000Y-35890000D02*
X378710000Y-55010000D01*
X236000000Y-56630000D02*
X236000000Y-67650000D01*
X236000000Y-67650000D02*
X241770000Y-73420000D01*
X241770000Y-73420000D02*
X244180000Y-73420000D01*
X244180000Y-73420000D02*
X246260000Y-75500000D01*
X187950000Y-75480000D02*
X188210000Y-75740000D01*
X188210000Y-75740000D02*
X188210000Y-85510000D01*
X188210000Y-85510000D02*
X196790000Y-94090000D01*
X196790000Y-94090000D02*
X197810000Y-94090000D01*
X273840000Y-56100000D02*
X273840000Y-70280000D01*
X273840000Y-70280000D02*
X277310000Y-73750000D01*
X277310000Y-73750000D02*
X287780000Y-73750000D01*
X269220000Y-35890000D02*
X269220000Y-51010000D01*
X269220000Y-51010000D02*
X273840000Y-55630000D01*
X273840000Y-55630000D02*
X273840000Y-56100000D01*
X168780000Y-74810000D02*
X169880000Y-74810000D01*
X169880000Y-74810000D02*
X170090000Y-75020000D01*
X159820000Y-56660000D02*
X159820000Y-71760000D01*
X159820000Y-71760000D02*
X162870000Y-74810000D01*
X162870000Y-74810000D02*
X168780000Y-74810000D01*
X66030000Y-92260000D02*
X76610000Y-92260000D01*
X76610000Y-92260000D02*
X77670000Y-93320000D01*
X65690000Y-92260000D02*
X66030000Y-92260000D01*
X62400000Y-74460000D02*
X62400000Y-88970000D01*
X62400000Y-88970000D02*
X65690000Y-92260000D01*
X66030000Y-92260000D02*
X65690000Y-92260000D01*
X54500000Y-35890000D02*
X56590000Y-35890000D01*
X26768800Y-74708800D02*
X26768800Y-98562000D01*
X26768800Y-98562000D02*
X28218800Y-100012000D01*
X57170000Y-56350000D02*
X57170000Y-68220000D01*
X57170000Y-68220000D02*
X62400000Y-73450000D01*
X62400000Y-73450000D02*
X62400000Y-74460000D01*
X54500000Y-35890000D02*
X54500000Y-53680000D01*
X54500000Y-53680000D02*
X57170000Y-56350000D01*
X56620000Y-35890000D02*
X78360000Y-35890000D01*
X56590000Y-35890000D02*
X56620000Y-35890000D01*
X83600000Y-56540000D02*
X83600000Y-68210000D01*
X83600000Y-68210000D02*
X90660000Y-75270000D01*
X90660000Y-75270000D02*
X93230000Y-75270000D01*
X78360000Y-35890000D02*
X78360000Y-51300000D01*
X78360000Y-51300000D02*
X83600000Y-56540000D01*
X93230000Y-75270000D02*
X93230000Y-90450000D01*
X93230000Y-90450000D02*
X96180000Y-93400000D01*
X96180000Y-93400000D02*
X98990000Y-93400000D01*
X98990000Y-93400000D02*
X99010000Y-93380000D01*
X99010000Y-93380000D02*
X101140000Y-93380000D01*
X102720000Y-56140000D02*
X102720000Y-69190000D01*
X102720000Y-69190000D02*
X108730000Y-75200000D01*
X108730000Y-75200000D02*
X113200000Y-75200000D01*
X97150000Y-35890000D02*
X97150000Y-50570000D01*
X97150000Y-50570000D02*
X102720000Y-56140000D01*
X121770000Y-56300000D02*
X121770000Y-67750000D01*
X121770000Y-67750000D02*
X128640000Y-74620000D01*
X128640000Y-74620000D02*
X130040000Y-74620000D01*
X116410000Y-35890000D02*
X116410000Y-53000000D01*
X116410000Y-53000000D02*
X119700000Y-56290000D01*
X119700000Y-56290000D02*
X121760000Y-56290000D01*
X121760000Y-56290000D02*
X121770000Y-56300000D01*
X130040000Y-74620000D02*
X131180000Y-74620000D01*
X154490000Y-35890000D02*
X154490000Y-51270000D01*
X154490000Y-51270000D02*
X159850000Y-56630000D01*
X159850000Y-56630000D02*
X159820000Y-56660000D01*
X198140000Y-55850000D02*
X198140000Y-67520000D01*
X198140000Y-67520000D02*
X205960000Y-75340000D01*
X192670000Y-35890000D02*
X192670000Y-49870000D01*
X192670000Y-49870000D02*
X198140000Y-55340000D01*
X198140000Y-55340000D02*
X198140000Y-55850000D01*
X226320000Y-74930000D02*
X226390000Y-75000000D01*
X226390000Y-75000000D02*
X226390000Y-89600000D01*
X226390000Y-89600000D02*
X231010000Y-94220000D01*
X231010000Y-94220000D02*
X237220000Y-94220000D01*
X217130000Y-56120000D02*
X217130000Y-68030000D01*
X217130000Y-68030000D02*
X224030000Y-74930000D01*
X224030000Y-74930000D02*
X226320000Y-74930000D01*
X211600000Y-35890000D02*
X211600000Y-50590000D01*
X211600000Y-50590000D02*
X217130000Y-56120000D01*
X214180000Y-35890000D02*
X214330000Y-35890000D01*
X211600000Y-35890000D02*
X214180000Y-35890000D01*
X255330000Y-55510000D02*
X255330000Y-65810500D01*
X255330000Y-65810500D02*
X264340000Y-74820500D01*
X250040000Y-35890000D02*
X250040000Y-50870000D01*
X250040000Y-50870000D02*
X251570000Y-50870000D01*
X251570000Y-50870000D02*
X255330000Y-54630000D01*
X255330000Y-54630000D02*
X255330000Y-55510000D01*
X270400000Y-35890000D02*
X289620000Y-35890000D01*
X269220000Y-35890000D02*
X270400000Y-35890000D01*
X287780000Y-73750000D02*
X290200000Y-73750000D01*
X305000000Y-56180000D02*
X305000000Y-69210000D01*
X305000000Y-69210000D02*
X315920000Y-80130000D01*
X311290000Y-35890000D02*
X311290000Y-49890000D01*
X311290000Y-49890000D02*
X305000000Y-56180000D01*
X315920000Y-80130000D02*
X315920000Y-97510000D01*
X315920000Y-97510000D02*
X317160000Y-98750000D01*
X312810000Y-35890000D02*
X312880000Y-35890000D01*
X311290000Y-35890000D02*
X312810000Y-35890000D01*
X340340000Y-54720000D02*
X340340000Y-74360000D01*
X340340000Y-35890000D02*
X340340000Y-54720000D01*
X361740000Y-35890000D02*
X378710000Y-35890000D01*
X359590000Y-35890000D02*
X361740000Y-35890000D01*
X359590000Y-55310000D02*
X359590000Y-74060000D01*
X359590000Y-35890000D02*
X359590000Y-55310000D01*
X273840000Y-56100000D02*
X275400000Y-56100000D01*
X275400000Y-56100000D02*
X275480000Y-56180000D01*
X26768800Y-74708800D02*
X29961200Y-74708800D01*
X28218800Y-100012000D02*
X26768800Y-101462000D01*
X26768800Y-101462000D02*
X26768800Y-105699000D01*
X26768800Y-105699000D02*
X29790000Y-108720000D01*
X65690000Y-92260000D02*
X58130000Y-92260000D01*
X58130000Y-92260000D02*
X57740000Y-92650000D01*
X57170000Y-56350000D02*
X58590000Y-56350000D01*
X62400000Y-74460000D02*
X63980000Y-74460000D01*
X56590000Y-35890000D02*
X56620000Y-35890000D01*
X56620000Y-35890000D02*
X56650000Y-35860000D01*
X83600000Y-56540000D02*
X85060000Y-56540000D01*
X93230000Y-75270000D02*
X94560000Y-75270000D01*
X78360000Y-35890000D02*
X80510000Y-35890000D01*
X80510000Y-35890000D02*
X97150000Y-35890000D01*
X80510000Y-35890000D02*
X80500000Y-35900000D01*
X102720000Y-56140000D02*
X104230000Y-56140000D01*
X97150000Y-35890000D02*
X99290000Y-35890000D01*
X99290000Y-35890000D02*
X116410000Y-35890000D01*
X99290000Y-35890000D02*
X99360000Y-35820000D01*
X121770000Y-56300000D02*
X123320000Y-56300000D01*
X130040000Y-74620000D02*
X130040000Y-93450000D01*
X130040000Y-93450000D02*
X130830000Y-94240000D01*
X130830000Y-94240000D02*
X131560000Y-94240000D01*
X116410000Y-35890000D02*
X118580000Y-35890000D01*
X118580000Y-35890000D02*
X135440000Y-35890000D01*
X135440000Y-35890000D02*
X135440000Y-51100000D01*
X135440000Y-51100000D02*
X140120000Y-55780000D01*
X140120000Y-55780000D02*
X140270000Y-55780000D01*
X140270000Y-55780000D02*
X140270000Y-70970000D01*
X140270000Y-70970000D02*
X144190000Y-74890000D01*
X144190000Y-74890000D02*
X149270000Y-74890000D01*
X140270000Y-55780000D02*
X141850000Y-55780000D01*
X135440000Y-35890000D02*
X138270000Y-35890000D01*
X138270000Y-35890000D02*
X154490000Y-35890000D01*
X138270000Y-35890000D02*
X138250000Y-35870000D01*
X159820000Y-56660000D02*
X161260000Y-56660000D01*
X168780000Y-74810000D02*
X168780000Y-93340000D01*
X168780000Y-93340000D02*
X170000000Y-94560000D01*
X154490000Y-35890000D02*
X157420000Y-35890000D01*
X157420000Y-35890000D02*
X173940000Y-35890000D01*
X157420000Y-35890000D02*
X157410000Y-35880000D01*
X179280000Y-56130000D02*
X180320000Y-56130000D01*
X187950000Y-75480000D02*
X189330000Y-75480000D01*
X189330000Y-75480000D02*
X189370000Y-75440000D01*
X179280000Y-56130000D02*
X179280000Y-61144500D01*
X179280000Y-61144500D02*
X179208000Y-61216500D01*
X179208000Y-61216500D02*
X179208000Y-69608000D01*
X179208000Y-69608000D02*
X185080000Y-75480000D01*
X185080000Y-75480000D02*
X187950000Y-75480000D01*
X173940000Y-35890000D02*
X173940000Y-50790000D01*
X173940000Y-50790000D02*
X179280000Y-56130000D01*
X173940000Y-35890000D02*
X176380000Y-35890000D01*
X176380000Y-35890000D02*
X192670000Y-35890000D01*
X176380000Y-35890000D02*
X176390000Y-35900000D01*
X198140000Y-55850000D02*
X199570000Y-55850000D01*
X205960000Y-75340000D02*
X208440000Y-75340000D01*
X216900000Y-94260000D02*
X216900000Y-94056500D01*
X205960000Y-75340000D02*
X205960000Y-83116500D01*
X205960000Y-83116500D02*
X216900000Y-94056500D01*
X192670000Y-35890000D02*
X194690000Y-35890000D01*
X194690000Y-35890000D02*
X211600000Y-35890000D01*
X194690000Y-35890000D02*
X194730000Y-35930000D01*
X226320000Y-74930000D02*
X228270000Y-74930000D01*
X217130000Y-56120000D02*
X218770000Y-56120000D01*
X214180000Y-35890000D02*
X214330000Y-35890000D01*
X214330000Y-35890000D02*
X230630000Y-35890000D01*
X214180000Y-35890000D02*
X214110000Y-35960000D01*
X236000000Y-56630000D02*
X237340000Y-56630000D01*
X237340000Y-56630000D02*
X237450000Y-56520000D01*
X246260000Y-75500000D02*
X247020000Y-75500000D01*
X246260000Y-75500000D02*
X246260000Y-79888500D01*
X246260000Y-79888500D02*
X245882000Y-80266500D01*
X245882000Y-80266500D02*
X245882000Y-86122000D01*
X245882000Y-86122000D02*
X254210000Y-94450000D01*
X254210000Y-94450000D02*
X255570000Y-94450000D01*
X230630000Y-35890000D02*
X232450000Y-35890000D01*
X230630000Y-35890000D02*
X230630000Y-51240000D01*
X230630000Y-51240000D02*
X234570000Y-55180000D01*
X234570000Y-55180000D02*
X234570000Y-55200000D01*
X234570000Y-55200000D02*
X236000000Y-56630000D01*
X232450000Y-35890000D02*
X250040000Y-35890000D01*
X232450000Y-35890000D02*
X232420000Y-35920000D01*
X255330000Y-55510000D02*
X257030000Y-55510000D01*
X264340000Y-74820500D02*
X266111000Y-74820500D01*
X264340000Y-74820500D02*
X264340000Y-87600000D01*
X264340000Y-87600000D02*
X269930000Y-93190000D01*
X269930000Y-93190000D02*
X275470000Y-93190000D01*
X250040000Y-35890000D02*
X252140000Y-35890000D01*
X252140000Y-35890000D02*
X269220000Y-35890000D01*
X252140000Y-35890000D02*
X252050000Y-35980000D01*
X270400000Y-35890000D02*
X270500000Y-35990000D01*
X287780000Y-73750000D02*
X287780000Y-89530000D01*
X287780000Y-89530000D02*
X297300000Y-99050000D01*
X297300000Y-99050000D02*
X297940000Y-99050000D01*
X289620000Y-35890000D02*
X311290000Y-35890000D01*
X289620000Y-35890000D02*
X289530000Y-35980000D01*
X305000000Y-56180000D02*
X306770000Y-56180000D01*
X315920000Y-80130000D02*
X318130000Y-80130000D01*
X312880000Y-35890000D02*
X340340000Y-35890000D01*
X312880000Y-35890000D02*
X312810000Y-35890000D01*
X312810000Y-35890000D02*
X312780000Y-35860000D01*
X340340000Y-54720000D02*
X342780000Y-54720000D01*
X340340000Y-74360000D02*
X340340000Y-96300000D01*
X340340000Y-74360000D02*
X342350000Y-74360000D01*
X340340000Y-35890000D02*
X342120000Y-35890000D01*
X342120000Y-35890000D02*
X359590000Y-35890000D01*
X342120000Y-35890000D02*
X342030000Y-35980000D01*
X361740000Y-35890000D02*
X361780000Y-35850000D01*
X359590000Y-55310000D02*
X361750000Y-55310000D01*
X359590000Y-74060000D02*
X361230000Y-74060000D01*
X361230000Y-74060000D02*
X361410000Y-74240000D01*
X361410000Y-74240000D02*
X361490000Y-74240000D01*
X359590000Y-74060000D02*
X359590000Y-93930000D01*
X378710000Y-55010000D02*
X381890000Y-55010000D01*
X381890000Y-55010000D02*
X381920000Y-54980000D01*
X378710000Y-74420000D02*
X378710000Y-93810000D01*
X378710000Y-74420000D02*
X380420000Y-74420000D01*
X378710000Y-35890000D02*
X379950000Y-35890000D01*
X43282400Y-38068200D02*
X45460600Y-35890000D01*
X45460600Y-35890000D02*
X54500000Y-35890000D01*
X39380000Y-65960000D02*
X36321810Y-65960000D01*
D16*
X26975399Y-34075201D02*
X26975399Y-39521199D01*
X26975399Y-39521199D02*
X28062400Y-40608200D01*
X28062400Y-32988200D02*
X26975399Y-34075201D01*
D17*
X28440000Y-65970000D02*
X28440000Y-73037600D01*
X28440000Y-73037600D02*
X26768800Y-74708800D01*
D16*
X23862500Y-45243800D02*
X24937600Y-45243800D01*
X43282400Y-32988200D02*
X34392400Y-41878200D01*
X34392400Y-41878200D02*
X27778900Y-41878200D01*
X27778900Y-41878200D02*
X24937600Y-44719500D01*
X24937600Y-44719500D02*
X24937600Y-45243800D01*
X40456500Y-75578500D02*
X38322400Y-77712600D01*
X38322400Y-77712600D02*
X38322400Y-81647300D01*
X38322400Y-81647300D02*
X35163600Y-84806100D01*
X35163600Y-84806100D02*
X35163600Y-86722800D01*
X35163600Y-86722800D02*
X31237700Y-90648700D01*
X31237700Y-90648700D02*
X31237700Y-111122300D01*
X46744300Y-94546100D02*
X53702200Y-94546100D01*
X63784900Y-88162300D02*
X63784900Y-82945500D01*
X63784900Y-82945500D02*
X65203300Y-81527100D01*
X65203300Y-81527100D02*
X65203300Y-77979600D01*
X65203300Y-77979600D02*
X64405700Y-77182000D01*
X59642400Y-57899500D02*
X61046800Y-59303900D01*
X61046800Y-59303900D02*
X61046800Y-63632900D01*
X61046800Y-63632900D02*
X66774300Y-69360400D01*
X66774300Y-69360400D02*
X66774300Y-74223900D01*
X70501800Y-55951900D02*
X70501800Y-55318000D01*
X70501800Y-55318000D02*
X59587300Y-44403500D01*
X59587300Y-44403500D02*
X59587300Y-41150600D01*
X59587300Y-41150600D02*
X57258400Y-38821700D01*
X67422500Y-37476100D02*
X77458800Y-37476100D01*
X90396500Y-38296100D02*
X88160200Y-40532400D01*
X88160200Y-40532400D02*
X88160200Y-43730700D01*
X88160200Y-43730700D02*
X85817000Y-46073900D01*
X85817000Y-46073900D02*
X85817000Y-57424300D01*
X95140400Y-56710500D02*
X92368100Y-59482800D01*
X92368100Y-59482800D02*
X89571100Y-59482800D01*
X89571100Y-59482800D02*
X88151800Y-60902100D01*
X88151800Y-60902100D02*
X88151800Y-63541300D01*
X88151800Y-63541300D02*
X95285200Y-70674700D01*
X95285200Y-70674700D02*
X95285200Y-76123500D01*
X105295400Y-77661000D02*
X104831200Y-78125200D01*
X104831200Y-78125200D02*
X97513600Y-78125200D01*
X97513600Y-78125200D02*
X96236700Y-79402100D01*
X113990600Y-77646300D02*
X110528500Y-81108400D01*
X110528500Y-81108400D02*
X110528500Y-92946000D01*
X107212800Y-60171800D02*
X104870100Y-57829100D01*
X107212800Y-62875600D02*
X107212800Y-60171800D01*
X117987200Y-73650000D02*
X107212800Y-62875600D01*
X121806900Y-73650000D02*
X117987200Y-73650000D01*
X123735400Y-75578500D02*
X121806900Y-73650000D01*
X114450000Y-56400000D02*
X112470000Y-54420000D01*
X100117100Y-38641600D02*
X102449800Y-40974300D01*
X102449800Y-45539590D02*
X109495200Y-52584990D01*
X102449800Y-40974300D02*
X102449800Y-45539590D01*
X111445000Y-54420000D02*
X111060000Y-54035000D01*
X112470000Y-54420000D02*
X111445000Y-54420000D01*
X123920800Y-57076000D02*
X123920800Y-57154200D01*
X130510000Y-50486800D02*
X123920800Y-57076000D01*
X130510000Y-40206200D02*
X130510000Y-50486800D01*
X129649800Y-39346000D02*
X130510000Y-40206200D01*
X135040200Y-58395000D02*
X135040200Y-73958400D01*
X135040200Y-73958400D02*
X133457100Y-75541500D01*
X143229500Y-76840300D02*
X144522600Y-78133400D01*
X144522600Y-78133400D02*
X144522600Y-84761400D01*
X144522600Y-84761400D02*
X133457000Y-95827000D01*
X143640400Y-94068700D02*
X150115700Y-87593400D01*
X150115700Y-87593400D02*
X150115700Y-79156500D01*
X150115700Y-79156500D02*
X151629800Y-77642400D01*
X142961700Y-57441900D02*
X144391000Y-58871200D01*
X144391000Y-58871200D02*
X144391000Y-61996685D01*
X155444315Y-73050000D02*
X156070000Y-73050000D01*
X144391000Y-61996685D02*
X155444315Y-73050000D01*
X138222600Y-38227800D02*
X140549800Y-40555000D01*
X140549800Y-40555000D02*
X140549800Y-44658200D01*
X140549800Y-44658200D02*
X152291600Y-56400000D01*
X167788300Y-39347100D02*
X168386800Y-39945600D01*
X168386800Y-39945600D02*
X168386800Y-50645800D01*
X168386800Y-50645800D02*
X161132700Y-57899900D01*
X161132700Y-57899900D02*
X160923700Y-57899900D01*
X172569900Y-58388700D02*
X169291600Y-61667000D01*
X169291600Y-61667000D02*
X169291600Y-62597300D01*
X169291600Y-62597300D02*
X168670500Y-63218400D01*
X168670500Y-63218400D02*
X168670500Y-70100800D01*
X168670500Y-70100800D02*
X171560100Y-72990400D01*
X171560100Y-72990400D02*
X171560100Y-75906600D01*
X182630000Y-77662200D02*
X182630000Y-84385100D01*
X182630000Y-84385100D02*
X171543300Y-95471800D01*
X190602400Y-77051200D02*
X192015000Y-78463800D01*
X192015000Y-78463800D02*
X192015000Y-81006800D01*
X192015000Y-81006800D02*
X200293800Y-89285600D01*
X200293800Y-89285600D02*
X203231500Y-89285600D01*
X191814100Y-73944100D02*
X197407600Y-73944100D01*
X181065200Y-60587499D02*
X181294001Y-60587499D01*
X181294001Y-60587499D02*
X181983001Y-61276499D01*
X181983001Y-61276499D02*
X181983001Y-62548501D01*
X181983001Y-62548501D02*
X181294001Y-63237501D01*
X184074001Y-65167499D02*
X185023001Y-66116499D01*
X181294001Y-63237501D02*
X181107501Y-63237501D01*
X185023001Y-66116499D02*
X185023001Y-67153001D01*
X181107501Y-63237501D02*
X183037499Y-65167499D01*
X183037499Y-65167499D02*
X184074001Y-65167499D01*
X181065200Y-58404500D02*
X181065200Y-60587499D01*
X188279999Y-71245465D02*
X188330000Y-71295466D01*
X188279999Y-70410001D02*
X188279999Y-71245465D01*
X185023001Y-67153001D02*
X188279999Y-70410001D01*
X188330000Y-71295466D02*
X188330000Y-72740000D01*
X189534100Y-73944100D02*
X191814100Y-73944100D01*
X188330000Y-72740000D02*
X189534100Y-73944100D01*
X176275900Y-39330700D02*
X178649800Y-41704600D01*
X178649800Y-41704600D02*
X178649800Y-44607700D01*
X178649800Y-44607700D02*
X190404300Y-56362200D01*
X206023500Y-36877800D02*
X207077800Y-36877800D01*
X207077800Y-36877800D02*
X209544400Y-39344400D01*
X209544400Y-39344400D02*
X209544400Y-47741600D01*
X209544400Y-47741600D02*
X200164100Y-57121900D01*
X209657500Y-76191200D02*
X209657500Y-74068800D01*
X209657500Y-74068800D02*
X206746600Y-71157900D01*
X206746600Y-71157900D02*
X206746600Y-63257300D01*
X206746600Y-63257300D02*
X208542800Y-61461100D01*
X208542800Y-61461100D02*
X208542800Y-58692000D01*
X208542800Y-58692000D02*
X209449600Y-57785200D01*
X221174000Y-77624000D02*
X221980200Y-78430200D01*
X221980200Y-78430200D02*
X221980200Y-82240600D01*
X221980200Y-82240600D02*
X218610500Y-85610300D01*
X218610500Y-85610300D02*
X218314000Y-85610300D01*
X239722500Y-88468100D02*
X237500000Y-88468100D01*
X237500000Y-88468100D02*
X230115000Y-81083100D01*
X230115000Y-81083100D02*
X230115000Y-78467400D01*
X230115000Y-78467400D02*
X228708800Y-77061200D01*
X219183100Y-58374400D02*
X220591000Y-59782300D01*
X220591000Y-59782300D02*
X220591000Y-61953800D01*
X220591000Y-61953800D02*
X231733700Y-73096500D01*
X231733700Y-73096500D02*
X234068200Y-73096500D01*
X220776900Y-45857400D02*
X218727900Y-45857400D01*
X218727900Y-45857400D02*
X216749800Y-43879300D01*
X216749800Y-43879300D02*
X216749800Y-41656500D01*
X216749800Y-41656500D02*
X214396600Y-39303300D01*
X238180890Y-46095010D02*
X237571300Y-46095010D01*
X240728600Y-43547300D02*
X238180890Y-46095010D01*
X242596400Y-38757300D02*
X240728600Y-40625100D01*
X240728600Y-40625100D02*
X240728600Y-43547300D01*
X247745200Y-76357000D02*
X247745200Y-72889100D01*
X247745200Y-72889100D02*
X244872800Y-70016700D01*
X244872800Y-70016700D02*
X244872800Y-63216100D01*
X244872800Y-63216100D02*
X245491600Y-62597300D01*
X245491600Y-62597300D02*
X245491600Y-58482300D01*
X245491600Y-58482300D02*
X247573900Y-56400000D01*
X257089200Y-76942100D02*
X254847200Y-79184100D01*
X254847200Y-79184100D02*
X254847200Y-81830700D01*
X254847200Y-81830700D02*
X254393400Y-82284500D01*
X254393400Y-82284500D02*
X254393400Y-87949200D01*
X254393400Y-87949200D02*
X256506300Y-90062100D01*
X256506300Y-90062100D02*
X256506300Y-96081000D01*
X266811100Y-77534500D02*
X267913900Y-78637300D01*
X267913900Y-78637300D02*
X277640700Y-78637300D01*
X277640700Y-78637300D02*
X278843700Y-79840300D01*
X271271500Y-73760000D02*
X272075800Y-72955700D01*
X265540000Y-73760000D02*
X271271500Y-73760000D01*
X261904500Y-70124500D02*
X265540000Y-73760000D01*
X261904500Y-66846300D02*
X261904500Y-70124500D01*
X258691000Y-63632800D02*
X261904500Y-66846300D01*
X258691000Y-59263900D02*
X258691000Y-63632800D01*
X257278000Y-57850900D02*
X258691000Y-59263900D01*
X264154000Y-42224900D02*
X262466400Y-40537300D01*
X262466400Y-40537300D02*
X254747200Y-40537300D01*
X254747200Y-40537300D02*
X252511300Y-38301400D01*
X280898300Y-37981700D02*
X278660200Y-40219800D01*
X278660200Y-40219800D02*
X278660200Y-43730700D01*
X278660200Y-43730700D02*
X277665100Y-44725800D01*
X277665100Y-44725800D02*
X277665100Y-55485400D01*
X277665100Y-55485400D02*
X275931700Y-57218800D01*
X286512100Y-58390500D02*
X288794200Y-60672600D01*
X288794200Y-60672600D02*
X289224600Y-60672600D01*
X299935500Y-77504600D02*
X299029800Y-78410300D01*
X299029800Y-78410300D02*
X299029800Y-80511000D01*
X299029800Y-80511000D02*
X295509400Y-84031400D01*
X316929200Y-87350500D02*
X316929200Y-83833800D01*
X316929200Y-83833800D02*
X318251800Y-82511200D01*
X326313200Y-79198900D02*
X325897100Y-79198900D01*
X325897100Y-79198900D02*
X307082000Y-60383800D01*
X307082000Y-60383800D02*
X307082000Y-58401000D01*
X290624800Y-38144700D02*
X292027900Y-39547800D01*
X292027900Y-39547800D02*
X292027900Y-42903700D01*
X292027900Y-42903700D02*
X295154500Y-46030300D01*
X295154500Y-46030300D02*
X296403900Y-46030300D01*
X352950800Y-38772400D02*
X354067200Y-39888800D01*
X354067200Y-39888800D02*
X354067200Y-46646600D01*
X354067200Y-46646600D02*
X342992600Y-57721200D01*
X352950800Y-58096900D02*
X350265600Y-60782100D01*
X350265600Y-60782100D02*
X350265600Y-62597300D01*
X350265600Y-62597300D02*
X349155600Y-63707300D01*
X349155600Y-63707300D02*
X349155600Y-69734700D01*
X349155600Y-69734700D02*
X342984300Y-75906000D01*
X334631300Y-79669500D02*
X336333700Y-79669500D01*
X336333700Y-79669500D02*
X338292100Y-81627900D01*
X362046700Y-76350000D02*
X363137540Y-77440840D01*
X363137540Y-77440840D02*
X363137540Y-81732860D01*
X367578600Y-65511500D02*
X367022800Y-65511500D01*
X367022800Y-65511500D02*
X363465000Y-61953700D01*
X363465000Y-61953700D02*
X363465000Y-58588200D01*
X363465000Y-58588200D02*
X362083700Y-57206900D01*
X366959400Y-46040800D02*
X366567100Y-46040800D01*
X366567100Y-46040800D02*
X364386800Y-43860500D01*
X364386800Y-43860500D02*
X364386800Y-41197900D01*
X364386800Y-41197900D02*
X362038900Y-38850000D01*
X388367700Y-62610200D02*
X386275400Y-64702500D01*
X386275400Y-64702500D02*
X385412000Y-64702500D01*
X388802000Y-80298900D02*
X388802000Y-81260900D01*
X388802000Y-81260900D02*
X386103800Y-83959100D01*
X386103800Y-83959100D02*
X386103800Y-89645000D01*
X386103800Y-89645000D02*
X381055300Y-94693500D01*
X34448800Y-69056200D02*
X32676000Y-67283400D01*
X32676000Y-67283400D02*
X32676000Y-65083900D01*
X31908800Y-69056200D02*
X31908800Y-67799000D01*
X31908800Y-67799000D02*
X29205800Y-65096000D01*
X249849300Y-99441300D02*
X249849300Y-98387600D01*
X249849300Y-98387600D02*
X240447600Y-88985900D01*
X240447600Y-88985900D02*
X240447600Y-85809500D01*
X240447600Y-85809500D02*
X240295700Y-85657600D01*
X225446400Y-48844800D02*
X232716200Y-56114600D01*
X232716200Y-56114600D02*
X232716200Y-67725800D01*
X232716200Y-67725800D02*
X240295700Y-75305300D01*
X240295700Y-75305300D02*
X240295700Y-85657600D01*
X244255500Y-109806900D02*
X55013700Y-109806900D01*
X55013700Y-109806900D02*
X42718800Y-97512000D01*
X28062400Y-63468200D02*
X32136700Y-63468200D01*
X32136700Y-63468200D02*
X33972800Y-65304300D01*
X33972800Y-65304300D02*
X33972800Y-65940800D01*
X33972800Y-65940800D02*
X35517200Y-67485200D01*
X35517200Y-67485200D02*
X35517200Y-70846900D01*
X35517200Y-70846900D02*
X28218800Y-78145300D01*
X28218800Y-78145300D02*
X28218800Y-97512000D01*
X71643300Y-99269600D02*
X81730500Y-109356800D01*
X81730500Y-109356800D02*
X243043600Y-109356800D01*
X243043600Y-109356800D02*
X249418600Y-102981800D01*
X249418600Y-102981800D02*
X262297800Y-102981800D01*
X262297800Y-102981800D02*
X265185200Y-100094400D01*
X265185200Y-100094400D02*
X265185200Y-99941100D01*
X265185200Y-99941100D02*
X266692500Y-98433800D01*
X71643300Y-99269600D02*
X71643300Y-96700800D01*
X67246800Y-99789400D02*
X71123500Y-99789400D01*
X71123500Y-99789400D02*
X71643300Y-99269600D01*
X75481700Y-79367700D02*
X71609400Y-75495400D01*
X71609400Y-75495400D02*
X71609400Y-60110900D01*
X71609400Y-60110900D02*
X65191800Y-53693300D01*
X65191800Y-53693300D02*
X65191800Y-51074700D01*
X250111900Y-61663200D02*
X258846200Y-70397500D01*
X258846200Y-70397500D02*
X258846200Y-85448600D01*
X258846200Y-85448600D02*
X257105900Y-87188900D01*
X248741100Y-58402700D02*
X250111900Y-59773500D01*
X250111900Y-59773500D02*
X250111900Y-61663200D01*
X268482900Y-98433800D02*
X266692500Y-98433800D01*
X257105900Y-87188900D02*
X257698400Y-87188900D01*
X257698400Y-87188900D02*
X266692500Y-96183000D01*
X266692500Y-96183000D02*
X266692500Y-98433800D01*
X43282400Y-48228200D02*
X51754400Y-48228200D01*
X280855400Y-85606200D02*
X288927900Y-93678700D01*
X288927900Y-93678700D02*
X288927900Y-99789400D01*
X95265200Y-52603000D02*
X97487500Y-54825300D01*
X97487500Y-54825300D02*
X97487500Y-62362000D01*
X97487500Y-62362000D02*
X97487500Y-67085600D01*
X97487500Y-67085600D02*
X109738400Y-79336500D01*
X109738400Y-79336500D02*
X109738400Y-83808000D01*
X51672900Y-50768200D02*
X43282400Y-50768200D01*
X109738400Y-83808000D02*
X109738400Y-85891900D01*
X109738400Y-85891900D02*
X95806300Y-99824000D01*
X95806300Y-99824000D02*
X91040900Y-99824000D01*
X280855400Y-85606200D02*
X280855400Y-79803900D01*
X266124700Y-55357700D02*
X269161300Y-58394300D01*
X280855400Y-79803900D02*
X269161300Y-68109800D01*
X269161300Y-58394300D02*
X269161300Y-60981910D01*
X269161300Y-68109800D02*
X269161300Y-60981910D01*
X290318400Y-61546900D02*
X290318400Y-60723700D01*
X290318400Y-60723700D02*
X287961300Y-58366600D01*
X287961300Y-58366600D02*
X287604500Y-58366600D01*
X126627500Y-80402500D02*
X126627500Y-87996700D01*
X126627500Y-87996700D02*
X114834800Y-99789400D01*
X125650300Y-72844800D02*
X125650300Y-79425300D01*
X125650300Y-79425300D02*
X126627500Y-80402500D01*
X117252500Y-60124400D02*
X117252500Y-64447000D01*
X117252500Y-64447000D02*
X125650300Y-72844800D01*
X53641000Y-53332100D02*
X43306300Y-53332100D01*
X43306300Y-53332100D02*
X43282400Y-53308200D01*
X298413200Y-100020700D02*
X301697100Y-96736800D01*
X301697100Y-96736800D02*
X301697100Y-73265300D01*
X301697100Y-73265300D02*
X290318400Y-61886600D01*
X290318400Y-61886600D02*
X290318400Y-61546900D01*
X311499800Y-104219900D02*
X309725500Y-102445600D01*
X309725500Y-102445600D02*
X300838100Y-102445600D01*
X300838100Y-102445600D02*
X298413200Y-100020700D01*
X103457900Y-53310000D02*
X102624000Y-52476100D01*
X117252500Y-60124400D02*
X117252500Y-57682500D01*
X117252500Y-57682500D02*
X112880000Y-53310000D01*
X112880000Y-53310000D02*
X103457900Y-53310000D01*
X130088700Y-51933500D02*
X138269500Y-60114300D01*
X138269500Y-60114300D02*
X138904900Y-60114300D01*
X53799600Y-55320000D02*
X43810600Y-55320000D01*
X43810600Y-55320000D02*
X43282400Y-55848200D01*
X138904900Y-60114300D02*
X138904900Y-70470700D01*
X138904900Y-70470700D02*
X145786100Y-77351900D01*
X145786100Y-77351900D02*
X145786100Y-80452200D01*
X329464900Y-102974600D02*
X329464900Y-91474300D01*
X329464900Y-91474300D02*
X333594800Y-87344400D01*
X319522000Y-60110500D02*
X312714700Y-53303200D01*
X312714700Y-53303200D02*
X309178700Y-53303200D01*
X145786100Y-93246100D02*
X145880000Y-93340000D01*
X145786100Y-93246100D02*
X145786100Y-98413900D01*
X145786100Y-89266100D02*
X145786100Y-88806100D01*
X145980000Y-89460000D02*
X145786100Y-89266100D01*
X145786100Y-80452200D02*
X145786100Y-88806100D01*
X192310000Y-113740000D02*
X156448700Y-113740000D01*
X329464900Y-102974600D02*
X328803900Y-102974600D01*
X328803900Y-102974600D02*
X327097200Y-104681300D01*
X327097200Y-104681300D02*
X327097200Y-104857400D01*
X324209800Y-107744800D02*
X317674400Y-107744800D01*
X327097200Y-104857400D02*
X324209800Y-107744800D01*
X317674400Y-107744800D02*
X312074500Y-113344700D01*
X156448700Y-113740000D02*
X153485600Y-110776900D01*
X193110800Y-112939200D02*
X192310000Y-113740000D01*
X263619200Y-112939200D02*
X263619200Y-110800800D01*
X263619200Y-112939200D02*
X193110800Y-112939200D01*
X263619200Y-110800800D02*
X264990000Y-109430000D01*
X264990000Y-109430000D02*
X269900000Y-109430000D01*
X271745300Y-111275300D02*
X271745300Y-113344700D01*
X269900000Y-109430000D02*
X271745300Y-111275300D01*
X312074500Y-113344700D02*
X271745300Y-113344700D01*
X333594800Y-75714800D02*
X333594800Y-87344400D01*
X319522000Y-61642000D02*
X333594800Y-75714800D01*
X319522000Y-60110500D02*
X319522000Y-61642000D01*
X308574600Y-48672700D02*
X295169800Y-48672700D01*
X295169800Y-48672700D02*
X284423200Y-59419300D01*
X284423200Y-59419300D02*
X284423200Y-61806900D01*
X284423200Y-61806900D02*
X281405400Y-64824700D01*
X281405400Y-64824700D02*
X281405400Y-65511500D01*
X152270000Y-54286500D02*
X158268000Y-60284500D01*
X158268000Y-60284500D02*
X158268000Y-68658700D01*
X54877300Y-56488600D02*
X52977700Y-58388200D01*
X52977700Y-58388200D02*
X43282400Y-58388200D01*
X162964700Y-79376700D02*
X159237200Y-75649200D01*
X159237200Y-75649200D02*
X159237200Y-69627900D01*
X159237200Y-69627900D02*
X158268000Y-68658700D01*
X350754900Y-95144900D02*
X350754900Y-96581500D01*
X350754900Y-96581500D02*
X355497800Y-101324400D01*
X186387000Y-83502200D02*
X185779100Y-84110100D01*
X185779100Y-84110100D02*
X185779100Y-98831600D01*
X173345800Y-60307600D02*
X173345800Y-66140700D01*
X173345800Y-66140700D02*
X186387000Y-79181900D01*
X186387000Y-79181900D02*
X186387000Y-83502200D01*
X173345800Y-54445800D02*
X173345800Y-60307600D01*
X55853700Y-61705300D02*
X44059500Y-61705300D01*
X44059500Y-61705300D02*
X43282400Y-60928200D01*
X354950600Y-62378800D02*
X355032600Y-62296800D01*
X355032600Y-62296800D02*
X355032600Y-58384400D01*
X350326700Y-70371800D02*
X354950600Y-65747900D01*
X350326700Y-81683500D02*
X350326700Y-70371800D01*
X349310000Y-82700200D02*
X350326700Y-81683500D01*
X349310000Y-93700000D02*
X349310000Y-82700200D01*
X354950600Y-65747900D02*
X354950600Y-62378800D01*
X350754900Y-95144900D02*
X349310000Y-93700000D01*
X334149790Y-109630210D02*
X336529580Y-112010000D01*
X336529580Y-112010000D02*
X342930000Y-112010000D01*
X53428000Y-60110700D02*
X52975500Y-59658200D01*
X52975500Y-59658200D02*
X29332400Y-59658200D01*
X29332400Y-59658200D02*
X28062400Y-58388200D01*
X374646700Y-96652200D02*
X373716200Y-97582700D01*
X373716200Y-97582700D02*
X374576800Y-98443300D01*
X374576800Y-98443300D02*
X374576800Y-99251700D01*
X203978300Y-85540900D02*
X203978300Y-91881200D01*
X203978300Y-91881200D02*
X196690300Y-99169200D01*
X203978300Y-85540900D02*
X204720500Y-85540900D01*
X203978300Y-85540900D02*
X203978300Y-77850500D01*
X203978300Y-77850500D02*
X192738000Y-66610200D01*
X193342600Y-55590300D02*
X193342600Y-66005600D01*
X193342600Y-66005600D02*
X192738000Y-66610200D01*
X374646700Y-96652200D02*
X374646700Y-79873400D01*
X374646700Y-79873400D02*
X372746700Y-77973400D01*
X372746700Y-77973400D02*
X372746700Y-62862300D01*
X372746700Y-62862300D02*
X374332200Y-61276800D01*
X372215600Y-58377000D02*
X372215600Y-59160200D01*
X372215600Y-59160200D02*
X374332200Y-61276800D01*
X361942100Y-97582700D02*
X373716200Y-97582700D01*
X326005000Y-113795700D02*
X332055900Y-107744800D01*
X332055900Y-107744800D02*
X343259800Y-107744800D01*
X357454800Y-102070000D02*
X361942100Y-97582700D01*
X343259800Y-107744800D02*
X346147200Y-104857400D01*
X346147200Y-104681400D02*
X348758600Y-102070000D01*
X348758600Y-102070000D02*
X357454800Y-102070000D01*
X346147200Y-104857400D02*
X346147200Y-104681400D01*
X221295000Y-113687200D02*
X221416217Y-113808417D01*
X264248417Y-113808417D02*
X264248417Y-110807993D01*
X221416217Y-113808417D02*
X264248417Y-113808417D01*
X264248417Y-110807993D02*
X265176400Y-109880010D01*
X265176400Y-109880010D02*
X269713600Y-109880010D01*
X269713600Y-109880010D02*
X271295290Y-111461700D01*
X271295290Y-113531100D02*
X271455700Y-113691510D01*
X271295290Y-111461700D02*
X271295290Y-113531100D01*
X271455700Y-113691510D02*
X271455700Y-113795700D01*
X271455700Y-113795700D02*
X326005000Y-113795700D01*
X212417300Y-96298500D02*
X215370700Y-99251900D01*
X215370700Y-99251900D02*
X216832900Y-99251900D01*
X217383800Y-95027600D02*
X213237800Y-95027600D01*
X213237800Y-95027600D02*
X212417300Y-95848100D01*
X212417300Y-95848100D02*
X212417300Y-96298500D01*
X210858700Y-58384500D02*
X212070500Y-59596300D01*
X212070500Y-59596300D02*
X212070500Y-62384900D01*
X217383800Y-95027600D02*
X222430300Y-89981100D01*
X222430300Y-89981100D02*
X222430300Y-78018900D01*
X222430300Y-78018900D02*
X221980200Y-77568800D01*
X221980200Y-77568800D02*
X221980200Y-75461600D01*
X221980200Y-75461600D02*
X212070600Y-65552000D01*
X212070600Y-65552000D02*
X212070600Y-62384900D01*
X212070600Y-62384900D02*
X212070500Y-62384900D01*
X90142600Y-99953100D02*
X90142600Y-99846300D01*
X90142600Y-99846300D02*
X87879000Y-97582700D01*
X87879000Y-97582700D02*
X78985702Y-97582700D01*
X40965700Y-66453700D02*
X35440200Y-60928200D01*
X99096200Y-108906700D02*
X90142600Y-99953100D01*
X75838001Y-94434999D02*
X64240687Y-94434999D01*
X57396190Y-97009476D02*
X57396190Y-96925490D01*
X43538900Y-71618500D02*
X40965700Y-69045300D01*
X57396190Y-96925490D02*
X43538900Y-83068200D01*
X57621724Y-97235010D02*
X57396190Y-97009476D01*
X64240687Y-94434999D02*
X61440676Y-97235010D01*
X78985702Y-97582700D02*
X75838001Y-94434999D01*
X43538900Y-83068200D02*
X43538900Y-71618500D01*
X212417300Y-96298500D02*
X211133100Y-97582700D01*
X61440676Y-97235010D02*
X57621724Y-97235010D01*
X188852298Y-108906700D02*
X99096200Y-108906700D01*
X35440200Y-60928200D02*
X28062400Y-60928200D01*
X200176298Y-97582700D02*
X188852298Y-108906700D01*
X211133100Y-97582700D02*
X200176298Y-97582700D01*
X40965700Y-69045300D02*
X40965700Y-66453700D01*
X23812500Y-60400000D02*
X25893700Y-58318800D01*
X25893700Y-58318800D02*
X25893700Y-51391700D01*
X25893700Y-51391700D02*
X27787200Y-49498200D01*
X27787200Y-49498200D02*
X34392400Y-49498200D01*
X34392400Y-49498200D02*
X43282400Y-40608200D01*
M02*
