M48
; DRILL file {KiCad (5.1.12)-1} date 11/11/23 22:01:02
; FORMAT={-:-/ absolute / metric / decimal}
; #@! TF.CreationDate,2023-11-11T22:01:02+09:00
; #@! TF.GenerationSoftware,Kicad,Pcbnew,(5.1.12)-1
; #@! TF.FileFunction,NonPlated,1,2,NPTH
FMAT,2
METRIC
T1C1.800
T2C2.000
T3C3.000
T4C3.050
T5C4.000
%
G90
G05
T1
X63.976Y-80.962
X74.136Y-80.962
X133.032Y-100.012
X143.192Y-100.012
X171.132Y-100.012
X181.292Y-100.012
X306.864Y-61.912
X317.024Y-61.912
T2
X30.639Y-80.962
X40.799Y-80.962
X54.451Y-100.012
X56.832Y-42.862
X59.214Y-61.912
X64.611Y-100.012
X66.992Y-42.862
X69.374Y-61.912
X78.264Y-100.012
X80.645Y-42.862
X85.407Y-61.912
X88.424Y-100.012
X90.805Y-42.862
X94.932Y-80.962
X95.567Y-61.912
X99.695Y-42.862
X102.076Y-100.012
X104.458Y-61.912
X105.092Y-80.962
X109.855Y-42.862
X112.236Y-100.012
X113.982Y-80.962
X114.618Y-61.912
X118.745Y-42.862
X123.508Y-61.912
X124.142Y-80.962
X128.905Y-42.862
X133.032Y-80.962
X133.668Y-61.912
X137.795Y-42.862
X142.558Y-61.912
X143.192Y-80.962
X147.955Y-42.862
X152.082Y-80.962
X152.718Y-61.912
X156.845Y-42.862
X161.608Y-61.912
X162.242Y-80.962
X167.005Y-42.862
X171.132Y-80.962
X171.768Y-61.912
X175.895Y-42.862
X180.658Y-61.912
X181.292Y-80.962
X186.055Y-42.862
X190.182Y-80.962
X190.818Y-61.912
X194.945Y-42.862
X199.708Y-61.912
X199.708Y-100.012
X200.342Y-80.962
X205.105Y-42.862
X209.232Y-80.962
X209.868Y-61.912
X209.868Y-100.012
X213.995Y-42.862
X218.758Y-61.912
X218.758Y-100.012
X219.392Y-80.962
X224.155Y-42.862
X228.282Y-80.962
X228.918Y-61.912
X228.918Y-100.012
X233.045Y-42.862
X237.808Y-61.912
X237.808Y-100.012
X238.442Y-80.962
X243.205Y-42.862
X247.332Y-80.962
X247.968Y-61.912
X247.968Y-100.012
X252.095Y-42.862
X256.858Y-61.912
X256.858Y-100.012
X257.492Y-80.962
X262.255Y-42.862
X266.382Y-80.962
X267.018Y-61.912
X267.018Y-100.012
X271.145Y-42.862
X275.908Y-61.912
X275.908Y-100.012
X276.542Y-80.962
X281.305Y-42.862
X286.068Y-61.912
X286.068Y-100.012
X290.195Y-42.862
X290.195Y-80.962
X299.72Y-104.775
X300.355Y-42.862
X300.355Y-80.962
X309.88Y-104.775
X314.008Y-42.862
X318.77Y-85.725
X318.77Y-104.775
X324.168Y-42.862
X328.93Y-85.725
X328.93Y-104.775
X337.82Y-104.775
X342.582Y-42.862
X342.582Y-61.912
X342.582Y-80.962
X347.98Y-104.775
X352.742Y-42.862
X352.742Y-61.912
X352.742Y-80.962
X361.632Y-42.862
X361.632Y-61.912
X361.632Y-80.962
X361.632Y-100.012
X371.792Y-42.862
X371.792Y-61.912
X371.792Y-80.962
X371.792Y-100.012
X380.682Y-42.862
X380.682Y-61.912
X380.682Y-80.962
X380.682Y-100.012
X390.842Y-42.862
X390.842Y-61.912
X390.842Y-80.962
X390.842Y-100.012
T3
X33.179Y-86.042
X39.529Y-83.502
X56.991Y-105.092
X59.372Y-47.942
X61.754Y-66.992
X63.341Y-102.552
X65.722Y-45.402
X66.516Y-86.042
X68.104Y-64.453
X72.866Y-83.502
X80.804Y-105.092
X83.185Y-47.942
X87.154Y-102.552
X87.947Y-66.992
X89.535Y-45.402
X94.297Y-64.453
X97.472Y-86.042
X102.235Y-47.942
X103.822Y-83.502
X104.616Y-105.092
X106.998Y-66.992
X108.585Y-45.402
X110.966Y-102.552
X113.348Y-64.453
X116.522Y-86.042
X121.285Y-47.942
X122.872Y-83.502
X126.048Y-66.992
X127.635Y-45.402
X132.398Y-64.453
X135.572Y-86.042
X135.572Y-105.092
X140.335Y-47.942
X141.922Y-83.502
X141.922Y-102.552
X145.098Y-66.992
X146.685Y-45.402
X151.448Y-64.453
X154.622Y-86.042
X159.385Y-47.942
X160.972Y-83.502
X164.148Y-66.992
X165.735Y-45.402
X170.498Y-64.453
X173.672Y-86.042
X173.672Y-105.092
X178.435Y-47.942
X180.022Y-83.502
X180.022Y-102.552
X183.198Y-66.992
X184.785Y-45.402
X189.548Y-64.453
X192.722Y-86.042
X197.485Y-47.942
X199.072Y-83.502
X202.248Y-66.992
X202.248Y-105.092
X203.835Y-45.402
X208.598Y-64.453
X208.598Y-102.552
X211.772Y-86.042
X216.535Y-47.942
X218.122Y-83.502
X221.298Y-66.992
X221.298Y-105.092
X222.885Y-45.402
X227.648Y-64.453
X227.648Y-102.552
X230.822Y-86.042
X235.585Y-47.942
X237.172Y-83.502
X240.348Y-66.992
X240.348Y-105.092
X241.935Y-45.402
X246.698Y-64.453
X246.698Y-102.552
X249.872Y-86.042
X254.635Y-47.942
X256.222Y-83.502
X259.398Y-66.992
X259.398Y-105.092
X260.985Y-45.402
X265.748Y-64.453
X265.748Y-102.552
X268.922Y-86.042
X273.685Y-47.942
X275.272Y-83.502
X278.448Y-66.992
X278.448Y-105.092
X280.035Y-45.402
X284.798Y-64.453
X284.798Y-102.552
X292.735Y-47.942
X292.735Y-86.042
X299.085Y-45.402
X299.085Y-83.502
X302.26Y-109.855
X308.61Y-107.315
X309.404Y-66.992
X315.754Y-64.453
X316.548Y-47.942
X321.31Y-90.805
X321.31Y-109.855
X322.898Y-45.402
X327.66Y-88.265
X327.66Y-107.315
X340.36Y-109.855
X345.122Y-47.942
X345.122Y-66.992
X345.122Y-86.042
X346.71Y-107.315
X351.472Y-45.402
X351.472Y-64.453
X351.472Y-83.502
X364.172Y-47.942
X364.172Y-66.992
X364.172Y-86.042
X364.172Y-105.092
X370.522Y-45.402
X370.522Y-64.453
X370.522Y-83.502
X370.522Y-102.552
X383.222Y-47.942
X383.222Y-66.992
X383.222Y-86.042
X383.222Y-105.092
X389.572Y-45.402
X389.572Y-64.453
X389.572Y-83.502
X389.572Y-102.552
T4
X57.156Y-87.962
X80.956Y-87.962
X126.212Y-107.012
X150.012Y-107.012
X164.312Y-107.012
X188.112Y-107.012
X300.044Y-68.912
X323.844Y-68.912
T5
X35.719Y-80.962
X57.156Y-72.722
X59.531Y-100.012
X61.912Y-42.862
X64.294Y-61.912
X69.056Y-80.962
X80.956Y-72.722
X83.344Y-100.012
X85.725Y-42.862
X90.487Y-61.912
X100.012Y-80.962
X104.775Y-42.862
X107.156Y-100.012
X109.538Y-61.912
X119.062Y-80.962
X123.825Y-42.862
X126.212Y-91.772
X128.588Y-61.912
X138.112Y-80.962
X138.112Y-100.012
X142.875Y-42.862
X147.638Y-61.912
X150.012Y-91.772
X157.162Y-80.962
X161.925Y-42.862
X164.312Y-91.772
X166.688Y-61.912
X176.212Y-80.962
X176.212Y-100.012
X180.975Y-42.862
X185.738Y-61.912
X188.112Y-91.772
X195.262Y-80.962
X200.025Y-42.862
X204.788Y-61.912
X204.788Y-100.012
X214.312Y-80.962
X219.075Y-42.862
X223.838Y-61.912
X223.838Y-100.012
X233.362Y-80.962
X238.125Y-42.862
X242.888Y-61.912
X242.888Y-100.012
X252.412Y-80.962
X257.175Y-42.862
X261.938Y-61.912
X261.938Y-100.012
X271.462Y-80.962
X276.225Y-42.862
X280.988Y-61.912
X280.988Y-100.012
X295.275Y-42.862
X295.275Y-80.962
X300.044Y-53.672
X304.8Y-104.775
X311.944Y-61.912
X319.088Y-42.862
X323.844Y-53.672
X323.85Y-85.725
X323.85Y-104.775
X342.9Y-104.775
X347.662Y-42.862
X347.662Y-61.912
X347.662Y-80.962
X366.712Y-42.862
X366.712Y-61.912
X366.712Y-80.962
X366.712Y-100.012
X385.762Y-42.862
X385.762Y-61.912
X385.762Y-80.962
X385.762Y-100.012
T0
M30
