M48
; DRILL file {KiCad (5.1.12)-1} date 11/11/23 22:01:02
; FORMAT={-:-/ absolute / metric / decimal}
; #@! TF.CreationDate,2023-11-11T22:01:02+09:00
; #@! TF.GenerationSoftware,Kicad,Pcbnew,(5.1.12)-1
; #@! TF.FileFunction,Plated,1,2,PTH
FMAT,2
METRIC
T1C0.400
T2C0.800
T3C0.813
T4C1.000
T5C1.300
T6C2.000
%
G90
G05
T1
X26.27Y-68.16
X28.44Y-65.97
X29.206Y-65.096
X29.79Y-108.72
X29.961Y-74.709
X31.238Y-111.122
X32.676Y-65.084
X36.322Y-65.96
X39.38Y-65.96
X40.456Y-75.578
X46.744Y-94.546
X47.58Y-96.654
X49.124Y-52.182
X51.673Y-50.768
X51.754Y-48.228
X53.428Y-60.111
X53.641Y-53.332
X53.702Y-94.546
X53.8Y-55.32
X54.877Y-56.489
X55.854Y-61.705
X56.65Y-35.86
X57.258Y-38.822
X57.74Y-92.65
X58.59Y-56.35
X59.642Y-57.899
X59.841Y-72.843
X63.785Y-88.162
X63.98Y-74.46
X64.406Y-77.182
X65.192Y-51.075
X66.774Y-74.224
X67.247Y-99.789
X67.422Y-37.476
X70.502Y-55.952
X71.609Y-60.111
X71.643Y-96.701
X75.482Y-79.368
X75.62Y-95.45
X77.459Y-37.476
X77.67Y-93.32
X80.5Y-35.9
X85.06Y-56.54
X85.817Y-57.424
X90.396Y-38.296
X91.041Y-99.824
X94.56Y-75.27
X95.14Y-56.71
X95.265Y-52.603
X95.285Y-76.123
X96.237Y-79.402
X97.487Y-62.362
X99.36Y-35.82
X100.117Y-38.642
X101.14Y-93.38
X102.624Y-52.476
X104.23Y-56.14
X104.87Y-57.829
X105.295Y-77.661
X109.495Y-52.585
X109.738Y-83.808
X110.528Y-92.946
X111.06Y-54.035
X113.2Y-75.2
X113.991Y-77.646
X114.45Y-56.4
X114.835Y-99.789
X117.252Y-60.124
X117.817Y-39.349
X118.58Y-35.89
X123.32Y-56.3
X123.735Y-75.578
X123.921Y-57.154
X125.65Y-72.845
X126.627Y-80.403
X129.65Y-39.346
X130.089Y-51.933
X131.18Y-74.62
X131.56Y-94.24
X133.19Y-37.098
X133.457Y-95.827
X133.457Y-75.541
X135.04Y-58.395
X138.223Y-38.228
X138.25Y-35.87
X138.905Y-60.114
X141.85Y-55.78
X142.962Y-57.442
X143.23Y-76.84
X143.64Y-94.069
X145.786Y-80.452
X145.786Y-98.414
X145.88Y-93.34
X145.98Y-89.46
X149.27Y-74.89
X151.63Y-77.642
X152.27Y-54.286
X152.292Y-56.4
X153.486Y-110.777
X155.369Y-38.144
X156.07Y-73.05
X157.41Y-35.88
X158.268Y-68.659
X160.924Y-57.9
X161.26Y-56.66
X162.965Y-79.377
X167.788Y-39.347
X169.461Y-37.476
X170.0Y-94.56
X170.09Y-75.02
X171.543Y-95.472
X171.56Y-75.907
X172.57Y-58.389
X173.346Y-54.446
X173.346Y-60.308
X176.276Y-39.331
X176.39Y-35.9
X180.32Y-56.13
X181.065Y-58.404
X182.63Y-77.662
X185.779Y-98.832
X186.387Y-83.502
X189.37Y-75.44
X190.404Y-56.362
X190.602Y-77.051
X192.738Y-66.61
X193.343Y-55.59
X194.267Y-39.029
X194.73Y-35.93
X195.157Y-37.827
X196.69Y-99.169
X197.408Y-73.944
X197.81Y-94.09
X199.002Y-58.381
X199.57Y-55.85
X200.164Y-57.122
X203.231Y-89.286
X204.72Y-85.541
X206.023Y-36.878
X206.842Y-77.636
X207.632Y-41.796
X207.808Y-60.123
X208.358Y-41.064
X208.44Y-75.34
X208.475Y-39.33
X209.45Y-57.785
X209.657Y-76.191
X210.859Y-58.384
X212.07Y-62.385
X213.171Y-58.389
X213.236Y-96.091
X214.33Y-35.89
X214.397Y-39.303
X215.811Y-60.931
X216.833Y-99.252
X216.9Y-94.056
X217.384Y-95.028
X218.314Y-85.61
X218.77Y-56.12
X219.183Y-58.374
X220.777Y-45.857
X221.174Y-77.624
X221.222Y-79.402
X221.295Y-113.687
X222.761Y-76.952
X224.637Y-81.641
X225.446Y-48.845
X228.27Y-74.93
X228.709Y-77.061
X231.232Y-98.585
X231.645Y-44.876
X231.876Y-39.35
X232.42Y-35.92
X232.716Y-67.726
X234.068Y-73.096
X234.483Y-67.385
X234.523Y-96.02
X234.574Y-58.392
X235.961Y-101.815
X237.22Y-94.22
X237.45Y-56.52
X237.571Y-46.095
X239.722Y-88.468
X240.296Y-85.658
X241.056Y-77.656
X241.056Y-80.116
X242.596Y-38.757
X244.255Y-109.807
X246.257Y-39.315
X247.02Y-75.5
X247.574Y-56.4
X247.745Y-76.357
X248.741Y-58.403
X249.143Y-42.2
X249.849Y-99.441
X250.112Y-61.663
X250.405Y-96.697
X251.327Y-58.4
X251.463Y-100.467
X252.05Y-35.98
X252.511Y-38.301
X253.497Y-62.036
X255.57Y-94.45
X256.506Y-96.081
X257.03Y-55.51
X257.089Y-76.942
X257.106Y-87.189
X257.278Y-57.851
X264.154Y-42.225
X265.2Y-77.604
X265.811Y-84.125
X266.111Y-74.82
X266.125Y-55.358
X266.811Y-77.534
X268.072Y-39.355
X268.233Y-41.978
X268.483Y-98.434
X269.161Y-60.982
X270.46Y-98.431
X270.5Y-35.99
X272.076Y-72.956
X272.556Y-96.374
X272.763Y-58.404
X272.763Y-62.086
X275.47Y-93.19
X275.48Y-56.18
X275.932Y-57.219
X278.844Y-79.84
X280.855Y-85.606
X280.898Y-37.982
X281.405Y-65.511
X283.433Y-39.355
X283.649Y-41.812
X286.512Y-58.39
X287.604Y-58.367
X288.849Y-77.654
X288.905Y-83.098
X288.928Y-99.789
X289.225Y-60.673
X289.53Y-35.98
X290.2Y-73.75
X290.318Y-61.547
X290.625Y-38.145
X295.509Y-84.031
X296.404Y-46.03
X296.671Y-100.928
X296.671Y-104.602
X297.94Y-99.05
X298.413Y-100.021
X299.935Y-77.505
X301.343Y-58.203
X303.62Y-62.17
X306.77Y-56.18
X307.082Y-58.401
X308.575Y-48.673
X309.179Y-53.303
X310.778Y-84.084
X311.5Y-104.22
X311.578Y-81.305
X312.176Y-38.894
X312.176Y-45.122
X312.78Y-35.86
X316.213Y-100.817
X316.213Y-106.335
X316.929Y-87.35
X317.16Y-98.75
X318.13Y-80.13
X318.252Y-82.511
X319.522Y-60.11
X326.313Y-79.199
X329.465Y-102.975
X333.595Y-87.344
X334.15Y-109.63
X334.631Y-79.669
X335.828Y-101.233
X335.828Y-104.415
X338.292Y-81.628
X339.222Y-76.806
X339.37Y-83.578
X340.34Y-96.3
X341.201Y-57.082
X341.201Y-63.584
X341.221Y-39.349
X341.306Y-41.789
X342.03Y-35.98
X342.35Y-74.36
X342.78Y-54.72
X342.93Y-112.01
X342.93Y-112.01
X342.984Y-75.906
X342.993Y-57.721
X350.755Y-95.145
X352.951Y-38.772
X352.951Y-58.097
X353.968Y-77.451
X354.951Y-62.379
X355.033Y-58.384
X355.498Y-101.324
X355.618Y-39.324
X355.618Y-41.886
X356.1Y-96.706
X356.102Y-57.366
X358.044Y-81.527
X358.54Y-62.294
X358.93Y-99.537
X359.59Y-93.93
X361.49Y-74.24
X361.75Y-55.31
X361.78Y-35.85
X362.039Y-38.85
X362.047Y-76.35
X362.084Y-57.207
X363.138Y-81.733
X366.959Y-46.041
X367.579Y-65.511
X372.216Y-58.377
X373.495Y-77.451
X373.59Y-39.351
X374.332Y-61.277
X374.577Y-99.252
X374.647Y-96.652
X375.14Y-58.147
X377.104Y-60.111
X377.339Y-41.296
X377.339Y-79.45
X378.71Y-93.81
X379.95Y-35.89
X380.42Y-74.42
X381.055Y-94.694
X381.92Y-54.98
X385.412Y-64.703
X388.368Y-62.61
X388.802Y-80.299
T3
X28.062Y-32.988
X28.062Y-35.528
X28.062Y-38.068
X28.062Y-40.608
X28.062Y-43.148
X28.062Y-45.688
X28.062Y-48.228
X28.062Y-50.768
X28.062Y-53.308
X28.062Y-55.848
X28.062Y-58.388
X28.062Y-60.928
X28.062Y-63.468
X31.909Y-69.056
X34.449Y-69.056
X36.989Y-69.056
X39.529Y-69.056
X43.282Y-32.988
X43.282Y-35.528
X43.282Y-38.068
X43.282Y-40.608
X43.282Y-43.148
X43.282Y-45.688
X43.282Y-48.228
X43.282Y-50.768
X43.282Y-53.308
X43.282Y-55.848
X43.282Y-58.388
X43.282Y-60.928
X43.282Y-63.468
T4
X28.219Y-97.512
X28.219Y-100.012
X28.219Y-102.512
X42.719Y-97.512
X42.719Y-102.512
T5
X23.812Y-53.9
X23.812Y-60.4
T2
G00X23.862Y-42.744
M15
G01X23.862Y-42.744
M16
G05
G00X23.862Y-45.244
M15
G01X23.862Y-45.244
M16
G05
G00X23.862Y-47.744
M15
G01X23.862Y-47.744
M16
G05
T6
G00X35.319Y-94.412
M15
G01X36.119Y-94.412
M16
G05
G00X35.319Y-105.612
M15
G01X36.119Y-105.612
M16
G05
T0
M30
