M48
; DRILL file {KiCad (5.1.12)-1} date 11/04/23 13:46:35
; FORMAT={-:-/ absolute / metric / decimal}
; #@! TF.CreationDate,2023-11-04T13:46:35+09:00
; #@! TF.GenerationSoftware,Kicad,Pcbnew,(5.1.12)-1
; #@! TF.FileFunction,Plated,1,2,PTH
FMAT,2
METRIC
T1C0.400
T2C0.800
T3C0.813
T4C1.000
T5C1.300
T6C2.000
%
G90
G05
T1
X24.9Y-99.8
X30.07Y-74.2
X30.09Y-108.75
X31.467Y-102.512
X39.163Y-91.395
X39.529Y-49.221
X41.0Y-70.85
X42.418Y-107.698
X45.113Y-60.928
X45.769Y-95.51
X46.204Y-56.993
X46.768Y-97.856
X46.942Y-76.606
X49.391Y-97.112
X51.111Y-60.193
X51.567Y-54.578
X51.893Y-48.228
X52.325Y-55.848
X52.489Y-56.944
X53.359Y-53.308
X53.578Y-50.768
X54.825Y-91.395
X55.94Y-92.51
X56.694Y-39.548
X56.79Y-37.48
X57.526Y-41.281
X58.912Y-75.324
X59.4Y-56.16
X59.638Y-57.774
X63.91Y-75.62
X64.121Y-79.18
X64.172Y-77.459
X67.247Y-98.447
X70.089Y-96.685
X71.102Y-60.196
X71.831Y-93.391
X75.04Y-72.48
X75.04Y-75.43
X80.59Y-92.89
X80.9Y-37.31
X85.37Y-56.24
X85.816Y-57.672
X91.27Y-39.541
X91.973Y-79.182
X92.416Y-98.414
X93.696Y-77.459
X94.27Y-75.23
X95.138Y-58.397
X95.326Y-76.094
X95.342Y-52.198
X95.927Y-60.207
X99.48Y-37.26
X100.12Y-39.541
X101.12Y-94.55
X101.614Y-95.481
X103.32Y-57.24
X104.885Y-58.2
X107.3Y-80.774
X110.112Y-82.103
X110.502Y-54.548
X111.419Y-77.456
X112.67Y-75.55
X112.955Y-73.39
X114.38Y-77.444
X115.095Y-52.64
X115.495Y-60.21
X116.21Y-98.414
X117.51Y-60.187
X118.75Y-37.14
X122.765Y-58.471
X122.963Y-72.034
X123.1Y-56.32
X123.675Y-60.196
X123.92Y-57.712
X124.555Y-79.182
X126.001Y-95.91
X126.236Y-77.428
X129.701Y-68.859
X130.249Y-108.585
X130.303Y-39.531
X130.664Y-53.521
X131.569Y-94.039
X132.433Y-91.945
X132.72Y-75.4
X133.327Y-79.182
X133.894Y-60.205
X137.55Y-37.14
X137.833Y-68.859
X138.246Y-39.541
X141.201Y-98.443
X142.48Y-56.19
X142.779Y-76.676
X142.78Y-96.355
X142.976Y-57.647
X145.146Y-77.456
X145.146Y-80.385
X146.546Y-80.047
X149.427Y-109.033
X150.116Y-54.496
X150.33Y-41.277
X150.401Y-42.373
X151.037Y-55.358
X151.64Y-75.26
X151.78Y-108.07
X152.471Y-76.874
X152.563Y-60.196
X153.345Y-37.487
X154.87Y-72.391
X156.641Y-71.452
X156.76Y-37.39
X157.125Y-55.358
X158.249Y-60.869
X159.338Y-41.273
X161.402Y-56.098
X162.004Y-74.505
X163.394Y-79.192
X166.907Y-39.541
X169.291Y-94.084
X171.19Y-94.59
X171.47Y-75.14
X171.493Y-76.155
X171.897Y-58.475
X172.269Y-60.196
X172.409Y-79.183
X174.004Y-58.462
X175.8Y-37.37
X176.316Y-39.497
X179.04Y-56.43
X180.868Y-79.182
X180.941Y-77.427
X181.077Y-57.454
X183.471Y-74.944
X187.154Y-98.414
X187.703Y-79.185
X188.804Y-42.008
X188.93Y-75.52
X190.113Y-55.448
X190.381Y-77.456
X190.715Y-73.505
X191.019Y-60.205
X191.628Y-92.584
X194.99Y-37.14
X196.858Y-58.444
X196.858Y-60.208
X197.438Y-41.273
X199.12Y-56.25
X199.69Y-93.84
X200.44Y-79.169
X201.12Y-75.44
X202.454Y-92.288
X204.811Y-39.53
X205.865Y-72.355
X206.975Y-39.438
X208.464Y-42.848
X209.007Y-77.416
X209.11Y-75.39
X210.085Y-92.288
X210.366Y-57.237
X210.549Y-58.459
X210.627Y-41.639
X211.11Y-39.541
X212.028Y-61.341
X212.173Y-96.689
X212.531Y-99.13
X213.206Y-58.354
X213.209Y-96.647
X214.03Y-37.49
X214.414Y-39.487
X215.701Y-61.889
X216.442Y-62.573
X218.678Y-56.712
X218.86Y-94.35
X219.172Y-57.953
X219.492Y-79.182
X220.127Y-77.443
X220.384Y-99.75
X221.119Y-79.167
X222.51Y-64.985
X222.745Y-79.17
X224.993Y-77.428
X224.993Y-79.172
X226.673Y-42.208
X226.85Y-55.358
X227.89Y-75.86
X228.698Y-77.458
X230.702Y-96.71
X230.829Y-58.478
X231.336Y-98.42
X231.633Y-60.965
X232.084Y-39.519
X232.118Y-99.19
X232.91Y-37.26
X233.553Y-106.228
X234.603Y-61.71
X235.085Y-44.148
X237.61Y-56.26
X237.65Y-94.44
X238.343Y-77.439
X239.041Y-45.94
X239.533Y-61.363
X239.791Y-79.182
X240.362Y-86.788
X242.829Y-39.541
X243.262Y-88.695
X245.755Y-42.201
X246.233Y-77.445
X246.651Y-107.857
X246.89Y-74.89
X247.954Y-79.166
X248.096Y-58.456
X248.964Y-39.541
X249.592Y-58.445
X250.024Y-99.414
X250.454Y-61.277
X251.91Y-37.4
X252.538Y-39.541
X253.74Y-58.469
X253.74Y-60.204
X253.972Y-96.694
X254.427Y-98.414
X256.37Y-93.15
X256.424Y-88.662
X256.51Y-56.3
X257.078Y-76.829
X257.282Y-57.757
X258.546Y-79.173
X259.756Y-87.016
X260.275Y-77.444
X260.846Y-79.818
X263.292Y-77.433
X263.672Y-66.009
X264.77Y-42.204
X265.96Y-75.55
X266.088Y-55.358
X266.808Y-77.005
X267.871Y-39.529
X268.162Y-42.2
X268.928Y-61.285
X269.277Y-98.447
X270.36Y-58.081
X271.01Y-37.25
X272.37Y-106.653
X272.554Y-96.706
X272.554Y-98.415
X273.051Y-43.209
X274.027Y-60.978
X274.44Y-56.38
X275.22Y-93.44
X275.249Y-95.291
X278.038Y-79.182
X278.388Y-94.5
X279.777Y-77.443
X281.515Y-39.541
X283.551Y-41.884
X284.028Y-98.443
X284.123Y-39.541
X284.653Y-77.433
X285.327Y-81.839
X287.411Y-37.533
X287.528Y-41.727
X288.01Y-80.584
X289.276Y-77.444
X289.409Y-58.457
X289.557Y-62.138
X289.62Y-75.49
X289.808Y-38.75
X289.82Y-37.31
X290.135Y-61.3
X292.464Y-58.467
X297.111Y-103.846
X298.402Y-101.46
X299.84Y-98.23
X299.917Y-101.472
X301.0Y-76.309
X304.142Y-80.382
X304.459Y-81.412
X305.01Y-45.555
X305.9Y-56.44
X306.251Y-58.471
X306.251Y-60.205
X307.273Y-57.757
X308.006Y-42.537
X308.043Y-50.206
X310.684Y-39.5
X311.487Y-104.223
X312.558Y-101.449
X312.558Y-103.989
X313.43Y-37.25
X316.24Y-99.49
X317.517Y-60.196
X318.54Y-80.51
X319.588Y-60.212
X324.849Y-39.541
X326.11Y-77.45
X326.371Y-111.834
X327.766Y-79.199
X328.171Y-41.727
X328.433Y-76.338
X331.108Y-101.462
X331.108Y-103.934
X334.141Y-58.46
X334.255Y-105.327
X334.724Y-79.219
X335.799Y-101.461
X336.57Y-98.44
X339.332Y-77.424
X339.332Y-81.087
X339.443Y-62.02
X341.171Y-79.182
X342.17Y-37.39
X342.51Y-75.17
X342.67Y-56.39
X345.196Y-60.21
X347.231Y-103.215
X347.491Y-46.041
X347.952Y-96.203
X352.318Y-76.971
X352.319Y-58.378
X352.897Y-39.541
X353.589Y-58.47
X354.09Y-77.453
X354.831Y-60.911
X355.451Y-79.199
X355.509Y-39.545
X355.682Y-41.918
X355.75Y-58.478
X355.75Y-61.701
X356.317Y-101.146
X357.326Y-100.959
X357.734Y-102.969
X359.771Y-101.678
X359.873Y-77.419
X360.23Y-94.5
X360.86Y-75.29
X361.15Y-56.04
X362.028Y-77.367
X362.036Y-57.572
X362.084Y-39.557
X363.164Y-79.206
X364.387Y-63.945
X366.871Y-46.041
X368.372Y-84.128
X372.823Y-58.472
X373.018Y-77.453
X374.391Y-80.342
X374.569Y-60.69
X375.134Y-95.4
X375.148Y-77.259
X375.152Y-58.174
X375.158Y-39.51
X377.07Y-79.181
X377.179Y-60.202
X377.339Y-41.397
X377.339Y-98.244
X379.38Y-94.3
X380.24Y-55.84
X380.26Y-35.89
X380.26Y-75.11
X381.1Y-95.905
X385.412Y-64.703
X388.368Y-62.61
X393.283Y-97.2
T3
X28.062Y-32.988
X28.062Y-35.528
X28.062Y-38.068
X28.062Y-40.608
X28.062Y-43.148
X28.062Y-45.688
X28.062Y-48.228
X28.062Y-50.768
X28.062Y-53.308
X28.062Y-55.848
X28.062Y-58.388
X28.062Y-60.928
X28.062Y-63.468
X31.909Y-69.056
X34.449Y-69.056
X36.989Y-69.056
X39.529Y-69.056
X43.282Y-32.988
X43.282Y-35.528
X43.282Y-38.068
X43.282Y-40.608
X43.282Y-43.148
X43.282Y-45.688
X43.282Y-48.228
X43.282Y-50.768
X43.282Y-53.308
X43.282Y-55.848
X43.282Y-58.388
X43.282Y-60.928
X43.282Y-63.468
T4
X28.219Y-97.512
X28.219Y-100.012
X28.219Y-102.512
X42.719Y-97.512
X42.719Y-102.512
T5
X23.812Y-53.9
X23.812Y-60.4
T2
G00X23.862Y-42.744
M15
G01X23.862Y-42.744
M16
G05
G00X23.862Y-45.244
M15
G01X23.862Y-45.244
M16
G05
G00X23.862Y-47.744
M15
G01X23.862Y-47.744
M16
G05
T6
G00X35.319Y-94.412
M15
G01X36.119Y-94.412
M16
G05
G00X35.319Y-105.612
M15
G01X36.119Y-105.612
M16
G05
T0
M30
