G04 #@! TF.GenerationSoftware,KiCad,Pcbnew,(5.1.12)-1*
G04 #@! TF.CreationDate,2023-11-04T13:46:32+09:00*
G04 #@! TF.ProjectId,jtnk66w,6a746e6b-3636-4772-9e6b-696361645f70,rev?*
G04 #@! TF.SameCoordinates,Original*
G04 #@! TF.FileFunction,Copper,L2,Bot*
G04 #@! TF.FilePolarity,Positive*
%FSLAX46Y46*%
G04 Gerber Fmt 4.6, Leading zero omitted, Abs format (unit mm)*
G04 Created by KiCad (PCBNEW (5.1.12)-1) date 2023-11-04 13:46:32*
%MOMM*%
%LPD*%
G01*
G04 APERTURE LIST*
G04 #@! TA.AperFunction,SMDPad,CuDef*
%ADD10R,3.300000X3.000000*%
G04 #@! TD*
G04 #@! TA.AperFunction,ComponentPad*
%ADD11C,1.524000*%
G04 #@! TD*
G04 #@! TA.AperFunction,ComponentPad*
%ADD12C,2.000000*%
G04 #@! TD*
G04 #@! TA.AperFunction,ComponentPad*
%ADD13R,3.200000X2.500000*%
G04 #@! TD*
G04 #@! TA.AperFunction,ComponentPad*
%ADD14C,1.397000*%
G04 #@! TD*
G04 #@! TA.AperFunction,SMDPad,CuDef*
%ADD15R,2.200000X0.820000*%
G04 #@! TD*
G04 #@! TA.AperFunction,ComponentPad*
%ADD16O,1.500000X1.500000*%
G04 #@! TD*
G04 #@! TA.AperFunction,SMDPad,CuDef*
%ADD17R,0.950000X1.300000*%
G04 #@! TD*
G04 #@! TA.AperFunction,ViaPad*
%ADD18C,0.800000*%
G04 #@! TD*
G04 #@! TA.AperFunction,Conductor*
%ADD19C,0.250000*%
G04 #@! TD*
G04 #@! TA.AperFunction,Conductor*
%ADD20C,0.500000*%
G04 #@! TD*
G04 APERTURE END LIST*
D10*
X305794000Y-67032500D03*
X319394000Y-64492500D03*
X170062000Y-105132000D03*
X183662000Y-102592000D03*
X131962000Y-105132000D03*
X145562000Y-102592000D03*
X62906200Y-86082500D03*
X76506200Y-83542500D03*
D11*
X43282400Y-35528200D03*
X43282400Y-38068200D03*
X43282400Y-40608200D03*
X43282400Y-43148200D03*
X43282400Y-45688200D03*
X43282400Y-48228200D03*
X43282400Y-50768200D03*
X43282400Y-53308200D03*
X43282400Y-55848200D03*
X43282400Y-58388200D03*
X43282400Y-60928200D03*
X43282400Y-63468200D03*
X28062400Y-63468200D03*
X28062400Y-60928200D03*
X28062400Y-58388200D03*
X28062400Y-55848200D03*
X28062400Y-53308200D03*
X28062400Y-50768200D03*
X28062400Y-48228200D03*
X28062400Y-45688200D03*
X28062400Y-43148200D03*
X28062400Y-40608200D03*
X28062400Y-38068200D03*
X28062400Y-35528200D03*
X28062400Y-32988200D03*
X43282400Y-32988200D03*
D12*
X23812500Y-53900000D03*
X23812500Y-60400000D03*
D10*
X379612000Y-105132000D03*
X393212000Y-102592000D03*
X379612000Y-86082500D03*
X393212000Y-83542500D03*
X379612000Y-67032500D03*
X393212000Y-64492500D03*
X379612000Y-47982500D03*
X393212000Y-45442500D03*
X360562000Y-105132000D03*
X374162000Y-102592000D03*
X360562000Y-86082500D03*
X374162000Y-83542500D03*
X360562000Y-67032500D03*
X374162000Y-64492500D03*
X360562000Y-47982500D03*
X374162000Y-45442500D03*
X336750000Y-109895000D03*
X350350000Y-107355000D03*
X341512000Y-86082500D03*
X355112000Y-83542500D03*
X341512000Y-67032500D03*
X355112000Y-64492500D03*
X341512000Y-47982500D03*
X355112000Y-45442500D03*
X312938000Y-47982500D03*
X326538000Y-45442500D03*
X317700000Y-109895000D03*
X331300000Y-107355000D03*
X317700000Y-90845000D03*
X331300000Y-88305000D03*
X289125000Y-47982500D03*
X302725000Y-45442500D03*
X298650000Y-109895000D03*
X312250000Y-107355000D03*
X289125000Y-86082500D03*
X302725000Y-83542500D03*
X274838000Y-67032500D03*
X288438000Y-64492500D03*
X270075000Y-47982500D03*
X283675000Y-45442500D03*
X274838000Y-105132000D03*
X288438000Y-102592000D03*
X265312000Y-86082500D03*
X278912000Y-83542500D03*
X255788000Y-67032500D03*
X269388000Y-64492500D03*
X251025000Y-47982500D03*
X264625000Y-45442500D03*
X255788000Y-105132000D03*
X269388000Y-102592000D03*
X246262000Y-86082500D03*
X259862000Y-83542500D03*
X236738000Y-67032500D03*
X250338000Y-64492500D03*
X231975000Y-47982500D03*
X245575000Y-45442500D03*
X236738000Y-105132000D03*
X250338000Y-102592000D03*
X227212000Y-86082500D03*
X240812000Y-83542500D03*
X217688000Y-67032500D03*
X231288000Y-64492500D03*
X212925000Y-47982500D03*
X226525000Y-45442500D03*
X217688000Y-105132000D03*
X231288000Y-102592000D03*
X208162000Y-86082500D03*
X221762000Y-83542500D03*
X198638000Y-67032500D03*
X212238000Y-64492500D03*
X193875000Y-47982500D03*
X207475000Y-45442500D03*
X198638000Y-105132000D03*
X212238000Y-102592000D03*
X189112000Y-86082500D03*
X202712000Y-83542500D03*
X179588000Y-67032500D03*
X193188000Y-64492500D03*
X174825000Y-47982500D03*
X188425000Y-45442500D03*
X170062000Y-86082500D03*
X183662000Y-83542500D03*
X160538000Y-67032500D03*
X174138000Y-64492500D03*
X155775000Y-47982500D03*
X169375000Y-45442500D03*
X151012000Y-86082500D03*
X164612000Y-83542500D03*
X141488000Y-67032500D03*
X155088000Y-64492500D03*
X136725000Y-47982500D03*
X150325000Y-45442500D03*
X131962000Y-86082500D03*
X145562000Y-83542500D03*
X122438000Y-67032500D03*
X136038000Y-64492500D03*
X117675000Y-47982500D03*
X131275000Y-45442500D03*
X101006000Y-105132000D03*
X114606000Y-102592000D03*
X112912000Y-86082500D03*
X126512000Y-83542500D03*
X103388000Y-67032500D03*
X116988000Y-64492500D03*
X98625000Y-47982500D03*
X112225000Y-45442500D03*
X77193800Y-105132000D03*
X90793800Y-102592000D03*
X93862000Y-86082500D03*
X107462000Y-83542500D03*
X84337500Y-67032500D03*
X97937500Y-64492500D03*
X79575000Y-47982500D03*
X93175000Y-45442500D03*
X53381200Y-105132000D03*
X66981200Y-102592000D03*
X58143800Y-67032500D03*
X71743800Y-64492500D03*
X55762500Y-47982500D03*
X69362500Y-45442500D03*
D12*
X42718800Y-102512000D03*
X42718800Y-97512000D03*
D13*
X35718800Y-105612000D03*
X35718800Y-94412000D03*
D12*
X28218800Y-102512000D03*
X28218800Y-100012000D03*
X28218800Y-97512000D03*
D10*
X29568800Y-86082500D03*
X43168800Y-83542500D03*
D14*
X39528800Y-69056200D03*
X36988800Y-69056200D03*
X34448800Y-69056200D03*
X31908800Y-69056200D03*
D15*
X382812000Y-96000000D03*
X382812000Y-94500000D03*
X388712000Y-94500000D03*
X388712000Y-96000000D03*
X382812000Y-76950000D03*
X382812000Y-75450000D03*
X388712000Y-75450000D03*
X388712000Y-76950000D03*
X382812000Y-57900000D03*
X382812000Y-56400000D03*
X388712000Y-56400000D03*
X388712000Y-57900000D03*
X382812000Y-38850000D03*
X382812000Y-37350000D03*
X388712000Y-37350000D03*
X388712000Y-38850000D03*
X363762000Y-38850000D03*
X363762000Y-37350000D03*
X369662000Y-37350000D03*
X369662000Y-38850000D03*
X363762000Y-57900000D03*
X363762000Y-56400000D03*
X369662000Y-56400000D03*
X369662000Y-57900000D03*
X363762000Y-76950000D03*
X363762000Y-75450000D03*
X369662000Y-75450000D03*
X369662000Y-76950000D03*
X363762000Y-96000000D03*
X363762000Y-94500000D03*
X369662000Y-94500000D03*
X369662000Y-96000000D03*
X339950000Y-100762000D03*
X339950000Y-99262000D03*
X345850000Y-99262000D03*
X345850000Y-100762000D03*
X344712000Y-76950000D03*
X344712000Y-75450000D03*
X350612000Y-75450000D03*
X350612000Y-76950000D03*
X344712000Y-57900000D03*
X344712000Y-56400000D03*
X350612000Y-56400000D03*
X350612000Y-57900000D03*
X344712000Y-38850000D03*
X344712000Y-37350000D03*
X350612000Y-37350000D03*
X350612000Y-38850000D03*
X316138000Y-38850000D03*
X316138000Y-37350000D03*
X322038000Y-37350000D03*
X322038000Y-38850000D03*
X292325000Y-38850000D03*
X292325000Y-37350000D03*
X298225000Y-37350000D03*
X298225000Y-38850000D03*
X308994000Y-57900000D03*
X308994000Y-56400000D03*
X314894000Y-56400000D03*
X314894000Y-57900000D03*
X320900000Y-81712500D03*
X320900000Y-80212500D03*
X326800000Y-80212500D03*
X326800000Y-81712500D03*
X320900000Y-100762000D03*
X320900000Y-99262000D03*
X326800000Y-99262000D03*
X326800000Y-100762000D03*
X301850000Y-100762000D03*
X301850000Y-99262000D03*
X307750000Y-99262000D03*
X307750000Y-100762000D03*
X292325000Y-76950000D03*
X292325000Y-75450000D03*
X298225000Y-75450000D03*
X298225000Y-76950000D03*
X278038000Y-57900000D03*
X278038000Y-56400000D03*
X283938000Y-56400000D03*
X283938000Y-57900000D03*
X273275000Y-38850000D03*
X273275000Y-37350000D03*
X279175000Y-37350000D03*
X279175000Y-38850000D03*
X254225000Y-38850000D03*
X254225000Y-37350000D03*
X260125000Y-37350000D03*
X260125000Y-38850000D03*
X258988000Y-57900000D03*
X258988000Y-56400000D03*
X264888000Y-56400000D03*
X264888000Y-57900000D03*
X268512000Y-76950000D03*
X268512000Y-75450000D03*
X274412000Y-75450000D03*
X274412000Y-76950000D03*
X278038000Y-96000000D03*
X278038000Y-94500000D03*
X283938000Y-94500000D03*
X283938000Y-96000000D03*
X258988000Y-96000000D03*
X258988000Y-94500000D03*
X264888000Y-94500000D03*
X264888000Y-96000000D03*
X249462000Y-76950000D03*
X249462000Y-75450000D03*
X255362000Y-75450000D03*
X255362000Y-76950000D03*
X239938000Y-57900000D03*
X239938000Y-56400000D03*
X245838000Y-56400000D03*
X245838000Y-57900000D03*
X234956000Y-38750000D03*
X234956000Y-37250000D03*
X240856000Y-37250000D03*
X240856000Y-38750000D03*
X216125000Y-38850000D03*
X216125000Y-37350000D03*
X222025000Y-37350000D03*
X222025000Y-38850000D03*
X220888000Y-57900000D03*
X220888000Y-56400000D03*
X226788000Y-56400000D03*
X226788000Y-57900000D03*
X230412000Y-76950000D03*
X230412000Y-75450000D03*
X236312000Y-75450000D03*
X236312000Y-76950000D03*
X239938000Y-96000000D03*
X239938000Y-94500000D03*
X245838000Y-94500000D03*
X245838000Y-96000000D03*
X220888000Y-96000000D03*
X220888000Y-94500000D03*
X226788000Y-94500000D03*
X226788000Y-96000000D03*
X211362000Y-76950000D03*
X211362000Y-75450000D03*
X217262000Y-75450000D03*
X217262000Y-76950000D03*
X201838000Y-57900000D03*
X201838000Y-56400000D03*
X207738000Y-56400000D03*
X207738000Y-57900000D03*
X197075000Y-38850000D03*
X197075000Y-37350000D03*
X202975000Y-37350000D03*
X202975000Y-38850000D03*
X178025000Y-38850000D03*
X178025000Y-37350000D03*
X183925000Y-37350000D03*
X183925000Y-38850000D03*
X182788000Y-57900000D03*
X182788000Y-56400000D03*
X188688000Y-56400000D03*
X188688000Y-57900000D03*
X192312000Y-76950000D03*
X192312000Y-75450000D03*
X198212000Y-75450000D03*
X198212000Y-76950000D03*
X201838000Y-96000000D03*
X201838000Y-94500000D03*
X207738000Y-94500000D03*
X207738000Y-96000000D03*
X173262000Y-96000000D03*
X173262000Y-94500000D03*
X179162000Y-94500000D03*
X179162000Y-96000000D03*
X173262000Y-76950000D03*
X173262000Y-75450000D03*
X179162000Y-75450000D03*
X179162000Y-76950000D03*
X163738000Y-57900000D03*
X163738000Y-56400000D03*
X169638000Y-56400000D03*
X169638000Y-57900000D03*
X158975000Y-38850000D03*
X158975000Y-37350000D03*
X164875000Y-37350000D03*
X164875000Y-38850000D03*
X139925000Y-38850000D03*
X139925000Y-37350000D03*
X145825000Y-37350000D03*
X145825000Y-38850000D03*
X144688000Y-57900000D03*
X144688000Y-56400000D03*
X150588000Y-56400000D03*
X150588000Y-57900000D03*
X154212000Y-76950000D03*
X154212000Y-75450000D03*
X160112000Y-75450000D03*
X160112000Y-76950000D03*
X135162000Y-96000000D03*
X135162000Y-94500000D03*
X141062000Y-94500000D03*
X141062000Y-96000000D03*
X135162000Y-76950000D03*
X135162000Y-75450000D03*
X141062000Y-75450000D03*
X141062000Y-76950000D03*
X125638000Y-57900000D03*
X125638000Y-56400000D03*
X131538000Y-56400000D03*
X131538000Y-57900000D03*
X120875000Y-38850000D03*
X120875000Y-37350000D03*
X126775000Y-37350000D03*
X126775000Y-38850000D03*
X101825000Y-38850000D03*
X101825000Y-37350000D03*
X107725000Y-37350000D03*
X107725000Y-38850000D03*
X106588000Y-57900000D03*
X106588000Y-56400000D03*
X112488000Y-56400000D03*
X112488000Y-57900000D03*
X116112000Y-76950000D03*
X116112000Y-75450000D03*
X122012000Y-75450000D03*
X122012000Y-76950000D03*
X104206000Y-96000000D03*
X104206000Y-94500000D03*
X110106000Y-94500000D03*
X110106000Y-96000000D03*
X80393800Y-96000000D03*
X80393800Y-94500000D03*
X86293800Y-94500000D03*
X86293800Y-96000000D03*
X97062000Y-76950000D03*
X97062000Y-75450000D03*
X102962000Y-75450000D03*
X102962000Y-76950000D03*
X87537500Y-57900000D03*
X87537500Y-56400000D03*
X93437500Y-56400000D03*
X93437500Y-57900000D03*
X82775000Y-38850000D03*
X82775000Y-37350000D03*
X88675000Y-37350000D03*
X88675000Y-38850000D03*
X58962500Y-38850000D03*
X58962500Y-37350000D03*
X64862500Y-37350000D03*
X64862500Y-38850000D03*
X61343800Y-57900000D03*
X61343800Y-56400000D03*
X67243800Y-56400000D03*
X67243800Y-57900000D03*
X66106200Y-76950000D03*
X66106200Y-75450000D03*
X72006200Y-75450000D03*
X72006200Y-76950000D03*
X56581200Y-96000000D03*
X56581200Y-94500000D03*
X62481200Y-94500000D03*
X62481200Y-96000000D03*
X32768800Y-110288000D03*
X32768800Y-108788000D03*
X38668800Y-108788000D03*
X38668800Y-110288000D03*
X32768800Y-76950000D03*
X32768800Y-75450000D03*
X38668800Y-75450000D03*
X38668800Y-76950000D03*
D16*
X23862500Y-47743800D03*
X23862500Y-45243800D03*
X23862500Y-42743800D03*
D17*
X376238000Y-99406200D03*
X376238000Y-95856200D03*
X376238000Y-80356200D03*
X376238000Y-76806200D03*
X376238000Y-61306200D03*
X376238000Y-57756200D03*
X376238000Y-42256200D03*
X376238000Y-38706200D03*
X357188000Y-99406200D03*
X357188000Y-95856200D03*
X357188000Y-80356200D03*
X357188000Y-76806200D03*
X357188000Y-61306200D03*
X357188000Y-57756200D03*
X357188000Y-42256200D03*
X357188000Y-38706200D03*
X333375000Y-104169000D03*
X333375000Y-100619000D03*
X338138000Y-80356200D03*
X338138000Y-76806200D03*
X338138000Y-61306200D03*
X338138000Y-57756200D03*
X338138000Y-42256200D03*
X338138000Y-38706200D03*
X309562000Y-42256200D03*
X309562000Y-38706200D03*
X314325000Y-104169000D03*
X314325000Y-100619000D03*
X314325000Y-85118800D03*
X314325000Y-81568800D03*
X302419000Y-61306200D03*
X302419000Y-57756200D03*
X285750000Y-42256200D03*
X285750000Y-38706200D03*
X295275000Y-104169000D03*
X295275000Y-100619000D03*
X285750000Y-80356200D03*
X285750000Y-76806200D03*
X271462000Y-61306200D03*
X271462000Y-57756200D03*
X266700000Y-42256200D03*
X266700000Y-38706200D03*
X271462000Y-99406200D03*
X271462000Y-95856200D03*
X261938000Y-80356200D03*
X261938000Y-76806200D03*
X252412000Y-61306200D03*
X252412000Y-57756200D03*
X247650000Y-42256200D03*
X247650000Y-38706200D03*
X252412000Y-99406200D03*
X252412000Y-95856200D03*
X242888000Y-80356200D03*
X242888000Y-76806200D03*
X233362000Y-61306200D03*
X233362000Y-57756200D03*
X228600000Y-42256200D03*
X228600000Y-38706200D03*
X233362000Y-99406200D03*
X233362000Y-95856200D03*
X223838000Y-80356200D03*
X223838000Y-76806200D03*
X214312000Y-61306200D03*
X214312000Y-57756200D03*
X209550000Y-42256200D03*
X209550000Y-38706200D03*
X214312000Y-99406200D03*
X214312000Y-95856200D03*
X204788000Y-80356200D03*
X204788000Y-76806200D03*
X195262000Y-61306200D03*
X195262000Y-57756200D03*
X190500000Y-42256200D03*
X190500000Y-38706200D03*
X195262000Y-99406200D03*
X195262000Y-95856200D03*
X185738000Y-80356200D03*
X185738000Y-76806200D03*
X176212000Y-61306200D03*
X176212000Y-57756200D03*
X171450000Y-42256200D03*
X171450000Y-38706200D03*
X166688000Y-99406200D03*
X166688000Y-95856200D03*
X166688000Y-80356200D03*
X166688000Y-76806200D03*
X157162000Y-61306200D03*
X157162000Y-57756200D03*
X152400000Y-42256200D03*
X152400000Y-38706200D03*
X147638000Y-80356200D03*
X147638000Y-76806200D03*
X138112000Y-61306200D03*
X138112000Y-57756200D03*
X133350000Y-42256200D03*
X133350000Y-38706200D03*
X128588000Y-99406200D03*
X128588000Y-95856200D03*
X128588000Y-80356200D03*
X128588000Y-76806200D03*
X119062000Y-61306200D03*
X119062000Y-57756200D03*
X114300000Y-42256200D03*
X114300000Y-38706200D03*
X97631200Y-99406200D03*
X97631200Y-95856200D03*
X109538000Y-80356200D03*
X109538000Y-76806200D03*
X100012000Y-61306200D03*
X100012000Y-57756200D03*
X95250000Y-42256200D03*
X95250000Y-38706200D03*
X73818800Y-99406200D03*
X73818800Y-95856200D03*
X90487500Y-80356200D03*
X90487500Y-76806200D03*
X80962500Y-61306200D03*
X80962500Y-57756200D03*
X76200000Y-42256200D03*
X76200000Y-38706200D03*
X50006200Y-99406200D03*
X50006200Y-95856200D03*
X59531200Y-80356200D03*
X59531200Y-76806200D03*
X54768800Y-61306200D03*
X54768800Y-57756200D03*
X52387500Y-42256200D03*
X52387500Y-38706200D03*
X45243800Y-101787000D03*
X45243800Y-98237000D03*
X26193800Y-80356200D03*
X26193800Y-76806200D03*
D18*
X51110800Y-60193100D03*
X222744600Y-79169600D03*
X205864600Y-72355400D03*
X137832600Y-68859200D03*
X129701200Y-68859200D03*
X122963400Y-72034100D03*
X112954600Y-73389600D03*
X231336200Y-98419800D03*
X210085000Y-92288300D03*
X202454500Y-92288300D03*
X169290700Y-94084000D03*
X132433500Y-91944600D03*
X46203800Y-56992800D03*
X357733800Y-102969300D03*
X356316600Y-101146200D03*
X71831000Y-93391000D03*
X49391000Y-97112200D03*
X45769200Y-95510200D03*
X210627100Y-41639500D03*
X206975500Y-39437600D03*
X157124600Y-55357700D03*
X151037200Y-55357700D03*
X51567500Y-54578200D03*
X196858500Y-58444500D03*
X196858500Y-60208200D03*
X208463600Y-42848400D03*
X211109600Y-39541300D03*
X216442100Y-62572800D03*
X213206500Y-58353600D03*
X224993200Y-79172200D03*
X224993200Y-77427900D03*
X232118000Y-99190200D03*
X230702300Y-96710500D03*
X235084800Y-44148200D03*
X232084000Y-39518700D03*
X234602700Y-61710500D03*
X230828900Y-58477800D03*
X246233000Y-77445400D03*
X247954000Y-79166400D03*
X253972000Y-96694000D03*
X254426800Y-98413600D03*
X245755500Y-42201500D03*
X248963600Y-39541300D03*
X253739900Y-60204100D03*
X253739900Y-58469200D03*
X260846000Y-79818200D03*
X263292200Y-77432700D03*
X272553900Y-96706000D03*
X272553900Y-98415200D03*
X267870600Y-39529000D03*
X268162100Y-42199800D03*
X274027000Y-60978200D03*
X270360300Y-58081200D03*
X284652800Y-77433100D03*
X288010200Y-80584400D03*
X297111400Y-103846300D03*
X298402500Y-101459600D03*
X287527700Y-41726500D03*
X284122800Y-39541300D03*
X306251200Y-60205000D03*
X306251200Y-58471500D03*
X312557500Y-103989500D03*
X312557500Y-101449400D03*
X308006200Y-42536800D03*
X310683600Y-39500500D03*
X328170700Y-41726500D03*
X324848600Y-39541300D03*
X339442700Y-62020000D03*
X334141000Y-58460300D03*
X339331500Y-81087500D03*
X339331500Y-77424000D03*
X334255200Y-105326900D03*
X335799400Y-101461000D03*
X355681800Y-41918000D03*
X355508900Y-39545000D03*
X355750000Y-61701100D03*
X355750000Y-58477700D03*
X359873400Y-77419000D03*
X363163900Y-79205900D03*
X359770900Y-101678000D03*
X357325900Y-100958800D03*
X377339100Y-41396800D03*
X375158400Y-39509900D03*
X377179500Y-60201700D03*
X375152000Y-58174200D03*
X377070300Y-79181000D03*
X375148300Y-77259000D03*
X377339100Y-98244100D03*
X375133600Y-95399600D03*
X30090000Y-108750000D03*
X299840000Y-98230000D03*
X318540000Y-80510000D03*
X316240000Y-99490000D03*
X313430000Y-37250000D03*
X305900000Y-56440000D03*
X289820000Y-37310000D03*
X289620000Y-75490000D03*
X271010000Y-37250000D03*
X274440000Y-56380000D03*
X251910000Y-37400000D03*
X256510000Y-56300000D03*
X265960000Y-75550000D03*
X275220000Y-93440000D03*
X278388000Y-94500000D03*
X232910000Y-37260000D03*
X237610000Y-56260000D03*
X246890000Y-74890000D03*
X256370000Y-93150000D03*
X214030000Y-37490000D03*
X218678000Y-56712000D03*
X227890000Y-75860000D03*
X237650000Y-94440000D03*
X194990000Y-37140000D03*
X199120000Y-56250000D03*
X209110000Y-75390000D03*
X218860000Y-94350000D03*
X199690000Y-93840000D03*
X175800000Y-37370000D03*
X179040000Y-56430000D03*
X188930000Y-75520000D03*
X156760000Y-37390000D03*
X161402000Y-56098000D03*
X171470000Y-75140000D03*
X171190000Y-94590000D03*
X137550000Y-37140000D03*
X142480000Y-56190000D03*
X151640000Y-75260000D03*
X118750000Y-37140000D03*
X123100000Y-56320000D03*
X132720000Y-75400000D03*
X131569000Y-94039500D03*
X99480000Y-37260000D03*
X103320000Y-57240000D03*
X112670000Y-75550000D03*
X80900000Y-37310000D03*
X85370000Y-56240000D03*
X101120000Y-94550000D03*
X80590000Y-92890000D03*
X94270000Y-75230000D03*
X24900000Y-99800000D03*
X56790000Y-37480000D03*
X59400000Y-56160000D03*
X63910000Y-75620000D03*
X55940000Y-92510000D03*
X342170000Y-37390000D03*
X342670000Y-56390000D03*
X342510000Y-75170000D03*
X336570000Y-98440000D03*
X361150000Y-56040000D03*
X360860000Y-75290000D03*
X360230000Y-94500000D03*
X380260000Y-75110000D03*
X380240000Y-55840000D03*
X379380000Y-94300000D03*
X380260000Y-35890000D03*
X30070000Y-74200000D03*
X41000000Y-70850000D03*
X39528800Y-49221200D03*
X54824800Y-91395100D03*
X39162900Y-91395100D03*
X64171900Y-77459200D03*
X64121500Y-79180400D03*
X59637900Y-57773600D03*
X71102200Y-60196200D03*
X75040000Y-75430000D03*
X75040000Y-72480000D03*
X56694300Y-39548300D03*
X57526000Y-41281000D03*
X85815800Y-57671900D03*
X91270400Y-39541300D03*
X95325800Y-76093800D03*
X95137600Y-58397300D03*
X91972800Y-79182200D03*
X93696300Y-77458700D03*
X114380000Y-77444300D03*
X110112000Y-82103300D03*
X104885400Y-58200100D03*
X115495400Y-60209600D03*
X100119600Y-39541300D03*
X110501700Y-54548300D03*
X123920000Y-57711900D03*
X130302700Y-39531100D03*
X123675000Y-60196200D03*
X122765000Y-58471500D03*
X133327200Y-79181700D03*
X142778700Y-76676500D03*
X152471000Y-76874200D03*
X146546000Y-80047000D03*
X142975600Y-57646900D03*
X152563400Y-60196200D03*
X156640500Y-71452400D03*
X162003500Y-74505400D03*
X138246500Y-39541300D03*
X150330000Y-41276700D03*
X159338200Y-41273300D03*
X166907300Y-39541300D03*
X171492600Y-76155100D03*
X171896800Y-58474800D03*
X172409300Y-79183500D03*
X180941300Y-77427100D03*
X190381300Y-77455600D03*
X187702600Y-79184900D03*
X181077400Y-57454100D03*
X201120000Y-75440000D03*
X176316200Y-39496800D03*
X188804500Y-42007500D03*
X197438200Y-41273300D03*
X204811300Y-39530300D03*
X215701100Y-61889300D03*
X210548600Y-58458500D03*
X221118600Y-79167100D03*
X220127000Y-77442600D03*
X243261700Y-88695500D03*
X228698000Y-77458100D03*
X219171700Y-57952600D03*
X222509700Y-64985400D03*
X214414400Y-39487400D03*
X226673400Y-42208000D03*
X239041000Y-45940000D03*
X242828800Y-39541300D03*
X239533400Y-61363400D03*
X248095800Y-58456200D03*
X256424000Y-88661700D03*
X257078200Y-76828900D03*
X266808300Y-77005000D03*
X285327500Y-81839000D03*
X257281900Y-57756900D03*
X263671600Y-66008600D03*
X252538100Y-39541300D03*
X264769900Y-42204500D03*
X273050900Y-43209500D03*
X281515000Y-39541300D03*
X289556600Y-62138400D03*
X289409500Y-58457200D03*
X304458700Y-81412100D03*
X301000400Y-76308600D03*
X307272600Y-57756900D03*
X317516700Y-60196200D03*
X326110300Y-77449500D03*
X327765900Y-79198900D03*
X287410800Y-37533500D03*
X283551100Y-41884200D03*
X347491300Y-46040800D03*
X352896900Y-39541300D03*
X345196200Y-60210500D03*
X352318900Y-58378000D03*
X341171100Y-79181700D03*
X352317800Y-76971500D03*
X362027800Y-77367500D03*
X368372100Y-84128200D03*
X362036500Y-57571900D03*
X364386800Y-63945000D03*
X362083900Y-39556800D03*
X366871000Y-46040800D03*
X385412000Y-64702500D03*
X388367700Y-62610200D03*
X381099700Y-95905000D03*
X393283400Y-97199800D03*
X240362000Y-86788000D03*
X250024300Y-99414200D03*
X226849700Y-55357700D03*
X231632700Y-60965100D03*
X238343100Y-77439300D03*
X239790700Y-79182100D03*
X246651000Y-107857400D03*
X31466800Y-102512000D03*
X259755800Y-87015700D03*
X269277400Y-98446900D03*
X70089400Y-96684600D03*
X58912200Y-75324200D03*
X46942500Y-76606100D03*
X272369900Y-106653400D03*
X46767900Y-97855600D03*
X250454500Y-61277500D03*
X249592000Y-58444700D03*
X258546100Y-79172700D03*
X260275100Y-77443700D03*
X67246800Y-98446900D03*
X51893400Y-48228200D03*
X275249200Y-95290600D03*
X107300200Y-80774200D03*
X111418800Y-77455500D03*
X266088100Y-55357700D03*
X268928200Y-61284800D03*
X284028000Y-98443200D03*
X101613600Y-95481200D03*
X92416300Y-98414000D03*
X53578300Y-50768200D03*
X278038300Y-79181700D03*
X279777400Y-77442600D03*
X95927100Y-60207400D03*
X95342300Y-52198500D03*
X299916800Y-101471800D03*
X130249500Y-108585000D03*
X117510300Y-60186900D03*
X115094800Y-52640100D03*
X124554800Y-79181700D03*
X126235900Y-77428000D03*
X304142400Y-80381700D03*
X289275700Y-77444000D03*
X290134700Y-61300300D03*
X292463900Y-58467300D03*
X126001500Y-95910200D03*
X116210200Y-98414000D03*
X53358700Y-53308200D03*
X311487400Y-104223400D03*
X145146300Y-80385300D03*
X145146300Y-77455800D03*
X52325400Y-55848200D03*
X308043000Y-50206400D03*
X319587700Y-60212500D03*
X141200600Y-98443200D03*
X142780200Y-96355200D03*
X133893700Y-60205000D03*
X130663600Y-53521100D03*
X326371300Y-111833700D03*
X328432700Y-76338500D03*
X334723600Y-79219100D03*
X331108200Y-103933600D03*
X331108200Y-101462300D03*
X151780000Y-108070000D03*
X52489500Y-56944400D03*
X150400700Y-42372900D03*
X153345200Y-37487500D03*
X289807900Y-38749800D03*
X305009900Y-45555300D03*
X158249000Y-60869400D03*
X150115700Y-54496000D03*
X154869800Y-72391200D03*
X163393800Y-79191800D03*
X354089700Y-77453500D03*
X355451300Y-79198700D03*
X183470700Y-74944100D03*
X180868000Y-79181700D03*
X149427200Y-109032600D03*
X42417600Y-107698100D03*
X45113400Y-60928200D03*
X347231300Y-103214700D03*
X347951500Y-96203500D03*
X191627600Y-92583600D03*
X187154500Y-98414000D03*
X172269400Y-60196200D03*
X174004000Y-58461600D03*
X354831400Y-60911300D03*
X353589400Y-58470400D03*
X233553000Y-106228400D03*
X212172600Y-96689000D03*
X212530900Y-99129800D03*
X190113100Y-55448400D03*
X191019200Y-60205000D03*
X374569400Y-60690400D03*
X372823100Y-58471900D03*
X200440500Y-79169300D03*
X190715400Y-73505300D03*
X374390800Y-80341600D03*
X373018300Y-77453500D03*
X220384200Y-99749600D03*
X213209100Y-96646600D03*
X219492500Y-79181700D03*
X209006700Y-77415600D03*
X212027600Y-61341100D03*
X210366000Y-57237100D03*
D19*
X26193800Y-80356200D02*
X26193800Y-81331300D01*
X30018800Y-86082500D02*
X30018800Y-84257400D01*
X26193800Y-81331300D02*
X27092700Y-81331300D01*
X27092700Y-81331300D02*
X30018800Y-84257400D01*
X242261800Y-85757800D02*
X244417800Y-87913800D01*
X244417800Y-87913800D02*
X259548500Y-87913800D01*
X259548500Y-87913800D02*
X259721500Y-87740800D01*
X259721500Y-87740800D02*
X260056200Y-87740800D01*
X260056200Y-87740800D02*
X260480900Y-87316100D01*
X260480900Y-87316100D02*
X260480900Y-86981400D01*
X260480900Y-86981400D02*
X261517700Y-85944600D01*
X223838000Y-80356200D02*
X224373700Y-80891900D01*
X224373700Y-80891900D02*
X224373800Y-80891900D01*
X224373800Y-80891900D02*
X224373800Y-86899500D01*
X224373800Y-86899500D02*
X225413200Y-87938900D01*
X225413200Y-87938900D02*
X240236500Y-87938900D01*
X240236500Y-87938900D02*
X242261800Y-85913600D01*
X242261800Y-85913600D02*
X242261800Y-85757800D01*
X261517700Y-85944600D02*
X261938000Y-85524300D01*
X261938000Y-85524300D02*
X261938000Y-80356200D01*
X284949900Y-80356200D02*
X282900900Y-82405200D01*
X282900900Y-82405200D02*
X282900900Y-84711600D01*
X282900900Y-84711600D02*
X274485900Y-93126600D01*
X274485900Y-93126600D02*
X274485900Y-93745100D01*
X274485900Y-93745100D02*
X275215900Y-94475100D01*
X275215900Y-94475100D02*
X275459400Y-94475100D01*
X275459400Y-94475100D02*
X276016700Y-95032400D01*
X276016700Y-95032400D02*
X276016700Y-95548600D01*
X276016700Y-95548600D02*
X275549600Y-96015700D01*
X275549600Y-96015700D02*
X274753300Y-96015700D01*
X274753300Y-96015700D02*
X271513400Y-92775800D01*
X271513400Y-92775800D02*
X268348900Y-92775800D01*
X268348900Y-92775800D02*
X261517700Y-85944600D01*
X285750000Y-80356200D02*
X284949900Y-80356200D01*
X242888000Y-80356200D02*
X242888000Y-85131600D01*
X242888000Y-85131600D02*
X242261800Y-85757800D01*
X147638000Y-76806200D02*
X145779600Y-76806200D01*
X145779600Y-76806200D02*
X137832600Y-68859200D01*
X108737900Y-76806200D02*
X105755800Y-73824100D01*
X105755800Y-73824100D02*
X93269600Y-73824100D01*
X93269600Y-73824100D02*
X90287500Y-76806200D01*
X109538000Y-76806200D02*
X108737900Y-76806200D01*
X90487500Y-76806200D02*
X90287500Y-76806200D01*
X59331200Y-76806200D02*
X54364200Y-71839200D01*
X54364200Y-71839200D02*
X54364200Y-63446500D01*
X54364200Y-63446500D02*
X51110800Y-60193100D01*
X165887900Y-74268800D02*
X181763900Y-74268800D01*
X181763900Y-74268800D02*
X184301300Y-76806200D01*
X184301300Y-76806200D02*
X184937900Y-76806200D01*
X203987900Y-76806200D02*
X200962000Y-73780300D01*
X200962000Y-73780300D02*
X200223300Y-73780300D01*
X200223300Y-73780300D02*
X199734800Y-74268800D01*
X199734800Y-74268800D02*
X189075500Y-74268800D01*
X189075500Y-74268800D02*
X186538100Y-76806200D01*
X223838000Y-80356200D02*
X223037900Y-80356200D01*
X223037900Y-80356200D02*
X223037900Y-79462900D01*
X223037900Y-79462900D02*
X222744600Y-79169600D01*
X204388000Y-76806200D02*
X205864600Y-75329600D01*
X205864600Y-75329600D02*
X205864600Y-72355400D01*
X204388000Y-76806200D02*
X203987900Y-76806200D01*
X204788000Y-76806200D02*
X204388000Y-76806200D01*
X185738000Y-76806200D02*
X186538100Y-76806200D01*
X185538000Y-76806200D02*
X185738000Y-76806200D01*
X185538000Y-76806200D02*
X184937900Y-76806200D01*
X112954600Y-73389600D02*
X110338100Y-76006100D01*
X110338100Y-76006100D02*
X110338100Y-76806200D01*
X165887900Y-74268800D02*
X165399400Y-73780300D01*
X165399400Y-73780300D02*
X151464000Y-73780300D01*
X151464000Y-73780300D02*
X148438100Y-76806200D01*
X165887900Y-74268800D02*
X165887900Y-76806200D01*
X147638000Y-76806200D02*
X148438100Y-76806200D01*
X166688000Y-76806200D02*
X165887900Y-76806200D01*
X128588000Y-76806200D02*
X127787900Y-76806200D01*
X125171100Y-73389300D02*
X129701200Y-68859200D01*
X122963400Y-72034100D02*
X124318600Y-73389300D01*
X124318600Y-73389300D02*
X125171100Y-73389300D01*
X127787900Y-76806200D02*
X127787900Y-76006100D01*
X127787900Y-76006100D02*
X125171100Y-73389300D01*
X109538000Y-76806200D02*
X110338100Y-76806200D01*
X59531200Y-76806200D02*
X59331200Y-76806200D01*
X26193800Y-76806200D02*
X26952900Y-76047100D01*
X26952900Y-76047100D02*
X26952900Y-54417700D01*
X26952900Y-54417700D02*
X28062400Y-53308200D01*
X314325000Y-85118800D02*
X313524900Y-85118800D01*
X285750000Y-80356200D02*
X286550100Y-80356200D01*
X286550100Y-80356200D02*
X287306700Y-79599600D01*
X287306700Y-79599600D02*
X290783400Y-79599600D01*
X290783400Y-79599600D02*
X292561500Y-81377700D01*
X292561500Y-81377700D02*
X292561500Y-81542600D01*
X292561500Y-81542600D02*
X294340500Y-83321600D01*
X294340500Y-83321600D02*
X296211800Y-83321600D01*
X296211800Y-83321600D02*
X298155700Y-81377700D01*
X298155700Y-81377700D02*
X298155700Y-81218300D01*
X298155700Y-81218300D02*
X299748600Y-79625400D01*
X299748600Y-79625400D02*
X308031500Y-79625400D01*
X308031500Y-79625400D02*
X313524900Y-85118800D01*
X86664500Y-73783300D02*
X74889704Y-73783300D01*
X74448002Y-74225002D02*
X73751998Y-74225002D01*
X73751998Y-74225002D02*
X73741986Y-74214990D01*
X90287500Y-76806200D02*
X89687400Y-76806200D01*
X73741986Y-74214990D02*
X67146724Y-74214990D01*
X67146724Y-74214990D02*
X67086914Y-74274800D01*
X74889704Y-73783300D02*
X74448002Y-74225002D01*
X61862600Y-74274800D02*
X59331200Y-76806200D01*
X89687400Y-76806200D02*
X86664500Y-73783300D01*
X67086914Y-74274800D02*
X61862600Y-74274800D01*
X45243800Y-101787000D02*
X43443800Y-101787000D01*
X43443800Y-101787000D02*
X42718800Y-102512000D01*
X233362000Y-99406200D02*
X232375600Y-98419800D01*
X232375600Y-98419800D02*
X231336200Y-98419800D01*
X252412000Y-99406200D02*
X251611900Y-99406200D01*
X233362000Y-99406200D02*
X234162100Y-99406200D01*
X234162100Y-99406200D02*
X237137200Y-102381300D01*
X237137200Y-102381300D02*
X243848300Y-102381300D01*
X243848300Y-102381300D02*
X246135200Y-100094400D01*
X246135200Y-100094400D02*
X246135200Y-99918300D01*
X246135200Y-99918300D02*
X247370900Y-98682600D01*
X247370900Y-98682600D02*
X250888300Y-98682600D01*
X250888300Y-98682600D02*
X251611900Y-99406200D01*
X213511900Y-95856200D02*
X213511900Y-95715200D01*
X213511900Y-95715200D02*
X210085000Y-92288300D01*
X313524900Y-104169000D02*
X313524900Y-103931400D01*
X313524900Y-103931400D02*
X312857900Y-103264400D01*
X312857900Y-103264400D02*
X309464100Y-103264400D01*
X309464100Y-103264400D02*
X308047200Y-104681300D01*
X308047200Y-104681300D02*
X308047200Y-104857400D01*
X308047200Y-104857400D02*
X305804400Y-107100200D01*
X305804400Y-107100200D02*
X303831800Y-107100200D01*
X303831800Y-107100200D02*
X301657700Y-104926100D01*
X301657700Y-104926100D02*
X301657700Y-104830800D01*
X301657700Y-104830800D02*
X299948100Y-103121200D01*
X299948100Y-103121200D02*
X296811100Y-103121200D01*
X296811100Y-103121200D02*
X296075100Y-103857200D01*
X296075100Y-103857200D02*
X296075100Y-104169000D01*
X73018700Y-95856200D02*
X73018700Y-94578700D01*
X73018700Y-94578700D02*
X71831000Y-93391000D01*
X73818800Y-95856200D02*
X74618900Y-95856200D01*
X96696500Y-92151900D02*
X97231200Y-92686600D01*
X97231200Y-92686600D02*
X97231200Y-95856200D01*
X74618900Y-95856200D02*
X78323200Y-92151900D01*
X78323200Y-92151900D02*
X96696500Y-92151900D01*
X96696500Y-92151900D02*
X100602100Y-88246300D01*
X100602100Y-88246300D02*
X100602100Y-83702000D01*
X100602100Y-83702000D02*
X103572600Y-80731500D01*
X103572600Y-80731500D02*
X103572600Y-80562600D01*
X103572600Y-80562600D02*
X104754200Y-79381000D01*
X104754200Y-79381000D02*
X110186700Y-79381000D01*
X110186700Y-79381000D02*
X114093400Y-83287700D01*
X114093400Y-83287700D02*
X116410400Y-83287700D01*
X116410400Y-83287700D02*
X120131000Y-87008300D01*
X120131000Y-87008300D02*
X120131000Y-91080100D01*
X120131000Y-91080100D02*
X125686300Y-96635400D01*
X125686300Y-96635400D02*
X127008700Y-96635400D01*
X127008700Y-96635400D02*
X127787900Y-95856200D01*
X73418800Y-95856200D02*
X73818800Y-95856200D01*
X73418800Y-95856200D02*
X73018700Y-95856200D01*
X195062000Y-95856200D02*
X198629900Y-92288300D01*
X198629900Y-92288300D02*
X202454500Y-92288300D01*
X214312000Y-95856200D02*
X213511900Y-95856200D01*
X195062000Y-95856200D02*
X194461900Y-95856200D01*
X195262000Y-95856200D02*
X195062000Y-95856200D01*
X375437900Y-99406200D02*
X374674500Y-98642800D01*
X374674500Y-98642800D02*
X371232800Y-98642800D01*
X371232800Y-98642800D02*
X369959200Y-99916400D01*
X369959200Y-99916400D02*
X369959200Y-100094400D01*
X369959200Y-100094400D02*
X367302100Y-102751500D01*
X367302100Y-102751500D02*
X367302100Y-104551900D01*
X367302100Y-104551900D02*
X364843300Y-107010700D01*
X364843300Y-107010700D02*
X357733800Y-107010700D01*
X45769200Y-95510200D02*
X46203800Y-95075600D01*
X46203800Y-95075600D02*
X46203800Y-56992800D01*
X127787900Y-95856200D02*
X127787900Y-95016300D01*
X127787900Y-95016300D02*
X130859600Y-91944600D01*
X130859600Y-91944600D02*
X132433500Y-91944600D01*
X167488100Y-95856200D02*
X169260300Y-94084000D01*
X169260300Y-94084000D02*
X169290700Y-94084000D01*
X169290700Y-94084000D02*
X170079200Y-93295500D01*
X170079200Y-93295500D02*
X191314100Y-93295500D01*
X191314100Y-93295500D02*
X193874800Y-95856200D01*
X193874800Y-95856200D02*
X194461900Y-95856200D01*
X128588000Y-95856200D02*
X127787900Y-95856200D01*
X97631200Y-95856200D02*
X97231200Y-95856200D01*
X252412000Y-99406200D02*
X252412000Y-105430400D01*
X252412000Y-105430400D02*
X253970000Y-106988400D01*
X253970000Y-106988400D02*
X271679500Y-106988400D01*
X271679500Y-106988400D02*
X272069600Y-107378500D01*
X272069600Y-107378500D02*
X272670300Y-107378500D01*
X272670300Y-107378500D02*
X273060400Y-106988400D01*
X273060400Y-106988400D02*
X279149800Y-106988400D01*
X279149800Y-106988400D02*
X281060800Y-105077400D01*
X357733800Y-107010700D02*
X355564300Y-109180200D01*
X355564300Y-109180200D02*
X345250300Y-109180200D01*
X345250300Y-109180200D02*
X343170300Y-107100200D01*
X343170300Y-107100200D02*
X337106300Y-107100200D01*
X337106300Y-107100200D02*
X334175100Y-104169000D01*
X357733800Y-107010700D02*
X357733800Y-102969300D01*
X357188000Y-99406200D02*
X356387900Y-99406200D01*
X356387900Y-99406200D02*
X356387900Y-101074900D01*
X356387900Y-101074900D02*
X356316600Y-101146200D01*
X376238000Y-99406200D02*
X375437900Y-99406200D01*
X333375000Y-104169000D02*
X334175100Y-104169000D01*
X333325100Y-104169000D02*
X333375000Y-104169000D01*
X333325100Y-104169000D02*
X333275200Y-104169000D01*
X314325000Y-104169000D02*
X313524900Y-104169000D01*
X295275000Y-104169000D02*
X296075100Y-104169000D01*
X294875000Y-104169000D02*
X295275000Y-104169000D01*
X294875000Y-104169000D02*
X294474900Y-104169000D01*
X281060800Y-105077400D02*
X281721000Y-104417200D01*
X281721000Y-104417200D02*
X294226700Y-104417200D01*
X294226700Y-104417200D02*
X294474900Y-104169000D01*
X272262100Y-99406200D02*
X275193100Y-102337200D01*
X275193100Y-102337200D02*
X278320500Y-102337200D01*
X278320500Y-102337200D02*
X281060800Y-105077400D01*
X45243800Y-98237000D02*
X45243800Y-96035600D01*
X45243800Y-96035600D02*
X45769200Y-95510200D01*
X166688000Y-95856200D02*
X167488100Y-95856200D01*
X50006200Y-95856200D02*
X50006200Y-96831300D01*
X50006200Y-96831300D02*
X49671900Y-96831300D01*
X49671900Y-96831300D02*
X49391000Y-97112200D01*
X314325000Y-104169000D02*
X315125100Y-104169000D01*
X332574900Y-104169000D02*
X331614400Y-103208500D01*
X331614400Y-103208500D02*
X328570000Y-103208500D01*
X328570000Y-103208500D02*
X327097200Y-104681300D01*
X327097200Y-104681300D02*
X327097200Y-104857400D01*
X327097200Y-104857400D02*
X324810300Y-107144300D01*
X324810300Y-107144300D02*
X318100400Y-107144300D01*
X318100400Y-107144300D02*
X315125100Y-104169000D01*
X271462000Y-99406200D02*
X272262100Y-99406200D01*
X333212500Y-104169000D02*
X333275200Y-104169000D01*
X333212500Y-104169000D02*
X332574900Y-104169000D01*
X52387500Y-42256200D02*
X52387500Y-43231300D01*
X56212500Y-47982500D02*
X56212500Y-46157400D01*
X52387500Y-43231300D02*
X53286400Y-43231300D01*
X53286400Y-43231300D02*
X56212500Y-46157400D01*
X308761900Y-42256200D02*
X308010200Y-41504500D01*
X308010200Y-41504500D02*
X299786500Y-41504500D01*
X299786500Y-41504500D02*
X298522200Y-42768800D01*
X298522200Y-42768800D02*
X298522200Y-42944900D01*
X298522200Y-42944900D02*
X296279400Y-45187700D01*
X296279400Y-45187700D02*
X294306800Y-45187700D01*
X294306800Y-45187700D02*
X292561500Y-43442400D01*
X292561500Y-43442400D02*
X292561500Y-43301200D01*
X292561500Y-43301200D02*
X290254800Y-40994500D01*
X290254800Y-40994500D02*
X287211700Y-40994500D01*
X287211700Y-40994500D02*
X286550100Y-41656100D01*
X286550100Y-41656100D02*
X286550100Y-42256200D01*
X309162000Y-42256200D02*
X308761900Y-42256200D01*
X309562000Y-42256200D02*
X309162000Y-42256200D01*
X285750000Y-42256200D02*
X286550100Y-42256200D01*
X285700100Y-42256200D02*
X285750000Y-42256200D01*
X285700100Y-42256200D02*
X285650200Y-42256200D01*
X284949900Y-42256200D02*
X283852800Y-41159100D01*
X283852800Y-41159100D02*
X281081900Y-41159100D01*
X281081900Y-41159100D02*
X279472200Y-42768800D01*
X279472200Y-42768800D02*
X279472200Y-42944900D01*
X279472200Y-42944900D02*
X277229400Y-45187700D01*
X277229400Y-45187700D02*
X275256800Y-45187700D01*
X275256800Y-45187700D02*
X273776000Y-43706900D01*
X273776000Y-43706900D02*
X273776000Y-42909100D01*
X273776000Y-42909100D02*
X272341600Y-41474700D01*
X272341600Y-41474700D02*
X267481500Y-41474700D01*
X267481500Y-41474700D02*
X266700000Y-42256200D01*
X172250100Y-38706200D02*
X174795400Y-36160900D01*
X174795400Y-36160900D02*
X187154600Y-36160900D01*
X187154600Y-36160900D02*
X189699900Y-38706200D01*
X375437900Y-42256200D02*
X374691700Y-41510000D01*
X374691700Y-41510000D02*
X371218000Y-41510000D01*
X371218000Y-41510000D02*
X369959200Y-42768800D01*
X369959200Y-42768800D02*
X369959200Y-42944900D01*
X369959200Y-42944900D02*
X367716400Y-45187700D01*
X367716400Y-45187700D02*
X360919600Y-45187700D01*
X360919600Y-45187700D02*
X357988100Y-42256200D01*
X227799900Y-42256200D02*
X227026600Y-41482900D01*
X227026600Y-41482900D02*
X223581600Y-41482900D01*
X223581600Y-41482900D02*
X222032500Y-43032000D01*
X222032500Y-43032000D02*
X222032500Y-43254400D01*
X222032500Y-43254400D02*
X220086900Y-45200000D01*
X220086900Y-45200000D02*
X213293900Y-45200000D01*
X213293900Y-45200000D02*
X210350100Y-42256200D01*
X376238000Y-42256200D02*
X375437900Y-42256200D01*
X357188000Y-42256200D02*
X357988100Y-42256200D01*
X338938100Y-42256200D02*
X341869600Y-45187700D01*
X341869600Y-45187700D02*
X348666400Y-45187700D01*
X348666400Y-45187700D02*
X350909100Y-42945000D01*
X350909100Y-42945000D02*
X350909100Y-42725900D01*
X350909100Y-42725900D02*
X352452100Y-41182900D01*
X352452100Y-41182900D02*
X356114700Y-41182900D01*
X356114700Y-41182900D02*
X357188000Y-42256200D01*
X246849900Y-42256200D02*
X246070100Y-41476400D01*
X246070100Y-41476400D02*
X242664600Y-41476400D01*
X242664600Y-41476400D02*
X241502100Y-42638900D01*
X241502100Y-42638900D02*
X241502100Y-42815000D01*
X241502100Y-42815000D02*
X239129400Y-45187700D01*
X239129400Y-45187700D02*
X237156800Y-45187700D01*
X237156800Y-45187700D02*
X235411500Y-43442400D01*
X235411500Y-43442400D02*
X235411500Y-43277900D01*
X235411500Y-43277900D02*
X233626600Y-41493000D01*
X233626600Y-41493000D02*
X230163300Y-41493000D01*
X230163300Y-41493000D02*
X229400100Y-42256200D01*
X265899900Y-42256200D02*
X265123100Y-41479400D01*
X265123100Y-41479400D02*
X261747400Y-41479400D01*
X261747400Y-41479400D02*
X260640400Y-42586400D01*
X260640400Y-42586400D02*
X260640400Y-42746500D01*
X260640400Y-42746500D02*
X258192900Y-45194000D01*
X258192900Y-45194000D02*
X251387900Y-45194000D01*
X251387900Y-45194000D02*
X248450100Y-42256200D01*
X266700000Y-42256200D02*
X265899900Y-42256200D01*
X247650000Y-42256200D02*
X248450100Y-42256200D01*
X247487500Y-42256200D02*
X247650000Y-42256200D01*
X247487500Y-42256200D02*
X246849900Y-42256200D01*
X210350100Y-42256200D02*
X210350100Y-41916500D01*
X210350100Y-41916500D02*
X210627100Y-41639500D01*
X228600000Y-42256200D02*
X227799900Y-42256200D01*
X228600000Y-42256200D02*
X229400100Y-42256200D01*
X338138000Y-42256200D02*
X338938100Y-42256200D01*
X209550000Y-42256200D02*
X210350100Y-42256200D01*
X190100000Y-38706200D02*
X192637700Y-36168500D01*
X192637700Y-36168500D02*
X203839500Y-36168500D01*
X203839500Y-36168500D02*
X206975500Y-39304500D01*
X206975500Y-39304500D02*
X206975500Y-39437600D01*
X190100000Y-38706200D02*
X189699900Y-38706200D01*
X190500000Y-38706200D02*
X190100000Y-38706200D01*
X132549900Y-38706200D02*
X130017900Y-36174200D01*
X130017900Y-36174200D02*
X117632100Y-36174200D01*
X117632100Y-36174200D02*
X115100100Y-38706200D01*
X51587400Y-38706200D02*
X44297300Y-31416100D01*
X44297300Y-31416100D02*
X27395100Y-31416100D01*
X27395100Y-31416100D02*
X26524000Y-32287200D01*
X26524000Y-32287200D02*
X26524000Y-36529800D01*
X26524000Y-36529800D02*
X28062400Y-38068200D01*
X285587500Y-42256200D02*
X285650200Y-42256200D01*
X285587500Y-42256200D02*
X284949900Y-42256200D01*
X52387500Y-38706200D02*
X51587400Y-38706200D01*
X52787600Y-38706200D02*
X52387500Y-38706200D01*
X52787600Y-38706200D02*
X53187600Y-38706200D01*
X171450000Y-38706200D02*
X172250100Y-38706200D01*
X171050000Y-38706200D02*
X171450000Y-38706200D01*
X171050000Y-38706200D02*
X170649900Y-38706200D01*
X152400000Y-38706200D02*
X153200100Y-38706200D01*
X153200100Y-38706200D02*
X155737100Y-36169200D01*
X155737100Y-36169200D02*
X168112900Y-36169200D01*
X168112900Y-36169200D02*
X170649900Y-38706200D01*
X152000000Y-38706200D02*
X152400000Y-38706200D01*
X152000000Y-38706200D02*
X151599900Y-38706200D01*
X133308100Y-38706200D02*
X135845100Y-36169200D01*
X135845100Y-36169200D02*
X149062900Y-36169200D01*
X149062900Y-36169200D02*
X151599900Y-38706200D01*
X133350000Y-38706200D02*
X133308100Y-38706200D01*
X132950000Y-38706200D02*
X132549900Y-38706200D01*
X132950000Y-38706200D02*
X133308100Y-38706200D01*
X114300000Y-38706200D02*
X115100100Y-38706200D01*
X113900000Y-38706200D02*
X114300000Y-38706200D01*
X113900000Y-38706200D02*
X113499900Y-38706200D01*
X95250000Y-38706200D02*
X96050100Y-38706200D01*
X96050100Y-38706200D02*
X98587100Y-36169200D01*
X98587100Y-36169200D02*
X110962900Y-36169200D01*
X110962900Y-36169200D02*
X113499900Y-38706200D01*
X94850000Y-38706200D02*
X95250000Y-38706200D01*
X94850000Y-38706200D02*
X94449900Y-38706200D01*
X76200000Y-38706200D02*
X75399900Y-38706200D01*
X76200000Y-38706200D02*
X77000100Y-38706200D01*
X77000100Y-38706200D02*
X79576600Y-36129700D01*
X79576600Y-36129700D02*
X91873400Y-36129700D01*
X91873400Y-36129700D02*
X94449900Y-38706200D01*
X75399900Y-38706200D02*
X72862900Y-36169200D01*
X72862900Y-36169200D02*
X55724600Y-36169200D01*
X55724600Y-36169200D02*
X53187600Y-38706200D01*
X337337900Y-42256200D02*
X338138000Y-42256200D01*
X322335200Y-42944900D02*
X322335200Y-42768800D01*
X324109500Y-40994500D02*
X336076200Y-40994500D01*
X322335200Y-42768800D02*
X324109500Y-40994500D01*
X319710100Y-45570000D02*
X322335200Y-42944900D01*
X336076200Y-40994500D02*
X337337900Y-42256200D01*
X312475800Y-45570000D02*
X319710100Y-45570000D01*
X309162000Y-42256200D02*
X312475800Y-45570000D01*
X54768800Y-61306200D02*
X54768800Y-62281300D01*
X58593800Y-67032500D02*
X58593800Y-65207400D01*
X54768800Y-62281300D02*
X55667700Y-62281300D01*
X55667700Y-62281300D02*
X58593800Y-65207400D01*
X251611900Y-61306200D02*
X250850600Y-60544900D01*
X250850600Y-60544900D02*
X247388200Y-60544900D01*
X247388200Y-60544900D02*
X246135200Y-61797900D01*
X246135200Y-61797900D02*
X246135200Y-61994900D01*
X246135200Y-61994900D02*
X243892400Y-64237700D01*
X243892400Y-64237700D02*
X241919900Y-64237700D01*
X241919900Y-64237700D02*
X240258500Y-62576300D01*
X240258500Y-62576300D02*
X240258500Y-61063000D01*
X240258500Y-61063000D02*
X239752600Y-60557100D01*
X239752600Y-60557100D02*
X234111100Y-60557100D01*
X234111100Y-60557100D02*
X233362000Y-61306200D01*
X232561900Y-61306200D02*
X232561900Y-60868800D01*
X232561900Y-60868800D02*
X231933100Y-60240000D01*
X231933100Y-60240000D02*
X228613100Y-60240000D01*
X228613100Y-60240000D02*
X226404300Y-62448800D01*
X226404300Y-62448800D02*
X226404300Y-62661100D01*
X226404300Y-62661100D02*
X224816500Y-64248900D01*
X224816500Y-64248900D02*
X219220200Y-64248900D01*
X219220200Y-64248900D02*
X216090800Y-61119500D01*
X216090800Y-61119500D02*
X214298700Y-61119500D01*
X214298700Y-61119500D02*
X214112000Y-61306200D01*
X233362000Y-61306200D02*
X232561900Y-61306200D01*
X214112000Y-61306200D02*
X213511900Y-61306200D01*
X214312000Y-61306200D02*
X214112000Y-61306200D01*
X119062000Y-57756200D02*
X118261900Y-57756200D01*
X100012000Y-57756200D02*
X100812100Y-57756200D01*
X100812100Y-57756200D02*
X104745100Y-53823200D01*
X104745100Y-53823200D02*
X110825500Y-53823200D01*
X110825500Y-53823200D02*
X111698700Y-54696400D01*
X111698700Y-54696400D02*
X115202100Y-54696400D01*
X115202100Y-54696400D02*
X118261900Y-57756200D01*
X100007500Y-57756200D02*
X100012000Y-57756200D01*
X100007500Y-57756200D02*
X99865300Y-57756200D01*
X51567500Y-54578200D02*
X51567500Y-57047800D01*
X51567500Y-57047800D02*
X52275900Y-57756200D01*
X52275900Y-57756200D02*
X54768800Y-57756200D01*
X119862100Y-57756200D02*
X122921900Y-54696400D01*
X122921900Y-54696400D02*
X134252100Y-54696400D01*
X134252100Y-54696400D02*
X137311900Y-57756200D01*
X270661900Y-61306200D02*
X269890200Y-60534500D01*
X269890200Y-60534500D02*
X266450000Y-60534500D01*
X266450000Y-60534500D02*
X265625400Y-61359100D01*
X265625400Y-61359100D02*
X265625400Y-61727900D01*
X265625400Y-61727900D02*
X262946500Y-64406800D01*
X262946500Y-64406800D02*
X262946500Y-66029400D01*
X262946500Y-66029400D02*
X260105700Y-68870200D01*
X260105700Y-68870200D02*
X253990000Y-68870200D01*
X253990000Y-68870200D02*
X252412000Y-67292200D01*
X252412000Y-67292200D02*
X252412000Y-61306200D01*
X213511900Y-61306200D02*
X212793000Y-60587300D01*
X212793000Y-60587300D02*
X209270200Y-60587300D01*
X209270200Y-60587300D02*
X207391600Y-62465900D01*
X207391600Y-62465900D02*
X207391600Y-62597300D01*
X207391600Y-62597300D02*
X205746800Y-64242100D01*
X205746800Y-64242100D02*
X200106800Y-64242100D01*
X200106800Y-64242100D02*
X196858500Y-60993800D01*
X196858500Y-60993800D02*
X196858500Y-60208200D01*
X271462000Y-61306200D02*
X270661900Y-61306200D01*
X252362600Y-61306200D02*
X252412000Y-61306200D01*
X138112000Y-57756200D02*
X138912100Y-57756200D01*
X157162000Y-57756200D02*
X157162000Y-55395100D01*
X157162000Y-55395100D02*
X157124600Y-55357700D01*
X138912100Y-57756200D02*
X141443500Y-55224800D01*
X141443500Y-55224800D02*
X150904300Y-55224800D01*
X150904300Y-55224800D02*
X151037200Y-55357700D01*
X137712000Y-57756200D02*
X138112000Y-57756200D01*
X180268800Y-45351600D02*
X180268800Y-53062800D01*
X180268800Y-53062800D02*
X177012100Y-56319500D01*
X177012100Y-56319500D02*
X177012100Y-57756200D01*
X80906800Y-57756200D02*
X77924500Y-54773900D01*
X77924500Y-54773900D02*
X58551200Y-54773900D01*
X58551200Y-54773900D02*
X55568900Y-57756200D01*
X157162000Y-57756200D02*
X157962100Y-57756200D01*
X180268800Y-45351600D02*
X181815500Y-45351600D01*
X181815500Y-45351600D02*
X184222200Y-42944900D01*
X184222200Y-42944900D02*
X184222200Y-42768800D01*
X184222200Y-42768800D02*
X185715200Y-41275800D01*
X185715200Y-41275800D02*
X191127500Y-41275800D01*
X191127500Y-41275800D02*
X194431100Y-44579400D01*
X194431100Y-44579400D02*
X196739900Y-44579400D01*
X196739900Y-44579400D02*
X199360900Y-47200400D01*
X199360900Y-47200400D02*
X199360900Y-48748500D01*
X199360900Y-48748500D02*
X196170200Y-51939200D01*
X196170200Y-51939200D02*
X196170200Y-57756200D01*
X157962100Y-57756200D02*
X162824500Y-52893800D01*
X162824500Y-52893800D02*
X162824500Y-45292600D01*
X162824500Y-45292600D02*
X165172200Y-42944900D01*
X165172200Y-42944900D02*
X165172200Y-42768800D01*
X165172200Y-42768800D02*
X166665200Y-41275800D01*
X166665200Y-41275800D02*
X172077500Y-41275800D01*
X172077500Y-41275800D02*
X176153300Y-45351600D01*
X176153300Y-45351600D02*
X180268800Y-45351600D01*
X196170200Y-57756200D02*
X196858500Y-58444500D01*
X196062100Y-57756200D02*
X196170200Y-57756200D01*
X176212000Y-57756200D02*
X177012100Y-57756200D01*
X301618900Y-61306200D02*
X300857600Y-60544900D01*
X300857600Y-60544900D02*
X285488200Y-60544900D01*
X285488200Y-60544900D02*
X284235200Y-61797900D01*
X284235200Y-61797900D02*
X284235200Y-61994900D01*
X284235200Y-61994900D02*
X281992400Y-64237700D01*
X281992400Y-64237700D02*
X280019800Y-64237700D01*
X280019800Y-64237700D02*
X278274500Y-62492400D01*
X278274500Y-62492400D02*
X278274500Y-62331100D01*
X278274500Y-62331100D02*
X276196500Y-60253100D01*
X276196500Y-60253100D02*
X273315200Y-60253100D01*
X273315200Y-60253100D02*
X272262100Y-61306200D01*
X252362600Y-61306200D02*
X252313200Y-61306200D01*
X99612000Y-57756200D02*
X99211900Y-57756200D01*
X99612000Y-57756200D02*
X99865300Y-57756200D01*
X80934700Y-57756200D02*
X83472100Y-55218800D01*
X83472100Y-55218800D02*
X96674500Y-55218800D01*
X96674500Y-55218800D02*
X99211900Y-57756200D01*
X80934700Y-57756200D02*
X80906800Y-57756200D01*
X80962500Y-57756200D02*
X80934700Y-57756200D01*
X271462000Y-61306200D02*
X272262100Y-61306200D01*
X195262000Y-57756200D02*
X196062100Y-57756200D01*
X302419000Y-61306200D02*
X301618900Y-61306200D01*
X252250000Y-61306200D02*
X252313200Y-61306200D01*
X252250000Y-61306200D02*
X251611900Y-61306200D01*
X55168900Y-57756200D02*
X55568900Y-57756200D01*
X54768800Y-57756200D02*
X55043600Y-57756200D01*
X55168900Y-57756200D02*
X55043600Y-57756200D01*
X137712000Y-57756200D02*
X137311900Y-57756200D01*
X119062000Y-57756200D02*
X119862100Y-57756200D01*
X59531200Y-80356200D02*
X59531200Y-81331300D01*
X63356200Y-86082500D02*
X63356200Y-84257400D01*
X59531200Y-81331300D02*
X60430100Y-81331300D01*
X60430100Y-81331300D02*
X63356200Y-84257400D01*
X53831200Y-105132000D02*
X53831200Y-103306900D01*
X50006200Y-99406200D02*
X50806300Y-99406200D01*
X50806300Y-99406200D02*
X50806300Y-100282000D01*
X50806300Y-100282000D02*
X53831200Y-103306900D01*
X80025000Y-47982500D02*
X80025000Y-46157400D01*
X76200000Y-42256200D02*
X77000100Y-42256200D01*
X77000100Y-42256200D02*
X77000100Y-43132500D01*
X77000100Y-43132500D02*
X80025000Y-46157400D01*
X84787500Y-67032500D02*
X84787500Y-65207400D01*
X80962500Y-61306200D02*
X81762600Y-61306200D01*
X81762600Y-61306200D02*
X81762600Y-62182500D01*
X81762600Y-62182500D02*
X84787500Y-65207400D01*
X90487500Y-80356200D02*
X90487500Y-81331300D01*
X94312000Y-86082500D02*
X94312000Y-84257400D01*
X90487500Y-81331300D02*
X91385900Y-81331300D01*
X91385900Y-81331300D02*
X94312000Y-84257400D01*
X77643800Y-105132000D02*
X77643800Y-103306900D01*
X73818800Y-99406200D02*
X74618900Y-99406200D01*
X74618900Y-99406200D02*
X74618900Y-100282000D01*
X74618900Y-100282000D02*
X77643800Y-103306900D01*
X95250000Y-42256200D02*
X95250000Y-43231300D01*
X99075000Y-47982500D02*
X99075000Y-46157400D01*
X95250000Y-43231300D02*
X96148900Y-43231300D01*
X96148900Y-43231300D02*
X99075000Y-46157400D01*
X100012000Y-61306200D02*
X100012000Y-62281300D01*
X103838000Y-67032500D02*
X103838000Y-65207400D01*
X100012000Y-62281300D02*
X100911900Y-62281300D01*
X100911900Y-62281300D02*
X103838000Y-65207400D01*
X109538000Y-80356200D02*
X109538000Y-81331300D01*
X113362000Y-86082500D02*
X113362000Y-84257400D01*
X109538000Y-81331300D02*
X110435900Y-81331300D01*
X110435900Y-81331300D02*
X113362000Y-84257400D01*
X101456000Y-105132000D02*
X101456000Y-103306900D01*
X97631200Y-99406200D02*
X98431300Y-99406200D01*
X98431300Y-99406200D02*
X98431300Y-100282200D01*
X98431300Y-100282200D02*
X101456000Y-103306900D01*
X114300000Y-42256200D02*
X114300000Y-43231300D01*
X118125000Y-47982500D02*
X118125000Y-46157400D01*
X114300000Y-43231300D02*
X115198900Y-43231300D01*
X115198900Y-43231300D02*
X118125000Y-46157400D01*
X119062000Y-61306200D02*
X119062000Y-62281300D01*
X122888000Y-67032500D02*
X122888000Y-65207400D01*
X119062000Y-62281300D02*
X119961900Y-62281300D01*
X119961900Y-62281300D02*
X122888000Y-65207400D01*
X128588000Y-80356200D02*
X128588000Y-81331300D01*
X132412000Y-86082500D02*
X132412000Y-84257400D01*
X128588000Y-81331300D02*
X129485900Y-81331300D01*
X129485900Y-81331300D02*
X132412000Y-84257400D01*
X128588000Y-99406200D02*
X128588000Y-100381300D01*
X132412000Y-105132000D02*
X132412000Y-103306900D01*
X128588000Y-100381300D02*
X129486400Y-100381300D01*
X129486400Y-100381300D02*
X132412000Y-103306900D01*
X133350000Y-42256200D02*
X133350000Y-43231300D01*
X137175000Y-47982500D02*
X137175000Y-46157400D01*
X133350000Y-43231300D02*
X134248900Y-43231300D01*
X134248900Y-43231300D02*
X137175000Y-46157400D01*
X138112000Y-61306200D02*
X138112000Y-62281300D01*
X141938000Y-67032500D02*
X141938000Y-65207400D01*
X138112000Y-62281300D02*
X139011900Y-62281300D01*
X139011900Y-62281300D02*
X141938000Y-65207400D01*
X147638000Y-80356200D02*
X147638000Y-81331300D01*
X151462000Y-86082500D02*
X151462000Y-84257400D01*
X147638000Y-81331300D02*
X148535900Y-81331300D01*
X148535900Y-81331300D02*
X151462000Y-84257400D01*
X152400000Y-42256200D02*
X152400000Y-43231300D01*
X156225000Y-47982500D02*
X156225000Y-46157400D01*
X152400000Y-43231300D02*
X153298900Y-43231300D01*
X153298900Y-43231300D02*
X156225000Y-46157400D01*
X157162000Y-61306200D02*
X157162000Y-62281300D01*
X160988000Y-67032500D02*
X160988000Y-65207400D01*
X157162000Y-62281300D02*
X158061900Y-62281300D01*
X158061900Y-62281300D02*
X160988000Y-65207400D01*
X166688000Y-80356200D02*
X166688000Y-81331300D01*
X170512000Y-86082500D02*
X170512000Y-84257400D01*
X166688000Y-81331300D02*
X167585900Y-81331300D01*
X167585900Y-81331300D02*
X170512000Y-84257400D01*
X166688000Y-99406200D02*
X166688000Y-100381300D01*
X170512000Y-105132000D02*
X170512000Y-103306900D01*
X166688000Y-100381300D02*
X167586400Y-100381300D01*
X167586400Y-100381300D02*
X170512000Y-103306900D01*
X171450000Y-42256200D02*
X171450000Y-43231300D01*
X175275000Y-47982500D02*
X175275000Y-46157400D01*
X171450000Y-43231300D02*
X172348900Y-43231300D01*
X172348900Y-43231300D02*
X175275000Y-46157400D01*
X176212000Y-61306200D02*
X176212000Y-62281300D01*
X180038000Y-67032500D02*
X180038000Y-65207400D01*
X180038000Y-65207400D02*
X177111900Y-62281300D01*
X177111900Y-62281300D02*
X176212000Y-62281300D01*
X185738000Y-80356200D02*
X185738000Y-81331300D01*
X189562000Y-86082500D02*
X189562000Y-84257400D01*
X185738000Y-81331300D02*
X186635900Y-81331300D01*
X186635900Y-81331300D02*
X189562000Y-84257400D01*
X195262000Y-99406200D02*
X195262000Y-100381300D01*
X199088000Y-105132000D02*
X199088000Y-103306900D01*
X195262000Y-100381300D02*
X196162400Y-100381300D01*
X196162400Y-100381300D02*
X199088000Y-103306900D01*
X190500000Y-42256200D02*
X190500000Y-43231300D01*
X194325000Y-47982500D02*
X194325000Y-46157400D01*
X190500000Y-43231300D02*
X191398900Y-43231300D01*
X191398900Y-43231300D02*
X194325000Y-46157400D01*
X195262000Y-61306200D02*
X195262000Y-62281300D01*
X199088000Y-67032500D02*
X199088000Y-65207400D01*
X195262000Y-62281300D02*
X196161900Y-62281300D01*
X196161900Y-62281300D02*
X199088000Y-65207400D01*
X204788000Y-80356200D02*
X204788000Y-81331300D01*
X208612000Y-86082500D02*
X208612000Y-84257400D01*
X204788000Y-81331300D02*
X205685900Y-81331300D01*
X205685900Y-81331300D02*
X208612000Y-84257400D01*
X214312000Y-99406200D02*
X214312000Y-100381300D01*
X218138000Y-105132000D02*
X218138000Y-103306900D01*
X214312000Y-100381300D02*
X215212400Y-100381300D01*
X215212400Y-100381300D02*
X218138000Y-103306900D01*
X209550000Y-38706200D02*
X210350100Y-38706200D01*
X210350100Y-38706200D02*
X210350100Y-38781800D01*
X210350100Y-38781800D02*
X211109600Y-39541300D01*
X213375000Y-47982500D02*
X213375000Y-46157400D01*
X208463600Y-42848400D02*
X208510100Y-42848400D01*
X208510100Y-42848400D02*
X211819100Y-46157400D01*
X211819100Y-46157400D02*
X213375000Y-46157400D01*
X214312000Y-57756200D02*
X213511900Y-57756200D01*
X213511900Y-57756200D02*
X213511900Y-58048200D01*
X213511900Y-58048200D02*
X213206500Y-58353600D01*
X218138000Y-67032500D02*
X218138000Y-64268700D01*
X218138000Y-64268700D02*
X216442100Y-62572800D01*
X227662000Y-86082500D02*
X227662000Y-84257400D01*
X223838000Y-76806200D02*
X224638100Y-76806200D01*
X224638100Y-76806200D02*
X224638100Y-77072800D01*
X224638100Y-77072800D02*
X224993200Y-77427900D01*
X227662000Y-84257400D02*
X224993200Y-81588600D01*
X224993200Y-81588600D02*
X224993200Y-79172200D01*
X237188000Y-103306900D02*
X235631200Y-103306900D01*
X235631200Y-103306900D02*
X232118000Y-99793700D01*
X232118000Y-99793700D02*
X232118000Y-99190200D01*
X237188000Y-105132000D02*
X237188000Y-103306900D01*
X233362000Y-95856200D02*
X231556600Y-95856200D01*
X231556600Y-95856200D02*
X230702300Y-96710500D01*
X232425000Y-47982500D02*
X232425000Y-46157400D01*
X229400100Y-38706200D02*
X230212600Y-39518700D01*
X230212600Y-39518700D02*
X232084000Y-39518700D01*
X228600000Y-38706200D02*
X229400100Y-38706200D01*
X232425000Y-46157400D02*
X233075600Y-46157400D01*
X233075600Y-46157400D02*
X235084800Y-44148200D01*
X233362000Y-57756200D02*
X231550500Y-57756200D01*
X231550500Y-57756200D02*
X230828900Y-58477800D01*
X234602700Y-61710500D02*
X237188000Y-64295800D01*
X237188000Y-64295800D02*
X237188000Y-67032500D01*
X246712000Y-86082500D02*
X248663000Y-84131500D01*
X248663000Y-84131500D02*
X248663000Y-79875400D01*
X248663000Y-79875400D02*
X247954000Y-79166400D01*
X243688100Y-76806200D02*
X245593800Y-76806200D01*
X245593800Y-76806200D02*
X246233000Y-77445400D01*
X242888000Y-76806200D02*
X243688100Y-76806200D01*
X256238000Y-103306900D02*
X254426800Y-101495700D01*
X254426800Y-101495700D02*
X254426800Y-98413600D01*
X256238000Y-105132000D02*
X256238000Y-103306900D01*
X253212100Y-95856200D02*
X253212100Y-95934100D01*
X253212100Y-95934100D02*
X253972000Y-96694000D01*
X252412000Y-95856200D02*
X253212100Y-95856200D01*
X245755500Y-42201500D02*
X245980500Y-42201500D01*
X245980500Y-42201500D02*
X249936400Y-46157400D01*
X249936400Y-46157400D02*
X251475000Y-46157400D01*
X251475000Y-47982500D02*
X251475000Y-46157400D01*
X247650000Y-38706200D02*
X248450100Y-38706200D01*
X248450100Y-38706200D02*
X248450100Y-39027800D01*
X248450100Y-39027800D02*
X248963600Y-39541300D01*
X256238000Y-65207400D02*
X253739900Y-62709300D01*
X253739900Y-62709300D02*
X253739900Y-60204100D01*
X256238000Y-67032500D02*
X256238000Y-65207400D01*
X252412000Y-57756200D02*
X253212100Y-57756200D01*
X253212100Y-57756200D02*
X253212100Y-57941400D01*
X253212100Y-57941400D02*
X253739900Y-58469200D01*
X261938000Y-76806200D02*
X262738100Y-76806200D01*
X262738100Y-76806200D02*
X262738100Y-76878600D01*
X262738100Y-76878600D02*
X263292200Y-77432700D01*
X265762000Y-86082500D02*
X265762000Y-82585300D01*
X265762000Y-82585300D02*
X262557700Y-79381000D01*
X262557700Y-79381000D02*
X261283200Y-79381000D01*
X261283200Y-79381000D02*
X260846000Y-79818200D01*
X275288000Y-103306900D02*
X273712600Y-103306900D01*
X273712600Y-103306900D02*
X270661800Y-100256100D01*
X270661800Y-100256100D02*
X270661800Y-98621700D01*
X270661800Y-98621700D02*
X270868200Y-98415300D01*
X270868200Y-98415300D02*
X272553900Y-98415300D01*
X272553900Y-98415300D02*
X272553900Y-98415200D01*
X275288000Y-105132000D02*
X275288000Y-103306900D01*
X272262100Y-95856200D02*
X272553900Y-96148000D01*
X272553900Y-96148000D02*
X272553900Y-96706000D01*
X271462000Y-95856200D02*
X272262100Y-95856200D01*
X270525000Y-47982500D02*
X270525000Y-46157400D01*
X267500100Y-38706200D02*
X267500100Y-39158500D01*
X267500100Y-39158500D02*
X267870600Y-39529000D01*
X266700000Y-38706200D02*
X267500100Y-38706200D01*
X270525000Y-46157400D02*
X268162100Y-43794500D01*
X268162100Y-43794500D02*
X268162100Y-42199800D01*
X275288000Y-67032500D02*
X275288000Y-65207400D01*
X271462000Y-57756200D02*
X270661900Y-57756200D01*
X270661900Y-57756200D02*
X270661900Y-57779600D01*
X270661900Y-57779600D02*
X270360300Y-58081200D01*
X274027000Y-60978200D02*
X274027000Y-63946400D01*
X274027000Y-63946400D02*
X275288000Y-65207400D01*
X285750000Y-76806200D02*
X284949900Y-76806200D01*
X284652800Y-77433100D02*
X284949900Y-77136000D01*
X284949900Y-77136000D02*
X284949900Y-76806200D01*
X289575000Y-86082500D02*
X289575000Y-84257400D01*
X289575000Y-84257400D02*
X288010200Y-82692600D01*
X288010200Y-82692600D02*
X288010200Y-80584400D01*
X299100000Y-109895000D02*
X299100000Y-108069900D01*
X295275000Y-100619000D02*
X297561900Y-100619000D01*
X297561900Y-100619000D02*
X298402500Y-101459600D01*
X297111400Y-103846300D02*
X297111400Y-106081300D01*
X297111400Y-106081300D02*
X299100000Y-108069900D01*
X289575000Y-47982500D02*
X289575000Y-46157400D01*
X285750000Y-38706200D02*
X284949900Y-38706200D01*
X284949900Y-38706200D02*
X284949900Y-38714200D01*
X284949900Y-38714200D02*
X284122800Y-39541300D01*
X287527700Y-41726500D02*
X287527700Y-44110100D01*
X287527700Y-44110100D02*
X289575000Y-46157400D01*
X306244000Y-67032500D02*
X306244000Y-65207400D01*
X302419000Y-57756200D02*
X305535900Y-57756200D01*
X305535900Y-57756200D02*
X306251200Y-58471500D01*
X306244000Y-65207400D02*
X305486300Y-64449700D01*
X305486300Y-64449700D02*
X305486300Y-60969900D01*
X305486300Y-60969900D02*
X306251200Y-60205000D01*
X318150000Y-90845000D02*
X318150000Y-89019900D01*
X314325000Y-81568800D02*
X315125100Y-81568800D01*
X315125100Y-81568800D02*
X315125100Y-85995000D01*
X315125100Y-85995000D02*
X318150000Y-89019900D01*
X318150000Y-109895000D02*
X318150000Y-108069900D01*
X314325000Y-100619000D02*
X313387900Y-100619000D01*
X313387900Y-100619000D02*
X312557500Y-101449400D01*
X312557500Y-103989500D02*
X316637900Y-108069900D01*
X316637900Y-108069900D02*
X318150000Y-108069900D01*
X313388000Y-46157400D02*
X311626800Y-46157400D01*
X311626800Y-46157400D02*
X308006200Y-42536800D01*
X313388000Y-47982500D02*
X313388000Y-46157400D01*
X309562000Y-38706200D02*
X310362100Y-38706200D01*
X310362100Y-38706200D02*
X310362100Y-39179000D01*
X310362100Y-39179000D02*
X310683600Y-39500500D01*
X338138000Y-38706200D02*
X325683700Y-38706200D01*
X325683700Y-38706200D02*
X324848600Y-39541300D01*
X328170700Y-41726500D02*
X334426700Y-47982500D01*
X334426700Y-47982500D02*
X341962000Y-47982500D01*
X375437900Y-61306200D02*
X375437900Y-60533400D01*
X375437900Y-60533400D02*
X374869800Y-59965300D01*
X374869800Y-59965300D02*
X371791800Y-59965300D01*
X371791800Y-59965300D02*
X369959200Y-61797900D01*
X369959200Y-61797900D02*
X369959200Y-61994900D01*
X369959200Y-61994900D02*
X367716400Y-64237700D01*
X367716400Y-64237700D02*
X365743800Y-64237700D01*
X365743800Y-64237700D02*
X363998500Y-62492400D01*
X363998500Y-62492400D02*
X363998500Y-62327900D01*
X363998500Y-62327900D02*
X362207000Y-60536400D01*
X362207000Y-60536400D02*
X357857000Y-60536400D01*
X357857000Y-60536400D02*
X357087200Y-61306200D01*
X376238000Y-61306200D02*
X375437900Y-61306200D01*
X357188000Y-61306200D02*
X357087200Y-61306200D01*
X357025000Y-61306200D02*
X357087200Y-61306200D01*
X357025000Y-61306200D02*
X356387900Y-61306200D01*
X338138000Y-61306200D02*
X338938100Y-61306200D01*
X338938100Y-61306200D02*
X339697200Y-60547100D01*
X339697200Y-60547100D02*
X343144500Y-60547100D01*
X343144500Y-60547100D02*
X344948500Y-62351100D01*
X344948500Y-62351100D02*
X344948500Y-62492400D01*
X344948500Y-62492400D02*
X346693800Y-64237700D01*
X346693800Y-64237700D02*
X348666400Y-64237700D01*
X348666400Y-64237700D02*
X351014400Y-61889700D01*
X351014400Y-61889700D02*
X351014400Y-61683000D01*
X351014400Y-61683000D02*
X352523200Y-60174200D01*
X352523200Y-60174200D02*
X355255900Y-60174200D01*
X355255900Y-60174200D02*
X356387900Y-61306200D01*
X338138000Y-57756200D02*
X334845100Y-57756200D01*
X334845100Y-57756200D02*
X334141000Y-58460300D01*
X339442700Y-62020000D02*
X341962000Y-64539300D01*
X341962000Y-64539300D02*
X341962000Y-67032500D01*
X357188000Y-87911200D02*
X357188000Y-80356200D01*
X338138000Y-80356200D02*
X339761900Y-80356200D01*
X339761900Y-80356200D02*
X342693400Y-83287700D01*
X342693400Y-83287700D02*
X344963900Y-83287700D01*
X344963900Y-83287700D02*
X347226400Y-85550200D01*
X347226400Y-85550200D02*
X347226400Y-96503800D01*
X347226400Y-96503800D02*
X347651200Y-96928600D01*
X347651200Y-96928600D02*
X348310600Y-96928600D01*
X348310600Y-96928600D02*
X357188000Y-88051200D01*
X357188000Y-88051200D02*
X357188000Y-87911200D01*
X357188000Y-87911200D02*
X364903600Y-87911200D01*
X364903600Y-87911200D02*
X367302100Y-85512700D01*
X367302100Y-85512700D02*
X367302100Y-83702000D01*
X367302100Y-83702000D02*
X369959100Y-81045000D01*
X369959100Y-81045000D02*
X369959100Y-80879700D01*
X369959100Y-80879700D02*
X371256400Y-79582400D01*
X371256400Y-79582400D02*
X374664100Y-79582400D01*
X374664100Y-79582400D02*
X375437900Y-80356200D01*
X376238000Y-80356200D02*
X375437900Y-80356200D01*
X341962000Y-84257400D02*
X339331500Y-81626900D01*
X339331500Y-81626900D02*
X339331500Y-81087500D01*
X341962000Y-86082500D02*
X341962000Y-84257400D01*
X338138000Y-76806200D02*
X338938100Y-76806200D01*
X338938100Y-76806200D02*
X338938100Y-77030600D01*
X338938100Y-77030600D02*
X339331500Y-77424000D01*
X337200000Y-109895000D02*
X337200000Y-108069900D01*
X333375000Y-100619000D02*
X334957400Y-100619000D01*
X334957400Y-100619000D02*
X335799400Y-101461000D01*
X337200000Y-108069900D02*
X336998200Y-108069900D01*
X336998200Y-108069900D02*
X334255200Y-105326900D01*
X361012000Y-47982500D02*
X361012000Y-46157400D01*
X357188000Y-38706200D02*
X356347700Y-38706200D01*
X356347700Y-38706200D02*
X355508900Y-39545000D01*
X355681800Y-41918000D02*
X355681800Y-42335100D01*
X355681800Y-42335100D02*
X359504100Y-46157400D01*
X359504100Y-46157400D02*
X361012000Y-46157400D01*
X357188000Y-57756200D02*
X356387900Y-57756200D01*
X356387900Y-57756200D02*
X356387900Y-57839800D01*
X356387900Y-57839800D02*
X355750000Y-58477700D01*
X361012000Y-65207400D02*
X359465000Y-65207400D01*
X359465000Y-65207400D02*
X355958700Y-61701100D01*
X355958700Y-61701100D02*
X355750000Y-61701100D01*
X361012000Y-67032500D02*
X361012000Y-65207400D01*
X357988100Y-76806200D02*
X358600900Y-77419000D01*
X358600900Y-77419000D02*
X359873400Y-77419000D01*
X361012000Y-86082500D02*
X363163900Y-83930600D01*
X363163900Y-83930600D02*
X363163900Y-79205900D01*
X357188000Y-76806200D02*
X357988100Y-76806200D01*
X361012000Y-105132000D02*
X361012000Y-103306900D01*
X357188000Y-95856200D02*
X357988100Y-95856200D01*
X357988100Y-95856200D02*
X357988100Y-100296600D01*
X357988100Y-100296600D02*
X357325900Y-100958800D01*
X359770900Y-101678000D02*
X359770900Y-102065800D01*
X359770900Y-102065800D02*
X361012000Y-103306900D01*
X375437900Y-38706200D02*
X375437900Y-39230400D01*
X375437900Y-39230400D02*
X375158400Y-39509900D01*
X376238000Y-38706200D02*
X375437900Y-38706200D01*
X377339100Y-41396800D02*
X380062000Y-44119700D01*
X380062000Y-44119700D02*
X380062000Y-47982500D01*
X376238000Y-57756200D02*
X375437900Y-57756200D01*
X375437900Y-57756200D02*
X375437900Y-57888300D01*
X375437900Y-57888300D02*
X375152000Y-58174200D01*
X380062000Y-65207400D02*
X377179500Y-62324900D01*
X377179500Y-62324900D02*
X377179500Y-60201700D01*
X380062000Y-67032500D02*
X380062000Y-65207400D01*
X380062000Y-86082500D02*
X380062000Y-84257400D01*
X376238000Y-76806200D02*
X375437900Y-76806200D01*
X375437900Y-76806200D02*
X375437900Y-76969400D01*
X375437900Y-76969400D02*
X375148300Y-77259000D01*
X380062000Y-84257400D02*
X377070300Y-81265700D01*
X377070300Y-81265700D02*
X377070300Y-79181000D01*
X380062000Y-105132000D02*
X380062000Y-103306900D01*
X376238000Y-95856200D02*
X375437900Y-95856200D01*
X375437900Y-95856200D02*
X375437900Y-95703900D01*
X375437900Y-95703900D02*
X375133600Y-95399600D01*
X380062000Y-103306900D02*
X377339100Y-100584000D01*
X377339100Y-100584000D02*
X377339100Y-98244100D01*
X380260000Y-35890000D02*
X365110600Y-35890000D01*
X365110600Y-35890000D02*
X364112000Y-36888600D01*
X364112000Y-36888600D02*
X364112000Y-37350000D01*
D20*
X33142400Y-38068200D02*
X30602400Y-38068200D01*
X30602400Y-38068200D02*
X28062400Y-40608200D01*
X43282400Y-38068200D02*
X33142400Y-38068200D01*
X24266900Y-43148200D02*
X25062500Y-43943800D01*
X25062500Y-43943800D02*
X25062500Y-46543800D01*
X25062500Y-46543800D02*
X23862500Y-47743800D01*
X23862500Y-42743800D02*
X24266900Y-43148200D01*
X30090000Y-108750000D02*
X33080800Y-108750000D01*
X33080800Y-108750000D02*
X33118800Y-108788000D01*
X299840000Y-98230000D02*
X301168000Y-98230000D01*
X301168000Y-98230000D02*
X302200000Y-99262000D01*
X318540000Y-80510000D02*
X320952000Y-80510000D01*
X320952000Y-80510000D02*
X321250000Y-80212500D01*
X316240000Y-99490000D02*
X321022000Y-99490000D01*
X321022000Y-99490000D02*
X321250000Y-99262000D01*
X313430000Y-37250000D02*
X316388000Y-37250000D01*
X316388000Y-37250000D02*
X316488000Y-37350000D01*
X305900000Y-56440000D02*
X307720000Y-56440000D01*
X307720000Y-56440000D02*
X307760000Y-56400000D01*
X307760000Y-56400000D02*
X309344000Y-56400000D01*
X289820000Y-37310000D02*
X292635000Y-37310000D01*
X292635000Y-37310000D02*
X292675000Y-37350000D01*
X289620000Y-75490000D02*
X292635000Y-75490000D01*
X292635000Y-75490000D02*
X292675000Y-75450000D01*
X271010000Y-37250000D02*
X273525000Y-37250000D01*
X273525000Y-37250000D02*
X273625000Y-37350000D01*
X274440000Y-56380000D02*
X278368000Y-56380000D01*
X278368000Y-56380000D02*
X278388000Y-56400000D01*
X251910000Y-37400000D02*
X254525000Y-37400000D01*
X254525000Y-37400000D02*
X254575000Y-37350000D01*
X256510000Y-56300000D02*
X259238000Y-56300000D01*
X259238000Y-56300000D02*
X259338000Y-56400000D01*
X265960000Y-75550000D02*
X268762000Y-75550000D01*
X268762000Y-75550000D02*
X268862000Y-75450000D01*
X278388000Y-94500000D02*
X277328000Y-93440000D01*
X277328000Y-93440000D02*
X275220000Y-93440000D01*
X232910000Y-37260000D02*
X235296000Y-37260000D01*
X235296000Y-37260000D02*
X235306000Y-37250000D01*
X237610000Y-56260000D02*
X240148000Y-56260000D01*
X240148000Y-56260000D02*
X240288000Y-56400000D01*
X246890000Y-74890000D02*
X249252000Y-74890000D01*
X249252000Y-74890000D02*
X249812000Y-75450000D01*
X256370000Y-93150000D02*
X257988000Y-93150000D01*
X257988000Y-93150000D02*
X259338000Y-94500000D01*
X214030000Y-37490000D02*
X216335000Y-37490000D01*
X216335000Y-37490000D02*
X216475000Y-37350000D01*
X218678000Y-56712000D02*
X220926000Y-56712000D01*
X220926000Y-56712000D02*
X221238000Y-56400000D01*
X227890000Y-75860000D02*
X230352000Y-75860000D01*
X230352000Y-75860000D02*
X230762000Y-75450000D01*
X237650000Y-94440000D02*
X240228000Y-94440000D01*
X240228000Y-94440000D02*
X240288000Y-94500000D01*
X194990000Y-37140000D02*
X197215000Y-37140000D01*
X197215000Y-37140000D02*
X197425000Y-37350000D01*
X199120000Y-56250000D02*
X202038000Y-56250000D01*
X202038000Y-56250000D02*
X202188000Y-56400000D01*
X209110000Y-75390000D02*
X211652000Y-75390000D01*
X211652000Y-75390000D02*
X211712000Y-75450000D01*
X218860000Y-94350000D02*
X221088000Y-94350000D01*
X221088000Y-94350000D02*
X221238000Y-94500000D01*
X199690000Y-93840000D02*
X201528000Y-93840000D01*
X201528000Y-93840000D02*
X202188000Y-94500000D01*
X175800000Y-37370000D02*
X178355000Y-37370000D01*
X178355000Y-37370000D02*
X178375000Y-37350000D01*
X179040000Y-56430000D02*
X183108000Y-56430000D01*
X183108000Y-56430000D02*
X183138000Y-56400000D01*
X188930000Y-75520000D02*
X192592000Y-75520000D01*
X192592000Y-75520000D02*
X192662000Y-75450000D01*
X156760000Y-37390000D02*
X159285000Y-37390000D01*
X159285000Y-37390000D02*
X159325000Y-37350000D01*
X161402000Y-56098000D02*
X163786000Y-56098000D01*
X163786000Y-56098000D02*
X164088000Y-56400000D01*
X171470000Y-75140000D02*
X173302000Y-75140000D01*
X173302000Y-75140000D02*
X173612000Y-75450000D01*
X171190000Y-94590000D02*
X173522000Y-94590000D01*
X173522000Y-94590000D02*
X173612000Y-94500000D01*
X137550000Y-37140000D02*
X140065000Y-37140000D01*
X140065000Y-37140000D02*
X140275000Y-37350000D01*
X142480000Y-56190000D02*
X144828000Y-56190000D01*
X144828000Y-56190000D02*
X145038000Y-56400000D01*
X151640000Y-75260000D02*
X154372000Y-75260000D01*
X154372000Y-75260000D02*
X154562000Y-75450000D01*
X118750000Y-37140000D02*
X121015000Y-37140000D01*
X121015000Y-37140000D02*
X121225000Y-37350000D01*
X123100000Y-56320000D02*
X125908000Y-56320000D01*
X125908000Y-56320000D02*
X125988000Y-56400000D01*
X132720000Y-75400000D02*
X135462000Y-75400000D01*
X135462000Y-75400000D02*
X135512000Y-75450000D01*
X131569000Y-94039500D02*
X135051000Y-94039500D01*
X135051000Y-94039500D02*
X135512000Y-94500000D01*
X99480000Y-37260000D02*
X102085000Y-37260000D01*
X102085000Y-37260000D02*
X102175000Y-37350000D01*
X103320000Y-57240000D02*
X104160000Y-56400000D01*
X104160000Y-56400000D02*
X106938000Y-56400000D01*
X112670000Y-75550000D02*
X116362000Y-75550000D01*
X116362000Y-75550000D02*
X116462000Y-75450000D01*
X80900000Y-37310000D02*
X83085000Y-37310000D01*
X83085000Y-37310000D02*
X83125000Y-37350000D01*
X85370000Y-56240000D02*
X87727500Y-56240000D01*
X87727500Y-56240000D02*
X87887500Y-56400000D01*
X101120000Y-94550000D02*
X104506000Y-94550000D01*
X104506000Y-94550000D02*
X104556000Y-94500000D01*
X80590000Y-92890000D02*
X80590000Y-94346200D01*
X80590000Y-94346200D02*
X80743800Y-94500000D01*
X94270000Y-75230000D02*
X97192000Y-75230000D01*
X97192000Y-75230000D02*
X97412000Y-75450000D01*
X24900000Y-99800000D02*
X28006800Y-99800000D01*
X28006800Y-99800000D02*
X28218800Y-100012000D01*
X56790000Y-37480000D02*
X59182500Y-37480000D01*
X59182500Y-37480000D02*
X59312500Y-37350000D01*
X59400000Y-56160000D02*
X61453800Y-56160000D01*
X61453800Y-56160000D02*
X61693800Y-56400000D01*
X63910000Y-75620000D02*
X66286200Y-75620000D01*
X66286200Y-75620000D02*
X66456200Y-75450000D01*
X55940000Y-92510000D02*
X55940000Y-93508800D01*
X55940000Y-93508800D02*
X56931200Y-94500000D01*
X342170000Y-37390000D02*
X345022000Y-37390000D01*
X345022000Y-37390000D02*
X345062000Y-37350000D01*
X342670000Y-56390000D02*
X345052000Y-56390000D01*
X345052000Y-56390000D02*
X345062000Y-56400000D01*
X342510000Y-75170000D02*
X344782000Y-75170000D01*
X344782000Y-75170000D02*
X345062000Y-75450000D01*
X336570000Y-98440000D02*
X339478000Y-98440000D01*
X339478000Y-98440000D02*
X340300000Y-99262000D01*
X361150000Y-56040000D02*
X363752000Y-56040000D01*
X363752000Y-56040000D02*
X364112000Y-56400000D01*
X360860000Y-75290000D02*
X363952000Y-75290000D01*
X363952000Y-75290000D02*
X364112000Y-75450000D01*
X360230000Y-94500000D02*
X364112000Y-94500000D01*
X380260000Y-75110000D02*
X382822000Y-75110000D01*
X382822000Y-75110000D02*
X383162000Y-75450000D01*
X380240000Y-55840000D02*
X382602000Y-55840000D01*
X382602000Y-55840000D02*
X383162000Y-56400000D01*
X379380000Y-94300000D02*
X382962000Y-94300000D01*
X382962000Y-94300000D02*
X383162000Y-94500000D01*
X380260000Y-35890000D02*
X381702000Y-35890000D01*
X381702000Y-35890000D02*
X383162000Y-37350000D01*
X30070000Y-74200000D02*
X31868800Y-74200000D01*
X31868800Y-74200000D02*
X33118800Y-75450000D01*
X39528800Y-69056200D02*
X41000000Y-70527400D01*
X41000000Y-70527400D02*
X41000000Y-70850000D01*
X39528800Y-69056200D02*
X39528800Y-49221200D01*
X23812500Y-53900000D02*
X24110000Y-53900000D01*
X23862500Y-47743800D02*
X23862500Y-53850000D01*
X23862500Y-53850000D02*
X23812500Y-53900000D01*
X28062400Y-43148200D02*
X24266900Y-43148200D01*
X24266900Y-43148200D02*
X23862500Y-42743800D01*
X28062400Y-40608200D02*
X28062400Y-43148200D01*
X43282400Y-38068200D02*
X33142400Y-38068200D01*
X33142400Y-38068200D02*
X28062400Y-32988200D01*
D19*
X23862500Y-45243800D02*
X23862500Y-44168700D01*
X23862500Y-44168700D02*
X23728100Y-44168700D01*
X23728100Y-44168700D02*
X22749600Y-43190200D01*
X22749600Y-43190200D02*
X22749600Y-42293700D01*
X22749600Y-42293700D02*
X25705100Y-39338200D01*
X25705100Y-39338200D02*
X28406000Y-39338200D01*
X28406000Y-39338200D02*
X29163700Y-38580500D01*
X29163700Y-38580500D02*
X29163700Y-37622000D01*
X29163700Y-37622000D02*
X28339900Y-36798200D01*
X28339900Y-36798200D02*
X27793000Y-36798200D01*
X27793000Y-36798200D02*
X26974100Y-35979300D01*
X26974100Y-35979300D02*
X26974100Y-32473700D01*
X26974100Y-32473700D02*
X27581600Y-31866200D01*
X27581600Y-31866200D02*
X42160400Y-31866200D01*
X42160400Y-31866200D02*
X43282400Y-32988200D01*
X38318800Y-75450000D02*
X38318800Y-74989900D01*
X38318800Y-74989900D02*
X36783600Y-73454700D01*
X36783600Y-73454700D02*
X29783200Y-73454700D01*
X29783200Y-73454700D02*
X29308100Y-73929800D01*
X29308100Y-73929800D02*
X29308100Y-76327500D01*
X29308100Y-76327500D02*
X33383100Y-80402500D01*
X33383100Y-80402500D02*
X33383100Y-83214200D01*
X33383100Y-83214200D02*
X35008000Y-84839100D01*
X35008000Y-84839100D02*
X35008000Y-90086000D01*
X35008000Y-90086000D02*
X30472300Y-94621700D01*
X30472300Y-94621700D02*
X30472300Y-106528500D01*
X30472300Y-106528500D02*
X29321400Y-107679400D01*
X29321400Y-107679400D02*
X29321400Y-109010200D01*
X29321400Y-109010200D02*
X30599200Y-110288000D01*
X30599200Y-110288000D02*
X31343700Y-110288000D01*
X33118800Y-110288000D02*
X31343700Y-110288000D01*
D20*
X49657500Y-40412500D02*
X64657500Y-40412500D01*
X43282400Y-43148200D02*
X46018100Y-40412500D01*
X46018100Y-40412500D02*
X49657500Y-40412500D01*
X67167500Y-59332500D02*
X93317500Y-59332500D01*
X49657500Y-59332500D02*
X67167500Y-59332500D01*
X72230000Y-78310000D02*
X103160000Y-78310000D01*
X53700000Y-77090000D02*
X54920000Y-78310000D01*
X54920000Y-78310000D02*
X72230000Y-78310000D01*
X369940000Y-97360000D02*
X388280000Y-97360000D01*
X388280000Y-97360000D02*
X388362000Y-97278000D01*
X388362000Y-97278000D02*
X388362000Y-96000000D01*
X345915000Y-102325000D02*
X357173000Y-102325000D01*
X357173000Y-102325000D02*
X362138000Y-97360000D01*
X362138000Y-97360000D02*
X369940000Y-97360000D01*
X308455000Y-102325000D02*
X327125000Y-102325000D01*
X284318000Y-97562000D02*
X290172000Y-97562000D01*
X290172000Y-97562000D02*
X294935000Y-102325000D01*
X294935000Y-102325000D02*
X308455000Y-102325000D01*
X62482000Y-97562000D02*
X86552000Y-97562000D01*
X53700000Y-90227400D02*
X53700000Y-95438800D01*
X53700000Y-95438800D02*
X55823200Y-97562000D01*
X55823200Y-97562000D02*
X62482000Y-97562000D01*
X53700000Y-80000000D02*
X53700000Y-90227400D01*
X298640000Y-78310000D02*
X334430000Y-78310000D01*
X334430000Y-78310000D02*
X350860000Y-78310000D01*
X326450000Y-81712500D02*
X331028000Y-81712500D01*
X331028000Y-81712500D02*
X334430000Y-78310000D01*
X53700000Y-77090000D02*
X53700000Y-80000000D01*
X53700000Y-90227400D02*
X53700000Y-80000000D01*
X38318800Y-110288000D02*
X41059400Y-110288000D01*
X41059400Y-110288000D02*
X47640000Y-103707000D01*
X47640000Y-103707000D02*
X47640000Y-96287400D01*
X47640000Y-96287400D02*
X53700000Y-90227400D01*
X62482000Y-97562000D02*
X62482000Y-96350800D01*
X62482000Y-96350800D02*
X62131200Y-96000000D01*
X86552000Y-97562000D02*
X110368000Y-97562000D01*
X86552000Y-97562000D02*
X86552000Y-96608200D01*
X86552000Y-96608200D02*
X85943800Y-96000000D01*
X110368000Y-97562000D02*
X141248000Y-97562000D01*
X110368000Y-97562000D02*
X110368000Y-96612000D01*
X110368000Y-96612000D02*
X109756000Y-96000000D01*
X141248000Y-97562000D02*
X179708000Y-97562000D01*
X141248000Y-97562000D02*
X141248000Y-96536000D01*
X141248000Y-96536000D02*
X140712000Y-96000000D01*
X179708000Y-97562000D02*
X207768000Y-97562000D01*
X179708000Y-97562000D02*
X179708000Y-96896000D01*
X179708000Y-96896000D02*
X178812000Y-96000000D01*
X207768000Y-97562000D02*
X227332000Y-97562000D01*
X207768000Y-97562000D02*
X207768000Y-96380000D01*
X207768000Y-96380000D02*
X207388000Y-96000000D01*
X227332000Y-97562000D02*
X246302000Y-97562000D01*
X227332000Y-97562000D02*
X227332000Y-96894000D01*
X227332000Y-96894000D02*
X226438000Y-96000000D01*
X246302000Y-97562000D02*
X265118000Y-97562000D01*
X246302000Y-97562000D02*
X246302000Y-96814000D01*
X246302000Y-96814000D02*
X245488000Y-96000000D01*
X265118000Y-97562000D02*
X284318000Y-97562000D01*
X265118000Y-97562000D02*
X265118000Y-96580000D01*
X265118000Y-96580000D02*
X264538000Y-96000000D01*
X284318000Y-97562000D02*
X284318000Y-96730000D01*
X284318000Y-96730000D02*
X283588000Y-96000000D01*
X308455000Y-102325000D02*
X308455000Y-101817000D01*
X308455000Y-101817000D02*
X307400000Y-100762000D01*
X327125000Y-102325000D02*
X345915000Y-102325000D01*
X327125000Y-102325000D02*
X327125000Y-101437000D01*
X327125000Y-101437000D02*
X326450000Y-100762000D01*
X345915000Y-102325000D02*
X345915000Y-101177000D01*
X345915000Y-101177000D02*
X345500000Y-100762000D01*
X369940000Y-97360000D02*
X369940000Y-96628000D01*
X369940000Y-96628000D02*
X369312000Y-96000000D01*
X72230000Y-78310000D02*
X72230000Y-77523800D01*
X72230000Y-77523800D02*
X71656200Y-76950000D01*
X103160000Y-78310000D02*
X122210000Y-78310000D01*
X103160000Y-78310000D02*
X103160000Y-77498000D01*
X103160000Y-77498000D02*
X102612000Y-76950000D01*
X122210000Y-78310000D02*
X140910000Y-78310000D01*
X122210000Y-78310000D02*
X122210000Y-77498000D01*
X122210000Y-77498000D02*
X121662000Y-76950000D01*
X140910000Y-78310000D02*
X159480000Y-78310000D01*
X140910000Y-78310000D02*
X140910000Y-77148000D01*
X140910000Y-77148000D02*
X140712000Y-76950000D01*
X159480000Y-78310000D02*
X179160000Y-78310000D01*
X159480000Y-78310000D02*
X159480000Y-77232000D01*
X159480000Y-77232000D02*
X159762000Y-76950000D01*
X179160000Y-78310000D02*
X198760000Y-78310000D01*
X179160000Y-78310000D02*
X179160000Y-77298000D01*
X179160000Y-77298000D02*
X178812000Y-76950000D01*
X198760000Y-78310000D02*
X217690000Y-78310000D01*
X198760000Y-78310000D02*
X198760000Y-77848000D01*
X198760000Y-77848000D02*
X197862000Y-76950000D01*
X217690000Y-78310000D02*
X236470000Y-78310000D01*
X217690000Y-78310000D02*
X217690000Y-77728000D01*
X217690000Y-77728000D02*
X216912000Y-76950000D01*
X236470000Y-78310000D02*
X255960000Y-78310000D01*
X236470000Y-78310000D02*
X236470000Y-77458000D01*
X236470000Y-77458000D02*
X235962000Y-76950000D01*
X255960000Y-78310000D02*
X274960000Y-78310000D01*
X255960000Y-78310000D02*
X255960000Y-77898000D01*
X255960000Y-77898000D02*
X255012000Y-76950000D01*
X274960000Y-78310000D02*
X298640000Y-78310000D01*
X274960000Y-78310000D02*
X274960000Y-77848000D01*
X274960000Y-77848000D02*
X274062000Y-76950000D01*
X298640000Y-78310000D02*
X298640000Y-77715000D01*
X298640000Y-77715000D02*
X297875000Y-76950000D01*
X350860000Y-78310000D02*
X369190000Y-78310000D01*
X350860000Y-78310000D02*
X350860000Y-77548000D01*
X350860000Y-77548000D02*
X350262000Y-76950000D01*
X369190000Y-78310000D02*
X387723000Y-78310000D01*
X387723000Y-78310000D02*
X388362000Y-77671300D01*
X388362000Y-77671300D02*
X388362000Y-76950000D01*
X369190000Y-78310000D02*
X369190000Y-77072000D01*
X369190000Y-77072000D02*
X369312000Y-76950000D01*
X49657500Y-59332500D02*
X49657500Y-62506200D01*
X49657500Y-62506200D02*
X53700000Y-66548700D01*
X53700000Y-66548700D02*
X53700000Y-77090000D01*
X67167500Y-59332500D02*
X67167500Y-58173700D01*
X67167500Y-58173700D02*
X66893800Y-57900000D01*
X93317500Y-59332500D02*
X112412000Y-59332500D01*
X93317500Y-59332500D02*
X93317500Y-58130000D01*
X93317500Y-58130000D02*
X93087500Y-57900000D01*
X112412000Y-59332500D02*
X131482000Y-59332500D01*
X112412000Y-59332500D02*
X112412000Y-58174500D01*
X112412000Y-58174500D02*
X112138000Y-57900000D01*
X131482000Y-59332500D02*
X150348000Y-59332500D01*
X131482000Y-59332500D02*
X131482000Y-58194500D01*
X131482000Y-58194500D02*
X131188000Y-57900000D01*
X150348000Y-59332500D02*
X169372000Y-59332500D01*
X150348000Y-59332500D02*
X150348000Y-58009500D01*
X150348000Y-58009500D02*
X150238000Y-57900000D01*
X169372000Y-59332500D02*
X188602000Y-59332500D01*
X169372000Y-59332500D02*
X169372000Y-57984500D01*
X169372000Y-57984500D02*
X169288000Y-57900000D01*
X188602000Y-59332500D02*
X207452000Y-59332500D01*
X188602000Y-59332500D02*
X188602000Y-58164500D01*
X188602000Y-58164500D02*
X188338000Y-57900000D01*
X207452000Y-59332500D02*
X226398000Y-59332500D01*
X207452000Y-59332500D02*
X207452000Y-57964500D01*
X207452000Y-57964500D02*
X207388000Y-57900000D01*
X226398000Y-59332500D02*
X245652000Y-59332500D01*
X226398000Y-59332500D02*
X226398000Y-57940500D01*
X226398000Y-57940500D02*
X226438000Y-57900000D01*
X245652000Y-59332500D02*
X265012000Y-59332500D01*
X245652000Y-59332500D02*
X245652000Y-58064500D01*
X245652000Y-58064500D02*
X245488000Y-57900000D01*
X265012000Y-59332500D02*
X283618000Y-59332500D01*
X265012000Y-59332500D02*
X265012000Y-58374500D01*
X265012000Y-58374500D02*
X264538000Y-57900000D01*
X283618000Y-59332500D02*
X314652000Y-59332500D01*
X283618000Y-59332500D02*
X283618000Y-57929500D01*
X283618000Y-57929500D02*
X283588000Y-57900000D01*
X314652000Y-59332500D02*
X350258000Y-59332500D01*
X314652000Y-59332500D02*
X314652000Y-58008500D01*
X314652000Y-58008500D02*
X314544000Y-57900000D01*
X350258000Y-59332500D02*
X369408000Y-59332500D01*
X350258000Y-59332500D02*
X350258000Y-57904500D01*
X350258000Y-57904500D02*
X350262000Y-57900000D01*
X369408000Y-59332500D02*
X387651000Y-59332500D01*
X387651000Y-59332500D02*
X388362000Y-58621300D01*
X388362000Y-58621300D02*
X388362000Y-57900000D01*
X369408000Y-59332500D02*
X369408000Y-57995500D01*
X369408000Y-57995500D02*
X369312000Y-57900000D01*
X49657500Y-40412500D02*
X49657500Y-59332500D01*
X64657500Y-40412500D02*
X88642500Y-40412500D01*
X64657500Y-40412500D02*
X64657500Y-38995000D01*
X64657500Y-38995000D02*
X64512500Y-38850000D01*
X88642500Y-40412500D02*
X107542000Y-40412500D01*
X88642500Y-40412500D02*
X88642500Y-39167500D01*
X88642500Y-39167500D02*
X88325000Y-38850000D01*
X107542000Y-40412500D02*
X126752000Y-40412500D01*
X107542000Y-40412500D02*
X107542000Y-39017500D01*
X107542000Y-39017500D02*
X107375000Y-38850000D01*
X126752000Y-40412500D02*
X145442000Y-40412500D01*
X126752000Y-40412500D02*
X126752000Y-39177500D01*
X126752000Y-39177500D02*
X126425000Y-38850000D01*
X145475000Y-38850000D02*
X145442000Y-38882500D01*
X145442000Y-38882500D02*
X145442000Y-40412500D01*
X145442000Y-40412500D02*
X164862000Y-40412500D01*
X164862000Y-40412500D02*
X183898000Y-40412500D01*
X164862000Y-40412500D02*
X164862000Y-39187500D01*
X164862000Y-39187500D02*
X164525000Y-38850000D01*
X183898000Y-40412500D02*
X202678000Y-40412500D01*
X183898000Y-40412500D02*
X183898000Y-39172500D01*
X183898000Y-39172500D02*
X183575000Y-38850000D01*
X202678000Y-40412500D02*
X222058000Y-40412500D01*
X202678000Y-40412500D02*
X202678000Y-38902500D01*
X202678000Y-38902500D02*
X202625000Y-38850000D01*
X222058000Y-40412500D02*
X240508000Y-40412500D01*
X222058000Y-40412500D02*
X222058000Y-39232500D01*
X222058000Y-39232500D02*
X221675000Y-38850000D01*
X240508000Y-40412500D02*
X259738000Y-40412500D01*
X240508000Y-40412500D02*
X240508000Y-38751500D01*
X240508000Y-38751500D02*
X240506000Y-38750000D01*
X259738000Y-40412500D02*
X278675000Y-40412500D01*
X259738000Y-40412500D02*
X259738000Y-38887500D01*
X259738000Y-38887500D02*
X259775000Y-38850000D01*
X278675000Y-40412500D02*
X297725000Y-40412500D01*
X278675000Y-40412500D02*
X278675000Y-39000000D01*
X278675000Y-39000000D02*
X278825000Y-38850000D01*
X297725000Y-40412500D02*
X321538000Y-40412500D01*
X297725000Y-40412500D02*
X297725000Y-39000000D01*
X297725000Y-39000000D02*
X297875000Y-38850000D01*
X321538000Y-40412500D02*
X350113000Y-40412500D01*
X321538000Y-40412500D02*
X321538000Y-39000500D01*
X321538000Y-39000500D02*
X321688000Y-38850000D01*
X350113000Y-40412500D02*
X369163000Y-40412500D01*
X350113000Y-40412500D02*
X350113000Y-38999500D01*
X350113000Y-38999500D02*
X350262000Y-38850000D01*
X369163000Y-40412500D02*
X388075000Y-40412500D01*
X388075000Y-40412500D02*
X388362000Y-40125500D01*
X388362000Y-40125500D02*
X388362000Y-38850000D01*
X369163000Y-40412500D02*
X369163000Y-38999500D01*
X369163000Y-38999500D02*
X369312000Y-38850000D01*
X36988800Y-69056200D02*
X42862500Y-74929900D01*
X42862500Y-74929900D02*
X42862500Y-76200000D01*
X42862500Y-76200000D02*
X42112500Y-76950000D01*
X42112500Y-76950000D02*
X38318800Y-76950000D01*
X43282400Y-43148200D02*
X36988800Y-49441800D01*
X36988800Y-49441800D02*
X36988800Y-69056200D01*
D19*
X56931200Y-96000000D02*
X55156100Y-96000000D01*
X55156100Y-96000000D02*
X55156100Y-91726400D01*
X55156100Y-91726400D02*
X54824800Y-91395100D01*
X38318800Y-108788000D02*
X38318800Y-92239200D01*
X38318800Y-92239200D02*
X39162900Y-91395100D01*
X62131200Y-94500000D02*
X63906300Y-94500000D01*
X63906300Y-94500000D02*
X68347100Y-90059200D01*
X68347100Y-90059200D02*
X68347100Y-83678600D01*
X68347100Y-83678600D02*
X66731000Y-82062500D01*
X66731000Y-82062500D02*
X66731000Y-81789900D01*
X66731000Y-81789900D02*
X64121500Y-79180400D01*
X64681100Y-76950000D02*
X64171900Y-77459200D01*
X66456200Y-76950000D02*
X64681100Y-76950000D01*
X61693800Y-57900000D02*
X59918700Y-57900000D01*
X59637900Y-57773600D02*
X59792300Y-57773600D01*
X59792300Y-57773600D02*
X59918700Y-57900000D01*
X75020000Y-75450000D02*
X75040000Y-75430000D01*
X71656200Y-75450000D02*
X75020000Y-75450000D01*
X75040000Y-64134000D02*
X75040000Y-72480000D01*
X71102200Y-60196200D02*
X75040000Y-64134000D01*
X57526000Y-41281000D02*
X51778000Y-41281000D01*
X51778000Y-41281000D02*
X50807000Y-42252000D01*
X50807000Y-42252000D02*
X50807000Y-56923900D01*
X50807000Y-56923900D02*
X52640400Y-58757300D01*
X52640400Y-58757300D02*
X55753900Y-58757300D01*
X55753900Y-58757300D02*
X59287200Y-55224000D01*
X59287200Y-55224000D02*
X66216500Y-55224000D01*
X66216500Y-55224000D02*
X66893800Y-55901300D01*
X66893800Y-55901300D02*
X66893800Y-56400000D01*
X57537400Y-38850000D02*
X56839200Y-39548200D01*
X56839200Y-39548200D02*
X56694300Y-39548200D01*
X56694300Y-39548200D02*
X56694300Y-39548300D01*
X59312500Y-38850000D02*
X57537400Y-38850000D01*
X83125000Y-38850000D02*
X81349900Y-38850000D01*
X64512500Y-37350000D02*
X69001600Y-37350000D01*
X69001600Y-37350000D02*
X71333000Y-39681400D01*
X71333000Y-39681400D02*
X80518500Y-39681400D01*
X80518500Y-39681400D02*
X81349900Y-38850000D01*
X88325000Y-37350000D02*
X90100100Y-37350000D01*
X90100100Y-37350000D02*
X90100100Y-38371000D01*
X90100100Y-38371000D02*
X91270400Y-39541300D01*
X87887500Y-57900000D02*
X86112400Y-57900000D01*
X85815800Y-57671900D02*
X85884300Y-57671900D01*
X85884300Y-57671900D02*
X86112400Y-57900000D01*
X93087500Y-56400000D02*
X94862600Y-56400000D01*
X94862600Y-56400000D02*
X94862600Y-58122300D01*
X94862600Y-58122300D02*
X95137600Y-58397300D01*
X95636900Y-76950000D02*
X95325800Y-76638900D01*
X95325800Y-76638900D02*
X95325800Y-76093800D01*
X97412000Y-76950000D02*
X95636900Y-76950000D01*
X102612000Y-75450000D02*
X102612000Y-74935500D01*
X102612000Y-74935500D02*
X101950700Y-74274200D01*
X101950700Y-74274200D02*
X94149500Y-74274200D01*
X94149500Y-74274200D02*
X93544800Y-74878900D01*
X93544800Y-74878900D02*
X93544800Y-77307200D01*
X93544800Y-77307200D02*
X93696300Y-77458700D01*
X80743800Y-96000000D02*
X78968700Y-96000000D01*
X78968700Y-96000000D02*
X78137300Y-96831400D01*
X78137300Y-96831400D02*
X73155200Y-96831400D01*
X73155200Y-96831400D02*
X71053900Y-94730100D01*
X71053900Y-94730100D02*
X71053900Y-93118300D01*
X71053900Y-93118300D02*
X84827400Y-79344800D01*
X84827400Y-79344800D02*
X91810300Y-79344800D01*
X91810300Y-79344800D02*
X91810300Y-79344700D01*
X91810300Y-79344700D02*
X91972800Y-79182200D01*
X104556000Y-96000000D02*
X102780900Y-96000000D01*
X85943800Y-94500000D02*
X90618100Y-94500000D01*
X90618100Y-94500000D02*
X92949500Y-96831400D01*
X92949500Y-96831400D02*
X101949500Y-96831400D01*
X101949500Y-96831400D02*
X102780900Y-96000000D01*
X114686900Y-76950000D02*
X114380000Y-77256900D01*
X114380000Y-77256900D02*
X114380000Y-77444300D01*
X116462000Y-76950000D02*
X114686900Y-76950000D01*
X109756000Y-94500000D02*
X109756000Y-82459300D01*
X109756000Y-82459300D02*
X110112000Y-82103300D01*
X121662000Y-75450000D02*
X121662000Y-74884600D01*
X121662000Y-74884600D02*
X120265700Y-73488300D01*
X120265700Y-73488300D02*
X119069100Y-73488300D01*
X119069100Y-73488300D02*
X111520000Y-65939200D01*
X111520000Y-65939200D02*
X111520000Y-63260100D01*
X111520000Y-63260100D02*
X112152800Y-62627300D01*
X112152800Y-62627300D02*
X112152800Y-62435600D01*
X112152800Y-62435600D02*
X114378700Y-60209700D01*
X114378700Y-60209700D02*
X115495400Y-60209700D01*
X115495400Y-60209700D02*
X115495400Y-60209600D01*
X105162900Y-57900000D02*
X104885400Y-58177500D01*
X104885400Y-58177500D02*
X104885400Y-58200100D01*
X106938000Y-57900000D02*
X105162900Y-57900000D01*
X112138000Y-56400000D02*
X112138000Y-55893000D01*
X112138000Y-55893000D02*
X110793300Y-54548300D01*
X110793300Y-54548300D02*
X110501700Y-54548300D01*
X100399900Y-38850000D02*
X100399900Y-39261000D01*
X100399900Y-39261000D02*
X100119600Y-39541300D01*
X102175000Y-38850000D02*
X100399900Y-38850000D01*
X121225000Y-38850000D02*
X119449900Y-38850000D01*
X107375000Y-37350000D02*
X109374200Y-37350000D01*
X109374200Y-37350000D02*
X111705600Y-39681400D01*
X111705600Y-39681400D02*
X118618500Y-39681400D01*
X118618500Y-39681400D02*
X119449900Y-38850000D01*
X126425000Y-37350000D02*
X128200100Y-37350000D01*
X128200100Y-37350000D02*
X128200100Y-37428500D01*
X128200100Y-37428500D02*
X130302700Y-39531100D01*
X125988000Y-57900000D02*
X124212900Y-57900000D01*
X123920000Y-57711900D02*
X124024800Y-57711900D01*
X124024800Y-57711900D02*
X124212900Y-57900000D01*
X131188000Y-56400000D02*
X131188000Y-55929800D01*
X131188000Y-55929800D02*
X130404700Y-55146500D01*
X130404700Y-55146500D02*
X123220700Y-55146500D01*
X123220700Y-55146500D02*
X122350000Y-56017200D01*
X122350000Y-56017200D02*
X122350000Y-58056500D01*
X122350000Y-58056500D02*
X122765000Y-58471500D01*
X135512000Y-76950000D02*
X133243700Y-76950000D01*
X133243700Y-76950000D02*
X131625300Y-75331600D01*
X131625300Y-75331600D02*
X131625300Y-68285900D01*
X131625300Y-68285900D02*
X125874500Y-62535100D01*
X125874500Y-62535100D02*
X125874500Y-62395700D01*
X125874500Y-62395700D02*
X123675000Y-60196200D01*
X140712000Y-75450000D02*
X142487100Y-75450000D01*
X142487100Y-75450000D02*
X142487100Y-76384900D01*
X142487100Y-76384900D02*
X142778700Y-76676500D01*
X135512000Y-96000000D02*
X132500100Y-96000000D01*
X132500100Y-96000000D02*
X130795000Y-94294900D01*
X130795000Y-94294900D02*
X130795000Y-93740100D01*
X130795000Y-93740100D02*
X131659200Y-92875900D01*
X131659200Y-92875900D02*
X132542400Y-92875900D01*
X132542400Y-92875900D02*
X137432100Y-87986200D01*
X137432100Y-87986200D02*
X137432100Y-84276300D01*
X137432100Y-84276300D02*
X134357200Y-81201400D01*
X134357200Y-81201400D02*
X134357200Y-80211700D01*
X134357200Y-80211700D02*
X133327200Y-79181700D01*
X140712000Y-94500000D02*
X140712000Y-85894500D01*
X140712000Y-85894500D02*
X140065100Y-85247600D01*
X140065100Y-85247600D02*
X140065100Y-82339000D01*
X140065100Y-82339000D02*
X141555100Y-80849000D01*
X141555100Y-80849000D02*
X141555100Y-80672900D01*
X141555100Y-80672900D02*
X142593200Y-79634800D01*
X142593200Y-79634800D02*
X146133800Y-79634800D01*
X146133800Y-79634800D02*
X146546000Y-80047000D01*
X154562000Y-76950000D02*
X152786900Y-76950000D01*
X152471000Y-76874200D02*
X152711100Y-76874200D01*
X152711100Y-76874200D02*
X152786900Y-76950000D01*
X159762000Y-75450000D02*
X161537100Y-75450000D01*
X156640500Y-71452400D02*
X156640500Y-71681500D01*
X156640500Y-71681500D02*
X155161200Y-73160800D01*
X155161200Y-73160800D02*
X154600800Y-73160800D01*
X154600800Y-73160800D02*
X149620100Y-68180100D01*
X149620100Y-68180100D02*
X149620100Y-63260000D01*
X149620100Y-63260000D02*
X150252800Y-62627300D01*
X150252800Y-62627300D02*
X150252800Y-62501500D01*
X150252800Y-62501500D02*
X152558000Y-60196300D01*
X152558000Y-60196300D02*
X152563400Y-60196300D01*
X152563400Y-60196300D02*
X152563400Y-60196200D01*
X145038000Y-57900000D02*
X143262900Y-57900000D01*
X142975600Y-57646900D02*
X143009800Y-57646900D01*
X143009800Y-57646900D02*
X143262900Y-57900000D01*
X161537100Y-75450000D02*
X161537100Y-74971800D01*
X161537100Y-74971800D02*
X162003500Y-74505400D01*
X152013100Y-56400000D02*
X152300200Y-56112900D01*
X152300200Y-56112900D02*
X152300200Y-43768000D01*
X152300200Y-43768000D02*
X151125800Y-42593600D01*
X151125800Y-42593600D02*
X151125800Y-42072500D01*
X151125800Y-42072500D02*
X150330000Y-41276700D01*
X150238000Y-56400000D02*
X152013100Y-56400000D01*
X138499900Y-38850000D02*
X138499900Y-39287900D01*
X138499900Y-39287900D02*
X138246500Y-39541300D01*
X140275000Y-38850000D02*
X138499900Y-38850000D01*
X159325000Y-38850000D02*
X157549900Y-38850000D01*
X145475000Y-37350000D02*
X147407500Y-37350000D01*
X147407500Y-37350000D02*
X149738900Y-39681400D01*
X149738900Y-39681400D02*
X156718500Y-39681400D01*
X156718500Y-39681400D02*
X157549900Y-38850000D01*
X164088000Y-57900000D02*
X162312900Y-57900000D01*
X164525000Y-37350000D02*
X166300100Y-37350000D01*
X166300100Y-37350000D02*
X166300100Y-38934100D01*
X166300100Y-38934100D02*
X166907300Y-39541300D01*
X162312900Y-57900000D02*
X161481500Y-58731400D01*
X161481500Y-58731400D02*
X156506400Y-58731400D01*
X156506400Y-58731400D02*
X156326000Y-58551000D01*
X156326000Y-58551000D02*
X156326000Y-54918500D01*
X156326000Y-54918500D02*
X161225900Y-50018600D01*
X161225900Y-50018600D02*
X161225900Y-46088300D01*
X161225900Y-46088300D02*
X159338200Y-44200600D01*
X159338200Y-44200600D02*
X159338200Y-41273300D01*
X169288000Y-56400000D02*
X171063100Y-56400000D01*
X171063100Y-56400000D02*
X171063100Y-57641100D01*
X171063100Y-57641100D02*
X171896800Y-58474800D01*
X171836900Y-76950000D02*
X171492600Y-76605700D01*
X171492600Y-76605700D02*
X171492600Y-76155100D01*
X173612000Y-76950000D02*
X171836900Y-76950000D01*
X173612000Y-96000000D02*
X171836900Y-96000000D01*
X178812000Y-75450000D02*
X180587100Y-75450000D01*
X180587100Y-75450000D02*
X180587100Y-77072900D01*
X180587100Y-77072900D02*
X180941300Y-77427100D01*
X171836900Y-96000000D02*
X171005500Y-96831400D01*
X171005500Y-96831400D02*
X166001700Y-96831400D01*
X166001700Y-96831400D02*
X165831900Y-96661600D01*
X165831900Y-96661600D02*
X165831900Y-95098900D01*
X165831900Y-95098900D02*
X166571400Y-94359400D01*
X166571400Y-94359400D02*
X167941600Y-94359400D01*
X167941600Y-94359400D02*
X175549900Y-86751100D01*
X175549900Y-86751100D02*
X175549900Y-84050200D01*
X175549900Y-84050200D02*
X173498500Y-81998800D01*
X173498500Y-81998800D02*
X173498500Y-80272700D01*
X173498500Y-80272700D02*
X172409300Y-79183500D01*
X202188000Y-96000000D02*
X200412900Y-96000000D01*
X178812000Y-94500000D02*
X185023000Y-94500000D01*
X185023000Y-94500000D02*
X187354400Y-96831400D01*
X187354400Y-96831400D02*
X199581500Y-96831400D01*
X199581500Y-96831400D02*
X200412900Y-96000000D01*
X190886900Y-76950000D02*
X190381300Y-77455600D01*
X207388000Y-94500000D02*
X207388000Y-93944100D01*
X207388000Y-93944100D02*
X199411600Y-85967700D01*
X199411600Y-85967700D02*
X196978900Y-85967700D01*
X196978900Y-85967700D02*
X193449800Y-82438600D01*
X193449800Y-82438600D02*
X189781700Y-82438600D01*
X189781700Y-82438600D02*
X187702600Y-80359500D01*
X187702600Y-80359500D02*
X187702600Y-79184900D01*
X192662000Y-76950000D02*
X190886900Y-76950000D01*
X183138000Y-57900000D02*
X181362900Y-57900000D01*
X181077400Y-57454100D02*
X181362900Y-57739600D01*
X181362900Y-57739600D02*
X181362900Y-57900000D01*
X197862000Y-75450000D02*
X201110000Y-75450000D01*
X201110000Y-75450000D02*
X201120000Y-75440000D01*
X190113100Y-56400000D02*
X190187000Y-56400000D01*
X190187000Y-56400000D02*
X190838200Y-55748800D01*
X190838200Y-55748800D02*
X190838200Y-44206100D01*
X190838200Y-44206100D02*
X188804500Y-42172400D01*
X188804500Y-42172400D02*
X188804500Y-42007500D01*
X188338000Y-56400000D02*
X190113100Y-56400000D01*
X178375000Y-38850000D02*
X176599900Y-38850000D01*
X176316200Y-39496800D02*
X176599900Y-39213100D01*
X176599900Y-39213100D02*
X176599900Y-38850000D01*
X197425000Y-38850000D02*
X195649900Y-38850000D01*
X183575000Y-37350000D02*
X185350100Y-37350000D01*
X185350100Y-37350000D02*
X187681500Y-39681400D01*
X187681500Y-39681400D02*
X194818500Y-39681400D01*
X194818500Y-39681400D02*
X195649900Y-38850000D01*
X202188000Y-57900000D02*
X199719100Y-57900000D01*
X199719100Y-57900000D02*
X198367900Y-56548800D01*
X198367900Y-56548800D02*
X198367900Y-50471200D01*
X198367900Y-50471200D02*
X199811000Y-49028100D01*
X199811000Y-49028100D02*
X199811000Y-46241900D01*
X199811000Y-46241900D02*
X197438200Y-43869100D01*
X197438200Y-43869100D02*
X197438200Y-41273300D01*
X202625000Y-37350000D02*
X203514300Y-37350000D01*
X203514300Y-37350000D02*
X204811300Y-38647000D01*
X204811300Y-38647000D02*
X204811300Y-39530300D01*
X207388000Y-56400000D02*
X209163100Y-56400000D01*
X209163100Y-56400000D02*
X209163100Y-57073000D01*
X209163100Y-57073000D02*
X210548600Y-58458500D01*
X211712000Y-76950000D02*
X209633800Y-76950000D01*
X209633800Y-76950000D02*
X208321600Y-75637800D01*
X208321600Y-75637800D02*
X208321600Y-74732000D01*
X208321600Y-74732000D02*
X215701100Y-67352500D01*
X215701100Y-67352500D02*
X215701100Y-61889300D01*
X216912000Y-75450000D02*
X218687100Y-75450000D01*
X218687100Y-75450000D02*
X218687100Y-76002700D01*
X218687100Y-76002700D02*
X220127000Y-77442600D01*
X219462900Y-96000000D02*
X218107800Y-94644900D01*
X218107800Y-94644900D02*
X218107800Y-93889000D01*
X218107800Y-93889000D02*
X223737100Y-88259700D01*
X223737100Y-88259700D02*
X223737100Y-81830500D01*
X223737100Y-81830500D02*
X223238000Y-81331400D01*
X223238000Y-81331400D02*
X223135100Y-81331400D01*
X223135100Y-81331400D02*
X221118600Y-79314900D01*
X221118600Y-79314900D02*
X221118600Y-79167100D01*
X221238000Y-96000000D02*
X219462900Y-96000000D01*
X226438000Y-94500000D02*
X235590200Y-94500000D01*
X235590200Y-94500000D02*
X237090200Y-96000000D01*
X237090200Y-96000000D02*
X240288000Y-96000000D01*
X245488000Y-94500000D02*
X245488000Y-90921800D01*
X245488000Y-90921800D02*
X243261700Y-88695500D01*
X230762000Y-76950000D02*
X228986900Y-76950000D01*
X228986900Y-76950000D02*
X228986900Y-77169200D01*
X228986900Y-77169200D02*
X228698000Y-77458100D01*
X235962000Y-75450000D02*
X235962000Y-74929300D01*
X235962000Y-74929300D02*
X229331300Y-68298600D01*
X229331300Y-68298600D02*
X225822900Y-68298600D01*
X225822900Y-68298600D02*
X222509700Y-64985400D01*
X219462900Y-57900000D02*
X219410400Y-57952500D01*
X219410400Y-57952500D02*
X219171700Y-57952500D01*
X219171700Y-57952500D02*
X219171700Y-57952600D01*
X221238000Y-57900000D02*
X219462900Y-57900000D01*
X228213100Y-56400000D02*
X228513800Y-56099300D01*
X228513800Y-56099300D02*
X228513800Y-43759200D01*
X228513800Y-43759200D02*
X226962600Y-42208000D01*
X226962600Y-42208000D02*
X226673400Y-42208000D01*
X226438000Y-56400000D02*
X228213100Y-56400000D01*
X216475000Y-38850000D02*
X214699900Y-38850000D01*
X214414400Y-39487400D02*
X214699900Y-39201900D01*
X214699900Y-39201900D02*
X214699900Y-38850000D01*
X221675000Y-37350000D02*
X230279200Y-37350000D01*
X230279200Y-37350000D02*
X231679200Y-38750000D01*
X231679200Y-38750000D02*
X235306000Y-38750000D01*
X240506000Y-37250000D02*
X242281100Y-37250000D01*
X242281100Y-37250000D02*
X242281100Y-38993600D01*
X242281100Y-38993600D02*
X242828800Y-39541300D01*
X240288000Y-57900000D02*
X238159500Y-57900000D01*
X238159500Y-57900000D02*
X236860000Y-56600500D01*
X236860000Y-56600500D02*
X236860000Y-55378400D01*
X236860000Y-55378400D02*
X239041000Y-53197400D01*
X239041000Y-53197400D02*
X239041000Y-45940000D01*
X245488000Y-56400000D02*
X247263100Y-56400000D01*
X247263100Y-56400000D02*
X247263100Y-57623500D01*
X247263100Y-57623500D02*
X248095800Y-58456200D01*
X239533400Y-61363400D02*
X239533400Y-62548100D01*
X239533400Y-62548100D02*
X245428400Y-68443100D01*
X245428400Y-68443100D02*
X245428400Y-74524800D01*
X245428400Y-74524800D02*
X247853600Y-76950000D01*
X247853600Y-76950000D02*
X249812000Y-76950000D01*
X257562900Y-96000000D02*
X255637300Y-94074400D01*
X255637300Y-94074400D02*
X255637300Y-89448400D01*
X255637300Y-89448400D02*
X256424000Y-88661700D01*
X259338000Y-96000000D02*
X257562900Y-96000000D01*
X255012000Y-75450000D02*
X256787100Y-75450000D01*
X256787100Y-75450000D02*
X256787100Y-76537800D01*
X256787100Y-76537800D02*
X257078200Y-76828900D01*
X278388000Y-96000000D02*
X276612900Y-96000000D01*
X264538000Y-94500000D02*
X272601000Y-94500000D01*
X272601000Y-94500000D02*
X274566800Y-96465800D01*
X274566800Y-96465800D02*
X276147100Y-96465800D01*
X276147100Y-96465800D02*
X276612900Y-96000000D01*
X285363100Y-94500000D02*
X285363100Y-81874600D01*
X285363100Y-81874600D02*
X285327500Y-81839000D01*
X283588000Y-94500000D02*
X285363100Y-94500000D01*
X268862000Y-76950000D02*
X267086900Y-76950000D01*
X266808300Y-77005000D02*
X267031900Y-77005000D01*
X267031900Y-77005000D02*
X267086900Y-76950000D01*
X259338000Y-57900000D02*
X257562900Y-57900000D01*
X257281900Y-57756900D02*
X257419800Y-57756900D01*
X257419800Y-57756900D02*
X257562900Y-57900000D01*
X274062000Y-75450000D02*
X274062000Y-74923100D01*
X274062000Y-74923100D02*
X266102600Y-66963700D01*
X266102600Y-66963700D02*
X264626700Y-66963700D01*
X264626700Y-66963700D02*
X263671600Y-66008600D01*
X266313100Y-56400000D02*
X266813200Y-55899900D01*
X266813200Y-55899900D02*
X266813200Y-43958600D01*
X266813200Y-43958600D02*
X265059100Y-42204500D01*
X265059100Y-42204500D02*
X264769900Y-42204500D01*
X264538000Y-56400000D02*
X266313100Y-56400000D01*
X254575000Y-38850000D02*
X252799900Y-38850000D01*
X252538100Y-39541300D02*
X252799900Y-39279500D01*
X252799900Y-39279500D02*
X252799900Y-38850000D01*
X259775000Y-37350000D02*
X268927700Y-37350000D01*
X268927700Y-37350000D02*
X270427700Y-38850000D01*
X270427700Y-38850000D02*
X273625000Y-38850000D01*
X278825000Y-37350000D02*
X280600100Y-37350000D01*
X280600100Y-37350000D02*
X280600100Y-38626400D01*
X280600100Y-38626400D02*
X281515000Y-39541300D01*
X278388000Y-57900000D02*
X274882300Y-57900000D01*
X274882300Y-57900000D02*
X273642100Y-56659800D01*
X273642100Y-56659800D02*
X273642100Y-54453700D01*
X273642100Y-54453700D02*
X275549700Y-52546100D01*
X275549700Y-52546100D02*
X275549700Y-47119300D01*
X275549700Y-47119300D02*
X273050900Y-44620500D01*
X273050900Y-44620500D02*
X273050900Y-43209500D01*
X292675000Y-76950000D02*
X289972700Y-76950000D01*
X289972700Y-76950000D02*
X288860500Y-75837800D01*
X288860500Y-75837800D02*
X288860500Y-75049500D01*
X288860500Y-75049500D02*
X290413200Y-73496800D01*
X290413200Y-73496800D02*
X290413200Y-62827800D01*
X290413200Y-62827800D02*
X289723800Y-62138400D01*
X289723800Y-62138400D02*
X289556600Y-62138400D01*
X283588000Y-56400000D02*
X287352300Y-56400000D01*
X287352300Y-56400000D02*
X289409500Y-58457200D01*
X300424900Y-100762000D02*
X299100100Y-99437200D01*
X299100100Y-99437200D02*
X299100100Y-96945000D01*
X299100100Y-96945000D02*
X304700200Y-91344900D01*
X304700200Y-91344900D02*
X304700200Y-81653600D01*
X304700200Y-81653600D02*
X304458700Y-81412100D01*
X302200000Y-100762000D02*
X300424900Y-100762000D01*
X297875000Y-75450000D02*
X300141800Y-75450000D01*
X300141800Y-75450000D02*
X301000400Y-76308600D01*
X307400000Y-99262000D02*
X314618200Y-99262000D01*
X314618200Y-99262000D02*
X316118200Y-100762000D01*
X316118200Y-100762000D02*
X321250000Y-100762000D01*
X326450000Y-99262000D02*
X326450000Y-92825100D01*
X326450000Y-92825100D02*
X321250000Y-87625100D01*
X321250000Y-87625100D02*
X321250000Y-81712500D01*
X328225100Y-80212500D02*
X328225100Y-79658100D01*
X328225100Y-79658100D02*
X327765900Y-79198900D01*
X326450000Y-80212500D02*
X328225100Y-80212500D01*
X309344000Y-57900000D02*
X307568900Y-57900000D01*
X317516700Y-60196200D02*
X317516700Y-60196300D01*
X317516700Y-60196300D02*
X316765000Y-60196300D01*
X316765000Y-60196300D02*
X314558800Y-62402500D01*
X314558800Y-62402500D02*
X314558800Y-62627300D01*
X314558800Y-62627300D02*
X313926000Y-63260100D01*
X313926000Y-63260100D02*
X313926000Y-65265200D01*
X313926000Y-65265200D02*
X326110300Y-77449500D01*
X307272600Y-57756900D02*
X307425800Y-57756900D01*
X307425800Y-57756900D02*
X307568900Y-57900000D01*
X283551100Y-41884200D02*
X283788800Y-41884200D01*
X283788800Y-41884200D02*
X286099800Y-44195200D01*
X286099800Y-44195200D02*
X286099800Y-48633100D01*
X286099800Y-48633100D02*
X288398200Y-50931500D01*
X288398200Y-50931500D02*
X309535600Y-50931500D01*
X309535600Y-50931500D02*
X314544000Y-55939900D01*
X314544000Y-55939900D02*
X314544000Y-56400000D01*
X292675000Y-38850000D02*
X290899900Y-38850000D01*
X287410800Y-37533500D02*
X289390900Y-39513600D01*
X289390900Y-39513600D02*
X290236300Y-39513600D01*
X290236300Y-39513600D02*
X290899900Y-38850000D01*
X297875000Y-37350000D02*
X311790200Y-37350000D01*
X311790200Y-37350000D02*
X313290200Y-38850000D01*
X313290200Y-38850000D02*
X316488000Y-38850000D01*
X321688000Y-37350000D02*
X339664800Y-37350000D01*
X339664800Y-37350000D02*
X341164800Y-38850000D01*
X341164800Y-38850000D02*
X345062000Y-38850000D01*
X350262000Y-37350000D02*
X352037100Y-37350000D01*
X352037100Y-37350000D02*
X352037100Y-38681500D01*
X352037100Y-38681500D02*
X352896900Y-39541300D01*
X347491300Y-46040800D02*
X347491300Y-50493100D01*
X347491300Y-50493100D02*
X341927300Y-56057100D01*
X341927300Y-56057100D02*
X341927300Y-56694000D01*
X341927300Y-56694000D02*
X343133300Y-57900000D01*
X343133300Y-57900000D02*
X345062000Y-57900000D01*
X350262000Y-56400000D02*
X352037100Y-56400000D01*
X352037100Y-56400000D02*
X352037100Y-58096200D01*
X352037100Y-58096200D02*
X352318900Y-58378000D01*
X345062000Y-76950000D02*
X343263200Y-76950000D01*
X343263200Y-76950000D02*
X337302900Y-70989700D01*
X337302900Y-70989700D02*
X337302900Y-60522600D01*
X337302900Y-60522600D02*
X337766400Y-60059100D01*
X337766400Y-60059100D02*
X345044800Y-60059100D01*
X345044800Y-60059100D02*
X345196200Y-60210500D01*
X350262000Y-75450000D02*
X352037100Y-75450000D01*
X352037100Y-75450000D02*
X352037100Y-76690800D01*
X352037100Y-76690800D02*
X352317800Y-76971500D01*
X340300000Y-100762000D02*
X337847900Y-100762000D01*
X337847900Y-100762000D02*
X335844800Y-98758900D01*
X335844800Y-98758900D02*
X335844800Y-81061700D01*
X335844800Y-81061700D02*
X337724800Y-79181700D01*
X337724800Y-79181700D02*
X341171100Y-79181700D01*
X345500000Y-99262000D02*
X347275100Y-99262000D01*
X347275100Y-99262000D02*
X351656100Y-94881000D01*
X351656100Y-94881000D02*
X358525500Y-94881000D01*
X358525500Y-94881000D02*
X359644500Y-96000000D01*
X359644500Y-96000000D02*
X364112000Y-96000000D01*
X362336900Y-76950000D02*
X362027800Y-77259100D01*
X362027800Y-77259100D02*
X362027800Y-77367500D01*
X364112000Y-76950000D02*
X362336900Y-76950000D01*
X369312000Y-94500000D02*
X369312000Y-85068100D01*
X369312000Y-85068100D02*
X368372100Y-84128200D01*
X371087100Y-75450000D02*
X371087100Y-70645300D01*
X371087100Y-70645300D02*
X364386800Y-63945000D01*
X369312000Y-75450000D02*
X371087100Y-75450000D01*
X364112000Y-57900000D02*
X362336900Y-57900000D01*
X362036500Y-57571900D02*
X362336900Y-57872300D01*
X362336900Y-57872300D02*
X362336900Y-57900000D01*
X364112000Y-38850000D02*
X362336900Y-38850000D01*
X362083900Y-39556800D02*
X362336900Y-39303800D01*
X362336900Y-39303800D02*
X362336900Y-38850000D01*
X369312000Y-56400000D02*
X369312000Y-48481800D01*
X369312000Y-48481800D02*
X366871000Y-46040800D01*
X369312000Y-37350000D02*
X378465200Y-37350000D01*
X378465200Y-37350000D02*
X379965200Y-38850000D01*
X379965200Y-38850000D02*
X383162000Y-38850000D01*
X388362000Y-37350000D02*
X390137100Y-37350000D01*
X390137100Y-37350000D02*
X390137100Y-41537500D01*
X390137100Y-41537500D02*
X388625200Y-43049400D01*
X388625200Y-43049400D02*
X388625200Y-43685700D01*
X388625200Y-43685700D02*
X387287600Y-45023300D01*
X387287600Y-45023300D02*
X387287600Y-47506700D01*
X387287600Y-47506700D02*
X379482500Y-55311800D01*
X379482500Y-55311800D02*
X379482500Y-56185900D01*
X379482500Y-56185900D02*
X381196600Y-57900000D01*
X381196600Y-57900000D02*
X383162000Y-57900000D01*
X390137100Y-56400000D02*
X390137100Y-59797200D01*
X390137100Y-59797200D02*
X388367700Y-61566600D01*
X388367700Y-61566600D02*
X388367700Y-62610200D01*
X388362000Y-56400000D02*
X390137100Y-56400000D01*
X385412000Y-64702500D02*
X385412000Y-68263400D01*
X385412000Y-68263400D02*
X379534400Y-74141000D01*
X379534400Y-74141000D02*
X379534400Y-75450400D01*
X379534400Y-75450400D02*
X381034000Y-76950000D01*
X381034000Y-76950000D02*
X383162000Y-76950000D01*
X390137100Y-75450000D02*
X395187200Y-80500100D01*
X395187200Y-80500100D02*
X395187200Y-95296000D01*
X395187200Y-95296000D02*
X393283400Y-97199800D01*
X388362000Y-75450000D02*
X390137100Y-75450000D01*
X383162000Y-96000000D02*
X381386900Y-96000000D01*
X381099700Y-95905000D02*
X381291900Y-95905000D01*
X381291900Y-95905000D02*
X381386900Y-96000000D01*
X34448800Y-69056200D02*
X33414800Y-70090200D01*
X33414800Y-70090200D02*
X31438500Y-70090200D01*
X31438500Y-70090200D02*
X30074700Y-68726400D01*
X30074700Y-68726400D02*
X30074700Y-50240400D01*
X30074700Y-50240400D02*
X30074600Y-50240400D01*
X30074600Y-50240400D02*
X28062400Y-48228200D01*
X31908800Y-69056200D02*
X31908800Y-49534600D01*
X31908800Y-49534600D02*
X28062400Y-45688200D01*
X240362000Y-83542500D02*
X240362000Y-86788000D01*
X249888000Y-102592000D02*
X249888000Y-99550500D01*
X249888000Y-99550500D02*
X250024300Y-99414200D01*
X246651000Y-107857400D02*
X249888000Y-104620400D01*
X249888000Y-104620400D02*
X249888000Y-102592000D01*
X240362000Y-83542500D02*
X240362000Y-79753400D01*
X240362000Y-79753400D02*
X239790700Y-79182100D01*
X230838000Y-64492500D02*
X230838000Y-62667400D01*
X230838000Y-62667400D02*
X231632700Y-61872700D01*
X231632700Y-61872700D02*
X231632700Y-60965100D01*
X230838000Y-64492500D02*
X230838000Y-66451000D01*
X230838000Y-66451000D02*
X238343100Y-73956100D01*
X238343100Y-73956100D02*
X238343100Y-77439300D01*
X226075000Y-45442500D02*
X226075000Y-47267600D01*
X226849700Y-55357700D02*
X226849700Y-48042300D01*
X226849700Y-48042300D02*
X226075000Y-47267600D01*
X43282400Y-45688200D02*
X44370300Y-46776100D01*
X44370300Y-46776100D02*
X44370300Y-65368400D01*
X44370300Y-65368400D02*
X42579900Y-67158800D01*
X42579900Y-67158800D02*
X42579900Y-68341200D01*
X42579900Y-68341200D02*
X43947600Y-69708900D01*
X43947600Y-69708900D02*
X43947600Y-80488600D01*
X43947600Y-80488600D02*
X42718800Y-81717400D01*
X42718800Y-83542500D02*
X42718800Y-81717400D01*
X42718800Y-97512000D02*
X42718800Y-83542500D01*
X43282400Y-63468200D02*
X42129800Y-64620800D01*
X42129800Y-64620800D02*
X42129800Y-68527700D01*
X42129800Y-68527700D02*
X43468000Y-69865900D01*
X43468000Y-69865900D02*
X43468000Y-76423500D01*
X43468000Y-76423500D02*
X41951300Y-77940200D01*
X41951300Y-77940200D02*
X41823900Y-77940200D01*
X41823900Y-77940200D02*
X38966000Y-80798100D01*
X38966000Y-80798100D02*
X38966000Y-81044900D01*
X38966000Y-81044900D02*
X35627800Y-84383100D01*
X35627800Y-84383100D02*
X35627800Y-90421000D01*
X35627800Y-90421000D02*
X31466800Y-94582000D01*
X31466800Y-94582000D02*
X31466800Y-102512000D01*
X28062400Y-63468200D02*
X27612300Y-63918300D01*
X27612300Y-63918300D02*
X27612300Y-77042900D01*
X27612300Y-77042900D02*
X26586200Y-78069000D01*
X26586200Y-78069000D02*
X26228100Y-78069000D01*
X26228100Y-78069000D02*
X24942500Y-79354600D01*
X24942500Y-79354600D02*
X24942500Y-94235700D01*
X24942500Y-94235700D02*
X28218800Y-97512000D01*
X268938000Y-102592000D02*
X268938000Y-100766900D01*
X268938000Y-100766900D02*
X269277400Y-100427500D01*
X269277400Y-100427500D02*
X269277400Y-98446900D01*
X268938000Y-103035600D02*
X268938000Y-102592000D01*
X259755800Y-87015700D02*
X259412000Y-86671900D01*
X259412000Y-86671900D02*
X259412000Y-83542500D01*
X268938000Y-103035600D02*
X268938000Y-104417100D01*
X76056200Y-83542500D02*
X70089400Y-89509300D01*
X70089400Y-89509300D02*
X70089400Y-96684600D01*
X43282400Y-48228200D02*
X42189600Y-47135400D01*
X42189600Y-47135400D02*
X42189600Y-45232400D01*
X42189600Y-45232400D02*
X42823800Y-44598200D01*
X42823800Y-44598200D02*
X43781400Y-44598200D01*
X43781400Y-44598200D02*
X46942500Y-47759300D01*
X46942500Y-47759300D02*
X46942500Y-76606100D01*
X46767900Y-97855600D02*
X46767900Y-76780700D01*
X46767900Y-76780700D02*
X46942500Y-76606100D01*
X71293800Y-64492500D02*
X68324800Y-67461500D01*
X68324800Y-67461500D02*
X66774900Y-67461500D01*
X66774900Y-67461500D02*
X58912200Y-75324200D01*
X268938000Y-104417100D02*
X270133600Y-104417100D01*
X270133600Y-104417100D02*
X272369900Y-106653400D01*
X66531200Y-100766900D02*
X67246800Y-100051300D01*
X67246800Y-100051300D02*
X67246800Y-98446900D01*
X249888000Y-64492500D02*
X249888000Y-62667400D01*
X245125000Y-45442500D02*
X245125000Y-50543800D01*
X245125000Y-50543800D02*
X249592000Y-55010800D01*
X249592000Y-55010800D02*
X249592000Y-58444700D01*
X249888000Y-62667400D02*
X250454500Y-62100900D01*
X250454500Y-62100900D02*
X250454500Y-61277500D01*
X249888000Y-64492500D02*
X249888000Y-67056600D01*
X249888000Y-67056600D02*
X260275100Y-77443700D01*
X259412000Y-83542500D02*
X259412000Y-80038600D01*
X259412000Y-80038600D02*
X258546100Y-79172700D01*
X51893400Y-48228200D02*
X53497900Y-49832700D01*
X53497900Y-49832700D02*
X64522300Y-49832700D01*
X64522300Y-49832700D02*
X68912500Y-45442500D01*
X66531200Y-102592000D02*
X66531200Y-100766900D01*
X278462000Y-83542500D02*
X274035800Y-87968700D01*
X274035800Y-87968700D02*
X274035800Y-94077200D01*
X274035800Y-94077200D02*
X275249200Y-95290600D01*
X95342300Y-52198500D02*
X92725000Y-49581200D01*
X107012000Y-83542500D02*
X107012000Y-81717400D01*
X97487500Y-64492500D02*
X97487500Y-66317600D01*
X97487500Y-66317600D02*
X103674200Y-72504300D01*
X103674200Y-72504300D02*
X113146300Y-72504300D01*
X113146300Y-72504300D02*
X113679700Y-73037700D01*
X113679700Y-73037700D02*
X113679700Y-73690100D01*
X113679700Y-73690100D02*
X113211200Y-74158600D01*
X113211200Y-74158600D02*
X113016800Y-74158600D01*
X113016800Y-74158600D02*
X111418800Y-75756600D01*
X111418800Y-75756600D02*
X111418800Y-77455500D01*
X107300200Y-80774200D02*
X107300200Y-81429200D01*
X107300200Y-81429200D02*
X107012000Y-81717400D01*
X95927100Y-60207400D02*
X97487500Y-61767800D01*
X97487500Y-61767800D02*
X97487500Y-64492500D01*
X264175000Y-45442500D02*
X264175000Y-47267600D01*
X268938000Y-64492500D02*
X268938000Y-62667400D01*
X268938000Y-62667400D02*
X268928200Y-62657600D01*
X268928200Y-62657600D02*
X268928200Y-61284800D01*
X268938000Y-64492500D02*
X268938000Y-66603200D01*
X268938000Y-66603200D02*
X279777400Y-77442600D01*
X266088100Y-55357700D02*
X266088100Y-49180700D01*
X266088100Y-49180700D02*
X264175000Y-47267600D01*
X278462000Y-83542500D02*
X278462000Y-79605400D01*
X278462000Y-79605400D02*
X278038300Y-79181700D01*
X287988000Y-102592000D02*
X287988000Y-100019700D01*
X287988000Y-100019700D02*
X286411600Y-98443300D01*
X286411600Y-98443300D02*
X284028000Y-98443300D01*
X284028000Y-98443300D02*
X284028000Y-98443200D01*
X90343800Y-102592000D02*
X90343800Y-100766900D01*
X90343800Y-100766900D02*
X92416300Y-98694400D01*
X92416300Y-98694400D02*
X92416300Y-98414000D01*
X101613600Y-95481200D02*
X100980800Y-95481200D01*
X100980800Y-95481200D02*
X100336100Y-94836500D01*
X100336100Y-94836500D02*
X100336100Y-90218400D01*
X100336100Y-90218400D02*
X107012000Y-83542500D01*
X92725000Y-45442500D02*
X92725000Y-49581200D01*
X92725000Y-49581200D02*
X91538000Y-50768200D01*
X91538000Y-50768200D02*
X53578300Y-50768200D01*
X302275000Y-83542500D02*
X298619400Y-87198100D01*
X298619400Y-87198100D02*
X298619400Y-100174400D01*
X298619400Y-100174400D02*
X299916800Y-101471800D01*
X114156000Y-102592000D02*
X114156000Y-104417100D01*
X114156000Y-104417100D02*
X126081600Y-104417100D01*
X126081600Y-104417100D02*
X130249500Y-108585000D01*
X114156000Y-101679400D02*
X114156000Y-102592000D01*
X114156000Y-101679400D02*
X114156000Y-100766900D01*
X111775000Y-47267600D02*
X108578800Y-47267600D01*
X108578800Y-47267600D02*
X102922700Y-52923700D01*
X102922700Y-52923700D02*
X53743200Y-52923700D01*
X53743200Y-52923700D02*
X53358700Y-53308200D01*
X111775000Y-47267600D02*
X111775000Y-49320300D01*
X111775000Y-49320300D02*
X115094800Y-52640100D01*
X116538000Y-64492500D02*
X116538000Y-61159200D01*
X116538000Y-61159200D02*
X117510300Y-60186900D01*
X116538000Y-64492500D02*
X116538000Y-66640600D01*
X116538000Y-66640600D02*
X126235900Y-76338500D01*
X126235900Y-76338500D02*
X126235900Y-77428000D01*
X126062000Y-83542500D02*
X126062000Y-80688900D01*
X126062000Y-80688900D02*
X124554800Y-79181700D01*
X116210200Y-98414000D02*
X116210200Y-98712700D01*
X116210200Y-98712700D02*
X114156000Y-100766900D01*
X290134700Y-61300300D02*
X289355100Y-61300300D01*
X289355100Y-61300300D02*
X287988000Y-62667400D01*
X302275000Y-83542500D02*
X302275000Y-81717400D01*
X287988000Y-64492500D02*
X287988000Y-76156300D01*
X287988000Y-76156300D02*
X289275700Y-77444000D01*
X302275000Y-81717400D02*
X302806700Y-81717400D01*
X302806700Y-81717400D02*
X304142400Y-80381700D01*
X287988000Y-64008900D02*
X287988000Y-64492500D01*
X287988000Y-64008900D02*
X287988000Y-62667400D01*
X283225000Y-45442500D02*
X283225000Y-49228400D01*
X283225000Y-49228400D02*
X292463900Y-58467300D01*
X126001500Y-95910200D02*
X126062000Y-95849700D01*
X126062000Y-95849700D02*
X126062000Y-83542500D01*
X311800000Y-107355000D02*
X311800000Y-104536000D01*
X311800000Y-104536000D02*
X311487400Y-104223400D01*
X111775000Y-45442500D02*
X111775000Y-47267600D01*
X135588000Y-64492500D02*
X135588000Y-67897500D01*
X135588000Y-67897500D02*
X145146300Y-77455800D01*
X145112000Y-83542500D02*
X145112000Y-81717400D01*
X145112000Y-81717400D02*
X145146300Y-81683100D01*
X145146300Y-81683100D02*
X145146300Y-80385300D01*
X133893700Y-60205000D02*
X135588000Y-61899300D01*
X135588000Y-61899300D02*
X135588000Y-64492500D01*
X126705000Y-49562500D02*
X122894400Y-53373100D01*
X122894400Y-53373100D02*
X111873800Y-53373100D01*
X111873800Y-53373100D02*
X111423700Y-52923000D01*
X111423700Y-52923000D02*
X103560000Y-52923000D01*
X103560000Y-52923000D02*
X102884200Y-53598800D01*
X102884200Y-53598800D02*
X54574800Y-53598800D01*
X54574800Y-53598800D02*
X52325400Y-55848200D01*
X318944000Y-64492500D02*
X318944000Y-60856200D01*
X318944000Y-60856200D02*
X319587700Y-60212500D01*
X308043000Y-50206400D02*
X303279100Y-45442500D01*
X303279100Y-45442500D02*
X302275000Y-45442500D01*
X328432700Y-76338500D02*
X318944000Y-66849800D01*
X318944000Y-66849800D02*
X318944000Y-64492500D01*
X145112000Y-83542500D02*
X142780200Y-85874300D01*
X142780200Y-85874300D02*
X142780200Y-96355200D01*
X145112000Y-102592000D02*
X145112000Y-100053900D01*
X145112000Y-100053900D02*
X143501400Y-98443300D01*
X143501400Y-98443300D02*
X141200600Y-98443300D01*
X141200600Y-98443300D02*
X141200600Y-98443200D01*
X130663600Y-53521100D02*
X126705000Y-49562500D01*
X126705000Y-49562500D02*
X130825000Y-45442500D01*
X330850000Y-107355000D02*
X326371300Y-111833700D01*
X330850000Y-106871400D02*
X330850000Y-107355000D01*
X330850000Y-106871400D02*
X330850000Y-105529900D01*
X330850000Y-88305000D02*
X330850000Y-86479900D01*
X330850000Y-86479900D02*
X334723600Y-82606300D01*
X334723600Y-82606300D02*
X334723600Y-79219100D01*
X330850000Y-88305000D02*
X330850000Y-101204100D01*
X330850000Y-101204100D02*
X331108200Y-101462300D01*
X331108200Y-103933600D02*
X331108200Y-105271700D01*
X331108200Y-105271700D02*
X330850000Y-105529900D01*
X150590000Y-108070000D02*
X151780000Y-108070000D01*
X145112000Y-102592000D02*
X150590000Y-108070000D01*
X149865900Y-54246200D02*
X112110300Y-54246200D01*
X112110300Y-54246200D02*
X111237200Y-53373100D01*
X111237200Y-53373100D02*
X103746600Y-53373100D01*
X103746600Y-53373100D02*
X102873500Y-54246200D01*
X102873500Y-54246200D02*
X55187700Y-54246200D01*
X55187700Y-54246200D02*
X52489500Y-56944400D01*
X149875000Y-45442500D02*
X149875000Y-47267600D01*
X149865900Y-54246200D02*
X150115700Y-54496000D01*
X149875000Y-47267600D02*
X149865900Y-47276700D01*
X149865900Y-47276700D02*
X149865900Y-54246200D01*
X149875000Y-45442500D02*
X149875000Y-43617400D01*
X326088000Y-45442500D02*
X321680000Y-49850500D01*
X321680000Y-49850500D02*
X309305100Y-49850500D01*
X309305100Y-49850500D02*
X305009900Y-45555300D01*
X153345200Y-37487500D02*
X155122000Y-35710700D01*
X155122000Y-35710700D02*
X286768800Y-35710700D01*
X286768800Y-35710700D02*
X289807900Y-38749800D01*
X150400700Y-42372900D02*
X150400700Y-43091700D01*
X150400700Y-43091700D02*
X149875000Y-43617400D01*
X154638000Y-64492500D02*
X154638000Y-62235300D01*
X154638000Y-62235300D02*
X156542300Y-60331000D01*
X156542300Y-60331000D02*
X157841500Y-60331000D01*
X157841500Y-60331000D02*
X158249000Y-60738500D01*
X158249000Y-60738500D02*
X158249000Y-60869400D01*
X164162000Y-83542500D02*
X164162000Y-79960000D01*
X164162000Y-79960000D02*
X163393800Y-79191800D01*
X154638000Y-64492500D02*
X154638000Y-72159400D01*
X154638000Y-72159400D02*
X154869800Y-72391200D01*
X354662000Y-83542500D02*
X354662000Y-81717400D01*
X354662000Y-81717400D02*
X355451300Y-80928100D01*
X355451300Y-80928100D02*
X355451300Y-79198700D01*
X354662000Y-83542500D02*
X354662000Y-89493000D01*
X354662000Y-89493000D02*
X347951500Y-96203500D01*
X354662000Y-64492500D02*
X354089700Y-65064800D01*
X354089700Y-65064800D02*
X354089700Y-77453500D01*
X173688000Y-64492500D02*
X173688000Y-66317600D01*
X183212000Y-83542500D02*
X183212000Y-80941900D01*
X183212000Y-80941900D02*
X181451900Y-79181800D01*
X181451900Y-79181800D02*
X180868000Y-79181800D01*
X180868000Y-79181800D02*
X180868000Y-79181700D01*
X183470700Y-74944100D02*
X174844200Y-66317600D01*
X174844200Y-66317600D02*
X173688000Y-66317600D01*
X183212000Y-83998700D02*
X183212000Y-83542500D01*
X183212000Y-83998700D02*
X183212000Y-85367600D01*
X174004000Y-58461600D02*
X168925000Y-53382600D01*
X168925000Y-53382600D02*
X168925000Y-45442500D01*
X42417600Y-107698100D02*
X41385000Y-106665500D01*
X41385000Y-106665500D02*
X41385000Y-101451400D01*
X41385000Y-101451400D02*
X44403100Y-98433300D01*
X44403100Y-98433300D02*
X44403100Y-87892100D01*
X44403100Y-87892100D02*
X45437900Y-86857300D01*
X45437900Y-86857300D02*
X45437900Y-61252700D01*
X45437900Y-61252700D02*
X45113400Y-60928200D01*
X349900000Y-107355000D02*
X349900000Y-104777900D01*
X349900000Y-104777900D02*
X348336900Y-103214800D01*
X348336900Y-103214800D02*
X347231300Y-103214800D01*
X347231300Y-103214800D02*
X347231300Y-103214700D01*
X172269400Y-60196200D02*
X173688000Y-61614800D01*
X173688000Y-61614800D02*
X173688000Y-64492500D01*
X191627600Y-92583600D02*
X184411600Y-85367600D01*
X184411600Y-85367600D02*
X183212000Y-85367600D01*
X183212000Y-102592000D02*
X183212000Y-100766900D01*
X183212000Y-100766900D02*
X184801600Y-100766900D01*
X184801600Y-100766900D02*
X187154500Y-98414000D01*
X354662000Y-62667400D02*
X354831400Y-62498000D01*
X354831400Y-62498000D02*
X354831400Y-60911300D01*
X354662000Y-64492500D02*
X354662000Y-62667400D01*
X354662000Y-45442500D02*
X354662000Y-57397800D01*
X354662000Y-57397800D02*
X353589400Y-58470400D01*
X152085204Y-109337800D02*
X151936102Y-109486902D01*
X183212000Y-102592000D02*
X176466200Y-109337800D01*
X176466200Y-109337800D02*
X152085204Y-109337800D01*
X151936102Y-109486902D02*
X149881502Y-109486902D01*
X149881502Y-109486902D02*
X149427200Y-109032600D01*
X373558300Y-102745700D02*
X373712000Y-102592000D01*
X233553000Y-106228400D02*
X240699400Y-113374800D01*
X240699400Y-113374800D02*
X362929200Y-113374800D01*
X362929200Y-113374800D02*
X373558300Y-102745700D01*
X211788000Y-103504500D02*
X212530900Y-102761600D01*
X212530900Y-102761600D02*
X212530900Y-99129800D01*
X202262000Y-83542500D02*
X202262000Y-86778400D01*
X202262000Y-86778400D02*
X212172600Y-96689000D01*
X211788000Y-102592000D02*
X211788000Y-103504500D01*
X192738000Y-64492500D02*
X192738000Y-61923800D01*
X192738000Y-61923800D02*
X191019200Y-60205000D01*
X190113100Y-55448400D02*
X187975000Y-53310300D01*
X187975000Y-53310300D02*
X187975000Y-45442500D01*
X190715400Y-73505300D02*
X192738000Y-71482700D01*
X192738000Y-71482700D02*
X192738000Y-64492500D01*
X374390800Y-80341600D02*
X373712000Y-81020400D01*
X373712000Y-81020400D02*
X373712000Y-83542500D01*
X373712000Y-45442500D02*
X373712000Y-57583000D01*
X373712000Y-57583000D02*
X372823100Y-58471900D01*
X374569400Y-60690400D02*
X373712000Y-61547800D01*
X373712000Y-61547800D02*
X373712000Y-64492500D01*
X200440500Y-79169300D02*
X202262000Y-80990800D01*
X202262000Y-80990800D02*
X202262000Y-83542500D01*
X373712000Y-64492500D02*
X373712000Y-76759800D01*
X373712000Y-76759800D02*
X373018300Y-77453500D01*
X29198600Y-57252000D02*
X29198600Y-52886400D01*
X115644679Y-111973021D02*
X117176000Y-110441700D01*
X25393600Y-59842800D02*
X25393600Y-77781400D01*
X29198600Y-52886400D02*
X28503100Y-52190900D01*
X26502700Y-53324400D02*
X26502700Y-58733700D01*
X205763400Y-110441700D02*
X211788000Y-104417100D01*
X25393600Y-77781400D02*
X24165800Y-79009200D01*
X26502700Y-58733700D02*
X25393600Y-59842800D01*
X24165800Y-79009200D02*
X24165800Y-105150500D01*
X211788000Y-104417100D02*
X211788000Y-103504500D01*
X28503100Y-52190900D02*
X27636200Y-52190900D01*
X30988321Y-111973021D02*
X115644679Y-111973021D01*
X24165800Y-105150500D02*
X30988321Y-111973021D01*
X27636200Y-52190900D02*
X26502700Y-53324400D01*
X117176000Y-110441700D02*
X205763400Y-110441700D01*
X28062400Y-58388200D02*
X29198600Y-57252000D01*
X384853200Y-88043200D02*
X376387600Y-88043200D01*
X390137200Y-98649200D02*
X390137200Y-93327200D01*
X390137200Y-93327200D02*
X384853200Y-88043200D01*
X389009100Y-99777300D02*
X390137200Y-98649200D01*
X389009100Y-100094500D02*
X389009100Y-99777300D01*
X386352100Y-102751500D02*
X389009100Y-100094500D01*
X376387600Y-88043200D02*
X373712000Y-85367600D01*
X386352100Y-104554400D02*
X386352100Y-102751500D01*
X383936300Y-106970200D02*
X386352100Y-104554400D01*
X373712000Y-85367600D02*
X373712000Y-83542500D01*
X377782700Y-106970200D02*
X383936300Y-106970200D01*
X373558300Y-102745700D02*
X377782700Y-106970200D01*
X392762000Y-64492500D02*
X392762000Y-45442500D01*
X392762000Y-97929200D02*
X393585900Y-97929200D01*
X393585900Y-97929200D02*
X395653200Y-95861900D01*
X395653200Y-95861900D02*
X395653200Y-74251500D01*
X395653200Y-74251500D02*
X392762000Y-71360300D01*
X392762000Y-71360300D02*
X392762000Y-64492500D01*
X392762000Y-85367600D02*
X392558300Y-85571300D01*
X392558300Y-85571300D02*
X392558300Y-97725500D01*
X392558300Y-97725500D02*
X392762000Y-97929200D01*
X392762000Y-97929200D02*
X392762000Y-100766900D01*
X392762000Y-84455000D02*
X392762000Y-83542500D01*
X392762000Y-84455000D02*
X392762000Y-85367600D01*
X392762000Y-102592000D02*
X392762000Y-100766900D01*
X230838000Y-104417100D02*
X230838000Y-104538800D01*
X230838000Y-104538800D02*
X240124100Y-113824900D01*
X240124100Y-113824900D02*
X381529100Y-113824900D01*
X381529100Y-113824900D02*
X392762000Y-102592000D01*
X230838000Y-104417100D02*
X224954800Y-104417100D01*
X224954800Y-104417100D02*
X220384200Y-99846500D01*
X220384200Y-99846500D02*
X220384200Y-99749600D01*
X230838000Y-102592000D02*
X230838000Y-104417100D01*
X221312000Y-83542500D02*
X215229000Y-89625500D01*
X215229000Y-89625500D02*
X215229000Y-96600100D01*
X215229000Y-96600100D02*
X214997700Y-96831400D01*
X214997700Y-96831400D02*
X213393900Y-96831400D01*
X213393900Y-96831400D02*
X213209100Y-96646600D01*
X219492500Y-79181700D02*
X221312000Y-81001200D01*
X221312000Y-81001200D02*
X221312000Y-83542500D01*
X211788000Y-64492500D02*
X207871400Y-68409100D01*
X207871400Y-68409100D02*
X207871400Y-76280300D01*
X207871400Y-76280300D02*
X209006700Y-77415600D01*
X211788000Y-64492500D02*
X211788000Y-61580700D01*
X211788000Y-61580700D02*
X212027600Y-61341100D01*
X207025000Y-45442500D02*
X207025000Y-47267600D01*
X207025000Y-47267600D02*
X210366000Y-50608600D01*
X210366000Y-50608600D02*
X210366000Y-57237100D01*
X29572200Y-105875400D02*
X28848400Y-106599200D01*
X26772700Y-78519100D02*
X26414600Y-78519100D01*
X28848400Y-106599200D02*
X28848400Y-109192800D01*
X25392600Y-79541100D02*
X25392600Y-90895000D01*
X115590587Y-109936913D02*
X152122502Y-109936913D01*
X208035200Y-99918300D02*
X209563900Y-98389600D01*
X205378100Y-104618000D02*
X205378100Y-102751500D01*
X31178610Y-111523010D02*
X114004490Y-111523010D01*
X29572200Y-95074600D02*
X29572200Y-105875400D01*
X29162200Y-72041800D02*
X28062400Y-73141600D01*
X209563900Y-98389600D02*
X219024200Y-98389600D01*
X28062400Y-73141600D02*
X28062400Y-77229400D01*
X25392600Y-90895000D02*
X29572200Y-95074600D01*
X29162200Y-62028000D02*
X29162200Y-72041800D01*
X200079200Y-109916900D02*
X205378100Y-104618000D01*
X114004490Y-111523010D02*
X115590587Y-109936913D01*
X28062400Y-60928200D02*
X29162200Y-62028000D01*
X219024200Y-98389600D02*
X220384200Y-99749600D01*
X26414600Y-78519100D02*
X25392600Y-79541100D01*
X152122502Y-109936913D02*
X152142515Y-109916900D01*
X28848400Y-109192800D02*
X31178610Y-111523010D01*
X205378100Y-102751500D02*
X208035200Y-100094400D01*
X152142515Y-109916900D02*
X200079200Y-109916900D01*
X28062400Y-77229400D02*
X26772700Y-78519100D01*
X208035200Y-100094400D02*
X208035200Y-99918300D01*
X43282400Y-40608200D02*
X39472400Y-44418200D01*
X39472400Y-44418200D02*
X27726500Y-44418200D01*
X27726500Y-44418200D02*
X25841600Y-46303100D01*
X25841600Y-46303100D02*
X25841600Y-58370900D01*
X25841600Y-58370900D02*
X23812500Y-60400000D01*
M02*
